<svg width="364" height="248" viewBox="0 0 364 248" fill="none" xmlns="http://www.w3.org/2000/svg">
<path d="M0.000713745 112.373L20.5428 111.663L41.0869 111.024L82.1523 109.864L164.273 107.645L205.348 106.579L225.88 106.075L236.142 105.85C239.571 105.769 242.977 105.701 246.391 105.655C253.238 105.552 260.072 105.479 266.888 105.443C273.726 105.393 280.552 105.374 287.392 105.329L307.906 105.232C311.324 105.21 314.729 105.218 318.109 105.311C321.484 105.402 324.854 105.625 328.149 106.026C331.44 106.429 334.701 107.046 337.84 107.959C340.958 108.88 343.971 110.066 346.704 111.635C348.067 112.416 349.385 113.294 350.567 114.27C351.778 115.236 352.876 116.289 353.818 117.453C354.765 118.614 355.543 119.862 356.049 121.205C356.314 121.871 356.481 122.576 356.59 123.272C356.699 123.968 356.734 124.694 356.683 125.421C356.637 126.151 356.532 126.872 356.37 127.589C356.184 128.318 355.953 129.008 355.651 129.723C355.058 131.104 354.223 132.444 353.224 133.635C352.718 134.246 352.189 134.789 351.599 135.333C351.301 135.591 351.004 135.849 350.706 136.107L350.462 136.295L350.223 136.481C350.066 136.588 349.893 136.725 349.736 136.832C348.419 137.756 346.999 138.545 345.488 139.159C343.982 139.771 342.432 140.196 340.833 140.483C339.227 140.75 337.59 140.852 335.962 140.823C332.684 140.77 329.44 140.198 326.251 139.379C323.058 138.561 319.953 137.509 316.843 136.378C313.739 135.25 310.66 134.037 307.478 132.936C306.683 132.658 305.89 132.383 305.076 132.141C304.667 132.008 304.265 131.893 303.864 131.783L302.649 131.43C301.053 130.93 299.42 130.498 297.811 130.053C294.574 129.175 291.298 128.361 288.019 127.599C274.884 124.532 261.5 122.34 248.066 120.544C241.342 119.662 234.596 118.893 227.846 118.172C221.095 117.451 214.344 116.81 207.564 116.176L197.41 115.218L192.335 114.741L189.798 114.5L187.24 114.296C180.455 113.79 173.628 113.48 166.802 113.267C159.983 113.056 153.144 112.949 146.311 112.87C139.49 112.812 132.647 112.782 125.809 112.831C112.118 112.905 98.4528 113.126 84.7345 113.589C91.579 113.466 98.4174 113.417 105.264 113.39C112.091 113.375 118.945 113.37 125.771 113.427C139.418 113.546 153.077 113.788 166.688 114.351C170.084 114.489 173.482 114.647 176.877 114.861C180.264 115.053 183.664 115.291 187.032 115.586L189.562 115.804L192.075 116.054L197.145 116.583L207.257 117.657C220.757 119.095 234.213 120.549 247.596 122.438C250.94 122.899 254.295 123.406 257.606 123.928C259.264 124.199 260.924 124.474 262.603 124.737C264.271 125.034 265.93 125.305 267.573 125.611C274.189 126.811 280.77 128.149 287.267 129.72C290.522 130.491 293.748 131.323 296.961 132.209C298.57 132.654 300.178 133.095 301.75 133.604L302.94 133.965C303.341 134.076 303.726 134.221 304.127 134.332C304.917 134.583 305.677 134.844 306.476 135.121C309.572 136.227 312.651 137.44 315.792 138.581C318.93 139.727 322.108 140.828 325.424 141.679C328.735 142.531 332.168 143.162 335.729 143.216C337.496 143.245 339.323 143.131 341.118 142.847C342.901 142.541 344.681 142.06 346.389 141.376C348.097 140.692 349.7 139.791 351.197 138.748C351.378 138.633 351.58 138.485 351.754 138.347L352.018 138.151L352.274 137.934C352.646 137.649 352.985 137.351 353.328 137.052C353.998 136.433 354.63 135.774 355.218 135.083C356.374 133.709 357.334 132.172 358.036 130.55C358.392 129.74 358.677 128.899 358.873 128.044C359.069 127.189 359.211 126.324 359.268 125.468C359.372 123.729 359.107 121.97 358.505 120.357C357.903 118.743 356.995 117.288 355.948 115.985C354.871 114.693 353.641 113.505 352.353 112.465C351.053 111.404 349.642 110.487 348.168 109.64C345.231 107.967 342.042 106.691 338.748 105.732C335.449 104.774 332.07 104.124 328.636 103.721C325.23 103.308 321.777 103.089 318.34 102.991C314.908 102.896 311.454 102.905 308.032 102.929L287.511 103.074C273.83 103.174 260.139 103.323 246.448 103.629C232.756 103.931 219.048 104.345 205.371 104.768L184.83 105.402L164.293 106.063C136.908 106.976 109.534 107.91 82.1385 108.953L61.593 109.744L41.0582 110.553C27.39 111.079 13.7117 111.655 0.000713745 112.373ZM337.288 118.233C336.566 117.3 336.684 115.911 337.636 114.276C337.036 114.464 336.472 114.69 335.903 114.969C331.444 117.168 328.813 121.913 328.328 126.502C327.782 131.623 329.139 135.277 332.223 136.898C333.795 137.706 335.799 138.01 338.226 137.704C338.407 136.728 338.984 135.758 339.931 135.294C340.907 134.82 342.154 134.963 342.916 135.604C343.152 135.798 343.346 136.033 343.477 136.32C347.287 134.732 350.511 131.887 351.854 128.132C353.344 123.946 352.168 119.159 348.823 116.339C347.984 115.62 346.968 115.045 345.92 114.603C346.051 115.751 345.65 116.983 344.807 117.895C343.677 119.108 341.937 119.626 340.327 119.49C338.834 119.359 337.841 118.927 337.288 118.233ZM341.907 123.774C342.752 122.461 344.187 122.026 345.611 122.354C346.918 122.653 347.823 123.319 348.386 124.187C349.115 125.375 349.164 127.009 348.516 128.861C347.932 130.516 346.745 131.804 345.26 131.772C343.861 131.763 342.374 130.49 341.691 128.804C340.974 127.104 341.093 125.082 341.907 123.774ZM337.014 130.772C336.395 131.858 335.243 132.775 333.946 132.882C332.727 132.987 331.542 132.315 331.066 131.29C330.587 130.27 330.855 128.98 331.683 128.102C332.506 127.197 333.793 126.815 334.999 126.922C336.093 127.013 336.853 127.351 337.252 127.846C337.804 128.537 337.698 129.567 337.014 130.772ZM324.94 122.781C312.428 120.839 299.866 119.067 287.285 117.399C280.994 116.565 274.679 115.82 268.372 115.093C262.065 114.37 255.732 113.729 249.398 113.163C243.048 112.633 236.705 112.198 230.333 111.853C223.965 111.502 217.572 111.241 211.187 111.002C198.408 110.574 185.623 110.299 172.809 110.243C185.624 110.223 198.426 110.39 211.206 110.742C217.599 110.927 223.984 111.166 230.366 111.461C236.75 111.777 243.126 112.149 249.468 112.657C255.81 113.169 262.159 113.775 268.5 114.439C274.816 115.108 281.148 115.826 287.448 116.606C300.069 118.155 312.649 119.819 325.188 121.68C325.515 121.74 325.73 122.018 325.649 122.351C325.607 122.624 325.294 122.837 324.94 122.781Z" fill="white"/>
</svg>
