<svg width="272" height="387" viewBox="0 0 272 387" fill="none" xmlns="http://www.w3.org/2000/svg">
<path d="M184.391 290.427H106.406C95.875 290.427 87.3281 281.88 87.3281 271.344V197.901C87.3281 187.365 95.875 178.812 106.406 178.812H184.391C194.922 178.812 203.464 187.365 203.464 197.901V271.344C203.448 281.88 194.922 290.427 184.391 290.427Z" fill="white"/>
<path d="M184.391 292.537H106.406C94.7292 292.537 85.224 283.026 85.224 271.344V197.901C85.224 186.219 94.7292 176.708 106.406 176.708H184.391C196.068 176.708 205.568 186.219 205.568 197.901V271.344C205.557 283.026 196.068 292.537 184.391 292.537ZM106.406 180.932C97.0469 180.932 89.4375 188.547 89.4375 197.912V271.354C89.4375 280.719 97.0469 288.333 106.406 288.333H184.391C193.75 288.333 201.359 280.719 201.359 271.354V197.912C201.359 188.547 193.75 180.932 184.391 180.932H106.406Z" fill="#371A45"/>
<path d="M241.839 237.245C240.151 243.208 237.031 248.49 235.505 249.359C231.896 251.443 195.708 242.01 195.708 242.01C195.708 242.01 197.13 249.203 198.516 258.62C200.792 274.229 202.937 295.974 198.198 301.245C190.604 309.698 157.891 316.984 135.458 313.427C122.885 311.438 106.734 309.5 98.3489 300.161C92.6875 293.854 93.3698 281.813 93.6198 278.219C93.6614 277.641 93.7031 277.281 93.6875 277.203C93.6354 276.865 93.7916 274.385 94.0416 270.896C94.2916 267.526 94.6354 263.229 94.9635 259.016C95.5989 251.099 96.2395 243.526 96.2968 243.25C96.401 242.667 82.7343 246.396 66.1093 248.766C58.776 249.807 53.4166 243.76 49.7083 236.688C45.0208 227.734 42.9948 217.115 42.9948 217.115C53.6979 221.25 79.3541 213.245 92.0937 208.74C96.6354 207.13 99.5312 205.984 99.5312 205.984C150.057 246.448 190.458 204.156 190.458 204.156C190.641 204.698 192.854 205.786 196.198 207.146C206.479 211.307 227.422 217.922 232.792 218.484C243.719 219.672 244.141 229.089 241.839 237.245Z" fill="white"/>
<path d="M241.839 237.245C240.151 243.208 237.031 248.49 235.505 249.359C231.896 251.443 195.708 242.01 195.708 242.01C195.708 242.01 197.13 249.203 198.516 258.62C198.182 258.474 197.88 258.318 197.604 258.146C192.693 255.01 187.271 240.01 191.287 232.99C194.396 227.536 207.557 235.094 220.839 236.911C230.396 238.255 238.203 237.677 241.839 237.245Z" fill="#371A45" fill-opacity="0.349"/>
<path d="M97.9531 258.948L94.9792 259.052C95.6094 251.141 96.2552 243.563 96.3073 243.287C96.4115 242.709 82.75 246.438 66.125 248.808C58.7917 249.849 53.4323 243.802 49.7188 236.729C55.224 238.375 69.2813 241.943 79.9167 239.115C93.4375 235.516 99.4792 229.959 100.953 236.005C102.734 243.365 97.9531 258.948 97.9531 258.948Z" fill="#371A45" fill-opacity="0.349"/>
<path d="M196.198 207.172C194.198 223.031 171.594 235.515 144.016 235.515C117.37 235.515 95.375 223.849 92.0938 208.765C96.6354 207.156 99.5313 206.01 99.5313 206.01C150.057 246.474 190.458 204.182 190.458 204.182C190.641 204.724 192.854 205.818 196.198 207.172Z" fill="#371A45" fill-opacity="0.349"/>
<path d="M212.823 166.562L210.531 166.922C209.875 167.026 209.271 166.578 209.162 165.917L202.912 125.745C202.807 125.088 203.255 124.479 203.912 124.375L206.203 124.021C213.047 122.953 219.443 127.641 220.51 134.479L223.276 152.234C224.344 159.094 219.656 165.5 212.823 166.562Z" fill="white"/>
<path d="M210.333 167.198C210.031 167.198 209.729 167.104 209.479 166.922C209.161 166.698 208.953 166.354 208.901 165.974L202.646 125.797C202.531 125.01 203.068 124.26 203.859 124.125L206.151 123.771C209.521 123.245 212.901 124.062 215.667 126.088C218.432 128.104 220.234 131.078 220.76 134.453L223.526 152.208C224.052 155.594 223.234 158.963 221.208 161.729C219.193 164.495 216.219 166.302 212.849 166.828L210.557 167.182C210.495 167.198 210.411 167.198 210.333 167.198ZM208.151 124.151C207.516 124.151 206.875 124.203 206.24 124.297L203.948 124.651C203.437 124.734 203.094 125.208 203.172 125.719L209.427 165.891C209.469 166.141 209.599 166.354 209.797 166.5C209.995 166.646 210.245 166.708 210.495 166.672L212.781 166.312C216.021 165.812 218.865 164.073 220.802 161.427C222.734 158.781 223.526 155.542 223.01 152.302L220.25 134.547C219.75 131.302 218.01 128.458 215.365 126.521C213.245 124.958 210.729 124.151 208.151 124.151Z" fill="#371A45"/>
<path d="M221.958 143.792L222.948 150.151C224.182 158.146 218.719 165.64 210.719 166.896C209.953 167.01 209.245 166.484 209.125 165.724L207.479 155.146C207.766 155.594 208.307 155.854 208.859 155.765L209.807 155.62C216.125 154.646 220.865 149.755 221.958 143.792Z" fill="#371A45" fill-opacity="0.349"/>
<path d="M210.333 169.052C209.635 169.052 208.964 168.828 208.401 168.422C207.688 167.896 207.214 167.13 207.083 166.26L200.828 126.088C200.552 124.286 201.792 122.599 203.583 122.323L205.875 121.963C209.745 121.359 213.599 122.307 216.76 124.615C219.917 126.917 221.984 130.318 222.589 134.187L225.354 151.943C225.958 155.818 225.016 159.677 222.708 162.838C220.406 166 217.01 168.068 213.141 168.672L210.849 169.026C210.677 169.042 210.505 169.052 210.333 169.052ZM205.135 126.338L211.099 164.708L212.495 164.495C215.245 164.062 217.667 162.588 219.313 160.349C220.958 158.094 221.63 155.344 221.198 152.588L218.432 134.833C217.995 132.083 216.521 129.656 214.286 128.01C212.031 126.365 209.281 125.693 206.531 126.13L205.135 126.338Z" fill="#371A45"/>
<path d="M70.8073 145.12L73.099 144.766C73.7552 144.661 74.3646 145.109 74.4688 145.766L80.724 185.937C80.8282 186.599 80.3802 187.203 79.7188 187.307L77.4323 187.667C70.5834 188.734 64.1875 184.042 63.1198 177.208L60.3542 159.453C59.2917 152.604 63.9792 146.187 70.8073 145.12Z" fill="white"/>
<path d="M75.4844 188.073C72.7969 188.073 70.1771 187.229 67.9635 185.609C65.2031 183.594 63.3958 180.62 62.8698 177.245L60.1042 159.489C59.026 152.51 63.8073 145.953 70.7812 144.87L73.0729 144.516C73.4531 144.463 73.8385 144.557 74.151 144.781C74.4687 145.005 74.6771 145.344 74.7344 145.729L80.9844 185.901C81.1042 186.693 80.5625 187.443 79.776 187.557L77.4844 187.917C76.8125 188.021 76.1406 188.073 75.4844 188.073ZM70.8594 145.385C64.1719 146.427 59.5781 152.719 60.6198 159.401L63.3854 177.156C63.8854 180.396 65.6198 183.239 68.2708 185.177C70.9167 187.109 74.151 187.901 77.3906 187.391L79.6823 187.031C80.1927 186.953 80.5365 186.479 80.4583 185.963L74.2031 145.792C74.1667 145.542 74.0365 145.333 73.8385 145.187C73.6406 145.042 73.3906 144.974 73.1406 145.016L70.8594 145.385Z" fill="#371A45"/>
<path d="M78.9687 174.703L80.6823 185.74C80.802 186.505 80.276 187.219 79.5104 187.333C75.3125 187.979 71.2552 186.797 68.1614 184.344C65.3698 182.136 63.3698 178.906 62.7812 175.115L61.8854 169.396C64.9375 174.057 70.5312 176.761 76.3906 175.849L77.8385 175.625C78.4062 175.537 78.802 175.167 78.9687 174.703Z" fill="#371A45" fill-opacity="0.349"/>
<path d="M75.4687 189.917C72.3906 189.917 69.401 188.943 66.8593 187.099C63.6979 184.792 61.6354 181.396 61.026 177.521L58.2656 159.766C57.026 151.787 62.5 144.276 70.4791 143.042L72.7708 142.682C73.6406 142.552 74.5104 142.766 75.2187 143.276C75.9322 143.802 76.4062 144.568 76.5364 145.438L82.7864 185.609C83.0624 187.417 81.8281 189.099 80.0364 189.375L77.7447 189.734C76.9947 189.865 76.2343 189.917 75.4687 189.917ZM71.1406 147.203C65.4531 148.083 61.552 153.432 62.4375 159.109L65.2031 176.865C65.6354 179.62 67.1093 182.042 69.3489 183.688C71.5989 185.333 74.3489 186.005 77.0989 185.573L78.4947 185.359L72.5312 146.99L71.1406 147.203Z" fill="#371A45"/>
<path d="M210.375 155.844C210.375 158.088 210.266 160.328 210.047 162.568C209.823 164.802 209.495 167.021 209.057 169.224C208.62 171.427 208.073 173.604 207.422 175.75C206.771 177.901 206.016 180.015 205.156 182.088C204.297 184.161 203.339 186.193 202.281 188.172C201.224 190.156 200.068 192.078 198.823 193.948C197.573 195.812 196.24 197.614 194.818 199.354C193.391 201.088 191.885 202.75 190.297 204.338C188.708 205.927 187.047 207.432 185.313 208.859C183.578 210.281 181.776 211.62 179.911 212.87C178.047 214.114 176.12 215.271 174.141 216.328C172.161 217.385 170.135 218.344 168.063 219.208C165.984 220.068 163.875 220.823 161.729 221.474C159.578 222.125 157.401 222.672 155.203 223.109C153 223.547 150.781 223.875 148.547 224.094C146.313 224.318 144.073 224.427 141.828 224.427C139.583 224.427 137.344 224.318 135.109 224.094C132.875 223.875 130.656 223.547 128.458 223.109C126.255 222.672 124.078 222.125 121.932 221.474C119.781 220.823 117.672 220.068 115.599 219.208C113.526 218.344 111.495 217.385 109.516 216.328C107.536 215.271 105.615 214.114 103.75 212.87C101.88 211.62 100.078 210.281 98.3438 208.859C96.6094 207.432 94.9479 205.927 93.3594 204.338C91.7708 202.75 90.2656 201.088 88.8438 199.354C87.4167 197.614 86.0833 195.812 84.8333 193.948C83.5885 192.078 82.4375 190.156 81.375 188.172C80.3177 186.193 79.3594 184.161 78.5 182.088C77.6406 180.015 76.8854 177.901 76.2344 175.75C75.5833 173.604 75.0365 171.427 74.599 169.224C74.1615 167.021 73.8333 164.802 73.6146 162.568C73.3958 160.328 73.2812 158.088 73.2812 155.844C73.2812 153.599 73.3958 151.354 73.6146 149.12C73.8333 146.885 74.1615 144.667 74.599 142.463C75.0365 140.26 75.5833 138.083 76.2344 135.932C76.8854 133.786 77.6406 131.672 78.5 129.599C79.3594 127.521 80.3177 125.495 81.375 123.51C82.4375 121.531 83.5885 119.609 84.8333 117.739C86.0833 115.87 87.4167 114.068 88.8438 112.333C90.2656 110.599 91.7708 108.937 93.3594 107.349C94.9479 105.76 96.6094 104.25 98.3438 102.828C100.078 101.401 101.88 100.068 103.75 98.8175C105.615 97.5675 107.536 96.4165 109.516 95.3592C111.495 94.2967 113.526 93.3384 115.599 92.479C117.672 91.6196 119.781 90.8644 121.932 90.2134C124.078 89.5623 126.255 89.0155 128.458 88.578C130.656 88.1405 132.875 87.8071 135.109 87.5884C137.344 87.3696 139.583 87.2603 141.828 87.2603C144.073 87.2603 146.313 87.3696 148.547 87.5884C150.781 87.8071 153 88.1405 155.203 88.578C157.401 89.0155 159.578 89.5623 161.729 90.2134C163.875 90.8644 165.984 91.6196 168.063 92.479C170.135 93.3384 172.161 94.2967 174.141 95.3592C176.12 96.4165 178.047 97.5675 179.911 98.8175C181.776 100.068 183.578 101.401 185.313 102.828C187.047 104.25 188.708 105.76 190.297 107.349C191.885 108.937 193.391 110.599 194.818 112.333C196.24 114.068 197.573 115.87 198.823 117.739C200.068 119.609 201.224 121.531 202.281 123.51C203.339 125.495 204.297 127.521 205.156 129.599C206.016 131.672 206.771 133.786 207.422 135.932C208.073 138.083 208.62 140.26 209.057 142.463C209.495 144.667 209.823 146.885 210.047 149.12C210.266 151.354 210.375 153.599 210.375 155.844Z" fill="white"/>
<path d="M141.708 224.703C125.479 224.703 109.932 219.026 97.3854 208.422C83.3542 196.542 74.7865 179.922 73.2448 161.583C70.0833 123.755 98.2708 90.3959 136.078 87.2344C154.401 85.7032 172.214 91.3959 186.245 103.276C200.276 115.156 208.849 131.781 210.385 150.115C211.917 168.432 206.229 186.271 194.354 200.307C182.479 214.349 165.865 222.927 147.542 224.464C145.609 224.625 143.646 224.703 141.708 224.703ZM141.932 87.5105C140.01 87.5105 138.062 87.5886 136.13 87.7448C98.6094 90.8803 70.6354 123.979 73.7708 161.531C75.2969 179.724 83.8021 196.224 97.7292 208.016C111.656 219.802 129.339 225.453 147.516 223.927C165.698 222.412 182.193 213.891 193.974 199.953C205.755 186.021 211.401 168.328 209.875 150.141C208.349 131.948 199.844 115.448 185.917 103.656C173.474 93.1459 158.047 87.5105 141.932 87.5105Z" fill="#371A45"/>
<path d="M208.687 140.724C209.385 143.776 209.859 146.912 210.135 150.125C213.281 187.875 185.255 221.026 147.542 224.188C109.812 227.339 76.6823 199.297 73.5208 161.557C73.427 160.479 73.3645 159.386 73.3229 158.307C80.7083 191.193 111.38 214.417 145.911 211.531C182.531 208.474 210.021 177.104 208.687 140.724Z" fill="#371A45" fill-opacity="0.349"/>
<path d="M141.708 226.547C125.047 226.547 109.078 220.724 96.2031 209.833C81.7864 197.636 72.9947 180.568 71.4166 161.745C68.1614 122.901 97.1093 88.6564 135.932 85.4012C154.729 83.8335 173.026 89.6824 187.443 101.865C201.859 114.052 210.651 131.136 212.229 149.953C213.812 168.776 207.953 187.073 195.776 201.495C183.583 215.917 166.526 224.719 147.713 226.297C145.698 226.469 143.698 226.547 141.708 226.547ZM141.932 89.3543C140.068 89.3543 138.172 89.4324 136.286 89.5887C99.7812 92.646 72.5572 124.849 75.6145 161.391C77.0885 179.089 85.3697 195.146 98.927 206.604C112.474 218.078 129.677 223.573 147.37 222.094C165.062 220.62 181.109 212.333 192.562 198.771C204.031 185.214 209.521 168 208.047 150.297C206.568 132.594 198.292 116.542 184.729 105.078C172.62 94.8439 157.615 89.3543 141.932 89.3543Z" fill="#371A45"/>
<path d="M210.057 151.906C211.375 165.26 208.271 178.088 201.87 189.088C197.078 197.333 175.568 213.047 147.385 216.088C121.255 218.906 96.0833 207.318 89.7656 200.177C81.3385 190.656 75.7865 178.682 74.4531 165.328C70.9688 129.989 99.8646 112.323 137.313 108.625C174.781 104.911 206.568 116.552 210.057 151.906Z" fill="#371A45"/>
<path d="M139.286 216.786C116.161 216.786 95.2031 206.698 89.5833 200.349C80.8125 190.432 75.4948 178.328 74.2188 165.338C72.5573 148.547 77.9948 134.927 90.3854 124.891C101.323 116.026 117.552 110.297 137.302 108.349C157.047 106.396 174.083 108.823 186.547 115.38C200.661 122.797 208.661 135.083 210.323 151.88C211.599 164.864 208.771 177.771 202.109 189.219C197.656 196.87 176.396 213.229 147.422 216.354C144.698 216.641 141.974 216.786 139.286 216.786ZM150.161 108.213C146.042 108.213 141.766 108.427 137.354 108.875C117.714 110.823 101.589 116.5 90.7135 125.297C78.4688 135.219 73.0885 148.677 74.7344 165.286C76.0104 178.156 81.276 190.156 89.974 199.995C96.1771 207.016 121.359 218.63 147.37 215.828C176.161 212.719 197.25 196.516 201.661 188.943C208.271 177.588 211.083 164.802 209.807 151.917C208.161 135.307 200.266 123.167 186.313 115.844C176.714 110.797 164.38 108.213 150.161 108.213Z" fill="#371A45"/>
<path d="M137.448 108.703C134.339 109.005 131.271 109.375 128.281 109.807C131.234 109.307 134.245 108.911 137.328 108.609C140.328 108.323 143.276 108.109 146.198 108.016C143.318 108.187 140.406 108.411 137.448 108.703Z" fill="#293856"/>
<path d="M128.323 110.073L128.245 109.547C131.115 109.057 134.156 108.651 137.302 108.349C140.344 108.042 143.328 107.844 146.187 107.755L146.214 108.281C143.318 108.438 140.38 108.677 137.474 108.964C134.365 109.281 131.286 109.651 128.323 110.073Z" fill="#371A45"/>
<path d="M210.349 158.99C210.161 169.776 207.135 180.052 201.87 189.089C197.078 197.333 175.568 213.047 147.385 216.089C121.255 218.906 96.0833 207.318 89.7656 200.177C82.75 192.25 77.7344 182.636 75.4844 171.927C77.6823 174.719 80.3125 177.328 83.3021 179.698C89.8854 184.912 116.635 192.922 144.859 189.943C175.307 186.729 198.99 174.125 204.411 167.708C206.792 164.932 208.781 162.005 210.349 158.99Z" fill="#111A28" fill-opacity="0.349"/>
<path d="M77.9063 135.573L76.5104 134.61L75.2188 133.912C85.0417 115.854 106.813 104.302 136.536 101.354C165.708 98.4689 189.073 105.25 202.344 120.438L201.188 121.453L200.292 122.807L200.078 122.651L199.974 122.531C187.401 108.136 164.984 101.735 136.865 104.516C108.208 107.344 87.3021 118.328 78.0104 135.427L77.9063 135.573ZM76.5104 134.61L76.599 134.677L76.5104 134.61Z" fill="#371A45"/>
<path d="M170.266 288.573L121.99 288.729C118.859 288.745 116.302 286.203 116.292 283.067L116.187 249.911C116.172 246.776 118.713 244.224 121.844 244.208L170.12 244.052C173.25 244.036 175.807 246.583 175.818 249.713L175.922 282.87C175.937 286.015 173.396 288.557 170.266 288.573Z" fill="white"/>
<path d="M121.964 288.995C120.385 288.995 118.896 288.375 117.776 287.266C116.646 286.146 116.026 284.662 116.026 283.068L115.922 249.912C115.922 248.318 116.526 246.833 117.646 245.698C118.766 244.568 120.255 243.948 121.844 243.948L170.12 243.787H170.13C173.411 243.787 176.068 246.448 176.083 249.714L176.188 282.87C176.203 286.146 173.542 288.823 170.266 288.833L121.99 288.995C121.979 288.995 121.964 288.995 121.964 288.995ZM170.13 244.318H170.12L121.844 244.474C120.396 244.474 119.042 245.052 118.016 246.078C116.99 247.11 116.438 248.479 116.438 249.927L116.542 283.078C116.542 284.526 117.12 285.886 118.146 286.912C119.172 287.927 120.516 288.464 121.99 288.495L170.266 288.333C173.25 288.323 175.672 285.886 175.661 282.896L175.557 249.74C175.542 246.74 173.109 244.318 170.13 244.318Z" fill="#371A45"/>
<path d="M175.922 283.146C175.938 286.135 173.526 288.557 170.542 288.573L121.688 288.729C118.698 288.745 116.276 286.333 116.276 283.344L116.25 273.557C117.214 275.031 118.885 275.995 120.781 275.995L154.443 275.885C155.203 275.885 155.667 275.016 155.219 274.411C154.625 273.594 154.161 272.646 153.885 271.604C152.703 267.104 155.375 262.49 159.875 261.307C164.365 260.12 168.974 262.797 170.172 267.302C170.828 269.818 170.292 272.37 168.88 274.344C168.432 274.979 168.854 275.849 169.63 275.849C172.62 275.833 175.031 273.411 175.016 270.422L174.938 246.5C175.505 247.344 175.818 248.359 175.818 249.438L175.922 283.146Z" fill="#371A45" fill-opacity="0.349"/>
<path d="M141.818 288.375C141.234 288.375 140.76 287.901 140.76 287.318L140.708 271.292C140.708 270.432 140.01 269.734 139.146 269.734L133.656 269.75H133.641C132.667 269.75 131.745 269.37 131.062 268.682C130.365 268 129.979 267.078 129.979 266.089L129.901 243.182L141.672 243.141C142.25 243.141 142.724 243.62 142.724 244.198C142.724 244.776 142.25 245.25 141.672 245.25L132.01 245.276L132.073 266.073C132.073 266.495 132.245 266.88 132.536 267.182C132.823 267.469 133.219 267.641 133.641 267.641L139.13 267.63H139.146C141.156 267.63 142.802 269.26 142.818 271.292L142.87 287.318C142.87 287.901 142.406 288.375 141.818 288.375Z" fill="#371A45"/>
<path d="M168.906 265.484C168.906 265.938 168.865 266.385 168.776 266.828C168.688 267.271 168.557 267.703 168.38 268.125C168.208 268.542 167.995 268.938 167.745 269.318C167.495 269.693 167.208 270.042 166.885 270.365C166.568 270.682 166.219 270.969 165.844 271.219C165.464 271.474 165.068 271.682 164.651 271.859C164.229 272.031 163.802 272.161 163.354 272.25C162.911 272.339 162.464 272.385 162.01 272.385C161.557 272.385 161.109 272.339 160.661 272.25C160.219 272.161 159.786 272.031 159.37 271.859C158.953 271.682 158.552 271.474 158.177 271.219C157.802 270.969 157.453 270.682 157.13 270.365C156.813 270.042 156.526 269.693 156.276 269.318C156.021 268.938 155.813 268.542 155.635 268.125C155.464 267.703 155.333 267.271 155.245 266.828C155.156 266.385 155.109 265.938 155.109 265.484C155.109 265.031 155.156 264.578 155.245 264.135C155.333 263.693 155.464 263.26 155.635 262.839C155.813 262.422 156.021 262.026 156.276 261.646C156.526 261.271 156.813 260.922 157.13 260.599C157.453 260.281 157.802 259.995 158.177 259.745C158.552 259.49 158.953 259.281 159.37 259.104C159.786 258.932 160.219 258.802 160.661 258.714C161.109 258.625 161.557 258.578 162.01 258.578C162.464 258.578 162.911 258.625 163.354 258.714C163.802 258.802 164.229 258.932 164.651 259.104C165.068 259.281 165.464 259.49 165.844 259.745C166.219 259.995 166.568 260.281 166.885 260.599C167.208 260.922 167.495 261.271 167.745 261.646C167.995 262.026 168.208 262.422 168.38 262.839C168.557 263.26 168.688 263.693 168.776 264.135C168.865 264.578 168.906 265.031 168.906 265.484Z" fill="#21A4D8"/>
<path d="M162.01 273.963C160.536 273.963 159.073 273.568 157.755 272.807C155.797 271.672 154.401 269.828 153.823 267.641C153.245 265.453 153.547 263.161 154.693 261.213C155.823 259.25 157.667 257.854 159.849 257.276C164.365 256.078 169.01 258.792 170.208 263.307C171.411 267.828 168.698 272.474 164.182 273.677C163.469 273.87 162.734 273.963 162.01 273.963ZM162.021 260.161C161.573 260.161 161.115 260.213 160.667 260.333C159.297 260.703 158.141 261.568 157.427 262.797C156.719 264.021 156.521 265.453 156.891 266.823C157.255 268.193 158.125 269.354 159.349 270.068C160.573 270.776 162.01 270.974 163.38 270.604C166.208 269.854 167.906 266.943 167.156 264.099C166.526 261.739 164.38 260.161 162.021 260.161Z" fill="#371A45"/>
<path d="M122.401 290.573C118.016 290.573 114.448 287.016 114.432 282.63L114.328 250.36C114.318 245.964 117.885 242.38 122.266 242.365L169.672 242.208C169.682 242.208 169.682 242.208 169.698 242.208C174.083 242.208 177.651 245.766 177.661 250.151L177.766 282.422C177.781 286.818 174.224 290.401 169.828 290.417L122.427 290.573C122.411 290.573 122.411 290.573 122.401 290.573ZM169.698 245.896H169.682L122.281 246.052C119.922 246.068 118 247.99 118.016 250.349L118.12 282.62C118.135 284.974 120.042 286.886 122.401 286.886H122.411L169.818 286.729C172.172 286.714 174.094 284.792 174.083 282.432L173.974 250.162C173.964 247.807 172.052 245.896 169.698 245.896Z" fill="#371A45"/>
<path d="M56.526 219.25L56.1979 215.047C56.3958 215.037 76.5468 213.365 95.2552 205.037L96.9635 208.886C77.5885 217.511 57.3802 219.172 56.526 219.25Z" fill="#371A45"/>
<path d="M59.8698 251.469L59.5938 247.266C59.776 247.255 78.7344 245.948 95.0729 241.537L96.1615 245.604C79.4167 250.125 60.6615 251.417 59.8698 251.469Z" fill="#371A45"/>
<path d="M253.042 238.677C252.198 247.662 246.271 256.063 235.766 255.104C229.766 254.552 225.172 247.266 226.974 238.693C227 238.547 227.042 238.401 227.068 238.271C229.661 227.063 239.943 224.886 239.943 224.886L236.625 218.698C248.724 218.156 253.974 228.761 253.042 238.677Z" fill="white"/>
<path d="M237.385 257.292C236.797 257.292 236.187 257.26 235.573 257.208C232.479 256.922 229.635 255.234 227.568 252.427C224.776 248.651 223.812 243.484 224.906 238.271C227.594 225.479 239.005 222.938 239.495 222.833C240.625 222.594 241.745 223.318 241.995 224.464C242.229 225.599 241.505 226.719 240.375 226.953C239.979 227.047 231.135 229.104 229.026 239.141C228.172 243.182 228.885 247.12 230.948 249.927C232.292 251.745 234.068 252.839 235.953 253.01C242.479 253.599 246.156 250.109 248.104 247.083C251.734 241.391 252 232.802 248.708 227.099C246.958 224.057 243.443 220.516 236.714 220.818C235.547 220.87 234.568 219.974 234.516 218.818C234.464 217.656 235.359 216.667 236.531 216.615C243.443 216.302 249.062 219.276 252.37 225.005C256.464 232.094 256.161 242.339 251.656 249.375C248.339 254.521 243.323 257.292 237.385 257.292Z" fill="#371A45"/>
<path d="M253.042 238.677C252.198 247.661 246.271 256.063 235.766 255.104C229.766 254.552 225.172 247.266 226.974 238.693C227 238.547 227.042 238.401 227.068 238.271L227.974 237.609C227.974 237.609 230.885 244.036 241.573 243.422C248.052 243.036 251.406 240.573 253.042 238.677Z" fill="#371A45" fill-opacity="0.349"/>
<path d="M236.557 220.776C235.573 220.672 212.177 218.104 190.219 205.146L192.365 201.51C213.536 214.01 236.771 216.562 236.995 216.588L236.557 220.776Z" fill="#371A45"/>
<path d="M226.906 251.099C226.766 251.083 211.849 249.214 195.156 244.708L196.25 240.641C212.651 245.068 227.266 246.896 227.411 246.911L226.906 251.099Z" fill="#371A45"/>
<path d="M96.0156 298.344C95.1093 298.344 94.2656 297.75 93.9896 296.828C86.9739 272.724 94.6614 239.995 94.9896 238.615C95.2656 237.479 96.401 236.781 97.5312 237.057C98.6666 237.333 99.3593 238.469 99.0833 239.599C99.0052 239.927 91.3333 272.635 98.0312 295.656C98.3593 296.776 97.7187 297.948 96.5989 298.266C96.4114 298.318 96.2135 298.344 96.0156 298.344Z" fill="#371A45"/>
<path d="M196.906 304.588C196.594 304.588 196.276 304.521 195.974 304.364C194.932 303.849 194.5 302.583 195.026 301.547C200.12 291.245 194.51 252.177 191.917 237.995C191.708 236.849 192.474 235.755 193.615 235.542C194.76 235.333 195.854 236.099 196.068 237.245C196.458 239.375 205.568 289.771 198.802 303.417C198.432 304.151 197.682 304.588 196.906 304.588Z" fill="#371A45"/>
<path d="M199 270.922H176.99C176.396 270.922 175.922 270.448 175.922 269.854V259.224C175.922 258.63 176.396 258.156 176.99 258.156H199C201.75 258.156 203.979 260.385 203.979 263.135V265.932C203.979 268.682 201.75 270.922 199 270.922Z" fill="white"/>
<path d="M197.604 273.031H176.911C175.214 273.031 173.818 271.646 173.818 269.932V259.136C173.818 257.432 175.198 256.037 176.911 256.037H197.604C202.281 256.037 206.083 259.844 206.083 264.521C206.083 269.224 202.281 273.031 197.604 273.031ZM178.031 268.813H197.604C199.964 268.813 201.87 266.906 201.87 264.547C201.87 262.188 199.964 260.281 197.604 260.281H178.031V268.813Z" fill="#371A45"/>
<path d="M93.177 258.156H115.187C115.776 258.156 116.25 258.63 116.25 259.224V269.854C116.25 270.448 115.776 270.922 115.187 270.922H93.177C90.4218 270.922 88.1979 268.698 88.1979 265.943V263.151C88.1979 260.385 90.4218 258.156 93.177 258.156Z" fill="white"/>
<path d="M116.25 269.854V277.177C116.25 277.755 115.776 278.234 115.187 278.234H93.6198C93.6614 277.651 93.7031 277.297 93.6875 277.219C93.6354 276.875 93.7916 274.401 94.0416 270.906H115.187C115.776 270.922 116.25 270.448 116.25 269.854Z" fill="#371A45" fill-opacity="0.349"/>
<path d="M198.12 269.854V277.177C198.12 277.755 197.646 278.234 197.052 278.234H175.49C175.531 277.651 175.568 277.297 175.557 277.219C175.505 276.875 175.661 274.401 175.911 270.906H197.052C197.63 270.922 198.12 270.448 198.12 269.854Z" fill="#371A45" fill-opacity="0.349"/>
<path d="M115.266 273.031H94.5677C89.8958 273.031 86.0938 269.224 86.0938 264.547C86.0938 259.87 89.8958 256.062 94.5677 256.062H115.266C116.964 256.062 118.359 257.448 118.359 259.161V269.958C118.359 271.635 116.974 273.031 115.266 273.031ZM94.5677 260.266C92.2135 260.266 90.3073 262.187 90.3073 264.531C90.3073 266.891 92.2292 268.802 94.5677 268.802H114.146V260.255H94.5677V260.266Z" fill="#371A45"/>
<path d="M222.052 288.662C225.422 286.135 230.172 289.151 229.292 293.276C222.052 327.021 199.74 357.104 166.13 372.958C108.932 399.938 40.7031 375.396 13.7552 318.167C6.91147 303.625 3.38022 288.375 2.86981 273.281C2.27606 255.787 5.72397 238.479 12.7448 222.714C17.5729 211.833 24.1146 201.677 32.1875 192.698C34.5417 190.073 38.8594 191.776 38.8073 195.302C38.6615 204.682 39.6615 214.167 41.9011 223.542C43.7031 231.104 46.2969 238.573 49.7448 245.88C53.0625 252.917 57 259.464 61.4636 265.469C71.3229 278.745 83.7604 289.453 97.7188 297.188C98.7813 297.776 99.8646 298.359 100.943 298.912C112.5 304.839 125.005 308.792 137.906 310.552C149.766 312.177 161.958 311.953 174.042 309.714C182.547 308.13 190.984 305.578 199.224 301.953C200.198 301.531 201.161 301.099 202.12 300.636C205.792 298.896 209.333 297 212.745 294.932C215.969 292.995 219.078 290.901 222.052 288.662Z" fill="#FFA726"/>
<path d="M100.927 298.911C42.4687 284.042 34.9114 211.995 29.5677 207.214C23.8541 202.099 13.6093 223.375 13.6093 223.375L12.7291 222.714C17.5625 211.833 24.1041 201.677 32.1718 192.698C34.5156 190.089 38.8489 191.76 38.7916 195.266C38.5156 212.219 42.0208 229.5 49.7343 245.87C60.9375 269.646 79.2448 287.766 100.927 298.911Z" fill="white" fill-opacity="0.349"/>
<path d="M117.146 386.13C103.521 386.13 89.8958 383.708 76.7865 378.849C47.7083 368.062 24.4844 346.51 11.4271 318.156C-8.08333 275.797 -0.552086 226.005 30.6198 191.302C32.2917 189.442 34.8594 188.838 37.1771 189.745C39.4896 190.656 40.9531 192.854 40.9115 195.344C40.6354 212.453 44.2031 229.036 51.4948 244.656C77.5625 300.437 144.25 324.927 200.161 299.255C207.464 295.896 214.417 291.771 220.786 286.989C223.026 285.307 226.016 285.198 228.37 286.713C230.766 288.239 231.922 291.036 231.318 293.812C227.578 311.187 219.813 327.719 208.859 341.625C197.354 356.234 182.901 367.588 165.88 375.396C150.307 382.552 133.734 386.13 117.146 386.13ZM34.974 193.541C34.6094 193.541 34.1458 193.656 33.7396 194.12C3.69791 227.562 -3.56771 275.557 15.2448 316.39C41.1354 372.594 107.917 397.354 164.13 371.562C196.682 356.63 219.667 327.969 227.214 292.916L229.266 293.364L227.214 292.916C227.552 291.338 226.448 290.479 226.104 290.255C225.766 290.047 224.578 289.416 223.313 290.349C216.693 295.317 209.495 299.594 201.911 303.073C173.646 316.047 142.104 317.323 113.094 306.666C84.0781 296.015 60.8438 274.625 47.6823 246.437C40.1094 230.234 36.4115 213.021 36.7031 195.265C36.7135 194.172 35.8854 193.765 35.6354 193.656C35.5052 193.62 35.2656 193.541 34.974 193.541Z" fill="#371A45"/>
<path d="M42.9687 263.802C43.6041 264.646 44.1666 265.531 44.6562 266.463C45.1406 267.391 45.5416 268.349 45.8541 269.338C46.1718 270.323 46.3958 271.318 46.526 272.318C46.6614 273.318 46.6979 274.312 46.6406 275.292C46.5885 276.271 46.4374 277.219 46.1979 278.141C45.9531 279.062 45.6249 279.937 45.2083 280.76C44.7864 281.583 44.2916 282.349 43.7135 283.047C43.1302 283.745 42.4843 284.364 41.7656 284.911C41.052 285.458 40.276 285.917 39.4479 286.286C38.6197 286.656 37.7552 286.932 36.8489 287.114C35.9427 287.297 35.0104 287.38 34.0624 287.364C33.1093 287.354 32.1562 287.239 31.1979 287.031C30.2395 286.823 29.2916 286.521 28.3645 286.125C27.4322 285.729 26.5364 285.245 25.6718 284.677C24.8072 284.109 23.9947 283.463 23.2291 282.745C22.4635 282.026 21.7604 281.25 21.1197 280.406C20.4843 279.568 19.9218 278.682 19.4322 277.75C18.9479 276.818 18.5468 275.859 18.2343 274.875C17.9166 273.891 17.6927 272.896 17.5624 271.896C17.427 270.891 17.3906 269.901 17.4479 268.922C17.4999 267.943 17.651 266.989 17.8906 266.068C18.1354 265.151 18.4635 264.276 18.8802 263.453C19.302 262.625 19.7968 261.864 20.3749 261.167C20.9583 260.469 21.6041 259.844 22.3229 259.302C23.0364 258.755 23.8124 258.297 24.6406 257.927C25.4687 257.557 26.3333 257.281 27.2395 257.099C28.151 256.917 29.0781 256.833 30.026 256.844C30.9791 256.859 31.9322 256.969 32.8906 257.182C33.8489 257.391 34.7968 257.693 35.7239 258.088C36.6562 258.484 37.552 258.969 38.4166 259.536C39.2812 260.104 40.0937 260.745 40.8593 261.463C41.625 262.182 42.3281 262.963 42.9687 263.802Z" fill="#B97631"/>
<path d="M17.9427 263.771C18.6511 260.489 20.323 257.552 22.9584 255.417C29.8542 249.823 40.6875 251.891 47.1771 260.031C53.6563 268.167 53.3282 279.297 46.4271 284.896C43.4271 287.333 39.6771 288.323 35.8438 287.979C38.2657 287.729 40.573 286.833 42.5209 285.25C48.6667 280.26 48.9688 270.328 43.1771 263.057C37.4011 255.786 27.724 253.943 21.5625 258.937C19.9688 260.255 18.7448 261.911 17.9427 263.771Z" fill="white" fill-opacity="0.349"/>
<path d="M21.4584 280.708C23.7084 283.078 26.448 284.922 29.448 285.859C32.4219 286.807 35.6459 286.833 38.3855 285.755C41.1355 284.672 43.323 282.474 44.4688 279.786C45.6511 277.099 45.7448 273.953 45.0886 270.99C43.7292 265.062 39.0052 259.792 33.0938 258.104C30.1563 257.224 26.9323 257.344 24.1407 258.646C21.3125 259.896 19.0886 262.411 17.9167 265.453L17.9011 265.495C17.7969 265.771 17.4792 265.917 17.1927 265.812C16.9271 265.708 16.7813 265.417 16.8646 265.141C17.1146 264.297 17.3125 263.427 17.6927 262.609C18.0469 261.792 18.5105 261.005 19.0209 260.266C20.073 258.776 21.4688 257.542 23.0782 256.604C26.2865 254.745 30.2657 254.271 33.8438 255.156C35.6459 255.578 37.3855 256.234 38.9792 257.172C40.5573 258.12 42.0209 259.266 43.323 260.557C44.599 261.885 45.7032 263.359 46.625 264.969C47.5105 266.589 48.2084 268.328 48.6563 270.13C49.099 271.937 49.2344 273.833 49.1146 275.714C48.9844 277.589 48.573 279.484 47.7709 281.234C46.1771 284.714 43.1511 287.625 39.4896 288.797C37.6771 289.401 35.7657 289.609 33.9115 289.521C32.0521 289.385 30.25 288.943 28.5677 288.255C25.2084 286.833 22.3646 284.448 20.3907 281.552C20.1823 281.234 20.2605 280.812 20.573 280.604C20.849 280.417 21.2188 280.469 21.4584 280.708Z" fill="#371A45"/>
<path d="M59.3229 322.036C59.875 322.385 60.3906 322.781 60.875 323.219C61.3541 323.656 61.7916 324.13 62.1823 324.635C62.5781 325.146 62.9166 325.677 63.2031 326.24C63.4948 326.797 63.7239 327.37 63.901 327.958C64.0729 328.547 64.1875 329.135 64.2396 329.729C64.2916 330.323 64.2812 330.911 64.2083 331.49C64.1406 332.068 64.0052 332.625 63.8177 333.167C63.625 333.703 63.375 334.213 63.0677 334.693C62.7656 335.172 62.4062 335.615 62 336.016C61.5937 336.422 61.1458 336.776 60.651 337.083C60.1562 337.396 59.6302 337.651 59.0729 337.854C58.5104 338.057 57.9271 338.208 57.3229 338.297C56.7187 338.391 56.0989 338.422 55.4739 338.396C54.8437 338.37 54.2187 338.286 53.5885 338.146C52.9635 338.005 52.3489 337.812 51.75 337.562C51.151 337.312 50.5729 337.01 50.0208 336.656C49.4739 336.307 48.9531 335.911 48.4739 335.474C47.9948 335.036 47.5573 334.562 47.1666 334.057C46.7708 333.547 46.4323 333.016 46.1406 332.458C45.8541 331.896 45.625 331.323 45.4479 330.734C45.276 330.151 45.1614 329.557 45.1094 328.963C45.0573 328.37 45.0677 327.781 45.1354 327.203C45.2083 326.625 45.3385 326.068 45.5312 325.531C45.7239 324.99 45.9739 324.479 46.276 324C46.5833 323.521 46.9375 323.078 47.3489 322.677C47.7552 322.276 48.2031 321.917 48.6979 321.609C49.1875 321.302 49.7187 321.042 50.276 320.838C50.8385 320.635 51.4219 320.49 52.026 320.396C52.6302 320.307 53.25 320.271 53.875 320.297C54.5052 320.323 55.1302 320.406 55.7552 320.547C56.3854 320.687 56.9948 320.88 57.5989 321.13C58.1979 321.385 58.7708 321.682 59.3229 322.036Z" fill="#FFA726"/>
<path d="M65.3177 331.011C65.4531 333.287 64.5416 335.698 62.8177 337.386C61.9635 338.229 60.9374 338.912 59.8177 339.386C58.6979 339.86 57.4999 340.099 56.302 340.177C53.8906 340.349 51.4947 339.688 49.4062 338.532C48.3749 337.912 47.4166 337.188 46.5729 336.334C45.7447 335.464 44.9947 334.5 44.4427 333.422C43.3333 331.271 42.8229 328.719 43.3489 326.24C43.8749 323.792 45.4166 321.568 47.5208 320.287C49.6145 318.995 52.1041 318.589 54.3802 318.917C55.526 319.089 56.6302 319.407 57.6562 319.88C58.6822 320.37 59.6197 321 60.4479 321.724C60.6458 321.896 60.6718 322.198 60.4999 322.396C60.3541 322.568 60.1041 322.604 59.9114 322.5L59.8958 322.49C58.9999 321.99 58.0677 321.594 57.1197 321.302C56.1562 321.037 55.1822 320.88 54.2239 320.88C52.2864 320.828 50.4166 321.407 48.9583 322.448C47.5208 323.526 46.5468 325.094 46.2708 326.808C46.0104 328.521 46.3489 330.349 47.2187 331.943C47.6666 332.735 48.1927 333.474 48.8229 334.146C49.4583 334.802 50.2083 335.37 50.9843 335.86C52.552 336.818 54.3802 337.37 56.2239 337.396C58.052 337.438 59.8958 336.886 61.3437 335.75C62.8333 334.646 63.8177 332.907 64.1458 330.943C64.2031 330.63 64.5052 330.407 64.8177 330.459C65.0937 330.511 65.3072 330.745 65.3177 331.011Z" fill="#371A45"/>
<path d="M72.4479 291.88C72.7292 292.14 72.9844 292.427 73.2136 292.739C73.4427 293.047 73.6354 293.375 73.8021 293.724C73.9688 294.068 74.099 294.422 74.1979 294.792C74.2917 295.156 74.3542 295.531 74.375 295.906C74.4011 296.281 74.3854 296.651 74.3386 297.021C74.2865 297.39 74.1979 297.745 74.0781 298.094C73.9583 298.443 73.8021 298.776 73.6094 299.088C73.4219 299.401 73.2031 299.693 72.9531 299.958C72.7031 300.229 72.4323 300.469 72.1302 300.677C71.8333 300.89 71.5156 301.073 71.1771 301.219C70.8385 301.364 70.4844 301.474 70.125 301.552C69.7604 301.63 69.3906 301.672 69.0156 301.672C68.6354 301.677 68.2656 301.646 67.8906 301.573C67.5156 301.505 67.1511 301.401 66.7969 301.26C66.4427 301.12 66.099 300.948 65.7761 300.739C65.4479 300.536 65.1458 300.302 64.8646 300.042C64.5781 299.776 64.3229 299.489 64.099 299.182C63.8698 298.87 63.6719 298.542 63.5052 298.198C63.3386 297.854 63.2083 297.495 63.1146 297.13C63.0156 296.76 62.9583 296.39 62.9323 296.015C62.9115 295.64 62.9219 295.271 62.974 294.901C63.0208 294.531 63.1094 294.172 63.2292 293.823C63.3542 293.479 63.5104 293.146 63.6979 292.833C63.8854 292.521 64.1042 292.229 64.3542 291.958C64.6042 291.693 64.8802 291.453 65.1771 291.239C65.4792 291.031 65.7969 290.849 66.1354 290.703C66.474 290.557 66.8229 290.443 67.1875 290.364C67.5521 290.292 67.9219 290.25 68.2969 290.245C68.6719 290.245 69.0469 290.276 69.4167 290.344C69.7917 290.417 70.1563 290.521 70.5104 290.661C70.8698 290.802 71.2083 290.974 71.5365 291.177C71.8594 291.385 72.1667 291.62 72.4479 291.88Z" fill="#B97631"/>
<path d="M74.6667 298.662C74.3125 300.057 73.3386 301.323 72.0313 302.099C70.7292 302.901 69.1094 303.177 67.5834 302.943C66.0417 302.719 64.6094 301.943 63.5053 300.833C62.4219 299.714 61.6459 298.25 61.4375 296.672C61.224 295.104 61.5261 293.443 62.3855 292.073C63.2396 290.719 64.5678 289.693 66.0678 289.255C67.5573 288.807 69.1615 288.927 70.5209 289.495C71.8907 290.057 73.0209 291.073 73.7032 292.287C73.8125 292.469 73.7448 292.719 73.5625 292.828C73.4011 292.917 73.2032 292.88 73.0886 292.761C71.3334 291.011 68.7448 290.453 66.7813 291.297C65.8073 291.708 65.0053 292.443 64.5157 293.328C64.0573 294.224 63.8438 295.261 64.0157 296.276C64.3073 298.318 65.9636 300.125 68.0157 300.636C69.0469 300.886 70.1615 300.859 71.1771 300.438C72.2188 300.057 73.1146 299.281 73.7448 298.25V298.24C73.8907 298 74.1928 297.938 74.4167 298.083C74.625 298.224 74.7032 298.448 74.6667 298.662Z" fill="#371A45"/>
<path d="M61.4479 265.469C57.6042 265.089 50.4167 263.073 44.4011 254.037C35.7136 240.985 32.7396 222.464 33.4219 217.141C33.7396 214.625 37.7552 218.631 41.8854 223.542C43.6927 231.104 46.2865 238.573 49.7344 245.881C53.0521 252.917 56.9844 259.448 61.4479 265.469Z" fill="#293856"/>
<path d="M62.0156 265.787L61.4219 265.735C57.6042 265.349 50.2865 263.333 44.1771 254.182C35.6198 241.339 32.4115 222.953 33.1615 217.115C33.2396 216.458 33.5677 216.219 33.8177 216.156C34.5677 215.932 36.2396 216.443 42.0833 223.386L42.1354 223.49C43.9531 231.104 46.5885 238.615 49.9583 245.776C53.1979 252.651 57.1302 259.24 61.6458 265.323L62.0156 265.787ZM34.0937 216.63C34.0417 216.63 34 216.63 33.974 216.641C33.8177 216.682 33.724 216.865 33.6875 217.167C33.0417 222.266 35.9792 240.891 44.625 253.88C50.2969 262.401 57.026 264.599 60.8854 265.125C56.4844 259.146 52.6667 252.703 49.4948 245.99C46.1146 238.807 43.4792 231.302 41.651 223.662C36.4531 217.485 34.6719 216.63 34.0937 216.63Z" fill="#371A45"/>
<path d="M102.323 365.729C100.677 364.333 99.2813 362.557 98.3855 360.474C97.9532 359.432 97.625 358.328 97.5053 357.193L97.4115 356.338C97.3855 356.047 97.349 355.76 97.375 355.484C97.4115 354.917 97.3855 354.323 97.4792 353.755C97.7969 351.463 98.7032 349.265 99.9948 347.406C101.297 345.536 102.927 343.958 104.719 342.625C105.182 342.312 105.615 341.953 106.089 341.677L107.526 340.833C108.51 340.349 109.5 339.823 110.537 339.463C111.552 339.031 112.62 338.739 113.672 338.427C114.198 338.265 114.74 338.177 115.276 338.057C115.818 337.937 116.344 337.818 116.896 337.755L118.531 337.531L120.172 337.422L120.99 337.37H121.818C122.375 337.385 122.912 337.37 123.464 337.396C125.662 337.542 127.849 337.87 129.995 338.463C132.125 339.099 134.193 339.953 136.141 341.099C138.089 342.234 139.88 343.719 141.344 345.526C142.802 347.328 143.922 349.489 144.412 351.833C144.922 354.167 144.74 356.63 143.99 358.854C143.24 361.078 141.99 363.057 140.422 364.661C138.87 366.281 137.089 367.599 135.182 368.656C133.271 369.708 131.245 370.443 129.177 371C127.109 371.552 124.995 371.776 122.901 371.87C122.557 371.88 122.255 371.62 122.24 371.276C122.229 370.974 122.438 370.708 122.729 370.63L122.781 370.614C123.766 370.38 124.771 370.26 125.729 369.958C126.219 369.812 126.703 369.708 127.177 369.547L128.589 369.047C130.427 368.323 132.234 367.51 133.839 366.39C135.443 365.297 136.917 364.042 138.104 362.594C139.287 361.146 140.208 359.526 140.672 357.812C141.146 356.099 141.146 354.323 140.724 352.651C140.318 350.979 139.448 349.411 138.276 348.068C137.089 346.734 135.667 345.552 134.047 344.63C132.432 343.708 130.677 343.01 128.849 342.495C127.005 342.021 125.125 341.703 123.214 341.588C122.74 341.562 122.255 341.573 121.781 341.562L121.057 341.547L120.333 341.588L118.896 341.667L117.474 341.849C117 341.901 116.526 341.979 116.052 342.073C115.578 342.167 115.104 342.234 114.646 342.349C113.724 342.599 112.792 342.823 111.906 343.182C110.115 343.812 108.391 344.64 106.828 345.698C105.26 346.734 103.839 347.989 102.703 349.422C101.547 350.859 100.719 352.521 100.349 354.281C100.229 354.719 100.219 355.177 100.141 355.625C100.089 355.849 100.099 356.073 100.099 356.297V356.984C100.099 357.906 100.297 358.812 100.547 359.698C101.089 361.489 102.099 363.161 103.375 364.651C103.651 364.979 103.625 365.469 103.297 365.755C103.047 365.979 102.615 365.979 102.323 365.729Z" fill="#371A45"/>
<path d="M222.052 288.661C219.078 290.89 215.969 292.995 212.745 294.948C209.427 301.161 205.531 307.088 201.068 312.635C201.224 312.765 201.385 312.927 201.516 313.083C202.042 313.661 202.396 314.307 202.594 314.979C202.396 314.297 202.042 313.661 201.516 313.083C201.37 312.927 201.224 312.781 201.068 312.635C199.964 311.661 198.422 311.031 196.646 310.724C197.604 307.5 198.49 304.51 199.224 301.953C190.984 305.578 182.547 308.13 174.042 309.713C161.958 311.953 149.766 312.177 137.906 310.552C125.005 308.792 112.5 304.838 100.943 298.911C99.8646 298.359 98.7813 297.776 97.7188 297.187C97.8594 302.193 99.0053 325.818 108.578 340.89C102.625 343.682 98.7188 348.265 97.9115 353.229C65.6198 348.552 35.1459 330.021 15.6927 299.739C10.2552 291.286 6.00004 282.396 2.88025 273.292C3.39587 288.401 6.92192 303.64 13.7709 318.182C40.7292 375.411 108.948 399.937 166.146 372.958C199.714 357.13 222.026 327.073 229.276 293.364C230.162 289.203 225.458 286.109 222.052 288.661ZM191.641 326.937C191.682 326.927 191.708 326.911 191.745 326.911C191.708 326.911 191.667 326.927 191.641 326.937ZM195.146 325.515C194.896 325.651 194.646 325.765 194.396 325.885C194.646 325.765 194.896 325.651 195.146 325.515ZM193.922 326.099C193.724 326.177 193.537 326.265 193.339 326.333C193.526 326.255 193.724 326.177 193.922 326.099ZM192.828 326.531C192.641 326.599 192.458 326.661 192.287 326.729C192.458 326.661 192.641 326.599 192.828 326.531Z" fill="#371A45" fill-opacity="0.349"/>
<path d="M179.823 315.427C181.557 313.662 183.703 312.333 185.995 311.37C187.141 310.87 188.339 310.526 189.562 310.214C190.802 309.948 192.052 309.776 193.339 309.74C194.63 309.714 195.932 309.818 197.234 310.136C198.542 310.448 199.854 310.974 201.026 311.938C202.187 312.885 203.083 314.349 203.292 315.927C203.516 317.511 203.135 319.037 202.5 320.287C201.87 321.552 201.016 322.604 200.078 323.526C199.146 324.448 198.12 325.255 197.026 325.912C194.854 327.271 192.474 328.177 190.021 328.729C187.562 329.261 185.005 329.375 182.495 328.891C181.255 328.615 180.005 328.193 178.911 327.479C177.807 326.781 176.859 325.755 176.411 324.505C176.318 324.255 176.453 323.99 176.703 323.896C176.911 323.818 177.146 323.912 177.266 324.109L177.281 324.12C177.818 325.057 178.687 325.714 179.661 326.162C180.635 326.599 181.719 326.849 182.807 326.953C183.917 327.047 185.021 327.021 186.125 326.886C187.234 326.74 188.323 326.521 189.406 326.214C190.469 325.886 191.526 325.505 192.536 325.031C193.052 324.818 193.526 324.531 194.026 324.292C194.5 324 194.984 323.74 195.422 323.422C197.224 322.214 198.844 320.672 199.698 318.917C200.104 318.047 200.318 317.167 200.214 316.391C200.104 315.615 199.714 314.901 199.042 314.333C198.38 313.755 197.484 313.307 196.5 313.031C195.51 312.755 194.448 312.609 193.354 312.557C191.167 312.505 188.932 312.818 186.76 313.479C184.573 314.099 182.495 315.073 180.599 316.365H180.583C180.323 316.547 179.953 316.469 179.766 316.203C179.599 315.927 179.625 315.615 179.823 315.427Z" fill="#371A45"/>
<path d="M141.516 339.073C137.391 348.188 121.266 353.927 114.5 339.662C109.75 329.651 108.167 316.521 107.589 308.448C107.354 305.021 107.286 302.505 107.234 301.521L104.443 295.25C104.443 295.25 104.995 270.12 128.469 275.583C140.62 278.417 145 292.417 145.724 306.76C146.396 320.146 143.88 333.828 141.516 339.073Z" fill="white"/>
<path d="M141.516 339.073C137.391 348.187 121.266 353.927 114.5 339.661C109.75 329.651 108.167 316.521 107.589 308.448C111.01 316.625 119.198 324.437 129.255 323.37C138.458 322.396 143.698 311.896 145.74 306.76C146.396 320.146 143.88 333.828 141.516 339.073Z" fill="#371A45" fill-opacity="0.349"/>
<path d="M108.828 318.787C108.443 318.787 108.063 318.667 107.75 318.432C106.932 317.823 106.745 316.677 107.354 315.849C107.865 315.151 120.203 298.766 146.568 306.417C147.542 306.708 148.109 307.724 147.818 308.698C147.531 309.672 146.516 310.24 145.542 309.964C121.62 303.021 110.432 317.88 110.328 318.021C109.958 318.521 109.391 318.787 108.828 318.787Z" fill="#371A45"/>
<path d="M128.255 349.266C121.609 349.266 115.964 345.38 112.734 338.583C105.245 322.792 104.125 300.583 104.115 300.359C104.099 300.188 104.115 300.016 104.151 299.859C104.073 299.859 104.01 299.859 103.932 299.859C102.771 299.766 101.901 298.755 101.995 297.594C102.037 297.016 103.193 283.182 112.234 276.453C116.75 273.083 122.375 272.109 128.917 273.531C135.063 274.859 139.813 278.823 143.068 285.307C151.635 302.375 147.146 331.708 143.422 339.938C140.922 345.458 134.88 349.214 128.401 349.266C128.349 349.266 128.307 349.266 128.255 349.266ZM106.219 298.146C107.339 298.146 108.276 299.031 108.328 300.162C108.339 300.375 109.406 321.74 116.542 336.766C119.99 344.021 125.438 345.104 128.365 345.052C133.167 345.01 137.776 342.193 139.578 338.203C143.25 330.099 146.938 302.443 139.287 287.203C136.63 281.922 132.839 278.708 127.995 277.651C122.688 276.495 118.224 277.229 114.74 279.828C107.234 285.396 106.182 297.792 106.167 297.922C106.167 298 106.156 298.083 106.141 298.162C106.182 298.162 106.208 298.146 106.219 298.146Z" fill="#371A45"/>
<path d="M190.802 300.74C190.802 300.74 195.734 269.224 166.5 275.662C142.964 280.854 147.687 327.995 152.427 338.927C156.401 348.104 172.437 354.115 179.427 339.953C186.417 325.807 187.099 305.235 187.312 301.943L190.802 300.74Z" fill="white"/>
<path d="M185.167 321.474C184.599 321.474 184.047 321.208 183.677 320.724C183.219 320.088 171.99 305.38 149.042 310.568C148.057 310.792 147.068 310.172 146.844 309.172C146.62 308.182 147.24 307.198 148.24 306.974C173.62 301.229 186.141 317.823 186.667 318.536C187.271 319.354 187.088 320.51 186.271 321.12C185.927 321.354 185.547 321.474 185.167 321.474Z" fill="#371A45"/>
<path d="M165.615 348.687C165.365 348.687 165.115 348.687 164.88 348.672C158.391 348.422 152.745 344.917 150.505 339.755C146.974 331.614 143.016 302.547 151.677 285.557C155.021 278.995 159.865 274.963 166.052 273.594C173.25 272 179.229 273.057 183.823 276.729C192.75 283.87 192.906 298.281 192.906 298.885C192.906 300.042 191.969 300.989 190.813 301.005C190.813 301.005 190.813 301.005 190.802 301.005C189.641 301.005 188.693 300.068 188.693 298.911C188.693 298.781 188.536 285.896 181.177 280.021C177.62 277.193 172.844 276.417 166.958 277.719C162.047 278.812 158.167 282.088 155.427 287.479C147.688 302.64 150.901 330.062 154.375 338.083C155.953 341.719 160.245 344.271 165.052 344.469C167.646 344.578 174.068 344.047 177.781 337.031C182.359 328.375 185.031 318.13 185.729 306.552L185.755 306.14C185.839 304.984 186.823 304.088 187.995 304.167C189.156 304.245 190.036 305.245 189.969 306.406L189.943 306.802C189.208 318.969 186.375 329.812 181.521 338.989C178.255 345.104 172.37 348.687 165.615 348.687Z" fill="#371A45"/>
<path d="M66.7813 248.714C54.6823 250.349 49.6302 248.609 46.349 246C42.9948 243.313 38.375 235.74 36.4531 227.063C35.4792 222.635 35.1979 217.922 36.1615 213.427C38.0313 204.724 47.375 205.474 51.8542 210.318C55.3021 214.073 55.6458 217.5 64.7292 216.115L66.2135 239.729L66.7813 248.714Z" fill="white"/>
<path d="M58.4479 249.609C51.5781 249.609 48.375 247.963 46.1927 246.198C42.7969 243.484 38.1354 235.875 36.2031 227.114C35.1094 222.187 35.0156 217.562 35.9115 213.375C36.6458 209.927 38.6615 207.594 41.5833 206.792C45.0625 205.844 49.3646 207.224 52.0521 210.151C52.6927 210.859 53.2344 211.547 53.75 212.203C55.8958 214.969 57.4479 216.974 64.6875 215.864L64.9792 215.828L67.0729 248.963L66.8333 248.989C63.5313 249.411 60.776 249.609 58.4479 249.609ZM43.8646 207.015C43.125 207.015 42.401 207.104 41.7031 207.292C39.7813 207.818 37.3073 209.318 36.4115 213.479C35.5313 217.588 35.6354 222.146 36.7031 226.995C38.6094 235.635 43.1771 243.13 46.5104 245.792C49.3385 248.057 53.9323 250.135 66.4896 248.489L64.4635 216.417C57.1563 217.474 55.5365 215.39 53.3125 212.521C52.8021 211.859 52.2865 211.187 51.6406 210.505C49.6302 208.307 46.651 207.015 43.8646 207.015Z" fill="#371A45"/>
<path d="M66.7813 248.714C54.6823 250.349 49.6302 248.609 46.349 246C42.9948 243.313 38.375 235.74 36.4531 227.062C39.0052 230.76 47.2187 239.839 66.2031 239.729L66.7813 248.714Z" fill="#371A45" fill-opacity="0.349"/>
<path d="M58.4479 251.469C52.4739 251.469 48.2708 250.229 45.0312 247.646C39.651 243.354 30.9062 227.208 34.0937 212.969C35.0156 208.87 37.9791 205.958 42.0312 205.182C45.9948 204.432 50.0625 205.984 52.1562 209.057C54.7864 212.917 56.3802 215.245 64.3854 214.021L65.0312 218.182C55.1562 219.698 52.026 216.339 48.6823 211.427C47.5208 209.714 45.1666 208.87 42.8229 209.318C41.6875 209.531 38.9791 210.412 38.2031 213.891C35.3333 226.719 43.5208 241.063 47.651 244.354C50.2083 246.396 54.4323 248.255 66.4791 246.636L67.0416 250.807C63.8333 251.245 60.9896 251.469 58.4479 251.469Z" fill="#371A45"/>
<path d="M234.344 228.786C233.333 228.786 232.505 227.958 232.505 226.943V52.1978C232.505 51.1821 233.333 50.354 234.344 50.354C235.359 50.354 236.188 51.1821 236.188 52.1978V226.927C236.188 227.958 235.359 228.786 234.344 228.786Z" fill="#371A45"/>
<path d="M253.146 300.015C252.542 300.015 251.932 299.713 251.594 299.161C251.052 298.307 251.302 297.161 252.156 296.62C253.776 295.594 255.328 292.521 255.188 288.635C254.99 283.396 251.844 278.786 246.547 275.969C233.042 268.776 232.531 255.802 232.505 255.25C232.479 254.234 233.281 253.375 234.292 253.349C235.307 253.312 236.162 254.13 236.188 255.14C236.203 255.614 236.729 266.562 248.276 272.713C254.75 276.161 258.609 281.922 258.859 288.505C259.042 293.312 257.135 297.833 254.12 299.739C253.818 299.927 253.474 300.015 253.146 300.015Z" fill="#371A45"/>
<path d="M88.5937 179.682C88.5937 179.682 74.1249 152.469 87.552 138.036C100.979 123.614 123.385 119.479 123.135 121.005C123.135 121.005 99.4531 131.646 93.4114 153.078C88.7499 169.594 88.5937 179.682 88.5937 179.682Z" fill="white" fill-opacity="0.698"/>
<path d="M203.609 144.802C203.807 145.443 203.958 146.088 204.063 146.745C204.167 147.396 204.219 148.047 204.224 148.693C204.229 149.338 204.188 149.963 204.094 150.573C204.005 151.187 203.865 151.766 203.677 152.318C203.49 152.875 203.26 153.385 202.984 153.859C202.708 154.333 202.396 154.76 202.047 155.135C201.693 155.516 201.313 155.833 200.896 156.099C200.479 156.365 200.042 156.568 199.578 156.713C199.12 156.854 198.641 156.937 198.146 156.953C197.656 156.969 197.161 156.922 196.656 156.807C196.151 156.698 195.656 156.521 195.161 156.286C194.667 156.052 194.188 155.76 193.719 155.406C193.25 155.057 192.807 154.656 192.385 154.208C191.964 153.755 191.573 153.26 191.214 152.729C190.854 152.193 190.531 151.625 190.25 151.026C189.964 150.427 189.724 149.812 189.526 149.172C189.328 148.531 189.177 147.885 189.073 147.234C188.969 146.578 188.917 145.927 188.906 145.281C188.901 144.641 188.948 144.01 189.036 143.401C189.13 142.792 189.271 142.208 189.458 141.656C189.646 141.104 189.875 140.588 190.151 140.115C190.422 139.641 190.74 139.213 191.089 138.838C191.443 138.463 191.823 138.141 192.24 137.875C192.651 137.609 193.094 137.406 193.552 137.26C194.016 137.12 194.495 137.042 194.984 137.026C195.479 137.005 195.974 137.057 196.479 137.167C196.979 137.281 197.479 137.453 197.974 137.687C198.469 137.922 198.948 138.219 199.417 138.568C199.88 138.917 200.328 139.318 200.75 139.771C201.167 140.219 201.557 140.713 201.922 141.25C202.281 141.781 202.599 142.349 202.885 142.948C203.172 143.547 203.411 144.167 203.609 144.802Z" fill="white"/>
<path d="M201.802 168.406C201.906 169.016 201.901 169.62 201.792 170.219C201.682 170.818 201.479 171.365 201.177 171.859C200.875 172.349 200.5 172.755 200.052 173.068C199.609 173.38 199.12 173.583 198.594 173.667C198.068 173.755 197.547 173.719 197.021 173.563C196.5 173.406 196.016 173.146 195.573 172.776C195.13 172.401 194.76 171.948 194.469 171.417C194.177 170.885 193.979 170.313 193.88 169.698C193.781 169.089 193.781 168.484 193.891 167.885C194 167.287 194.203 166.74 194.505 166.25C194.807 165.755 195.182 165.349 195.63 165.037C196.078 164.724 196.563 164.526 197.089 164.438C197.615 164.354 198.135 164.385 198.661 164.542C199.188 164.698 199.667 164.958 200.109 165.333C200.552 165.703 200.922 166.156 201.214 166.688C201.505 167.219 201.703 167.792 201.802 168.406Z" fill="white"/>
<path d="M66.1094 250.635C65.5417 250.635 64.9792 250.375 64.6198 249.885C64.0156 249.068 64.2031 247.911 65.0156 247.307C65.9531 246.516 67.0156 240.667 66.4792 232.172C65.9375 223.661 64.2396 218.88 63.1979 218.208C62.3438 217.656 62.1094 216.51 62.6615 215.656C63.2136 214.797 64.3594 214.562 65.2136 215.114C69.6094 217.974 70.2188 231.922 70.2813 234.687C70.4167 239.573 70.2031 248.083 67.2031 250.281C66.875 250.521 66.4896 250.635 66.1094 250.635Z" fill="#371A45"/>
<path d="M223.578 250.349C222.656 250.349 221.854 249.651 221.75 248.714C219.776 231.224 227.604 217.198 227.948 216.604C228.448 215.719 229.583 215.406 230.464 215.917C231.344 216.417 231.662 217.552 231.162 218.432C231.083 218.568 223.594 232.042 225.422 248.307C225.542 249.323 224.802 250.229 223.802 250.349C223.708 250.334 223.646 250.349 223.578 250.349Z" fill="#371A45"/>
<path d="M152.875 339.073C156.995 348.187 173.12 353.927 179.885 339.661C184.641 329.651 186.219 316.521 186.797 308.448C183.375 316.625 175.188 324.437 165.13 323.37C155.927 322.396 150.688 311.896 148.646 306.76C147.99 320.146 150.505 333.828 152.875 339.073Z" fill="#371A45" fill-opacity="0.349"/>
<path d="M237.547 4.23965L242.927 21.9167C243.625 24.1928 245.693 25.7605 248.078 25.8022L266.547 26.1459C269.365 26.198 270.469 29.8178 268.151 31.4376L253.01 42.0313C251.063 43.3855 250.224 45.849 250.906 48.1251L256.292 65.8022C257.109 68.5053 254.016 70.6615 251.76 68.9792L237.021 57.849C235.125 56.4115 232.531 56.3699 230.583 57.7292L215.443 68.3178C213.141 69.9376 210.109 67.6459 211.031 64.9844L217.063 47.5209C217.839 45.2813 217.073 42.7917 215.177 41.3594L200.438 30.2292C198.182 28.5261 199.422 24.9428 202.24 25.0001L220.708 25.3386C223.078 25.3803 225.208 23.8907 225.99 21.6511L232.016 4.18757C232.938 1.48965 236.729 1.55215 237.547 4.23965Z" fill="#FFDA00"/>
<path d="M253.516 69.8072C252.844 69.8072 252.182 69.5833 251.604 69.1614L236.859 58.0312C235.057 56.6614 232.583 56.6249 230.724 57.927L215.588 68.5156C214.443 69.3176 212.979 69.2916 211.865 68.4531C210.745 67.6093 210.323 66.2135 210.781 64.8801L216.812 47.4166C217.547 45.2708 216.838 42.9114 215.021 41.5416L200.276 30.4114C199.156 29.5676 198.74 28.1718 199.187 26.8437C199.646 25.526 200.844 24.6926 202.24 24.7083L220.708 25.052C222.974 25.0885 225 23.6822 225.74 21.5364L231.766 4.06764C232.229 2.74994 233.437 1.90619 234.818 1.93223C236.213 1.96348 237.385 2.84368 237.797 4.17181L243.177 21.8489C243.838 24.0208 245.812 25.5104 248.078 25.552L266.547 25.8958C267.943 25.9218 269.115 26.802 269.521 28.1458C269.927 29.4895 269.453 30.8749 268.307 31.6614L253.172 42.2499C251.312 43.5572 250.51 45.8854 251.172 48.0468L256.552 65.7239C256.963 67.0676 256.49 68.4531 255.344 69.2551C254.776 69.6249 254.146 69.8072 253.516 69.8072ZM233.729 56.4374C234.953 56.4374 236.161 56.8333 237.187 57.5989L251.932 68.7291C252.87 69.427 254.078 69.4531 255.042 68.7812C256 68.1093 256.396 66.9635 256.052 65.8437L250.672 48.1666C249.948 45.7812 250.828 43.2135 252.87 41.776L268.005 31.1874C268.969 30.5156 269.365 29.3697 269.021 28.2499C268.677 27.1301 267.703 26.3958 266.547 26.3801L248.078 26.0364C245.573 25.9999 243.417 24.3541 242.693 21.9687L237.307 4.2916C236.963 3.17181 235.99 2.43744 234.833 2.42181C233.703 2.41139 232.672 3.09368 232.292 4.19785L226.266 21.6666C225.448 24.0208 223.25 25.5781 220.734 25.5364L202.266 25.1979C201.109 25.1666 200.104 25.8697 199.724 26.9739C199.344 28.0781 199.698 29.2395 200.635 29.9479L215.375 41.0781C217.365 42.5833 218.156 45.177 217.349 47.5468L211.323 65.0104C210.943 66.1197 211.297 67.276 212.229 67.9895C213.167 68.6874 214.375 68.7135 215.338 68.0416L230.474 57.4531C231.437 56.7916 232.583 56.4374 233.729 56.4374Z" fill="#371A45"/>
<path d="M268.151 31.4271L262.057 35.6823C262.516 34.3229 261.609 32.6511 259.912 32.625L245.234 32.3594C243.349 32.3229 241.693 31.0834 241.141 29.2813L236.859 15.224C236.203 13.0886 233.203 13.0365 232.464 15.1459L227.672 29.0261C227.052 30.8177 225.354 32.0052 223.474 31.9636L208.797 31.7032C207.031 31.6615 206.057 33.4271 206.583 34.8229L200.438 30.1875C198.182 28.5 199.422 24.9063 202.24 24.9584L220.708 25.3021C223.078 25.3386 225.208 23.8542 225.99 21.599L232.016 4.13545C232.938 1.47399 236.729 1.54169 237.547 4.23961L242.927 21.9167C243.625 24.1823 245.693 25.75 248.078 25.8021L266.547 26.1459C269.365 26.1979 270.453 29.8073 268.151 31.4271Z" fill="white" fill-opacity="0.349"/>
<path d="M218.891 42.7655L209.745 35.8644C209.359 35.5728 209.109 35.2186 208.964 34.8384L217.562 41.328C218.104 41.7238 218.547 42.2134 218.891 42.7655Z" fill="#FFDA00"/>
<path d="M219.891 43.8439L209.599 36.0731C209.188 35.771 208.885 35.3647 208.729 34.9272L208.427 34.0991L217.719 41.12C218.271 41.5418 218.745 42.0575 219.104 42.6356L219.891 43.8439Z" fill="#371A45"/>
<path d="M253.516 71.6668C252.458 71.6668 251.406 71.3231 250.5 70.6356L235.755 59.5054C234.583 58.6252 232.99 58.5991 231.792 59.4429L216.656 70.0314C214.839 71.297 212.531 71.2554 210.755 69.9273C208.995 68.5939 208.323 66.3804 209.031 64.2866L215.063 46.8231C215.536 45.4377 215.073 43.9116 213.901 43.0314L199.156 31.9012C197.396 30.5679 196.724 28.3543 197.432 26.2606C198.156 24.1668 200.042 22.8752 202.266 22.8908L220.734 23.2345C222.198 23.2606 223.51 22.3491 223.984 20.9533L230.016 3.48975C230.74 1.396 232.635 0.06267 234.849 0.114754C237.057 0.156421 238.901 1.55225 239.547 3.67205L244.932 21.3491C245.349 22.7606 246.63 23.7085 248.104 23.7345L266.573 24.0783C268.781 24.1148 270.625 25.5106 271.271 27.6304C271.917 29.7554 271.167 31.9377 269.349 33.2033L254.208 43.7918C253.01 44.6356 252.484 46.1408 252.922 47.547L258.307 65.2241C258.948 67.3439 258.198 69.5314 256.385 70.7971C255.516 71.3491 254.516 71.6668 253.516 71.6668ZM233.729 54.5939C235.333 54.5939 236.938 55.1095 238.297 56.1356L253.042 67.2658C253.448 67.5679 253.802 67.4116 253.974 67.2762C254.156 67.1616 254.422 66.87 254.276 66.3804L248.891 48.7085C247.932 45.547 249.104 42.1616 251.802 40.2762L266.943 29.6877C267.349 29.396 267.307 29.0002 267.245 28.8023C267.177 28.5939 266.995 28.2502 266.495 28.2398L248.026 27.896C244.734 27.8283 241.865 25.672 240.901 22.521L235.516 4.84392C235.375 4.35955 234.979 4.28142 234.766 4.28142C234.542 4.28142 234.161 4.34392 233.99 4.81788L227.964 22.2866C226.88 25.4064 223.958 27.4637 220.656 27.396L202.188 27.0523H202.172C201.688 27.0523 201.49 27.396 201.422 27.5939C201.359 27.8023 201.292 28.1877 201.698 28.4898L216.443 39.62C219.078 41.6095 220.115 45.0314 219.052 48.1512L213.021 65.62C212.849 66.0939 213.125 66.3804 213.297 66.5158C213.469 66.646 213.823 66.8179 214.229 66.5262L229.37 55.9377C230.698 55.0575 232.214 54.5939 233.729 54.5939Z" fill="#371A45"/>
<path d="M265.849 27.9895L261.109 27.9114C261.635 28.8437 261.979 30.0572 259.422 32.0051L248.182 39.8697C247.88 40.078 247.615 40.328 247.391 40.5937C246.521 41.6353 246.208 43.0572 246.615 44.401L250.615 57.5312C251.036 58.9426 250.036 60.151 248.828 60.3124C248.312 60.3905 247.76 60.2603 247.26 59.8905L236.307 51.6197C234.901 50.552 232.964 50.526 231.516 51.5364L220.276 59.401C219.76 59.7551 219.193 59.8645 218.682 59.7551C217.469 59.5468 216.521 58.3072 217.01 56.927L221.484 43.953C221.958 42.5676 221.656 41.052 220.734 39.9895C220.552 39.7655 220.328 39.552 220.089 39.3801L209.135 31.1093C207.49 29.6458 207.005 27.8697 207.573 26.9478L202.948 26.8697C200.198 26.8176 198.99 30.3333 201.187 31.9791L215.615 42.8697C217.469 44.2812 218.208 46.7187 217.443 48.9062L211.547 65.9739C210.651 68.5833 213.599 70.8072 215.865 69.2395L230.672 58.8905C232.583 57.5572 235.125 57.5989 236.979 59.0051L251.396 69.901C253.594 71.5572 256.635 69.4374 255.828 66.802L250.562 49.5103C249.88 47.2864 250.724 44.8749 252.62 43.5416L267.427 33.1926C269.677 31.5833 268.599 28.0416 265.849 27.9895Z" fill="#371A45" fill-opacity="0.349"/>
</svg>
