<svg width="120" height="103" viewBox="0 0 120 103" fill="none" xmlns="http://www.w3.org/2000/svg">
<path d="M90.6609 76.1437C90.6609 76.1437 92.2703 74.3984 94.2406 71.889C94.6266 71.3953 95.025 70.8765 95.4281 70.3312C95.4922 70.2453 95.5563 70.1593 95.6203 70.0734C95.8125 69.8124 96.0063 69.5468 96.1984 69.2796C98.9656 65.4062 101.664 60.7312 101.322 57.5734C100.756 52.4171 87.1219 39.4078 79.5016 36.7218C77.4938 36.014 74.6922 37.1499 71.9328 38.8921C71.9156 38.9046 71.8953 38.9187 71.8781 38.9265C69.8563 40.2046 67.8594 41.8046 66.2281 43.2296C66.0828 43.3531 65.9406 43.4781 65.8047 43.6031C65.525 43.8468 65.2641 44.0874 65.0109 44.314C64.8187 44.4953 64.6297 44.6656 64.4547 44.8296C63.1875 46.0093 62.3984 46.8328 62.3984 46.8328L65.1438 49.6812L66.5453 51.1312L69.1406 53.8249L69.925 54.639L90.6609 76.1437Z" fill="white"/>
<path d="M65.1406 49.6844L66.5359 51.1344L85.6922 70.9922L90.6609 76.1438C90.6609 76.1438 90.6953 76.1047 90.7594 76.036C90.7766 76.0157 90.7969 75.9938 90.8188 75.9688C90.8359 75.9469 90.8578 75.925 90.8781 75.9032C90.8953 75.886 90.9094 75.8688 90.9266 75.8516C90.9297 75.8438 90.9391 75.8391 90.9438 75.8313C90.9734 75.8 91.0031 75.7625 91.0375 75.7235C91.0453 75.7157 91.05 75.7063 91.0594 75.6985C91.0844 75.6672 91.1141 75.6329 91.1438 75.5985C91.1875 75.5516 91.2297 75.5047 91.2734 75.4532C91.3031 75.4141 91.3375 75.3797 91.3719 75.3422C91.4063 75.3032 91.4406 75.261 91.4781 75.2219C91.525 75.1704 91.5734 75.1141 91.6203 75.0579C91.7188 74.9422 91.825 74.8219 91.9328 74.6938C92.0313 74.5829 92.1344 74.4625 92.2359 74.3375C92.3563 74.1922 92.4844 74.0422 92.6172 73.8829C93.1016 73.3 93.6547 72.6266 94.2375 71.8844C94.3484 71.7391 94.4641 71.5922 94.5797 71.4422C94.6609 71.3391 94.7422 71.2329 94.8234 71.125C95.0203 70.8672 95.2219 70.5969 95.4234 70.3266C98.4344 66.2813 101.691 61.0188 101.313 57.5704C100.85 53.3235 91.5219 43.7532 83.9875 39.0032C89.8422 43.911 95.2266 50.136 95.5734 53.336C95.7453 54.9188 95.0594 56.9735 93.9672 59.1313C93.5 60.0485 92.2109 60.0875 91.6719 59.2079C91.6672 59.2 91.6625 59.1954 91.6578 59.1875C90.6641 57.5829 89.3406 55.9438 87.5375 54.2922C83.6703 50.7532 77.6047 46.211 69.2656 46.3C69.0719 46.3047 67.2859 47.8282 65.1406 49.6844Z" fill="#371A45" fill-opacity="0.349"/>
<path d="M90.6732 77.2203L61.3701 46.8406L61.8623 46.3265C61.9826 46.2015 64.8357 43.2374 68.4248 40.4624C73.3936 36.6187 77.2014 35.1265 79.7467 36.0218C87.6998 38.8281 101.462 52.0703 102.054 57.4968C102.769 64.0249 91.6748 76.1359 91.2045 76.6453L90.6732 77.2203ZM63.4217 46.8406L90.6389 75.0578C92.8326 72.5749 101.145 62.7765 100.584 57.6546C100.345 55.4718 97.1873 51.1953 92.5451 46.7546C87.7811 42.2046 82.6889 38.6265 79.2529 37.4171C75.292 36.0187 66.9217 43.3187 63.4217 46.8406Z" fill="#371A45"/>
<path d="M90.8582 48.3375L86.5566 53.6437C86.1722 54.1156 86.1551 54.7906 86.5191 55.2828C87.8426 57.0812 91.1144 61.0781 93.8129 60.6875C96.0488 60.3625 97.9082 58.1531 98.0285 55.9437C98.1613 53.4734 94.6394 49.8828 92.8113 48.1968C92.2363 47.6687 91.3426 47.7375 90.8582 48.3375Z" fill="white"/>
<path d="M86.5137 55.2828C87.8371 57.0844 91.109 61.0781 93.809 60.6844C96.048 60.3578 97.9027 58.1485 98.023 55.9391C98.1043 54.4203 96.8027 52.4781 95.3637 50.8141C95.9449 51.7875 96.2621 52.7485 96.2715 53.5844C96.3402 58.3766 91.7215 57.5391 91.7215 57.5391C91.7215 57.5391 92.1121 58.5172 91.9059 58.8141C91.0543 60.0485 87.8934 56.6344 86.2949 54.8328C86.3387 54.9922 86.4105 55.1453 86.5137 55.2828Z" fill="#371A45" fill-opacity="0.349"/>
<path d="M93.4363 61.4516C90.5801 61.4516 87.5332 57.9125 85.9191 55.7203C85.3582 54.961 85.3832 53.9141 85.9785 53.1766L90.2801 47.8656C90.6394 47.4203 91.1754 47.1406 91.7441 47.1031C92.3144 47.0641 92.8801 47.261 93.2988 47.6469C95.8644 50.0156 98.8973 53.3828 98.7566 55.9781C98.6144 58.6078 96.4394 61.0438 93.9113 61.4125C93.7535 61.4438 93.5941 61.4516 93.4363 61.4516ZM91.4269 48.8016L87.1269 54.1125C86.9551 54.3266 86.9473 54.6266 87.1098 54.8453C89.6363 58.2781 92.1004 60.186 93.7019 59.9547C95.5394 59.6891 97.1801 57.8313 97.2879 55.9016C97.3691 54.3688 95.5098 51.6922 92.3051 48.7375C92.1816 48.6219 92.0223 48.5656 91.8551 48.5781C91.6848 48.5906 91.5348 48.6735 91.4269 48.8016Z" fill="#371A45"/>
<path d="M97.0251 59.436C96.8797 59.4781 96.7938 59.4953 96.6829 59.5125C96.5797 59.5297 96.4766 59.5422 96.3782 59.5469C96.1782 59.5641 95.9797 59.5641 95.7829 59.5563C95.3938 59.5297 95.0079 59.4735 94.6391 59.3672C93.8985 59.1656 93.2219 58.8219 92.6172 58.4016C92.3219 58.1828 92.0313 57.9641 91.7657 57.7156C91.4876 57.4797 91.2469 57.2219 90.9938 56.9688C90.7454 56.711 90.5063 56.4453 90.2829 56.1672C90.0563 55.8797 89.8469 55.6094 89.6626 55.2531C89.6188 55.1672 89.6532 55.0594 89.7391 55.0172C89.8204 54.975 89.9188 55.0047 89.9672 55.0766L89.9797 55.0985C90.1469 55.3563 90.386 55.6219 90.6219 55.8625C90.861 56.1063 91.1141 56.3391 91.3797 56.561C91.6407 56.7797 91.911 57.0125 92.186 57.2047C92.4547 57.411 92.7422 57.5875 93.0297 57.7578C93.6079 58.0844 94.2282 58.3203 94.8579 58.4281C95.1704 58.4875 95.4876 58.5 95.7969 58.4922C95.9501 58.4875 96.1001 58.4703 96.2454 58.4406C96.3188 58.4281 96.3922 58.411 96.4594 58.3938C96.5204 58.3766 96.6063 58.35 96.6266 58.3375C96.9141 58.1828 97.2735 58.2938 97.4235 58.5813C97.5735 58.8688 97.4672 59.2297 97.1797 59.3797C97.1454 59.3969 97.111 59.4094 97.0766 59.4235L97.0251 59.436Z" fill="#371A45"/>
<path d="M71.7498 43.6234C72.242 42.9328 72.7467 42.2593 73.2654 41.5953C73.7842 40.9297 74.3107 40.2687 74.8639 39.6265C75.4107 38.9828 75.9732 38.3437 76.5764 37.7297C77.1764 37.1156 77.8014 36.5156 78.517 35.9703C78.842 35.7218 79.3045 35.7859 79.5529 36.1125C79.8014 36.439 79.7373 36.9015 79.4123 37.15C79.3998 37.1593 79.3858 37.1718 79.3686 37.1812L79.3654 37.1843C78.7139 37.6093 78.0889 38.1281 77.4764 38.6687C76.8639 39.2093 76.2717 39.7937 75.6936 40.3812C75.1123 40.9734 74.5467 41.5812 73.9936 42.2C73.4404 42.8172 72.8889 43.4484 72.3623 44.0875L72.3576 44.0906C72.2248 44.2547 71.9842 44.2765 71.8217 44.1422C71.6639 44.0093 71.6342 43.7828 71.7498 43.6234Z" fill="#371A45"/>
<path d="M61.0677 47.7546L56.9505 53.7687L50.0583 63.8328L49.6739 64.3937C48.1489 64.7421 46.6442 65.0031 45.1583 65.1921C32.4161 66.8015 21.2708 62.614 10.7848 53.6484C6.76609 52.5937 3.74734 51.3015 2.23953 49.2952C0.830155 47.4202 0.73953 44.9187 2.38016 41.3968C4.62547 36.5843 9.61922 37.3265 12.977 38.3171C14.7848 38.8531 19.038 40.1577 21.5395 41.4796C22.6458 42.0624 23.827 42.5937 25.0645 43.0702C34.5052 46.7374 47.3177 47.5952 54.8395 47.7593C58.6208 47.8484 61.0677 47.7546 61.0677 47.7546Z" fill="white"/>
<path d="M15.4265 43.8516C15.4484 43.9032 15.4609 44.0188 15.4655 44.1766C15.4093 43.9157 15.4062 43.7954 15.4265 43.8516Z" fill="#371A45" fill-opacity="0.2471"/>
<path d="M56.9453 53.7687L50.0547 63.8328L49.6688 64.3937C48.1438 64.7421 46.6406 65.0031 45.1531 65.1921C32.4109 66.8015 21.2656 62.614 10.7797 53.6484C6.7625 52.5937 3.74219 51.3015 2.23438 49.2953C4.65938 50.4484 7.825 51.4015 10.4453 50.3421C13.3922 49.1484 14.1516 44.8546 14.1422 43.5593C14.5656 45.6406 17.9422 56.4406 33.4984 58.8656C42.9734 60.3406 53.4172 55.575 56.9453 53.7687Z" fill="#371A45" fill-opacity="0.2471"/>
<path d="M39.936 66.261C29.5501 66.261 19.822 62.3094 10.4282 54.3219C4.99696 52.8719 2.1704 51.1782 0.992274 48.6594C0.0407108 46.6313 0.276649 44.1563 1.7079 41.0844C3.57509 37.0829 7.43446 35.911 13.1829 37.6094C15.8813 38.4079 19.5829 39.6126 21.8782 40.8266C35.2845 47.9094 60.7798 47.0251 61.036 47.0172C61.4485 47.0047 61.786 47.3219 61.8032 47.7297C61.8204 48.136 61.4985 48.4797 61.0923 48.4969C60.0298 48.536 34.947 49.4063 21.1891 42.1391C19.4798 41.2391 16.4891 40.1313 12.7626 39.0344C7.75634 37.5547 4.57821 38.4297 3.04384 41.7157C1.81102 44.361 1.57509 46.4297 2.32821 48.0376C3.30165 50.1141 5.96571 51.6282 10.9688 52.9407L11.1313 52.9844L11.2595 53.0954C23.236 63.3266 35.7438 66.7922 49.5063 63.6782C49.9048 63.5876 50.2985 63.8376 50.3876 64.236C50.4782 64.6344 50.2298 65.0297 49.8313 65.1188C46.4641 65.8782 43.1657 66.261 39.936 66.261Z" fill="#371A45"/>
<path d="M26.5687 63.9266C26.2733 63.9266 25.9905 63.7469 25.878 63.45C25.7327 63.0688 25.9218 62.6438 26.303 62.4985C26.3327 62.486 28.603 61.5797 30.5983 59.0922C33.2843 55.7469 34.2437 51.2641 33.4562 45.7735C33.3952 45.3704 33.678 44.9922 34.0812 44.936C34.4843 44.8766 34.8608 45.1594 34.9171 45.5625C35.9827 52.9797 33.7515 57.5532 31.6952 60.0875C29.4421 62.8594 26.9358 63.8407 26.8343 63.8797C26.7437 63.9094 26.6546 63.9266 26.5687 63.9266Z" fill="#371A45"/>
<path d="M23.9987 42.6453C23.1847 42.4406 22.1519 41.5 21.8909 41.1265C21.355 40.3593 20.6065 39.4328 19.7284 38.2234C18.2253 36.1515 14.7128 33.5297 13.08 34.825C10.4753 36.8937 14.8284 39.664 14.8831 40.325C14.9394 40.9859 13.5644 44.2718 15.53 47.4156L23.9987 42.6453Z" fill="white"/>
<path d="M23.8186 43.3625C23.4108 43.25 23.0983 43.0797 22.8077 42.9031C22.5202 42.7187 22.2592 42.5218 22.0108 42.3062C21.8858 42.2 21.767 42.0875 21.6467 41.9687C21.5264 41.8484 21.4061 41.7187 21.278 41.539C21.1155 41.3078 20.9436 41.075 20.7733 40.8437L19.7061 39.4328L19.1749 38.7125C19.0124 38.4843 18.8499 38.2828 18.6655 38.0734C17.942 37.25 17.0764 36.5078 16.1514 35.9406C15.6889 35.6625 15.2045 35.4265 14.7374 35.3062C14.2702 35.1812 13.8467 35.1953 13.6108 35.3578C13.5592 35.3875 13.4655 35.4734 13.3842 35.5468C13.3155 35.6234 13.2389 35.6968 13.1874 35.7781C13.0795 35.9328 13.0249 36.0781 13.0077 36.2375C12.9686 36.55 13.1358 36.9797 13.4217 37.3953C13.7045 37.8156 14.078 38.2187 14.4764 38.6265C14.678 38.8328 14.8827 39.0343 15.1061 39.2734C15.217 39.3984 15.328 39.514 15.4655 39.7203C15.4952 39.7593 15.542 39.8531 15.5811 39.9297C15.5983 39.9562 15.628 40.0547 15.6452 40.1234C15.6545 40.1625 15.6624 40.2 15.667 40.239C15.6717 40.2781 15.667 40.2828 15.6717 40.3031C15.6717 40.3765 15.6717 40.45 15.667 40.5218C15.667 40.5656 15.6624 40.5828 15.6577 40.6031L15.6499 40.6718C15.5936 41.0375 15.5249 41.2984 15.4702 41.5812C15.4092 41.8609 15.3624 42.1359 15.3202 42.4062C15.2342 42.95 15.2045 43.4906 15.2092 44.0265C15.2124 45.1078 15.4483 46.1547 15.8561 47.214L15.8639 47.2406C15.9374 47.4328 15.842 47.6468 15.6499 47.7203C15.4952 47.7812 15.328 47.7297 15.2295 47.6093C15.1311 47.489 15.0327 47.364 14.9389 47.2359L14.7967 47.0422C14.7545 46.9734 14.7155 46.9047 14.6733 46.8375C14.592 46.7 14.5108 46.5625 14.4327 46.4203C14.3686 46.275 14.2999 46.1297 14.2405 45.9781C14.0045 45.3828 13.8374 44.7484 13.7827 44.1078C13.7186 43.4687 13.7436 42.8265 13.8124 42.2047C13.842 41.8906 13.8936 41.5812 13.9499 41.2812C14.0014 40.9859 14.0655 40.6718 14.0999 40.4531L14.103 40.4156C14.1077 40.4015 14.1077 40.3843 14.1077 40.389C14.1077 40.389 14.1077 40.3843 14.1124 40.3843C14.1124 40.389 14.1124 40.3718 14.117 40.3937C14.117 40.4156 14.1202 40.4359 14.1249 40.4578C14.1295 40.4968 14.1592 40.5531 14.1545 40.5484C14.1592 40.5609 14.1764 40.5875 14.1639 40.5656C14.142 40.5312 14.0514 40.4234 13.967 40.3297C13.7858 40.1312 13.5764 39.9218 13.3717 39.7031C12.9561 39.2609 12.5311 38.789 12.167 38.2234C11.9874 37.9406 11.8155 37.6265 11.692 37.2703C11.567 36.9187 11.4905 36.5031 11.5374 36.0734C11.5811 35.6453 11.7561 35.2297 11.992 34.9078C12.1077 34.7406 12.2405 34.6031 12.3733 34.4703C12.5108 34.35 12.6342 34.2297 12.8311 34.1047C13.2045 33.8609 13.6374 33.7625 14.0264 33.7453C14.4202 33.7281 14.7842 33.7875 15.1233 33.8734C15.7952 34.0531 16.378 34.3453 16.9264 34.675C18.0092 35.3406 18.953 36.1562 19.7874 37.1C19.9936 37.3343 20.1983 37.5922 20.378 37.8406L20.8967 38.5453L21.9639 39.9562C22.1436 40.1968 22.3233 40.4359 22.4983 40.689C22.542 40.75 22.6186 40.839 22.7092 40.925C22.7952 41.0156 22.8936 41.1015 22.992 41.1875C23.1889 41.3593 23.3983 41.5172 23.6077 41.65C23.8186 41.7828 24.0327 41.8859 24.1952 41.9297L24.2202 41.9375C24.6155 42.0453 24.8467 42.4531 24.7389 42.8437C24.6186 43.2375 24.2124 43.4687 23.8186 43.3625Z" fill="#371A45"/>
<path d="M100.465 98.6047C98.3277 100.9 94.434 102.019 91.1137 100.9C86.359 99.3 84.3887 91.9688 84.3887 91.9688C68.2324 91.6172 64.4199 83.9594 64.4199 83.9594L69.4918 76.7438L74.9824 68.925C77.3637 71.875 80.2434 73.7454 83.1605 75.0844C88.3902 77.4907 93.7355 78.1907 96.4934 80.386C98.3137 81.8282 99.634 83.9172 100.537 86.3313C101.471 88.8282 101.951 91.6813 102.071 94.5422C102.131 96.0954 101.506 97.4891 100.465 98.6047Z" fill="white"/>
<path d="M100.533 86.3313C98.7609 85.1047 96.4172 84.9422 93.4313 85.1313C87.0672 85.5344 82.9453 82.2094 82.9453 82.2094L83.1563 75.0891C88.3859 77.4954 93.7313 78.1938 96.4906 80.3907C98.3109 81.8313 99.6344 83.9172 100.533 86.3313Z" fill="#371A45" fill-opacity="0.2471"/>
<path d="M100.465 98.6047C98.3277 100.9 94.434 102.019 91.1137 100.9C86.359 99.3 84.3887 91.9688 84.3887 91.9688C68.2324 91.6172 64.4199 83.9594 64.4199 83.9594L69.4918 76.7438C72.1137 79.1719 78.3965 84.95 78.3965 84.95C78.3965 84.95 78.1652 87.6438 80.9668 89.1375C84.6668 91.1063 92.0699 88.6563 92.2324 88.6016C92.0434 88.7344 85.0277 93.6594 90.8309 97.7891C94.5496 100.433 99.1715 99.0672 100.465 98.6047Z" fill="#371A45" fill-opacity="0.2471"/>
<path d="M93.8566 102.075C92.8363 102.075 91.8254 101.92 90.8785 101.598C86.5316 100.136 84.4066 94.4735 83.8332 92.6891C67.8691 92.1782 63.9191 84.611 63.7566 84.286C63.5769 83.9204 63.7222 83.475 64.0863 83.2954C64.4504 83.1141 64.8925 83.261 65.0769 83.625C65.1269 83.7282 69.0004 90.8922 84.4035 91.2266C84.7332 91.2344 85.016 91.4579 85.1004 91.7719C85.1175 91.8391 87.0285 98.7422 91.3504 100.197C93.8472 101.038 96.8629 100.531 99.0269 98.9047C100.577 97.7375 101.399 96.1985 101.33 94.5688C101.078 88.3907 99.1457 83.4313 96.0363 80.961C94.5675 79.7938 92.2332 79.0516 89.5254 78.1938C84.7332 76.6719 78.766 74.7797 74.4097 69.3829C74.1519 69.0657 74.2035 68.6032 74.5207 68.3454C74.8379 68.0875 75.3004 68.1391 75.5582 68.4563C79.6347 73.5094 85.366 75.3282 89.9707 76.7875C92.816 77.6875 95.2691 78.4688 96.9535 79.8032C101.674 83.5485 102.646 90.6219 102.803 94.5079C102.889 96.6407 101.866 98.6219 99.9129 100.089C98.1863 101.389 96.0019 102.075 93.8566 102.075Z" fill="#371A45"/>
<path d="M76.0582 91.7282C75.652 91.7282 75.3223 91.3985 75.3223 90.9907C75.3223 90.5829 75.652 90.2532 76.0582 90.2532C79.302 90.2532 84.1629 89.0985 87.1832 85.8391C89.1566 83.711 90.0348 81.0079 89.8004 77.8047C89.7691 77.3969 90.0738 77.0407 90.4801 77.011C90.8879 76.9797 91.2426 77.2844 91.2738 77.6922C91.5426 81.3219 90.5316 84.4016 88.266 86.8422C84.9207 90.4501 79.6004 91.7282 76.0582 91.7282Z" fill="#371A45"/>
<path d="M92.5326 88.8156C92.4544 88.9234 92.3998 88.9875 92.331 89.0641C92.2669 89.1375 92.1982 89.2109 92.1294 89.2781C91.9919 89.4156 91.8513 89.5453 91.7013 89.6687C91.556 89.7937 91.4013 89.9047 91.2513 90.025C91.0966 90.1328 90.9435 90.2437 90.7841 90.3469C90.1498 90.7625 89.4779 91.1016 88.7888 91.3984C88.1029 91.7031 87.3919 91.9391 86.6763 92.1609L85.5966 92.4531L84.5091 92.6984C84.1107 92.7875 83.7169 92.5344 83.6263 92.1359C83.5373 91.7375 83.7888 91.3422 84.1873 91.2516C84.2091 91.2484 84.2263 91.2437 84.2482 91.2391L84.2779 91.2344L85.3232 91.0937L86.3591 90.9047C87.0451 90.75 87.731 90.5875 88.3904 90.3594C89.0544 90.1406 89.7044 89.8797 90.3138 89.5484C90.4669 89.4672 90.6123 89.3781 90.7623 89.2922C90.9044 89.1969 91.0544 89.1078 91.1919 89.0094C91.3326 88.9094 91.4654 88.8062 91.5935 88.7C91.6544 88.6437 91.7185 88.5875 91.7779 88.5328C91.8341 88.4812 91.8982 88.4125 91.9326 88.3734L91.9576 88.3484C92.0951 88.1984 92.3263 88.1844 92.4763 88.3187C92.6169 88.4516 92.6388 88.6656 92.5326 88.8156Z" fill="#371A45"/>
<path d="M85.9576 81.1891C69.8389 92.6985 53.0998 80.6516 45.6029 65.2016C45.2686 64.511 44.9529 63.811 44.6561 63.1078C43.4576 60.2766 42.5748 57.3672 42.0654 54.4891L55.0092 48.2656L64.1592 43.8641L67.1529 42.4235C69.4748 44.9922 71.7357 46.9703 73.9029 48.6172C77.2623 51.1688 80.3967 52.95 83.1982 54.9782C86.0936 57.0719 88.6342 59.4235 90.6857 63.1547C94.3607 69.8516 92.117 76.7922 85.9576 81.1891Z" fill="white"/>
<path d="M85.958 81.1891C75.3861 88.7391 64.5486 86.1516 56.2314 79.125C64.1549 84.6157 73.8955 86.0407 83.4221 79.2407C89.5814 74.8438 91.8252 67.9032 88.1502 61.211C86.6174 58.4235 84.8174 56.411 82.7955 54.6907C82.933 54.786 83.0658 54.8844 83.2033 54.9829C86.0986 57.0766 88.6393 59.4266 90.6908 63.1594C94.3611 69.8516 92.1174 76.7922 85.958 81.1891Z" fill="#371A45" fill-opacity="0.2471"/>
<path d="M85.9574 81.9313C85.7262 81.9313 85.498 81.8235 85.3574 81.6219C85.1215 81.2922 85.198 80.8282 85.5277 80.5922C91.684 76.2 93.4105 69.6579 90.0387 63.5235C87.2371 58.4235 83.4465 55.9532 79.0652 53.0907C75.3121 50.6422 71.059 47.8657 66.6043 42.9329C66.3308 42.6282 66.3558 42.161 66.6558 41.8907C66.9605 41.6157 67.423 41.6422 67.6965 41.9422C72.023 46.7344 76.1902 49.4532 79.8699 51.8563C84.4183 54.8235 88.3512 57.3891 91.3324 62.8157C95.0371 69.5594 93.0965 77.011 86.3855 81.8016C86.2574 81.8829 86.1074 81.9313 85.9574 81.9313Z" fill="#371A45"/>
<path d="M45.1286 63.275C46.5552 65.8234 48.002 68.3156 49.6599 70.6781C50.4911 71.8578 51.3786 72.9906 52.3161 74.0812C53.2536 75.1703 54.2442 76.2125 55.2927 77.1906C56.3474 78.1641 57.4302 79.1 58.5833 79.9406C59.7349 80.7859 60.938 81.5531 62.1849 82.2391C62.8145 82.5734 63.4489 82.8953 64.0989 83.1797C64.4208 83.3297 64.7552 83.4578 65.0895 83.5906C65.4145 83.7234 65.7395 83.8359 66.0786 83.9469C66.7552 84.1656 67.4364 84.3797 68.1177 84.5906C68.802 84.8 69.488 85.0062 70.1817 85.2469L70.1911 85.2516C70.388 85.3187 70.4911 85.5297 70.4224 85.7266C70.3708 85.8766 70.2333 85.9719 70.0833 85.9797C67.0474 86.1219 64.1208 84.9719 61.4442 83.6344C60.1036 82.9469 58.827 82.1406 57.6099 81.2609C56.3942 80.3828 55.2411 79.4172 54.1583 78.3828C51.9817 76.3234 50.0755 74.0031 48.4099 71.5328C46.7427 69.0656 45.3474 66.4016 44.4395 63.5703C44.3755 63.3734 44.4817 63.1672 44.6786 63.1031C44.863 63.0469 45.0427 63.125 45.1286 63.275Z" fill="#371A45"/>
<path d="M118.4 87.2109C116.681 90.3859 112.571 91.9906 108.664 91.1109C103.617 89.9734 100.816 82.6641 100.816 82.6641C91.5564 84.775 85.4908 81.5188 85.4908 81.5188C85.4908 81.5188 83.2768 83.8141 78.0205 85.0406L79.5018 81.5781L88.7205 60.0312C95.3846 67.0234 105.631 64.8188 111.314 68.0406C114.155 69.6453 118.956 78.3063 119.214 83.475C119.291 84.8781 118.981 86.1344 118.4 87.2109Z" fill="white"/>
<path d="M118.4 87.211C116.681 90.386 112.571 91.9906 108.664 91.111C103.617 89.9735 100.816 82.6641 100.816 82.6641C91.5564 84.775 85.4908 81.5188 85.4908 81.5188C85.4908 81.5188 83.2768 83.8141 78.0205 85.0406L79.5018 81.5781C84.6674 78.9453 86.3814 74.9938 86.8143 74.9938C87.2424 74.9938 88.1502 78.1125 92.9268 79.4735C104.697 82.8188 108.667 75.1485 109.452 75.2438C110.236 75.3375 102.289 83.9516 106.891 87.5156C109.953 89.8875 115.072 88.8719 118.4 87.211Z" fill="#371A45" fill-opacity="0.2471"/>
<path d="M89.2551 59.5219C90.2067 60.5125 91.2911 61.3656 92.4723 62.0688C93.6629 62.7563 94.9395 63.3141 96.2723 63.725C98.9364 64.575 101.772 64.9266 104.629 65.3766C105.344 65.4891 106.065 65.6078 106.783 65.7547C107.504 65.8953 108.227 66.0625 108.946 66.2781C109.666 66.4922 110.382 66.75 111.075 67.0844L111.59 67.3547C111.671 67.3922 111.769 67.4578 111.86 67.5125C111.954 67.5688 112.04 67.6281 112.121 67.6938C112.458 67.9375 112.746 68.2078 113.021 68.4781C114.096 69.5844 114.94 70.8031 115.722 72.0563C116.499 73.3125 117.183 74.6125 117.796 75.9547C118.404 77.2938 118.935 78.675 119.347 80.1078C119.547 80.8234 119.719 81.5578 119.83 82.3125C119.857 82.5016 119.877 82.6938 119.904 82.8828L119.946 83.4625C119.95 83.6594 119.96 83.8563 119.955 84.0547C119.943 84.2516 119.943 84.4484 119.921 84.6453C119.844 85.4359 119.646 86.2203 119.333 86.9531C119.021 87.6922 118.58 88.3688 118.061 88.9656C117.021 90.1719 115.641 91.0156 114.177 91.5266C112.704 92.0281 111.132 92.1875 109.593 92.0109C109.4 91.9859 109.211 91.9563 109.019 91.9297C108.83 91.8906 108.643 91.8563 108.449 91.8141C108.06 91.7156 107.674 91.6 107.307 91.4406C106.569 91.1328 105.897 90.7203 105.285 90.2438C104.06 89.2922 103.083 88.1156 102.24 86.8813C101.819 86.2594 101.438 85.6203 101.086 84.9641C100.911 84.6375 100.744 84.3031 100.582 83.9688C100.418 83.6297 100.272 83.2984 100.122 82.9266L100.975 83.3813L99.9895 83.5734L99.4973 83.6719C99.3348 83.7063 99.1676 83.7359 99.0051 83.7578L98.0114 83.8953C97.8442 83.9172 97.6817 83.9422 97.5145 83.9594L97.0129 83.9984L96.0114 84.075L95.0083 84.1016L94.5067 84.1141L94.0067 84.0969C93.6723 84.0844 93.3379 84.0797 92.9989 84.0578C91.6583 83.9719 90.327 83.7844 89.0161 83.4828L88.5239 83.3672L88.0348 83.2344C87.7098 83.1484 87.3879 83.0422 87.0629 82.9438C86.7411 82.8359 86.4208 82.725 86.1036 82.5953C85.9442 82.5313 85.7864 82.4719 85.6286 82.3984C85.4645 82.3297 85.3192 82.2609 85.1348 82.1672L86.0129 82.0297C85.9145 82.1188 85.8504 82.175 85.7739 82.2391C85.6958 82.3031 85.6239 82.3547 85.5458 82.4156C85.3973 82.5266 85.2426 82.6391 85.0879 82.7375C84.7801 82.9438 84.4676 83.1313 84.1504 83.3078C83.5114 83.6594 82.8567 83.9594 82.1926 84.2297C81.5286 84.4953 80.8473 84.7188 80.1661 84.9125C79.8286 85.0156 79.4817 85.0875 79.1379 85.1781L78.102 85.3969C77.9004 85.4391 77.7083 85.3109 77.6645 85.1141C77.627 84.925 77.7379 84.7406 77.9176 84.6844L77.9348 84.6797L78.9161 84.3797C79.2364 84.2641 79.5629 84.1609 79.8801 84.0375C80.5176 83.7922 81.1395 83.5219 81.7426 83.2219C82.3426 82.9172 82.9301 82.5828 83.477 82.2094C83.752 82.0203 84.0223 81.8281 84.2739 81.6219C84.4036 81.5234 84.5223 81.4156 84.6426 81.3094C84.6989 81.2578 84.7629 81.2016 84.8145 81.15C84.8661 81.0984 84.9301 81.0344 84.9551 81.0047C85.1614 80.7594 85.4989 80.7 85.7739 80.8375L85.8379 80.8672C85.9442 80.9219 86.0942 80.9906 86.2317 81.0516C86.3692 81.1156 86.5145 81.1719 86.6551 81.2266C86.9426 81.3438 87.2379 81.4453 87.5333 81.5453C87.8333 81.6391 88.1301 81.7375 88.4333 81.8156L88.8879 81.9391L89.3458 82.0469C90.5754 82.325 91.8301 82.5063 93.0942 82.5828C93.4114 82.6047 93.727 82.6047 94.0411 82.6172L94.5161 82.6297L94.9911 82.6172L95.9426 82.5953L96.8895 82.5234L97.3645 82.4844C97.5223 82.4672 97.677 82.4406 97.8348 82.4234L98.7786 82.2953C98.9364 82.2781 99.0911 82.2484 99.2489 82.2141L99.7161 82.1188L100.65 81.9344L100.666 81.9313C101.027 81.8625 101.374 82.0594 101.502 82.3891C101.622 82.6859 101.768 83.0156 101.913 83.3297C102.063 83.6422 102.218 83.9547 102.385 84.2594C102.715 84.8734 103.074 85.4703 103.46 86.0438C104.24 87.1859 105.135 88.25 106.188 89.0688C106.715 89.4766 107.28 89.8188 107.871 90.0688C108.168 90.1969 108.471 90.2875 108.78 90.3641C108.938 90.4031 109.105 90.4281 109.268 90.4625L109.76 90.5313C111.083 90.6813 112.441 90.5438 113.697 90.1156C114.943 89.6781 116.1 88.9609 116.947 87.9797C117.808 87.0047 118.332 85.7781 118.452 84.4875C118.516 83.8438 118.472 83.1875 118.374 82.5094C118.275 81.8359 118.122 81.1625 117.929 80.4891C117.547 79.1516 117.043 77.8297 116.455 76.5469C115.869 75.2641 115.208 74.0125 114.468 72.8156C113.727 71.6266 112.913 70.4641 111.975 69.5031C111.74 69.2719 111.499 69.0438 111.25 68.8688C111.191 68.8219 111.127 68.7781 111.066 68.7438C111.002 68.7063 110.95 68.6672 110.874 68.6281L110.433 68.3969C109.829 68.1047 109.186 67.8734 108.527 67.6766C107.868 67.4781 107.186 67.3203 106.493 67.1828C105.802 67.0453 105.1 66.925 104.393 66.8141C101.571 66.3672 98.6583 66.0109 95.8223 65.1109C94.4051 64.6734 93.0208 64.0734 91.7192 63.3219C90.4254 62.5547 89.2254 61.6109 88.1801 60.5203C87.8973 60.225 87.9067 59.7578 88.202 59.475C88.502 59.2125 88.9739 59.225 89.2551 59.5219Z" fill="#371A45"/>
<path d="M109.803 75.3499C109.671 75.8781 109.491 76.3546 109.289 76.8343C109.088 77.3156 108.844 77.7734 108.578 78.2249C108.047 79.1249 107.396 79.9609 106.628 80.6999C106.244 81.064 105.833 81.4109 105.396 81.7202C104.955 82.0249 104.491 82.3031 104.003 82.5312C103.032 82.9937 101.977 83.2812 100.919 83.3984C100.513 83.4406 100.149 83.1484 100.105 82.7406C100.063 82.3546 100.324 82.0077 100.697 81.939L100.714 81.9343C101.627 81.7593 102.513 81.5015 103.352 81.1281C103.772 80.939 104.175 80.7202 104.574 80.4812C104.963 80.2312 105.344 79.9656 105.703 79.6656C106.424 79.0687 107.071 78.3702 107.644 77.6062C107.932 77.2249 108.188 76.8171 108.436 76.4062C108.682 75.9984 108.908 75.5515 109.093 75.1359L109.1 75.114C109.182 74.9249 109.4 74.8437 109.589 74.9249C109.764 74.9984 109.846 75.1781 109.803 75.3499Z" fill="#371A45"/>
<path d="M118.695 33.4485C118.28 36.4938 115.166 38.5969 110.47 40.5563C101.848 50.2766 91.4656 53.9922 83.4906 54.7906C82.7281 54.8672 81.9828 54.9188 81.2672 54.9438C80.8734 54.961 80.4875 54.9656 80.1063 54.9656L72.9359 49.8391L63.6875 43.2297L61.4141 41.6031C61.4141 41.6031 68.3906 40.9047 76.7734 38.9391C84.2219 37.1938 92.7766 34.4485 98.5297 30.3094C100.756 28.7047 104.658 26.886 106.33 26.1313C109.422 24.7281 114.116 23.3469 116.909 27.6703C118.373 29.9438 118.917 31.8266 118.695 33.4485Z" fill="white"/>
<path d="M118.696 33.4485C118.28 36.4938 115.166 38.5969 110.471 40.5563C101.022 51.2078 89.4566 54.6531 81.2676 54.9438C86.1426 53.4 97.6723 49.2266 101.541 43.2156C104.783 38.1797 105.597 35.6453 105.152 29.5797C105.005 27.5672 106.766 38.5063 113.496 36.2406C115.929 35.4172 117.638 34.5891 118.696 33.4485Z" fill="#371A45" fill-opacity="0.2471"/>
<path d="M61.3405 40.8703C62.917 40.7031 64.5108 40.4797 66.0952 40.2391C67.6795 39.9984 69.2608 39.7281 70.8373 39.4328C73.9858 38.8406 77.1155 38.1453 80.2045 37.3141C81.7514 36.9016 83.2842 36.4422 84.7998 35.9531C86.3217 35.4656 87.8202 34.9203 89.303 34.3328C90.7842 33.7484 92.2327 33.0922 93.6452 32.3766C94.3561 32.025 95.042 31.6297 95.7311 31.2437L96.7389 30.6219C97.0764 30.4203 97.3889 30.1844 97.7186 29.9656L98.2123 29.6266C98.3827 29.5062 98.5592 29.3828 98.7342 29.275C99.0811 29.0437 99.4373 28.8281 99.792 28.6187C100.503 28.1984 101.219 27.8078 101.942 27.4297C103.395 26.675 104.847 25.9844 106.345 25.3156C107.867 24.6594 109.498 24.1141 111.255 24.025C112.128 23.9859 113.036 24.0719 113.901 24.3594C114.772 24.6328 115.572 25.1187 116.24 25.7266C116.565 26.0359 116.878 26.3625 117.14 26.7187C117.281 26.8891 117.392 27.0781 117.522 27.2594L117.856 27.7953C118.287 28.5156 118.678 29.2797 118.973 30.0937C119.269 30.9094 119.478 31.7891 119.478 32.7062C119.487 33.1609 119.428 33.625 119.33 34.0797C119.226 34.5344 119.055 34.9672 118.858 35.3797C118.437 36.1937 117.864 36.8969 117.226 37.4859C116.587 38.0766 115.898 38.575 115.187 39.025C113.761 39.9125 112.265 40.6078 110.758 41.2437L111.023 41.05L109.537 42.6719L109.164 43.075C109.036 43.2031 108.903 43.3281 108.77 43.4562L107.186 44.9844L106.35 45.7C105.789 46.1719 105.24 46.6656 104.64 47.0906C102.315 48.8781 99.8139 50.4609 97.1545 51.7141C94.503 52.9797 91.7139 53.9625 88.853 54.6266L87.7733 54.85C87.4139 54.9234 87.053 55 86.6889 55.0516C85.9608 55.15 85.2373 55.275 84.5045 55.3219L83.4092 55.4078L82.3077 55.4297L81.7592 55.4328C81.5748 55.4297 81.3905 55.4203 81.2108 55.4125C80.8467 55.3953 80.478 55.3734 80.1139 55.3437C79.9092 55.3297 79.7592 55.15 79.7717 54.9484C79.7842 54.7687 79.9217 54.6312 80.0936 54.6094L80.1108 54.6047C80.4655 54.5625 80.8217 54.5203 81.1764 54.4859L81.7077 54.4344L82.2389 54.3609L83.2967 54.2234L84.3467 54.0516C85.7467 53.8297 87.1311 53.5203 88.5061 53.1937C91.2514 52.5078 93.9108 51.5078 96.4561 50.2766L98.3358 49.2984L100.169 48.2312C100.764 47.8531 101.351 47.4547 101.942 47.0687C102.242 46.8797 102.52 46.6609 102.803 46.45L103.656 45.8156C104.234 45.4078 104.761 44.9328 105.309 44.4812L106.128 43.8047L107.687 42.3547C107.815 42.2344 107.948 42.1141 108.076 41.9891L108.445 41.6031L109.926 40.0719L110.059 39.9344L110.197 39.8797C111.658 39.2656 113.097 38.5969 114.408 37.7766C115.058 37.3656 115.68 36.9141 116.223 36.4078C116.767 35.9031 117.222 35.3312 117.542 34.7141C118.186 33.475 118.12 31.9984 117.59 30.6047C117.333 29.9047 116.986 29.2234 116.592 28.5625L116.287 28.0687C116.181 27.9234 116.086 27.7609 115.97 27.6234C115.756 27.3266 115.505 27.0703 115.247 26.825C114.72 26.35 114.115 25.9844 113.448 25.7703C112.78 25.5469 112.056 25.4781 111.323 25.5078C109.85 25.5766 108.364 26.0578 106.937 26.675C105.489 27.3234 104.037 28.0141 102.628 28.7469C101.922 29.1156 101.223 29.4937 100.547 29.8969C100.208 30.0984 99.8733 30.3047 99.5483 30.5141C99.3811 30.6172 99.2264 30.7297 99.0686 30.8406L98.5623 31.1844C98.2202 31.4109 97.8858 31.6594 97.5358 31.8703L96.4858 32.5172C95.7702 32.9203 95.0592 33.3281 94.3233 33.6937C92.8623 34.4359 91.3717 35.1094 89.8545 35.7047C88.3389 36.3062 86.8092 36.8641 85.2639 37.3609C83.717 37.8625 82.1623 38.3266 80.5936 38.7422C77.4639 39.5875 74.2936 40.2859 71.1108 40.8875C69.517 41.1875 67.9248 41.4578 66.3217 41.7016C64.7202 41.9469 63.1217 42.1656 61.4952 42.3406C61.0873 42.3844 60.7233 42.0922 60.6811 41.6844C60.6373 41.2781 60.9295 40.9125 61.3358 40.8703H61.3405Z" fill="#371A45"/>
<path d="M76.7387 39.7422C76.2887 42.5422 75.4543 45.3219 74.2027 48C74.1043 48.2094 74.0012 48.4203 73.8996 48.625C73.6293 49.1703 73.3465 49.7063 73.0465 50.225C68.3215 58.4922 60.2996 63.3906 51.9168 63.85C51.4199 63.875 50.9184 63.8875 50.4215 63.8844C50.4012 63.8844 50.384 63.8844 50.3621 63.8844C49.009 63.8719 47.6512 63.7375 46.3012 63.4844C45.748 63.3828 45.2012 63.2578 44.6527 63.1125C43.4527 60.2813 42.5699 57.3719 42.0605 54.4938L55.0059 48.2703L64.1543 43.8688L61.9652 42.3063C61.9699 42.3031 68.6777 41.6328 76.7387 39.7422Z" fill="#371A45" fill-opacity="0.2471"/>
<path d="M18.619 42.4703C20.6409 46.9734 23.8144 50.9984 27.9862 54.0734C28.8394 54.7 29.73 55.2875 30.6597 55.8281C31.1128 56.0937 31.5753 56.3468 32.0519 56.5953C33.4815 57.3343 34.9472 57.9422 36.4284 58.4312C37.7097 58.8562 39.0034 59.1875 40.305 59.4312C41.8769 59.7265 43.4581 59.8906 45.03 59.9328C45.6034 59.9453 46.1784 59.9453 46.7472 59.9281C57.2081 59.6078 67.2097 53.8718 72.4175 44.0578C80.0972 29.6015 74.4659 11.7734 59.8503 4.24059C57.0362 2.79059 54.0894 1.82497 51.1128 1.32341C50.7659 1.26247 50.4144 1.20778 50.0628 1.16403C49.1253 1.04059 48.1862 0.954656 47.2487 0.920281C45.0815 0.834344 42.9222 0.984344 40.8112 1.35778C38.6987 1.72653 36.63 2.32341 34.6519 3.12497C34.0222 3.37809 33.4003 3.65622 32.7878 3.95309C31.8722 4.39841 30.9722 4.89216 30.0987 5.43747C25.7456 8.12653 22.0331 11.9609 19.4753 16.7797C15.0675 25.0968 15.055 34.525 18.619 42.4703Z" fill="white"/>
<path d="M45.8168 60.0188C45.5511 60.0188 45.2902 60.0141 45.0293 60.011C43.4308 59.9672 41.8386 59.7953 40.2918 59.5047C38.9683 59.2547 37.6621 58.9203 36.4074 58.5047C34.9074 58.011 33.4293 57.3938 32.0168 56.6641C31.498 56.3938 31.0402 56.1406 30.6199 55.8969C29.7074 55.3641 28.8043 54.7735 27.9433 54.1375C23.8652 51.1344 20.6183 47.111 18.5496 42.5047C14.8183 34.1906 15.1355 24.8047 19.4152 16.7453C21.8902 12.0813 25.5699 8.15314 30.0636 5.37346C30.9152 4.84533 31.8199 4.34377 32.7574 3.88439C33.3574 3.59221 33.9871 3.30939 34.6246 3.05158C36.6121 2.24533 38.6902 1.65002 40.8011 1.27971C42.9339 0.903144 45.1027 0.757831 47.2558 0.842206C48.1902 0.881269 49.1418 0.962519 50.0746 1.08752C50.448 1.13439 50.7949 1.18596 51.1246 1.24533C54.1574 1.76096 57.1043 2.74377 59.8839 4.17189C66.998 7.83908 72.2246 14.0344 74.5886 21.6094C76.9355 29.125 76.1902 37.1125 72.4808 44.0906C67.448 53.5766 57.5839 59.6719 46.7418 60.0016C46.4433 60.0141 46.1293 60.0188 45.8168 60.0188ZM18.6871 42.4406C20.7418 47.025 23.9761 51.0235 28.0293 54.0141C28.8855 54.6438 29.7839 55.236 30.6933 55.7641C31.1121 56.0078 31.5668 56.261 32.0808 56.5266C33.4855 57.2516 34.9589 57.8703 36.4496 58.3594C37.6964 58.7703 38.998 59.1094 40.3168 59.3547C41.8558 59.6453 43.4449 59.8125 45.0293 59.8563C45.5996 59.8688 46.1777 59.8688 46.7418 59.8516C57.5277 59.5219 67.3418 53.4563 72.348 44.0188C76.0371 37.0735 76.7824 29.1297 74.4433 21.6516C72.0871 14.1156 66.8918 7.95471 59.8105 4.30471C57.048 2.88439 54.1183 1.90314 51.098 1.39221C50.7683 1.33127 50.4261 1.27971 50.0543 1.23283C49.1199 1.10939 48.1777 1.02658 47.248 0.989081C45.1058 0.903144 42.948 1.05314 40.8277 1.42658C38.7246 1.79533 36.6589 2.38752 34.6808 3.18908C34.0464 3.44689 33.4168 3.72502 32.8214 4.01721C31.8871 4.47189 30.9886 4.96877 30.1402 5.49689C25.6683 8.25939 22.0058 12.1719 19.5433 16.8094C15.2902 24.8313 14.9777 34.1688 18.6871 42.4406Z" fill="#371A45"/>
<path d="M72.4221 44.0578C67.2127 53.8719 57.2111 59.611 46.7471 59.9282C46.1783 59.9453 45.6033 59.9453 45.0299 59.9328C43.4533 59.8906 41.8736 59.7235 40.3049 59.4313C39.0033 59.1875 37.7096 58.8563 36.4283 58.4313C34.9424 57.9422 33.4814 57.3344 32.0471 56.5953C31.5752 56.3469 31.1096 56.0938 30.6549 55.8281C29.7252 55.2828 28.8346 54.6953 27.9814 54.0688C23.8096 50.9938 20.6361 46.9735 18.6143 42.4656C17.5049 39.9906 16.7377 37.3688 16.3486 34.6844C18.3783 38.9391 21.4502 42.736 25.4299 45.6703C26.2814 46.2969 27.1674 46.8844 28.1018 47.4281C28.5518 47.6953 29.0189 47.9485 29.4939 48.1969C30.9252 48.9344 32.3893 49.5438 33.8721 50.0328C35.1518 50.4578 36.4455 50.7875 37.7486 51.0328C39.3205 51.3281 40.9002 51.4906 42.4721 51.5344C43.0471 51.5469 43.6205 51.5469 44.1908 51.5297C54.6502 51.2125 64.6518 45.4735 69.8643 35.6578C72.9064 29.9313 73.8564 23.6766 72.9924 17.7438C76.8471 25.8172 76.9533 35.525 72.4221 44.0578Z" fill="#371A45" fill-opacity="0.2471"/>
<path d="M45.8177 60.5297C45.5489 60.5297 45.2833 60.525 45.0177 60.5203C43.3942 60.4781 41.7708 60.3015 40.1989 60.0062C38.8536 59.7531 37.5208 59.4093 36.2442 58.989C34.7208 58.4875 33.2208 57.8609 31.7817 57.1187C31.2552 56.8453 30.788 56.5875 30.3645 56.339C29.4349 55.7984 28.5177 55.1937 27.6395 54.55C23.4927 51.4953 20.1864 47.4031 18.0833 42.714C14.288 34.2593 14.6099 24.7062 18.9661 16.5047C21.4849 11.764 25.2286 7.76247 29.7989 4.93904C30.663 4.4031 31.5849 3.89216 32.5395 3.42966C33.152 3.12966 33.7911 2.84685 34.4411 2.58435C36.4583 1.7656 38.5755 1.16091 40.7208 0.782785C42.888 0.401535 45.0942 0.251535 47.2833 0.33591C48.2333 0.374972 49.1974 0.456222 50.1536 0.58591C50.5349 0.632785 50.8849 0.689035 51.2286 0.74841C54.3083 1.26716 57.3067 2.27185 60.1286 3.72185C67.3677 7.4531 72.6786 13.75 75.0911 21.4593C77.4802 29.1078 76.7192 37.2328 72.9442 44.3359C67.8255 53.9797 57.7942 60.1812 46.7739 60.5203C46.452 60.525 46.1349 60.5297 45.8177 60.5297ZM19.1536 42.2297C21.1755 46.7343 24.3505 50.6625 28.3333 53.6015C29.177 54.2234 30.0599 54.8031 30.9552 55.3218C31.3661 55.5625 31.8114 55.8109 32.3208 56.0765C33.7005 56.789 35.1489 57.3937 36.613 57.8734C37.8427 58.2812 39.1192 58.6125 40.413 58.8515C41.9239 59.1359 43.4833 59.3031 45.0474 59.3453C45.6083 59.3578 46.1739 59.3578 46.7349 59.3406C57.3364 59.0156 66.9817 53.0531 71.9036 43.7828C75.527 36.9578 76.2599 29.1547 73.9645 21.8109C71.6505 14.4062 66.5458 8.34997 59.5849 4.76716C56.8692 3.36872 53.9864 2.40778 51.0177 1.90622C50.6927 1.84685 50.3583 1.79997 49.9942 1.75153C49.0739 1.6281 48.1489 1.54685 47.2317 1.51247C45.1286 1.43122 43.0036 1.57185 40.9177 1.9406C38.8536 2.30153 36.8192 2.88903 34.8786 3.67341C34.2536 3.92653 33.6364 4.20154 33.0489 4.48904C32.1333 4.93591 31.2458 5.42497 30.4145 5.94372C26.0208 8.65935 22.4177 12.5015 20.002 17.0625C15.8177 24.9297 15.5099 34.1047 19.1536 42.2297Z" fill="#371A45"/>
<path d="M45.8177 60.7016C45.5489 60.7016 45.2786 60.6969 45.013 60.6922C43.377 60.65 41.7489 60.4734 40.1645 60.1781C38.8114 59.925 37.4739 59.5766 36.1895 59.1531C34.6598 58.65 33.1473 58.0156 31.7005 57.2687C31.1692 56.9906 30.702 56.7328 30.2739 56.4844C29.3395 55.9391 28.4192 55.3344 27.5364 54.6875C23.3645 51.6156 20.0411 47.4969 17.9255 42.7828C14.1083 34.2766 14.4302 24.6719 18.8114 16.4234C21.3427 11.6578 25.1083 7.6328 29.7036 4.79374C30.5739 4.25311 31.4989 3.74218 32.4583 3.27499C33.0755 2.97499 33.7177 2.68749 34.3692 2.42499C36.3989 1.60155 38.5239 0.99374 40.6817 0.610928C42.863 0.22499 45.0817 0.0749899 47.2786 0.160928C48.2333 0.19999 49.2067 0.285928 50.1614 0.414053C50.5427 0.460928 50.8989 0.517178 51.2411 0.576553C54.338 1.09999 57.3489 2.1078 60.1895 3.56718C67.4708 7.3203 72.8114 13.6562 75.2364 21.4078C77.6395 29.0984 76.8723 37.2703 73.0817 44.4172C67.9333 54.1156 57.8505 60.3531 46.7645 60.6922C46.4567 60.6969 46.1348 60.7016 45.8177 60.7016ZM19.3083 42.1562C21.3177 46.6359 24.4739 50.5437 28.4364 53.4594C29.2755 54.0781 30.1489 54.6531 31.0411 55.1719C31.452 55.4125 31.8927 55.6562 32.3989 55.9219C33.7692 56.6297 35.2083 57.2312 36.6645 57.7109C37.8848 58.1141 39.1583 58.4453 40.4427 58.6844C41.9458 58.9687 43.4973 59.1359 45.0473 59.1734C45.6036 59.1875 46.1692 59.1875 46.7223 59.1703C57.263 58.8484 66.8536 52.9203 71.7458 43.7016C75.3473 36.9187 76.0755 29.1594 73.7927 21.8578C71.4927 14.4969 66.4177 8.47812 59.4989 4.91405C56.8005 3.52343 53.9348 2.56718 50.9833 2.0703C50.6583 2.00937 50.3286 1.96249 49.9645 1.91562C49.0473 1.79062 48.127 1.70937 47.2192 1.67499C45.1286 1.59374 43.0177 1.73437 40.9442 2.10468C38.888 2.46405 36.8708 3.04374 34.938 3.82812C34.3177 4.08124 33.7052 4.35155 33.1223 4.63905C32.2098 5.08593 31.327 5.5703 30.5005 6.08437C26.1317 8.78749 22.5505 12.6094 20.1473 17.1391C15.9927 24.9641 15.6895 34.0828 19.3083 42.1562Z" fill="#371A45"/>
<path d="M22.5887 48.9265C39.0715 62.2968 63.5199 55.5109 66.459 34.8078C68.459 20.725 56.0418 7.96402 42.223 6.97652C32.1668 6.2609 22.0152 9.90308 16.5699 25.0109C16.5699 25.0109 15.2043 32.0625 16.7715 36.9484C18.3402 41.8343 20.6996 46.3172 20.6996 46.3172L22.5887 48.9265Z" fill="#371A45"/>
<path d="M66.4596 34.8078C63.5205 55.5109 39.0721 62.2968 22.5893 48.9265L22.208 48.3984C41.1455 53.2406 61.208 43.3359 64.5752 22.4578C66.3221 26.2421 67.0768 30.4625 66.4596 34.8078Z" fill="#220F2D"/>
<path d="M41.5989 59.611C39.8427 59.611 38.0739 59.4703 36.3052 59.1828L36.1895 59.1563C34.6552 58.6547 33.1442 58.0203 31.7005 57.2735C31.1692 56.9953 30.702 56.7375 30.2739 56.4891C29.3395 55.9438 28.4192 55.3391 27.5364 54.6906C23.3645 51.6203 20.0411 47.5016 17.9255 42.7875C14.1083 34.2813 14.4302 24.6766 18.8114 16.4266C21.3427 11.661 25.1083 7.63752 29.7036 4.79845L29.7677 4.7547L29.8411 4.7297C33.5505 3.38283 37.7692 2.86408 42.3833 3.19377C50.688 3.78595 58.8864 8.16095 64.3145 14.8922C69.2005 20.9531 71.3348 28.2156 70.3239 35.3453C69.2223 43.1 65.4739 49.5344 59.4817 53.9485C54.4661 57.6375 48.1489 59.611 41.5989 59.611ZM36.6083 57.6938C44.5552 58.9719 52.5598 57.1578 58.5864 52.7219C64.2411 48.5563 67.7833 42.4735 68.8239 35.1266C69.7755 28.4219 67.7583 21.5703 63.1364 15.8391C57.9708 9.43127 50.1708 5.26564 42.2755 4.70314C37.9067 4.39064 33.9239 4.87033 30.4317 6.12345C26.0927 8.82189 22.538 12.6266 20.1473 17.1344C15.9895 24.9641 15.6848 34.0828 19.3036 42.161C21.313 46.6391 24.4692 50.5469 28.4317 53.4641C29.2708 54.0828 30.1458 54.6563 31.0364 55.1766C31.4473 55.4156 31.888 55.661 32.3942 55.9266C33.7567 56.6219 35.1739 57.2172 36.6083 57.6938Z" fill="#371A45"/>
<path d="M41.6111 56.5921C34.7674 56.5921 27.8361 54.1546 22.1143 49.514L22.0361 49.4484L20.0314 46.6656C19.933 46.4812 17.6205 42.0671 16.0533 37.1765C14.4424 32.1656 15.7705 25.1562 15.8252 24.8656L15.8564 24.7531C20.6189 11.5406 29.5033 5.30776 42.2752 6.21713C49.6861 6.74526 57.0018 10.6484 61.8471 16.6546C66.2064 22.064 68.1127 28.5499 67.2096 34.9156C65.8986 44.139 60.2783 51.3453 51.7799 54.6874C48.5299 55.9687 45.0814 56.5921 41.6111 56.5921ZM23.1455 48.3984C31.3361 54.9999 42.0908 56.8703 51.2283 53.2749C59.1986 50.139 64.4799 43.3703 65.7096 34.7015C66.5533 28.7593 64.7627 22.6906 60.6689 17.6109C56.0846 11.9281 49.1721 8.23432 42.1721 7.73276C30.1799 6.87338 21.8143 12.7546 17.308 25.2078C17.1877 25.8734 16.0783 32.2984 17.4971 36.7124C18.9439 41.2171 21.0986 45.4296 21.3518 45.914L23.1455 48.3984Z" fill="#371A45"/>
<path d="M79.7808 34.5172C79.6683 40.3375 76.0964 45.1688 71.7964 45.2969C67.4949 45.4297 64.1027 40.8188 64.2105 34.9938C64.2105 34.9547 64.2105 34.9157 64.2136 34.8813C64.3683 29.1079 67.9246 24.3422 72.1949 24.2125C75.5136 24.1094 78.298 26.8391 79.3386 30.7719C79.648 31.9297 79.8058 33.1907 79.7808 34.5172Z" fill="white"/>
<path d="M79.7808 34.5172C79.6683 40.3375 76.0964 45.1688 71.7964 45.2969C67.4949 45.4297 64.1027 40.8188 64.2105 34.9938C64.2105 34.9547 64.2105 34.9156 64.2136 34.8813C64.6777 35.4656 65.4011 36.0313 66.3996 35.8C68.1511 35.3969 71.3543 31.5563 71.3543 31.5563C71.3543 31.5563 74.8152 31.1922 79.3386 30.7672C79.648 31.9297 79.8058 33.1906 79.7808 34.5172Z" fill="#371A45" fill-opacity="0.2471"/>
<path d="M71.6169 46.061C69.7997 46.061 68.0997 45.3219 66.6825 43.9203C64.5653 41.8266 63.3872 38.5657 63.456 34.9797C63.5716 28.7688 67.4872 23.6 72.1732 23.4532C74.0622 23.3985 75.8435 24.136 77.3138 25.5907C79.4294 27.6828 80.6075 30.9438 80.5388 34.5297C80.4232 40.7407 76.5075 45.911 71.8216 46.0563C71.7528 46.0563 71.6841 46.061 71.6169 46.061ZM72.3794 24.9688C72.3278 24.9688 72.2763 24.9688 72.22 24.9719C68.3263 25.0922 65.0763 29.5922 64.9732 35.0094C64.9122 38.1328 65.9497 41.0625 67.7482 42.8391C68.9185 43.9969 70.3091 44.5844 71.7794 44.5375C75.6732 44.4172 78.9232 39.9125 79.0263 34.5C79.0857 31.3766 78.0497 28.4469 76.2513 26.6703C75.1247 25.5563 73.7872 24.9688 72.3794 24.9688Z" fill="#371A45"/>
<path d="M75.4495 27.3484C75.6542 27.3719 75.8589 27.4094 76.0605 27.4594C76.262 27.5109 76.4605 27.5734 76.6558 27.65C76.8526 27.7265 77.0433 27.8156 77.2323 27.9187C77.4198 28.0203 77.6026 28.1344 77.7808 28.2609C77.9589 28.3875 78.1308 28.525 78.298 28.675C78.4651 28.8234 78.6245 28.9844 78.7792 29.1562C78.9323 29.3265 79.0792 29.5078 79.2183 29.7C79.3573 29.8906 79.4886 30.0922 79.612 30.3015C79.7355 30.5109 79.8495 30.7281 79.9558 30.9547C80.062 31.1812 80.1589 31.414 80.248 31.6531C80.3355 31.8937 80.4151 32.139 80.4839 32.3906C80.5526 32.6422 80.6136 32.8984 80.662 33.1609C80.712 33.4219 80.7526 33.6859 80.7823 33.9531C80.812 34.2219 80.8308 34.4922 80.8401 34.764C80.8495 35.0359 80.848 35.3078 80.837 35.5828C80.8261 35.8562 80.8058 36.1297 80.773 36.4015C80.7417 36.675 80.7011 36.9453 80.6495 37.214C80.598 37.4844 80.537 37.75 80.4651 38.0125C80.3948 38.275 80.3136 38.5344 80.2245 38.7875C80.1339 39.0422 80.0355 39.2906 79.9276 39.5328C79.8198 39.7765 79.7042 40.0125 79.5792 40.2406C79.4542 40.4703 79.3214 40.6922 79.1808 40.9062C79.0401 41.1187 78.8933 41.3234 78.7386 41.5187C78.5839 41.7156 78.4214 41.9015 78.2542 42.0765C78.087 42.2531 77.9136 42.4187 77.7339 42.5734C77.5542 42.7281 77.3714 42.8703 77.1823 43.0031C76.9933 43.1344 76.8011 43.2531 76.6042 43.3609C76.4089 43.4687 76.2089 43.564 76.0073 43.6469C75.8042 43.7281 75.6011 43.7984 75.3948 43.8547C75.1886 43.9109 74.9808 43.9547 74.773 43.9844C74.5651 44.014 74.3573 44.0297 74.1495 44.0328C73.9417 44.0359 73.7355 44.0265 73.5292 44.0015C73.323 43.9781 73.1198 43.9406 72.9167 43.8906C72.7151 43.8406 72.5167 43.7765 72.3214 43.7C72.1261 43.6234 71.9339 43.5344 71.7464 43.4328C71.5573 43.3312 71.3745 43.2172 71.1964 43.0906C71.0183 42.964 70.8464 42.8265 70.6792 42.6765C70.5136 42.5265 70.3526 42.3656 70.1995 42.1953C70.0448 42.0234 69.8995 41.8422 69.7605 41.6515C69.6198 41.4594 69.4886 41.2594 69.3667 41.05C69.2433 40.839 69.1276 40.6219 69.0214 40.3953C68.9151 40.1703 68.8183 39.9375 68.7292 39.6969C68.6417 39.4578 68.5636 39.2109 68.4933 38.9594C68.4245 38.7078 68.3651 38.4515 68.3151 38.1906C68.2651 37.9297 68.2261 37.6656 68.1964 37.3969C68.1667 37.1297 68.1464 36.8594 68.137 36.5875C68.1276 36.3156 68.1292 36.0422 68.1401 35.7687C68.1511 35.4953 68.173 35.2219 68.2042 34.9484C68.2355 34.6765 68.2776 34.4047 68.3276 34.1359C68.3792 33.8672 68.4417 33.6015 68.512 33.3375C68.5823 33.075 68.6636 32.8172 68.7526 32.5625C68.8433 32.3094 68.9417 32.0609 69.0495 31.8172C69.1573 31.575 69.2745 31.339 69.398 31.1094C69.523 30.8797 69.6558 30.6578 69.7964 30.4453C69.937 30.2312 70.0855 30.0265 70.2401 29.8312C70.3948 29.6359 70.5558 29.45 70.723 29.2734C70.8917 29.0969 71.0651 28.9328 71.2433 28.7781C71.423 28.6234 71.6073 28.4797 71.7948 28.3484C71.9839 28.2172 72.1761 28.0969 72.373 27.989C72.5698 27.8812 72.7683 27.7859 72.9714 27.7047C73.173 27.6219 73.3776 27.5531 73.5823 27.4969C73.7886 27.439 73.9964 27.3969 74.2042 27.3672C74.412 27.3375 74.6198 27.3203 74.8276 27.3172C75.0355 27.314 75.2433 27.325 75.4495 27.3484Z" fill="white"/>
<path d="M74.07 44.1172C73.2653 44.1172 72.4684 43.9156 71.7184 43.5078C68.52 41.7828 67.1528 36.8672 68.67 32.5515C69.5169 30.1453 71.1059 28.339 73.0294 27.5937C74.4606 27.0406 75.9216 27.125 77.2528 27.8422C80.4528 29.5672 81.8184 34.4828 80.3028 38.7984L80.2294 38.7718L80.3028 38.7984C79.4544 41.2047 77.8653 43.0109 75.9419 43.7562C75.3169 43.9968 74.6919 44.1172 74.07 44.1172ZM74.8966 27.3875C74.2981 27.3875 73.6888 27.5031 73.0856 27.739C71.2013 28.4687 69.6466 30.2437 68.8153 32.6031C67.32 36.85 68.6559 41.6765 71.7919 43.3672C73.0809 44.0609 74.495 44.1422 75.8825 43.6062C77.7669 42.8781 79.3216 41.1015 80.1528 38.7422C81.6481 34.4953 80.3122 29.6687 77.1763 27.9797C76.4481 27.5843 75.6809 27.3875 74.8966 27.3875Z" fill="#371A45"/>
<path d="M68.4374 39.1281C68.0733 37.5843 68.1421 35.9328 68.5499 34.3875C69.6764 37.8406 72.8155 39.2906 75.8264 37.6265C77.7764 36.55 79.2233 34.4187 79.8483 32.0281C79.9217 32.2468 79.9811 32.475 80.0374 32.7109C80.9577 36.6437 79.1077 41.2734 75.9046 43.0453C72.7046 44.8156 69.3592 43.0625 68.4374 39.1281Z" fill="#371A45" fill-opacity="0.2471"/>
<path d="M74.1656 44.8125C72.8281 44.8125 71.5687 44.2625 70.5109 43.2203C68.7984 41.5297 67.8171 38.7078 67.8906 35.6672C68.0062 30.5359 71.0593 26.2469 74.6921 26.1047C76.0968 26.0531 77.4296 26.5984 78.539 27.6922C80.2515 29.3781 81.2328 32.2047 81.1593 35.2453C81.0437 40.3765 77.9906 44.6656 74.3578 44.8078C74.289 44.8125 74.2296 44.8125 74.1656 44.8125ZM74.8765 27.6187C74.8328 27.6187 74.7906 27.6187 74.7468 27.6234C71.8984 27.7344 69.4999 31.3594 69.4015 35.7047C69.3421 38.3344 70.1515 40.7406 71.5734 42.1437C72.3796 42.9375 73.3218 43.3359 74.2984 43.2984C77.1468 43.1859 79.5453 39.5609 79.6437 35.2156C79.7031 32.5859 78.8937 30.1797 77.4718 28.7765C76.7015 28.014 75.8062 27.6187 74.8765 27.6187Z" fill="#371A45"/>
<path d="M48.9281 12.6609C48.9281 12.6609 35.3453 12.55 27.3218 19.7C27.314 19.7094 27.3046 19.7172 27.2968 19.7219C25.6093 21.2281 24.3624 23.1578 23.6765 25.2984C22.7687 28.1297 22.564 30.2094 22.4515 32.0453C22.1171 37.6359 23.0218 40.3125 23.0218 40.3125C19.9765 37.1813 18.3609 33.7281 18.5921 29.0688C18.6187 28.6094 18.6562 28.1375 18.7171 27.6531C18.7296 27.5422 18.7468 27.4297 18.764 27.3188C18.7593 27.3188 18.764 27.3141 18.764 27.3109C18.9531 26.3359 19.2484 25.0703 19.7015 23.6688C21.0734 19.4344 23.8734 13.9688 29.4859 11.6656C39.9796 7.37187 49.4281 12.1031 48.9281 12.6609Z" fill="white" fill-opacity="0.498"/>
<path d="M62.084 26.1328C62.148 26.4281 62.1871 26.725 62.1996 27.0265C62.2121 27.3265 62.1996 27.6234 62.1605 27.9171C62.1215 28.2109 62.0574 28.4968 61.9683 28.7734C61.8793 29.0484 61.7668 29.3109 61.6308 29.5593C61.4949 29.8078 61.3386 30.0375 61.1605 30.2468C60.9824 30.4578 60.7871 30.6453 60.5761 30.8093C60.3636 30.9734 60.1371 31.1125 59.898 31.225C59.659 31.3375 59.4121 31.4203 59.1558 31.4765C58.8996 31.5328 58.6386 31.5593 58.3746 31.5562C58.1105 31.5531 57.848 31.5218 57.5871 31.4609C57.3246 31.3984 57.0699 31.3093 56.8215 31.1921C56.573 31.075 56.334 30.9312 56.1074 30.7625C55.8808 30.5921 55.6699 30.4015 55.4746 30.1875C55.2793 29.9718 55.1027 29.7406 54.9449 29.489C54.7871 29.2375 54.6527 28.9718 54.5402 28.6937C54.4277 28.4156 54.3386 28.1281 54.2746 27.8343C54.2105 27.539 54.1715 27.2406 54.159 26.9406C54.1465 26.6406 54.159 26.3437 54.198 26.05C54.2371 25.7562 54.3011 25.4703 54.3902 25.1937C54.4793 24.9171 54.5918 24.6546 54.7277 24.4078C54.8636 24.1593 55.0215 23.9296 55.198 23.7203C55.3761 23.5093 55.5715 23.3218 55.784 23.1578C55.9965 22.9921 56.2215 22.8546 56.4605 22.7421C56.6996 22.6296 56.948 22.5453 57.2043 22.489C57.4605 22.4343 57.7199 22.4078 57.984 22.4109C58.248 22.4125 58.5105 22.4453 58.773 22.5062C59.034 22.5671 59.2886 22.6578 59.5371 22.775C59.7871 22.8921 60.0246 23.0359 60.2511 23.2046C60.4777 23.3734 60.6886 23.5656 60.884 23.7796C61.0808 23.9937 61.2574 24.2265 61.4136 24.4781C61.5715 24.7296 61.7058 24.9937 61.8199 25.2718C61.9324 25.5515 62.0199 25.8375 62.084 26.1328Z" fill="white"/>
<path d="M61.4533 34.6579C61.4908 34.7766 61.5189 34.8969 61.5345 35.0204C61.5517 35.1438 61.558 35.2657 61.5533 35.3891C61.5486 35.511 61.533 35.6313 61.508 35.7485C61.4814 35.8657 61.4455 35.9782 61.3986 36.0844C61.3517 36.1922 61.297 36.2922 61.2314 36.386C61.1673 36.4782 61.0939 36.5641 61.0126 36.6391C60.9314 36.7157 60.8455 36.7813 60.7501 36.836C60.6564 36.8907 60.558 36.936 60.4548 36.9688C60.3517 37.0016 60.2455 37.0219 60.1376 37.0313C60.0283 37.0391 59.9205 37.036 59.8095 37.0219C59.7001 37.0063 59.5923 36.9797 59.4845 36.9407C59.3783 36.9016 59.2751 36.8516 59.1751 36.7907C59.0767 36.7297 58.9814 36.6594 58.8939 36.5782C58.8048 36.4985 58.7236 36.4094 58.6486 36.311C58.5751 36.2141 58.5095 36.111 58.4517 36C58.3939 35.8891 58.347 35.775 58.3095 35.6563C58.272 35.5375 58.2455 35.4157 58.2283 35.2938C58.2111 35.1704 58.2048 35.0469 58.2095 34.925C58.2142 34.8032 58.2298 34.6829 58.2564 34.5657C58.2814 34.4485 58.3173 34.336 58.3642 34.2297C58.4111 34.1219 58.4658 34.0219 58.5314 33.9282C58.5955 33.8344 58.6689 33.75 58.7501 33.675C58.8314 33.5985 58.9189 33.5329 59.0126 33.4782C59.1064 33.4219 59.2048 33.3782 59.308 33.3454C59.4111 33.3125 59.5173 33.2922 59.6251 33.2829C59.7345 33.2735 59.8439 33.2766 59.9533 33.2922C60.0626 33.3079 60.1705 33.3344 60.2783 33.3735C60.3845 33.4125 60.4876 33.4625 60.5876 33.5235C60.6876 33.5844 60.7814 33.6547 60.8705 33.736C60.958 33.8157 61.0392 33.9047 61.1142 34.0032C61.1892 34.1 61.2548 34.2032 61.3111 34.3141C61.3689 34.4235 61.4158 34.5391 61.4533 34.6579Z" fill="white"/>
<path d="M96.3145 31.7547C97.0691 31.4453 97.9332 30.4109 98.1348 30.0172C98.5457 29.2063 99.1457 28.2156 99.827 26.9406C100.993 24.7531 104.016 21.7672 105.755 22.7938C108.532 24.4281 104.719 27.6703 104.757 28.3141C104.791 28.9578 106.547 31.9266 105.079 35.2078L96.3145 31.7547Z" fill="white"/>
<path d="M96.0358 31.0719C96.1811 31.0125 96.3749 30.8828 96.5577 30.7297C96.7421 30.575 96.9218 30.3938 97.0858 30.2063C97.1671 30.111 97.2483 30.0125 97.3202 29.9188C97.3936 29.8235 97.4577 29.7297 97.4874 29.6656C97.6249 29.4 97.7671 29.1422 97.903 28.8891L98.7389 27.3922L99.1452 26.65C99.2874 26.3844 99.4499 26.1094 99.6171 25.8563C99.9546 25.3453 100.323 24.8656 100.726 24.4141C101.128 23.9594 101.561 23.5313 102.041 23.1406C102.52 22.75 103.044 22.386 103.669 22.1203C103.981 21.986 104.328 21.8797 104.714 21.8406C105.095 21.8016 105.536 21.8406 105.934 22.025C106.148 22.1235 106.281 22.2188 106.436 22.3172C106.586 22.4328 106.731 22.5438 106.869 22.6906C107.142 22.9735 107.373 23.3547 107.476 23.7719C107.584 24.1875 107.562 24.6031 107.489 24.9641C107.417 25.3281 107.292 25.65 107.151 25.95C106.869 26.5469 106.522 27.0531 106.175 27.5297L105.678 28.2031C105.605 28.3047 105.536 28.4172 105.519 28.4516C105.506 28.4735 105.523 28.4422 105.523 28.4297C105.519 28.4344 105.541 28.3735 105.541 28.336C105.541 28.3141 105.541 28.2922 105.541 28.2703C105.536 28.25 105.541 28.2672 105.541 28.2625C105.545 28.2625 105.545 28.2625 105.541 28.2625C105.536 28.2578 105.541 28.275 105.545 28.2875L105.558 28.3266C105.617 28.5328 105.72 28.825 105.811 29.1031C105.9 29.3828 105.991 29.6735 106.064 29.9703C106.217 30.5625 106.32 31.175 106.342 31.7969C106.397 33.0406 106.081 34.3235 105.42 35.3485C105.309 35.5203 105.078 35.5719 104.906 35.461C104.773 35.375 104.714 35.2203 104.744 35.075L104.748 35.0485C104.859 34.5078 104.98 33.9938 104.997 33.4656C105.009 33.3375 105.014 33.2047 105.014 33.075C105.014 32.9469 105.026 32.8188 105.009 32.6844L104.992 32.2953L104.945 31.9094C104.876 31.3938 104.77 30.8797 104.62 30.3688C104.547 30.111 104.461 29.8578 104.367 29.5969C104.276 29.3313 104.175 29.0906 104.067 28.7469L104.05 28.6828C104.045 28.661 104.037 28.6438 104.028 28.6016C104.016 28.5328 104.003 28.4641 103.994 28.3906C103.994 28.3703 103.991 28.3656 103.991 28.3266C103.991 28.2875 103.991 28.25 103.994 28.211C103.998 28.1375 104.016 28.0391 104.028 28.0141C104.055 27.9328 104.089 27.8375 104.109 27.7953C104.217 27.5719 104.308 27.4469 104.397 27.3141C104.576 27.0578 104.744 26.8297 104.906 26.6031C105.233 26.1563 105.528 25.7141 105.737 25.2766C105.951 24.8391 106.042 24.4141 105.969 24.1406C105.934 23.9985 105.87 23.8735 105.75 23.7453C105.695 23.6813 105.617 23.6203 105.541 23.5563C105.455 23.5016 105.356 23.4328 105.305 23.411C105.073 23.2906 104.68 23.3203 104.247 23.5016C103.819 23.6766 103.386 23.9594 102.98 24.2906C102.166 24.9516 101.433 25.7781 100.85 26.6625C100.705 26.886 100.576 27.1047 100.448 27.3406L100.033 28.1031L99.1968 29.6016C99.0593 29.8453 98.9264 30.0906 98.803 30.3344C98.7046 30.5281 98.6014 30.6641 98.503 30.7985C98.4046 30.9313 98.3014 31.0547 98.1952 31.175C97.9843 31.4156 97.7577 31.6422 97.5046 31.8531C97.2483 32.0625 96.9702 32.2688 96.5921 32.4328C96.2202 32.5906 95.7827 32.4188 95.6249 32.0453C95.4655 31.6735 95.6374 31.236 96.0108 31.0766L96.0358 31.0719Z" fill="#371A45"/>
<path d="M45.6719 73.4203L58.5563 83.8532L68.6188 82.3891L73.9375 81.6172C73.9375 81.6172 77.5625 79.0907 78.4359 78.4641C79.6172 77.6188 78.6969 76.1563 77.8656 75.4235C76.4484 74.1703 75.2531 72.8672 74.2203 71.5922C72.5547 69.5328 71.3031 67.5469 70.2078 65.9391C69.3078 64.6172 67.6281 64.0688 66.1297 64.6125C57.1688 67.8735 48.1047 70.0657 48.1047 70.0657L45.6719 73.4203Z" fill="white"/>
<path d="M58.5614 84.5C58.4114 84.5 58.2692 84.4484 58.1536 84.3547L45.2692 73.9219C45.0004 73.7031 44.9489 73.3125 45.1536 73.0344L47.5879 69.6797C47.677 69.5547 47.8098 69.4656 47.9598 69.4312C48.0504 69.4094 57.0957 67.2078 65.9161 64C67.6926 63.3515 69.6801 64 70.7567 65.5703C70.9957 65.9219 71.2489 66.2953 71.5051 66.6812C73.1379 69.1172 75.1676 72.1547 78.3082 74.9344C78.9926 75.539 79.7036 76.5422 79.6567 77.5344C79.627 78.1219 79.3395 78.6234 78.8254 78.9922C77.9614 79.614 74.4692 82.0422 74.3239 82.15C74.2426 82.2047 74.1442 82.2437 74.0457 82.2609L58.6645 84.5C58.6207 84.5 58.5911 84.5 58.5614 84.5ZM46.5629 73.3L58.7504 83.1656L73.6942 80.9906C74.3411 80.5406 77.2926 78.4812 78.0598 77.9328C78.3036 77.7562 78.3411 77.589 78.3504 77.4656C78.3754 76.9937 77.9098 76.3234 77.4426 75.9078C74.1739 73.0172 72.0926 69.9062 70.4223 67.4062C70.1645 67.0234 69.9161 66.6547 69.6801 66.3031C68.9442 65.2219 67.577 64.7812 66.3614 65.2219C58.2661 68.1687 49.9864 70.2672 48.4989 70.6359L46.5629 73.3Z" fill="#371A45"/>
<path d="M68.6185 82.386L73.9373 81.6125C73.9373 81.6125 77.5623 79.086 78.4357 78.461C79.3388 77.8125 79.0138 76.8094 78.4435 76.0407C78.2685 75.8047 78.0623 75.5907 77.8701 75.4188C76.4529 74.1657 75.2576 72.8625 74.2248 71.5875C74.1779 72.3 73.0732 73.1235 71.4013 72.9266C70.6435 72.836 68.1763 70.1125 66.9435 70.0047C63.3373 69.6875 66.8654 78.8766 68.6185 82.386Z" fill="#371A45" fill-opacity="0.298"/>
<path d="M88.0907 56.3687C89.011 57.0718 89.5297 58.2437 89.3844 59.2937C87.5672 72.4843 75.6563 77.8547 72.8547 75.389C70.2891 73.1281 71.8141 70.7343 71.8141 70.7343C71.8141 70.7343 81.0532 68.2203 84.2782 56.9125C84.6985 55.45 86.3688 55.0562 87.7344 56.1031L88.0907 56.3687Z" fill="white"/>
<path d="M72.8547 75.3844C75.6562 77.8515 87.5672 72.4812 89.3844 59.289C89.525 58.2437 89.0109 57.0719 88.0906 56.364L87.7391 56.0937C87.2422 55.7125 86.7063 55.5234 86.2063 55.5062C86.5875 56.1203 86.7625 56.8406 86.6719 57.5047C85.1172 68.8078 76.1484 74.3672 71.8516 74.175C72.075 74.5781 72.4 74.9859 72.8547 75.3844Z" fill="#371A45" fill-opacity="0.298"/>
<path d="M74.7808 76.7094C73.7792 76.7094 72.948 76.4531 72.3699 75.9422C69.9621 73.8235 70.5496 71.3485 71.1917 70.336L71.3464 70.0953L71.6199 70.0219C71.7058 69.9969 80.5042 67.4578 83.5714 56.711C83.8199 55.8407 84.4324 55.1844 85.2542 54.9141C86.1886 54.6047 87.2839 54.8282 88.1839 55.5188L88.5402 55.7891C89.6621 56.6469 90.2964 58.0969 90.1152 59.4016C88.9042 68.225 83.0949 74.1406 77.8777 76.0844C76.7386 76.5 75.6902 76.7094 74.7808 76.7094ZM72.323 71.3485C72.0746 71.9063 71.6761 73.3594 73.3417 74.8313C74.0011 75.411 75.5777 75.3547 77.3605 74.6891C82.1667 72.9016 87.5199 67.4141 88.6511 59.1907C88.7574 58.411 88.3433 57.4922 87.6402 56.9563L87.2839 56.686C86.7746 56.2953 86.1839 56.1547 85.7121 56.3125C85.3527 56.4328 85.0996 56.7078 84.9839 57.1157C81.9855 67.6375 74.0355 70.7813 72.323 71.3485Z" fill="#371A45"/>
<path d="M56.6715 82.1969C57.5324 83.2297 58.4793 84.6078 58.4793 84.6078C58.4793 84.6078 60.7402 83.0625 60.9121 82.9219C61.473 82.4547 60.9293 80.8719 59.6996 79.3875C58.4668 77.9031 57.0105 77.0797 56.448 77.5469C56.0371 77.889 54.209 79.1078 54.209 79.1078C54.209 79.1078 56.3418 81.7984 56.6715 82.1969Z" fill="white"/>
<path d="M57.7325 80.6954C57.8779 80.8719 58.0154 81.0547 58.1419 81.2422C58.2685 81.4297 58.3825 81.6188 58.4825 81.811C58.5841 82.0016 58.6716 82.1907 58.7435 82.3797C58.8169 82.5672 58.8732 82.75 58.9138 82.9266C58.9544 83.1047 58.9779 83.2735 58.9857 83.4329C58.9935 83.5922 58.9841 83.7407 58.9575 83.8766C58.931 84.0125 58.8888 84.1344 58.8294 84.2407C58.7716 84.3485 58.6966 84.4391 58.6075 84.5141C58.5185 84.5875 58.4169 84.6438 58.3013 84.6829C58.1841 84.7204 58.0575 84.7407 57.9185 84.7422C57.781 84.7422 57.6341 84.725 57.4779 84.6891C57.3232 84.6516 57.1622 84.5985 56.995 84.525C56.8279 84.4532 56.6591 84.3641 56.4872 84.2594C56.3169 84.1532 56.1466 84.0329 55.9763 83.8985C55.8075 83.7641 55.6419 83.6172 55.481 83.4594C55.32 83.3 55.1654 83.1329 55.0185 82.9563C54.8716 82.7797 54.7357 82.5985 54.6091 82.411C54.4825 82.2235 54.3685 82.0329 54.2669 81.8422C54.1669 81.65 54.0794 81.461 54.0075 81.2735C53.9341 81.0844 53.8779 80.9032 53.8372 80.725C53.7966 80.5485 53.7732 80.3797 53.7654 80.2204C53.7575 80.0594 53.7669 79.9125 53.7935 79.7766C53.82 79.6391 53.8622 79.5188 53.92 79.411C53.9794 79.3032 54.0529 79.2125 54.1419 79.1391C54.231 79.0641 54.3341 79.0079 54.4497 78.9704C54.5654 78.9313 54.6935 78.911 54.831 78.911C54.97 78.9094 55.1169 78.9266 55.2732 78.9641C55.4279 79 55.5888 79.0547 55.756 79.1266C55.9232 79.1985 56.0919 79.2875 56.2622 79.3938C56.4341 79.4985 56.6044 79.6188 56.7747 79.7532C56.9435 79.8875 57.1091 80.0344 57.27 80.1938C57.431 80.3516 57.5857 80.5188 57.7325 80.6954Z" fill="white"/>
<path d="M46.08 74.0593C47.0862 75.1406 48.68 76.864 50.405 78.614C52.8722 81.1203 55.6097 83.6843 57.2597 84.5C60.1284 85.9156 68.6612 83.689 73.9425 81.6125C75.3269 81.0687 75.78 79.3609 74.68 78.3531C72.88 76.7062 71.2706 75.0281 69.9284 73.5406C68.6612 72.1328 67.6425 70.8937 66.9394 70.0046C66.2972 69.1953 65.1925 68.9109 64.2362 69.3062C55.9222 72.7421 49.455 73.0375 46.58 72.9531C45.994 72.9359 45.6815 73.6296 46.08 74.0593Z" fill="white"/>
<path d="M54.1659 81.7593C55.2847 82.7796 56.3378 83.6515 57.1909 84.1875C57.3925 84.3156 57.5847 84.4265 57.7644 84.5125C60.5441 85.8859 68.8066 83.7281 73.9175 81.7156C75.2581 81.189 75.6987 79.5328 74.6316 78.5593C72.8894 76.9625 71.33 75.3375 70.0362 73.8953C70.1347 75.4625 69.7362 78.9968 64.7081 81.4281C63.405 82.0593 61.9284 82.2312 60.3894 82.1062C60.4378 81.4109 60.03 80.2875 59.28 79.1812C58.2362 77.6328 56.9081 76.7015 56.3253 77.1C55.9659 77.3453 54.5987 78.0828 54.1534 78.3187C54.08 78.3437 54.0128 78.3781 53.9472 78.4218C53.5331 78.7 53.4003 79.3093 53.5237 80.0468C53.6097 80.5796 53.8284 81.1718 54.1659 81.7593Z" fill="#371A45" fill-opacity="0.298"/>
<path d="M56.4658 83.6297C56.0596 83.0594 55.7768 82.4719 55.6314 81.9391C54.7189 81.6172 53.8486 81.261 53.0439 80.9094C54.1752 81.8485 55.3533 82.7969 56.4658 83.6297Z" fill="#371A45" fill-opacity="0.298"/>
<path d="M59.9095 85.5984C58.7158 85.5984 57.7001 85.4437 56.972 85.0828C54.1533 83.6937 48.547 77.6625 45.8486 74.7672L45.6033 74.5047C45.2439 74.1156 45.1501 73.5531 45.3689 73.0687C45.5861 72.5828 46.0705 72.2828 46.597 72.3C49.6173 72.3953 55.8923 72.0515 63.983 68.7062C65.2048 68.2031 66.6267 68.5687 67.4439 69.6015C68.8017 71.314 71.608 74.664 75.1126 77.8719C75.772 78.4734 76.0548 79.314 75.8955 80.1765C75.7251 81.0984 75.0814 81.8625 74.1736 82.2187C70.1939 83.7844 64.0001 85.5984 59.9095 85.5984ZM46.5595 73.6L46.7986 73.875C49.2361 76.4953 54.9408 82.625 57.5455 83.9125C59.9439 85.0969 67.8001 83.325 73.7033 81.0047C74.1908 80.8109 74.533 80.4125 74.6236 79.9359C74.6658 79.6953 74.6798 79.2328 74.2423 78.8297C70.6705 75.5609 67.8173 72.15 66.4345 70.4078C65.9751 69.8297 65.1751 69.6234 64.4892 69.9062C56.1658 73.3469 49.6814 73.6937 46.5595 73.6Z" fill="#371A45"/>
<path d="M56.6715 82.1969C57.5324 83.2297 58.4793 84.6078 58.4793 84.6078C58.4793 84.6078 60.7402 83.0625 60.9121 82.9219C61.473 82.4547 60.9293 80.8719 59.6996 79.3875C58.4668 77.9031 57.0105 77.0797 56.448 77.5469C56.0371 77.889 54.209 79.1078 54.209 79.1078C54.209 79.1078 56.3418 81.7984 56.6715 82.1969Z" fill="#22A7F0"/>
<path d="M54.209 79.1078C54.209 79.1078 56.3418 81.7937 56.6715 82.1969C57.5324 83.2297 58.4793 84.6078 58.4793 84.6078C58.4793 84.6078 58.5215 84.5781 58.5996 84.5265C58.273 84.0844 57.8715 83.5562 57.4902 83.0969C57.159 82.6984 55.023 80.0094 55.023 80.0094C55.023 80.0094 56.8512 78.7906 57.2668 78.4469C57.7215 78.0656 58.7699 78.5375 59.8074 79.5234C59.7684 79.4765 59.734 79.4344 59.6949 79.3875C58.4621 77.9031 57.0059 77.0797 56.4449 77.5469C56.0371 77.889 54.209 79.1078 54.209 79.1078Z" fill="white" fill-opacity="0.8"/>
<path d="M57.0703 82.6985C57.8031 83.625 58.4797 84.6078 58.4797 84.6078C58.4797 84.6078 60.7406 83.0625 60.9125 82.9219C61.4734 82.4547 60.9297 80.8719 59.7 79.3875C59.2844 78.8844 58.8438 78.461 58.4188 78.1344C59.3797 79.4641 59.7562 80.7688 59.2594 81.1844C59.1172 81.2953 57.6656 82.2906 57.0703 82.6985Z" fill="#371A45" fill-opacity="0.298"/>
<path d="M58.4801 85.1485C58.3083 85.1485 58.138 85.0657 58.0348 84.9125C58.0255 84.8985 57.088 83.5438 56.2567 82.5391C55.927 82.1407 53.8708 79.5547 53.7848 79.4422C53.6911 79.3219 53.652 79.1719 53.6739 79.0219C53.6958 78.8719 53.7817 78.7391 53.9098 78.6532C54.4114 78.3188 55.7864 77.3922 56.102 77.1266C57.088 76.3032 58.8739 77.5375 60.1161 79.0344C60.7536 79.8032 61.2426 80.6266 61.4911 81.3563C61.9067 82.5657 61.5255 83.1141 61.2598 83.3375C61.0848 83.4828 59.3239 84.6891 58.788 85.0532C58.6942 85.1172 58.5864 85.1485 58.4801 85.1485ZM54.9973 79.2328C55.6223 80.0172 56.8473 81.5625 57.088 81.8485C57.6614 82.5391 58.2614 83.3594 58.6176 83.8563C59.5505 83.2172 60.4583 82.5907 60.5708 82.5016C60.7114 82.3125 60.4505 81.1328 59.2848 79.7344C58.1208 78.3313 57.0114 77.8594 56.7958 77.9672C56.4973 78.211 55.5801 78.8375 54.9973 79.2328Z" fill="#371A45"/>
<path d="M57.7325 80.6954C57.8779 80.8719 58.0154 81.0547 58.1419 81.2422C58.2685 81.4297 58.3825 81.6188 58.4825 81.811C58.5841 82.0016 58.6716 82.1907 58.7435 82.3797C58.8169 82.5672 58.8732 82.75 58.9138 82.9266C58.9544 83.1047 58.9779 83.2735 58.9857 83.4329C58.9935 83.5922 58.9841 83.7407 58.9575 83.8766C58.931 84.0125 58.8888 84.1344 58.8294 84.2407C58.7716 84.3485 58.6966 84.4391 58.6075 84.5141C58.5185 84.5875 58.4169 84.6438 58.3013 84.6829C58.1841 84.7204 58.0575 84.7407 57.9185 84.7422C57.781 84.7422 57.6341 84.725 57.4779 84.6891C57.3232 84.6516 57.1622 84.5985 56.995 84.525C56.8279 84.4532 56.6591 84.3641 56.4872 84.2594C56.3169 84.1532 56.1466 84.0329 55.9763 83.8985C55.8075 83.7641 55.6419 83.6172 55.481 83.4594C55.32 83.3 55.1654 83.1329 55.0185 82.9563C54.8716 82.7797 54.7357 82.5985 54.6091 82.411C54.4825 82.2235 54.3685 82.0329 54.2669 81.8422C54.1669 81.65 54.0794 81.461 54.0075 81.2735C53.9341 81.0844 53.8779 80.9032 53.8372 80.725C53.7966 80.5485 53.7732 80.3797 53.7654 80.2204C53.7575 80.0594 53.7669 79.9125 53.7935 79.7766C53.82 79.6391 53.8622 79.5188 53.92 79.411C53.9794 79.3032 54.0529 79.2125 54.1419 79.1391C54.231 79.0641 54.3341 79.0079 54.4497 78.9704C54.5654 78.9313 54.6935 78.911 54.831 78.911C54.97 78.9094 55.1169 78.9266 55.2732 78.9641C55.4279 79 55.5888 79.0547 55.756 79.1266C55.9232 79.1985 56.0919 79.2875 56.2622 79.3938C56.4341 79.4985 56.6044 79.6188 56.7747 79.7532C56.9435 79.8875 57.1091 80.0344 57.27 80.1938C57.431 80.3516 57.5857 80.5188 57.7325 80.6954Z" fill="#22A7F0"/>
<path d="M55.019 82.9609C55.1003 83.0593 55.1815 83.1484 55.2628 83.239C54.4925 81.9828 54.3331 80.725 54.9503 80.2109C55.6487 79.6265 57.1003 80.1968 58.2956 81.489C58.1331 81.2234 57.944 80.9609 57.73 80.7C56.4972 79.2156 54.8909 78.5156 54.1409 79.1421C53.3956 79.7687 53.7847 81.4796 55.019 82.9609Z" fill="white" fill-opacity="0.8"/>
<path d="M55.125 83.089C56.3422 84.4875 57.875 85.1265 58.6031 84.5219C59.3531 83.9 58.9594 82.1922 57.725 80.7078C57.0781 79.9312 56.3328 79.3703 55.6609 79.1C55.6953 79.1375 55.7297 79.1812 55.7641 79.2234C56.9969 80.7078 57.3875 82.4156 56.6375 83.0422C56.2906 83.3328 55.7375 83.3297 55.125 83.089Z" fill="#371A45" fill-opacity="0.298"/>
<path d="M57.905 85.2938C56.9082 85.2938 55.6535 84.5781 54.5988 83.3125C53.13 81.5453 52.7832 79.5719 53.7941 78.7313C54.805 77.8891 56.6769 78.5891 58.1457 80.3563C59.6144 82.1281 59.9613 84.0969 58.9504 84.9375C58.6644 85.1781 58.3035 85.2938 57.905 85.2938ZM54.8394 79.4641C54.6894 79.4641 54.5691 79.4984 54.4925 79.5672C54.1113 79.8844 54.2863 81.2313 55.4379 82.6172C56.591 84.0031 57.88 84.4234 58.2613 84.1063C58.6425 83.7875 58.4675 82.4406 57.3144 81.0563C56.4019 79.9531 55.405 79.4641 54.8394 79.4641Z" fill="#371A45"/>
<path d="M67.6972 84.1391C67.569 84.1391 67.4409 84.0891 67.3456 83.9891L63.5175 79.975C62.8144 79.2375 62.7206 78.0875 63.294 77.2469C63.5862 76.8219 63.5722 76.2594 63.2597 75.8484L59.6784 71.125C59.5159 70.9109 59.5597 70.6016 59.7737 70.4391C59.9878 70.275 60.2956 70.3187 60.4581 70.5328L64.0394 75.2562C64.605 76.0016 64.63 77.0234 64.1034 77.7953C63.7862 78.2594 63.8378 78.8891 64.2284 79.2969L68.0565 83.3125C68.2409 83.5094 68.2378 83.8187 68.0409 84.0031C67.9409 84.0969 67.8222 84.1391 67.6972 84.1391Z" fill="#371A45"/>
<path d="M93.166 84.0718C92.7988 84.0718 92.4816 83.7968 92.4347 83.4234C92.3832 83.0203 92.6691 82.6515 93.0769 82.6C94.2753 82.45 96.7988 81.1922 98.4566 78.4468C99.866 76.1093 101.039 71.9656 98.6066 65.5062C98.4613 65.1234 98.6535 64.6984 99.0347 64.5531C99.416 64.4109 99.8394 64.6 99.9863 64.9828C102.628 71.9953 101.296 76.5906 99.716 79.2109C97.7753 82.4234 94.7894 83.8734 93.2566 84.0625C93.2269 84.0718 93.1972 84.0718 93.166 84.0718Z" fill="#371A45"/>
<path d="M95.0593 52.5156C94.9687 52.5156 94.8749 52.4984 94.7859 52.4656C90.6296 50.8093 87.9281 47.364 86.964 42.5078C86.2484 38.9046 86.7406 35.8249 86.7624 35.6921C86.8265 35.289 87.2078 35.0187 87.6109 35.0828C88.0124 35.1468 88.2828 35.5296 88.2187 35.9328C88.214 35.9703 87.7484 38.9187 88.4203 42.2593C89.2984 46.639 91.6234 49.6078 95.3296 51.0874C95.7062 51.2374 95.8953 51.6671 95.7406 52.0484C95.6328 52.3406 95.3546 52.5156 95.0593 52.5156Z" fill="#371A45"/>
<path d="M66.9638 66.3032C66.8622 66.1797 65.606 67.9813 64.5138 68.65C63.9497 68.9969 66.4841 70.0828 66.2575 69.3016C65.9872 68.3672 67.0669 66.4282 66.9638 66.3032Z" fill="#371A45"/>
</svg>
