<svg width="100" height="162" viewBox="0 0 100 162" fill="none" xmlns="http://www.w3.org/2000/svg">
<path d="M55.8164 92.6619C55.4938 92.6619 55.2314 92.4017 55.2314 92.0791V48.6967C55.2314 48.3741 55.4938 48.1138 55.8164 48.1138C56.139 48.1138 56.4014 48.3741 56.4014 48.6967V92.0791C56.4014 92.4017 56.139 92.6619 55.8164 92.6619Z" fill="#371A45"/>
<path d="M30.3462 110.355C30.3462 110.355 15.952 114.106 15.438 119.747C14.9929 124.67 20.3866 141.262 23.5588 143.083C25.8729 144.412 32.8452 141.974 32.8452 141.974L30.3462 110.355Z" fill="white"/>
<path d="M15.4141 120.67C15.5818 126.459 20.5627 141.361 23.5585 143.083C25.8726 144.412 32.8449 141.974 32.8449 141.974L31.7373 135.52C31.7373 135.52 24.765 137.958 22.4531 136.629C20.2874 135.386 17.0872 127.265 15.4141 120.67Z" fill="#371A45" fill-opacity="0.349"/>
<path d="M26.4327 144.027C24.938 144.027 23.4326 143.705 22.1874 142.784C18.7399 140.24 14.4365 124.726 14.7311 119.71C15.0129 114.917 23.8068 111.964 24.1831 111.841C24.5574 111.719 24.9574 111.923 25.08 112.297C25.2047 112.671 25.0004 113.071 24.6283 113.194C22.3358 113.953 16.3377 116.616 16.1527 119.796C15.871 124.599 20.2647 139.595 23.0326 141.64C26.4047 144.129 32.6308 141.042 32.6932 141.014C33.0437 140.838 33.4717 140.976 33.6481 141.333C33.8244 141.683 33.6803 142.111 33.3298 142.285C33.1341 142.382 29.8113 144.027 26.4327 144.027Z" fill="#371A45"/>
<path d="M46.9165 112.187C46.9165 112.187 46.2885 117.276 48.4972 113.788C50.5102 110.598 53.0178 105.282 55.2372 96.6169C55.2544 96.5459 55.2738 96.4728 55.2932 96.4019C55.2932 96.4019 56.291 96.318 57.5105 95.705C60.3944 94.2663 59.7772 88.6531 59.2202 86.7455C58.5664 84.496 57.018 85.1025 57.018 85.1025C56.476 84.2143 55.4028 83.7411 53.5985 83.7691C50.2069 83.8164 49.5187 86.5606 49.5187 86.5606C46.4132 95.9051 42.6281 101.667 40.3721 104.533C39.1785 106.056 38.415 106.764 38.415 106.764L46.9165 112.187Z" fill="white"/>
<path d="M46.9169 112.187C46.9169 112.187 46.2889 117.276 48.4976 113.788C50.5106 110.598 53.0182 105.282 55.2376 96.6169C54.4957 96.4363 53.4032 96.0943 52.8246 95.5825C51.3794 94.2899 51.1192 91.3242 51.1192 91.3242C50.5213 94.1867 51.1192 95.862 51.8181 96.8062C52.5687 97.8213 52.7967 99.131 52.3579 100.318C51.7214 102.041 50.9192 103.912 49.646 105.12C46.7255 107.897 42.6608 106.654 40.3682 104.527C39.1746 106.052 38.4111 106.759 38.4111 106.759L46.9169 112.187Z" fill="#371A45" fill-opacity="0.349"/>
<path d="M56.2951 96.1846C56.2951 96.1846 53.6649 97.1481 51.9121 93.1716C51.9121 93.1716 52.9229 93.6749 55.4219 93.5458C57.8995 93.4168 59.5812 91.064 59.5812 91.064C59.5812 91.064 59.7468 95.348 56.2951 96.1846Z" fill="#371A45" fill-opacity="0.349"/>
<path d="M38.7719 106.839C38.5675 106.839 38.3632 106.753 38.2191 106.587C37.9546 106.284 37.9826 105.819 38.2858 105.553C38.3718 105.477 44.1936 100.204 48.8067 86.3498C49.1099 85.2078 50.4777 83.0809 53.5789 83.0379C55.3317 83.0142 56.5554 83.4228 57.321 84.296C58.1232 85.2078 58.3662 86.5305 58.0802 88.4682C57.8006 90.3758 56.5081 91.7135 55.0736 91.5758C53.7596 91.4533 52.4047 90.0231 52.5574 86.3928C52.5767 85.9907 52.9144 85.6767 53.323 85.6917C53.7252 85.7111 54.0435 86.0509 54.0241 86.4552C53.9209 88.8854 54.5661 90.0575 55.2134 90.1134C55.7575 90.1607 56.4522 89.4682 56.6285 88.2531C56.8414 86.7971 56.7038 85.8186 56.2134 85.2637C55.7575 84.7411 54.8757 84.4852 53.5983 84.5046C50.8046 84.5476 50.2261 86.7154 50.2153 86.7391L50.2024 86.7928C45.4388 101.12 39.4966 106.441 39.2514 106.658C39.1181 106.783 38.9418 106.839 38.7719 106.839Z" fill="#371A45"/>
<path d="M44.6698 118.955C44.4181 118.955 44.1708 118.822 44.0332 118.59C43.8289 118.239 43.9493 117.792 44.2998 117.588C44.3515 117.555 50.0936 113.914 54.5777 96.2277L54.7046 95.7244L55.2229 95.6771C55.2272 95.6771 56.1111 95.5868 57.1799 95.0556C59.479 93.9071 59.0703 88.8661 58.5133 86.9585C58.3477 86.3842 58.1047 86.0036 57.8101 85.853C57.5413 85.7111 57.2789 85.7993 57.266 85.7993C56.8896 85.9477 56.4681 85.7584 56.3197 85.3821C56.1735 85.0078 56.367 84.5756 56.7434 84.4293C56.8272 84.3949 57.6015 84.1153 58.4424 84.524C59.1306 84.8616 59.6295 85.5433 59.9241 86.5455C60.6231 88.9478 61.0747 94.7502 57.8402 96.3653C57.0509 96.7589 56.3391 96.9589 55.8831 97.0535C51.2292 115.087 45.2913 118.712 45.0397 118.861C44.9214 118.923 44.7945 118.955 44.6698 118.955Z" fill="#371A45"/>
<path d="M54.7751 97.1481C53.8546 97.1481 53.0847 96.8535 52.4825 96.2642C51.319 95.1308 50.8911 92.9952 51.2093 89.9112C51.519 86.9004 52.8718 86.4272 53.1385 86.3606L53.4697 87.7456C53.4697 87.7456 53.489 87.7456 53.5213 87.7327C53.517 87.737 52.8288 88.0553 52.6245 90.0575C52.3642 92.6103 52.6632 94.4512 53.474 95.2448C53.8826 95.6427 54.4439 95.7911 55.1945 95.6964C55.5837 95.6491 55.9386 95.9244 55.9923 96.3115C56.0397 96.7008 55.7644 97.0578 55.3751 97.1094C55.1708 97.1331 54.9708 97.1481 54.7751 97.1481Z" fill="#371A45"/>
<path d="M24.7412 127.179C25.0896 127.898 25.3498 128.642 25.5692 129.401C26.2574 131.769 26.5327 134.294 27.6144 136.692C27.8854 137.285 28.208 137.797 28.55 138.229C28.6554 138.367 28.7607 138.49 28.8683 138.612C29.6661 139.52 30.4167 139.971 30.4167 139.971C30.421 140.208 30.4404 140.507 30.4511 140.868C30.4984 142.344 30.4791 144.81 29.4145 147.896C29.3393 148.124 29.2532 148.357 29.1629 148.585C28.451 150.434 28.8833 156.43 29.6618 157.796C31.9092 161.74 37.531 161.142 39.1311 158.447C40.5806 156.002 39.9719 151.266 39.701 149.6C39.6408 149.221 39.5934 149.002 39.5934 149.002C41.0795 145.899 42.3527 141.726 42.3527 138.604C42.3527 138.604 42.7506 138.67 43.2925 138.675V138.78C43.5054 140.711 43.1441 144.015 42.443 147.028C42.3656 147.359 42.2796 147.692 42.1957 148.015C41.7828 149.58 42.5505 154.531 44.6216 156.989C47.0196 159.847 52.2778 158.845 53.3316 156.714C54.6005 154.157 52.9424 149.86 52.3058 148.395C52.1639 148.073 52.0735 147.886 52.0735 147.886C54.7188 141.627 54.8758 136.272 54.4048 130.863C53.665 122.381 50.2885 115.704 46.8217 111.11C46.6023 110.822 46.3744 110.54 46.1421 110.26C45.8475 109.91 45.5442 109.568 45.2431 109.241C44.7119 108.667 44.1936 108.129 43.7528 107.66L43.1506 108.172L42.1656 108.4L25.8531 112.198L25.7111 114.11L25.6488 114.968L25.5111 116.811L25.1692 121.437L24.9649 124.209L24.795 126.483L24.7412 127.179Z" fill="white"/>
<path d="M44.622 156.989C47.0199 159.845 52.2782 158.85 53.332 156.714C54.6009 154.157 52.9427 149.86 52.3062 148.395C52.2266 148.432 52.1879 148.447 52.1879 148.447C52.1879 148.447 54.5858 152.884 51.975 155.262C49.9125 157.136 46.5876 156.544 45.2263 154.052C43.5639 151.008 43.3488 145.546 43.3488 145.546L42.4477 147.023C42.366 147.355 42.2864 147.688 42.2004 148.015C41.7831 149.576 42.5509 154.527 44.622 156.989Z" fill="#371A45" fill-opacity="0.349"/>
<path d="M35.6211 150.563L35.7458 150.535C35.6878 150.544 35.6448 150.555 35.6211 150.563Z" fill="#293856" fill-opacity="0.298"/>
<path d="M35.5977 150.567L35.6206 150.563C35.6039 150.563 35.5977 150.567 35.5977 150.567Z" fill="#293856" fill-opacity="0.298"/>
<path d="M29.6581 157.792C31.9033 161.736 37.5272 161.138 39.1273 158.445C40.5768 156.002 39.9682 151.267 39.6972 149.595L35.7551 150.531C36.297 150.426 38.0541 150.322 38.1638 153.269C38.2348 155.2 37.9251 157.355 35.3379 157.697C28.9892 158.531 29.4623 152.116 29.7484 148.475C29.8043 147.748 29.6667 147.625 29.4107 147.892C29.3355 148.12 29.2494 148.346 29.1591 148.585C28.4473 150.43 28.8795 156.424 29.6581 157.792Z" fill="#371A45" fill-opacity="0.349"/>
<path d="M40.7336 147.236C40.7336 147.236 39.2797 150.208 35.4903 150.815C35.1183 150.871 34.9527 150.374 35.2796 150.198C36.7571 149.41 38.9098 147.417 39.497 144.696C40.0002 142.367 39.7916 140.09 39.5077 138.528C39.3163 137.479 40.0862 136.5 41.1551 136.453C43.0734 136.369 45.8521 136.145 47.6758 135.595C48.9016 135.225 50.1684 134.711 51.248 133.782C51.6846 133.401 52.3641 133.687 52.4007 134.266C52.4351 134.831 52.3921 135.41 52.1211 135.705C51.0953 136.814 46.28 138.199 42.3465 139.021C42.3465 139.021 42.2713 140.806 41.697 143.189C41.0454 145.871 40.7336 147.236 40.7336 147.236Z" fill="#371A45" fill-opacity="0.349"/>
<path d="M43.2936 138.774C43.2936 138.774 48.9777 137.877 51.7369 135.221C51.7369 135.221 51.4659 138.623 46.5561 141.298C44.3624 142.496 43.3731 144 42.7129 146.073C42.7129 146.073 43.6441 141.399 43.2936 138.774Z" fill="#371A45" fill-opacity="0.349"/>
<path d="M48.8198 159.463C46.8928 159.463 45.1594 158.74 44.0712 157.445C41.8238 154.772 41.0496 149.537 41.5012 147.83C42.3464 144.64 42.8023 140.862 42.5808 138.851C42.5378 138.462 42.8174 138.109 43.211 138.068C43.6067 138.025 43.9529 138.309 43.9959 138.698C44.2368 140.9 43.7766 144.806 42.8798 148.195C42.5421 149.466 43.1873 154.185 45.1637 156.529C46.1186 157.662 47.7746 158.209 49.5983 157.991C51.0371 157.819 52.3103 157.159 52.6909 156.396C53.8308 154.099 52.1683 149.699 51.4328 148.2L51.2909 147.909L51.4178 147.61C54.1383 141.184 54.1211 135.795 53.6974 130.93C53.1125 124.214 51.3317 118.85 48.0993 114.048C47.88 113.721 47.966 113.28 48.2929 113.061C48.6198 112.843 49.0628 112.927 49.28 113.256C52.6522 118.267 54.5104 123.844 55.1125 130.81C55.5448 135.784 55.5685 141.294 52.8522 147.877C53.4264 149.14 55.4588 154.032 53.9684 157.037C53.3598 158.267 51.7511 159.172 49.7704 159.409C49.4521 159.443 49.1338 159.463 48.8198 159.463Z" fill="#371A45"/>
<path d="M46.0131 109.966C46.3744 110.185 46.7013 110.426 47.0239 110.673C47.3422 110.925 47.6561 111.185 47.9508 111.461C48.2497 111.736 48.5444 112.018 48.8003 112.329C49.0627 112.643 49.2992 112.97 49.4756 113.355C49.6412 113.717 49.4842 114.149 49.125 114.314C48.8433 114.441 48.525 114.381 48.3164 114.177L48.3078 114.166C48.0325 113.897 47.7981 113.592 47.5701 113.269C47.3486 112.951 47.1486 112.611 46.9486 112.269C46.7486 111.927 46.555 111.575 46.3701 111.215C46.1851 110.854 46.0045 110.488 45.8561 110.095C45.8324 110.037 45.8604 109.977 45.9184 109.957C45.9507 109.942 45.9894 109.949 46.0131 109.966Z" fill="#371A45"/>
<path d="M26.2344 126.018L26.7849 127.545L26.7419 126.844C26.6043 126.562 26.4387 126.287 26.2344 126.018Z" fill="white"/>
<path d="M34.6575 161.319C34.6339 161.319 34.6145 161.319 34.5909 161.319C32.1972 161.295 30.1756 160.14 29.0401 158.142C28.1712 156.619 27.6959 150.398 28.4981 148.322C29.8896 144.716 29.7799 141.946 29.724 140.449C29.724 140.417 29.7197 140.384 29.7197 140.35C29.1068 139.898 27.7863 138.784 26.969 136.98C26.1991 135.272 25.9002 133.317 25.6098 131.423C25.298 129.373 25.0034 127.435 24.1474 126.136C23.9345 125.81 24.0248 125.366 24.3517 125.149C24.6808 124.936 25.1216 125.025 25.341 125.354C26.3669 126.915 26.683 128.997 27.0206 131.21C27.2959 133.008 27.5777 134.864 28.2702 136.393C29.1498 138.337 30.7735 139.348 30.7928 139.358L31.124 139.563L31.1348 139.952C31.1391 140.079 31.1434 140.227 31.1477 140.393C31.2058 141.873 31.3284 144.954 29.8272 148.836C29.1906 150.484 29.61 156.258 30.2788 157.441C31.1585 158.983 32.7349 159.875 34.6059 159.895C36.3006 159.912 37.8641 159.183 38.5136 158.082C40.133 155.357 38.9029 149.202 38.89 149.14L38.8426 148.907L38.9459 148.694C40.5847 145.266 41.5245 141.741 41.5245 139.017C41.5245 138.623 41.8428 138.305 42.2385 138.305C42.632 138.305 42.9503 138.623 42.9503 139.017C42.9503 141.888 41.9955 145.552 40.3287 149.097C40.5567 150.331 41.4535 155.923 39.7352 158.811C38.8319 160.336 36.8426 161.319 34.6575 161.319Z" fill="#371A45"/>
<path d="M42.0109 138.214C42.4131 138.092 42.8174 137.986 43.2217 137.887C43.6239 137.778 44.0282 137.679 44.4325 137.578C45.239 137.365 46.052 137.18 46.8499 136.943C47.652 136.715 48.4499 136.464 49.2327 136.173C50.0113 135.885 50.8006 135.567 51.5232 135.154L51.5275 135.148C51.5705 135.124 51.6221 135.139 51.6415 135.182C51.6608 135.214 51.6565 135.257 51.6264 135.281C51.3189 135.599 50.9726 135.855 50.6199 136.111C50.2694 136.369 49.8973 136.591 49.5274 136.814C48.7768 137.247 47.9983 137.621 47.2004 137.954C46.4025 138.29 45.5917 138.58 44.7637 138.823C44.3508 138.941 43.9336 139.044 43.5164 139.146C43.0927 139.234 42.6712 139.315 42.2475 139.378C41.9249 139.425 41.6195 139.201 41.5722 138.875C41.5314 138.58 41.7099 138.305 41.9873 138.219L42.0109 138.214Z" fill="#371A45"/>
<path d="M56.5469 115.054C56.0286 115.054 55.6931 114.979 55.678 114.979C55.3597 114.902 55.1597 114.585 55.2371 114.267C55.3124 113.949 55.6307 113.749 55.949 113.824C56.0952 113.858 59.5857 114.585 61.0159 109.871C61.8654 107.067 59.919 104.49 58.0329 101.998C56.5856 100.086 55.2178 98.2772 55.2178 96.432C55.2178 96.1029 55.4823 95.8384 55.8113 95.8384C56.1382 95.8384 56.4049 96.1029 56.4049 96.432C56.4049 97.8793 57.6544 99.531 58.9792 101.282C60.9449 103.882 63.1772 106.83 62.1514 110.213C60.8589 114.484 57.9899 115.054 56.5469 115.054Z" fill="#371A45"/>
<path d="M51.1507 129.184C50.3722 129.597 49.4904 130.038 48.5312 130.494C49.1184 130.266 49.6603 130.042 50.1399 129.842C50.5249 129.685 50.8668 129.459 51.1507 129.184Z" fill="white"/>
<path d="M35.357 150.484C35.8215 150.355 36.2732 150.178 36.6904 149.974C37.1098 149.772 37.5033 149.533 37.8539 149.258C38.2109 148.987 38.5292 148.684 38.8238 148.365C38.8948 148.281 38.9808 148.215 39.041 148.124C39.1077 148.038 39.1787 147.959 39.2561 147.877C39.398 147.712 39.5206 147.531 39.6776 147.37L39.7357 147.312C39.9636 147.075 40.3378 147.071 40.5766 147.299C40.7658 147.484 40.8045 147.763 40.6949 147.991C40.4561 148.471 40.1335 148.912 39.7357 149.277C39.3507 149.658 38.8797 149.946 38.4044 150.178C37.9248 150.411 37.4173 150.568 36.899 150.654C36.3871 150.733 35.8688 150.753 35.357 150.658C35.3097 150.649 35.2796 150.606 35.286 150.559C35.2903 150.525 35.314 150.501 35.3462 150.492L35.357 150.484Z" fill="#371A45"/>
<path d="M48.3358 149.675C49.196 149.277 49.9638 148.759 50.5875 148.144C50.8993 147.838 51.1768 147.507 51.4219 147.165C51.6843 146.834 51.8886 146.462 52.1446 146.107L52.1768 146.064C52.3682 145.797 52.7381 145.733 53.0091 145.926C53.2328 146.083 53.3123 146.367 53.222 146.615C53.0414 147.103 52.7811 147.574 52.4349 147.972C52.1015 148.385 51.6843 148.718 51.2477 148.998C50.809 149.277 50.3402 149.49 49.8563 149.638C49.3702 149.78 48.8735 149.871 48.3681 149.851C48.3207 149.851 48.2842 149.808 48.2842 149.761C48.2842 149.729 48.3035 149.699 48.3315 149.686L48.3358 149.675Z" fill="#371A45"/>
<path d="M18.5539 147.15C19.8787 147.535 25.6101 148.688 25.4552 143.303C25.4208 142.163 25.0509 140.331 25.0789 140.326C25.1025 140.326 28.1242 141.883 28.978 140.24C29.2877 139.647 29.1909 139.096 28.864 138.612C28.7737 138.481 28.6704 138.352 28.5457 138.229C27.5069 137.171 25.4316 136.487 24.5477 136.373C24.5477 136.373 24.552 136.302 24.567 136.165C24.6423 135.335 24.9649 132.154 25.5628 129.401C25.8875 127.915 26.2897 126.554 26.7736 125.751L26.3521 122.79L26.1564 121.405L25.5069 116.824L25.1778 114.519C25.1025 114.519 20.055 114.542 18.113 120.332C18.1066 120.34 18.1066 120.356 18.1023 120.364C16.9388 123.863 16.7108 130.322 17.2678 139.107C17.4227 141.58 15.7516 146.335 18.5539 147.15Z" fill="white"/>
<path d="M23.8052 137.038C24.0375 137.204 24.3041 136.799 24.5708 136.16C24.6461 135.328 24.9687 132.15 25.5687 129.397C26.2569 131.765 26.5322 134.289 27.614 136.685C27.8849 137.279 28.2075 137.793 28.5495 138.223C28.6549 138.361 28.7602 138.485 28.8678 138.608C29.6657 139.515 30.4162 139.965 30.4162 139.965C30.4205 140.204 30.4399 140.503 30.4506 140.862L31.2722 140.767C31.2722 140.767 31.3388 139.201 31.1281 137.365C31.0205 136.401 31.6743 135.528 32.6249 135.363C34.2293 135.077 36.2337 134.474 38.6187 133.287C38.6187 133.287 39.8252 130.279 37.3305 129.41C37.3305 129.41 33.0142 132.186 29.1388 131.612C28.4183 129.967 27.7903 127.741 28.1516 124.399C28.4118 121.964 27.6204 121.917 26.7559 122.476C26.6118 122.573 26.4806 122.672 26.3666 122.775C25.5343 123.511 25.2354 124.564 24.945 125.865C24.902 126.05 24.8547 126.259 24.7988 126.483C24.3386 128.304 23.4396 131.309 23.046 134.636C22.689 137.64 23.8052 137.038 23.8052 137.038Z" fill="#371A45" fill-opacity="0.349"/>
<path d="M26.9936 125.874C26.7807 126.73 26.6366 127.592 26.4904 128.466L26.2624 129.775L26.0431 131.096L25.6258 133.754C25.4925 134.64 25.3785 135.543 25.2925 136.425L24.6516 135.627C25.0366 135.685 25.3656 135.776 25.6968 135.87C26.0259 135.969 26.3442 136.079 26.6603 136.208C27.2926 136.464 27.9055 136.771 28.4948 137.199C28.7851 137.416 29.0733 137.659 29.3249 137.978C29.5765 138.29 29.8045 138.69 29.8819 139.174C29.9572 139.653 29.8475 140.156 29.6475 140.539C29.54 140.743 29.4023 140.959 29.2109 141.128C29.026 141.298 28.8131 141.432 28.5894 141.526C28.1485 141.703 27.7206 141.731 27.3356 141.711C26.9506 141.688 26.5893 141.623 26.2474 141.533C25.9054 141.442 25.5785 141.328 25.2602 141.195L25.0237 141.096L24.8043 140.995C24.7527 140.971 24.8516 141.034 25.0366 141.053C25.071 141.412 26.3097 139.918 25.8151 140.311V140.27L25.8216 140.307L25.8388 140.417L25.8775 140.649C25.9828 141.281 26.0861 141.922 26.1484 142.584C26.1807 142.913 26.2001 143.268 26.1958 143.621C26.1958 143.972 26.1635 144.326 26.0968 144.688C25.9764 145.404 25.6689 146.15 25.1506 146.748C24.6344 147.35 23.9247 147.755 23.2279 147.967C22.5203 148.191 21.8085 148.251 21.1181 148.251C20.4256 148.243 19.7503 148.167 19.0858 148.03C18.9202 147.995 18.7546 147.959 18.5868 147.916C18.503 147.892 18.4212 147.873 18.3309 147.845L18.0363 147.739C17.647 147.578 17.2685 147.311 16.9911 146.976C16.7115 146.638 16.5351 146.253 16.4169 145.883C16.3029 145.514 16.247 145.148 16.2169 144.797C16.1566 144.09 16.1996 143.421 16.2513 142.765C16.3072 142.116 16.3889 141.479 16.4556 140.857C16.5222 140.236 16.5739 139.638 16.5351 139.083L16.4276 137.176C16.3609 135.902 16.3072 134.627 16.2792 133.35C16.2513 132.072 16.2362 130.793 16.2599 129.511C16.2835 128.229 16.3265 126.947 16.4362 125.661C16.5416 124.375 16.6986 123.089 16.9674 121.799C17.0341 121.476 17.1201 121.153 17.2018 120.831L17.3438 120.347L17.4191 120.104L17.5094 119.867C17.6384 119.553 17.7481 119.231 17.89 118.923C18.047 118.618 18.1976 118.31 18.3589 118.011C18.5503 117.721 18.7352 117.433 18.9288 117.151L19.2578 116.749C19.3675 116.616 19.4664 116.469 19.589 116.349C19.8364 116.104 20.06 115.833 20.3396 115.62L20.7439 115.286C20.8859 115.188 21.0386 115.093 21.1848 114.998C21.7848 114.633 22.4343 114.347 23.1139 114.209C23.4516 114.138 23.7978 114.099 24.1484 114.106C24.5011 114.11 24.8366 114.142 25.1936 114.256C25.3269 114.299 25.4022 114.448 25.3592 114.579C25.3355 114.65 25.2839 114.708 25.2215 114.736L25.1936 114.751C24.6194 115.003 24.0645 115.248 23.5354 115.499C23.4042 115.566 23.2709 115.624 23.1419 115.691C23.015 115.762 22.8859 115.824 22.7569 115.889C22.63 115.955 22.5096 116.037 22.387 116.108L22.202 116.211L22.0257 116.332C21.9074 116.407 21.7891 116.487 21.6708 116.564L21.3332 116.824C21.0945 116.981 20.9009 117.198 20.6859 117.386C20.4772 117.583 20.3073 117.816 20.1159 118.035C19.946 118.272 19.7998 118.519 19.632 118.76C18.46 120.792 18.1266 123.302 17.9094 125.779C17.804 127.022 17.761 128.281 17.7373 129.534C17.7137 130.793 17.7287 132.048 17.7567 133.311C17.7847 134.573 17.8384 135.836 17.9029 137.094L18.0126 138.989C18.0556 139.7 17.989 140.369 17.9266 141.01C17.8621 141.651 17.7804 142.277 17.7287 142.89C17.675 143.501 17.647 144.105 17.6943 144.664C17.7373 145.223 17.8793 145.733 18.1374 146.036C18.2642 146.187 18.4169 146.301 18.6105 146.382L18.7675 146.434C18.8299 146.453 18.9008 146.473 18.9718 146.492C19.1094 146.529 19.2578 146.559 19.3998 146.591C20.5547 146.823 21.7784 146.886 22.8042 146.567C23.3139 146.41 23.7462 146.146 24.0645 145.785C24.372 145.419 24.5806 144.954 24.671 144.417C24.7183 144.152 24.7484 143.877 24.7484 143.591C24.757 143.307 24.7376 143.027 24.7097 142.722C24.6473 142.12 24.5527 141.509 24.4473 140.885L24.4107 140.649L24.3914 140.522L24.3806 140.44C24.3806 140.417 24.3763 140.417 24.372 140.341C23.8838 140.735 25.114 139.217 25.1613 139.582C25.3549 139.599 25.4645 139.666 25.4215 139.647L25.6344 139.743L25.8345 139.827C26.1054 139.937 26.3764 140.032 26.6474 140.103C26.9184 140.174 27.1829 140.223 27.4345 140.236C27.6818 140.251 27.9012 140.223 28.0518 140.161C28.2001 140.094 28.2797 140.023 28.3571 139.87C28.4475 139.69 28.4668 139.543 28.4475 139.391C28.4088 139.092 28.0819 138.685 27.6345 138.371C27.1937 138.049 26.6667 137.778 26.1248 137.561C25.8538 137.451 25.5742 137.35 25.2925 137.266C25.0172 137.18 24.7226 137.109 24.4817 137.081L23.7828 136.995L23.8408 136.283C23.9161 135.358 24.0107 134.451 24.1118 133.535C24.2107 132.623 24.3441 131.713 24.514 130.801L24.6516 130.122L24.8129 129.444C24.8667 129.216 24.9226 128.992 24.9936 128.771C25.0602 128.547 25.1226 128.324 25.2043 128.1C25.2839 127.878 25.3656 127.659 25.4559 127.442C25.5549 127.222 25.6538 127.005 25.7592 126.797C25.8732 126.582 26.0022 126.373 26.1291 126.173C26.2624 125.971 26.4323 125.779 26.5958 125.599C26.684 125.496 26.8409 125.485 26.9463 125.582C27.0173 125.642 27.0453 125.736 27.0216 125.827L26.9936 125.874Z" fill="#371A45"/>
<path d="M18.5575 147.15C19.878 147.535 25.6159 148.688 25.4589 143.303C25.4438 142.812 25.3965 142.281 25.3341 141.793C24.2524 145.03 19.5274 145.215 18.6478 144.408C17.4843 143.339 17.536 140.905 17.3897 139.894C17.123 142.221 16.5725 146.576 18.5575 147.15Z" fill="#371A45" fill-opacity="0.349"/>
<path d="M52.5574 124.336C51.3316 121.964 50.4735 119.672 49.8799 117.575C50.3358 118.747 50.8713 119.962 51.5122 121.196C52.2628 122.644 52.8714 124.214 53.2607 125.827C53.0413 125.319 52.809 124.822 52.5574 124.336Z" fill="#371A45" fill-opacity="0.349"/>
<path d="M54.6999 123.136C54.6999 123.289 54.6848 123.44 54.6547 123.59C54.6246 123.741 54.5816 123.885 54.5235 124.027C54.4633 124.169 54.3923 124.302 54.3084 124.429C54.2224 124.556 54.1256 124.674 54.0181 124.782C53.9106 124.889 53.7923 124.986 53.6654 125.07C53.5385 125.156 53.4052 125.227 53.2632 125.285C53.1213 125.343 52.9772 125.388 52.8267 125.418C52.6761 125.448 52.5256 125.461 52.3729 125.461C52.2202 125.461 52.0696 125.448 51.9191 125.418C51.7686 125.388 51.6245 125.343 51.4825 125.285C51.3406 125.227 51.2072 125.156 51.0803 125.07C50.9535 124.986 50.8352 124.889 50.7276 124.782C50.6201 124.674 50.5233 124.556 50.4373 124.429C50.3534 124.302 50.2803 124.169 50.2222 124.027C50.1642 123.885 50.1212 123.741 50.0911 123.59C50.061 123.44 50.0459 123.289 50.0459 123.136C50.0459 122.984 50.061 122.833 50.0911 122.683C50.1212 122.534 50.1642 122.388 50.2222 122.246C50.2803 122.106 50.3534 121.971 50.4373 121.844C50.5233 121.717 50.6201 121.601 50.7276 121.493C50.8352 121.384 50.9535 121.287 51.0803 121.203C51.2072 121.119 51.3406 121.046 51.4825 120.988C51.6245 120.93 51.7686 120.885 51.9191 120.857C52.0696 120.827 52.2202 120.811 52.3729 120.811C52.5256 120.811 52.6761 120.827 52.8267 120.857C52.9772 120.885 53.1213 120.93 53.2632 120.988C53.4052 121.046 53.5385 121.119 53.6654 121.203C53.7923 121.287 53.9106 121.384 54.0181 121.493C54.1256 121.601 54.2224 121.717 54.3084 121.844C54.3923 121.971 54.4633 122.106 54.5235 122.246C54.5816 122.388 54.6246 122.534 54.6547 122.683C54.6848 122.833 54.6999 122.984 54.6999 123.136Z" fill="white"/>
<path d="M54.581 122.405C54.9853 123.624 54.3186 124.941 53.0992 125.343C51.8777 125.747 50.5636 125.083 50.1593 123.863C50.0496 123.526 50.0174 123.179 50.0604 122.848C50.6626 123.478 51.5938 123.745 52.4777 123.455C53.3594 123.164 53.9487 122.396 54.0584 121.532C54.2907 121.775 54.4713 122.07 54.581 122.405Z" fill="#371A45" fill-opacity="0.349"/>
<path d="M52.3684 126.197C51.8974 126.197 51.4285 126.089 50.9898 125.87C50.2586 125.5 49.7188 124.874 49.4607 124.095C49.2048 123.317 49.2671 122.491 49.6371 121.76C50.0027 121.029 50.6349 120.489 51.4135 120.233C53.0178 119.706 54.7512 120.579 55.2781 122.177C55.8072 123.781 54.9319 125.515 53.3275 126.042C53.0135 126.145 52.6909 126.197 52.3684 126.197ZM52.3727 121.543C52.2071 121.543 52.0393 121.566 51.8737 121.622C51.4694 121.756 51.1425 122.039 50.9489 122.42C50.7575 122.799 50.7253 123.231 50.8586 123.635C50.9898 124.037 51.2758 124.366 51.6565 124.56C52.035 124.749 52.4673 124.784 52.8716 124.65C53.7082 124.375 54.1641 123.474 53.8867 122.637C53.6652 121.968 53.0372 121.543 52.3727 121.543Z" fill="#371A45"/>
<path d="M51.8729 129.373L40.4381 133.904C39.0832 134.442 37.5347 133.778 36.9992 132.421L34.5862 126.334C34.1152 125.149 34.5712 123.816 35.597 123.141C35.7454 123.046 35.9024 122.966 36.068 122.895L47.505 118.362C48.8578 117.826 50.4062 118.491 50.9417 119.848L52.8558 124.665L53.359 125.928C53.8967 127.289 53.2257 128.835 51.8729 129.373Z" fill="white"/>
<path d="M51.8729 129.373L40.4381 133.904C39.0832 134.442 37.5347 133.778 36.9992 132.421L34.5862 126.334C34.1152 125.149 34.5712 123.816 35.597 123.141C36.4185 123.317 36.9411 123.427 36.9411 123.427C39.4359 128.087 41.7951 129.971 47.8986 127.663C50.5331 126.668 52.0299 125.614 52.8558 124.665L53.359 125.928C53.8967 127.289 53.2257 128.835 51.8729 129.373Z" fill="#371A45" fill-opacity="0.349"/>
<path d="M39.4646 134.687C38.1721 134.687 36.9527 133.915 36.443 132.642L34.0257 126.558C33.7095 125.756 33.7224 124.878 34.0644 124.08C34.4106 123.285 35.0386 122.672 35.8408 122.353L47.2778 117.816C48.08 117.497 48.9618 117.512 49.7553 117.854C50.5532 118.201 51.1662 118.826 51.4844 119.629L53.9018 125.713C54.22 126.515 54.205 127.395 53.863 128.19C53.5211 128.988 52.891 129.601 52.0866 129.919L40.6517 134.455C40.2668 134.616 39.8625 134.687 39.4646 134.687ZM48.4779 118.775C48.2219 118.775 47.9703 118.822 47.7273 118.917L36.2924 123.455C35.7849 123.655 35.3849 124.044 35.1655 124.551C34.9483 125.059 34.9375 125.614 35.1375 126.121L37.5548 132.205C37.9742 133.259 39.17 133.778 40.2238 133.36L51.6608 128.827C52.1683 128.627 52.5684 128.238 52.7856 127.73C53.0049 127.222 53.0135 126.668 52.8135 126.16L50.3962 120.076C50.1984 119.568 49.8091 119.168 49.2994 118.951C49.0349 118.833 48.7532 118.775 48.4779 118.775Z" fill="#371A45"/>
<path d="M52.314 129.149C52.1764 129.24 52.0345 129.315 51.8732 129.377L40.4383 133.909C39.4447 134.305 38.3479 134.053 37.621 133.35C37.3543 133.098 37.1414 132.784 36.9994 132.425L35.9263 129.724L35.5693 128.831L34.5821 126.345C34.0445 124.992 34.7155 123.446 36.0682 122.908L38.5371 121.932C37.4833 122.596 37.0123 123.943 37.4876 125.145L38.7888 128.429L39.9006 131.229C40.4383 132.582 41.9867 133.251 43.3395 132.713L52.314 129.149Z" fill="white"/>
<path d="M52.3151 129.149C52.1775 129.24 52.0355 129.315 51.8742 129.377L40.4393 133.909C39.0844 134.446 37.536 133.782 37.0005 132.425L35.5703 128.831C36.1123 129.354 36.9381 129.928 37.7984 129.681C38.2672 129.547 38.5855 129.046 38.7963 128.423L39.906 131.223C40.4436 132.575 41.9921 133.246 43.3448 132.709L52.3151 129.149Z" fill="#371A45" fill-opacity="0.349"/>
<path d="M39.4692 134.687C39.0326 134.687 38.596 134.597 38.1767 134.418C37.3809 134.072 36.768 133.44 36.4497 132.638L34.0324 126.554C33.7141 125.751 33.727 124.874 34.069 124.076C34.4109 123.278 35.0432 122.667 35.8454 122.349L38.3164 121.371L38.8519 122.424C38.0154 122.951 37.6734 124.001 38.039 124.917L40.4563 131.001C40.6563 131.509 41.0456 131.907 41.5553 132.126C42.0585 132.343 42.6177 132.354 43.1274 132.154L52.0977 128.595L52.6396 129.644C52.4676 129.758 52.2826 129.853 52.0869 129.924L40.6563 134.455C40.2714 134.612 39.8692 134.687 39.4692 134.687ZM36.8519 123.231L36.2927 123.455C35.7852 123.655 35.3851 124.048 35.1658 124.551C34.9486 125.059 34.9378 125.614 35.1378 126.121L37.5551 132.205C37.7551 132.713 38.1444 133.113 38.6519 133.33C39.1552 133.55 39.7165 133.558 40.224 133.36L40.8606 133.109C40.1767 132.747 39.6498 132.162 39.3659 131.442L36.9486 125.358C36.6626 124.661 36.6476 123.911 36.8519 123.231Z" fill="#371A45"/>
<path d="M43.23 126.44C43.3203 126.668 43.7096 128.61 43.7096 128.61C43.7096 128.61 43.1354 128.831 42.4235 129.111C41.5396 129.459 40.4621 128.823 40.0191 127.693C39.5782 126.562 39.9395 125.366 40.8213 125.02C41.4213 124.788 42.1095 124.517 42.1095 124.517C42.1095 124.517 43.088 126.074 43.23 126.44Z" fill="#22A7F0"/>
<path d="M43.23 126.44C43.3203 126.668 43.7096 128.61 43.7096 128.61C43.7096 128.61 43.1354 128.831 42.4235 129.111C41.5396 129.459 40.4621 128.823 40.0191 127.693C39.5782 126.562 39.9395 125.366 40.8213 125.02C41.4213 124.788 42.1095 124.517 42.1095 124.517C42.1095 124.517 43.088 126.074 43.23 126.44Z" fill="#371A45" fill-opacity="0.349"/>
<path d="M42.166 129.322C41.2649 129.322 40.3488 128.642 39.9294 127.58C39.6885 126.958 39.6498 126.298 39.8262 125.719C40.0111 125.106 40.4047 124.655 40.9359 124.446L41.8348 124.095C42.2198 123.943 42.6564 124.091 42.8736 124.446C43.4027 125.306 43.7145 125.85 43.8005 126.07C43.8242 126.126 43.8822 126.278 44.2134 127.883C44.2995 128.291 44.0758 128.698 43.6865 128.851L42.794 129.197C42.5897 129.283 42.3768 129.322 42.166 129.322ZM42.1424 124.756C42.1252 124.756 42.1101 124.76 42.0908 124.764L41.194 125.115C40.8714 125.244 40.624 125.528 40.5058 125.928C40.3767 126.354 40.4047 126.853 40.5896 127.321C40.9617 128.268 41.8305 128.812 42.5273 128.543L43.4199 128.197C43.4865 128.173 43.5252 128.1 43.5102 128.035C43.2112 126.586 43.1403 126.364 43.1317 126.334C43.065 126.169 42.7424 125.605 42.2628 124.827C42.2435 124.779 42.1962 124.756 42.1424 124.756Z" fill="#371A45"/>
<path d="M44.7505 125.698C44.8581 125.969 44.9183 126.246 44.9355 126.528C44.9527 126.812 44.9226 127.078 44.8473 127.328C44.772 127.579 44.6559 127.795 44.5011 127.975C44.3462 128.156 44.1613 128.287 43.9484 128.369C43.7376 128.453 43.5118 128.481 43.2752 128.453C43.0386 128.425 42.8085 128.345 42.5827 128.212C42.3569 128.078 42.1547 127.902 41.9762 127.683C41.7977 127.463 41.6536 127.218 41.5483 126.947C41.4429 126.676 41.3805 126.399 41.3633 126.115C41.3482 125.833 41.3762 125.566 41.4515 125.317C41.5268 125.065 41.6429 124.85 41.7977 124.67C41.9547 124.489 42.1375 124.358 42.3504 124.276C42.5634 124.192 42.787 124.164 43.0236 124.192C43.2602 124.22 43.4924 124.3 43.7161 124.433C43.9419 124.566 44.1441 124.743 44.3226 124.962C44.5032 125.182 44.6452 125.427 44.7505 125.698Z" fill="#22A7F0"/>
<path d="M41.6255 124.926C41.6535 125.126 41.7051 125.33 41.7868 125.528C42.2277 126.659 43.3008 127.293 44.1891 126.947C44.503 126.825 44.7461 126.597 44.916 126.306C45.0536 127.233 44.6794 128.091 43.9525 128.371C43.0686 128.717 41.9911 128.083 41.5481 126.951C41.2599 126.222 41.3115 125.461 41.6255 124.926Z" fill="#371A45" fill-opacity="0.349"/>
<path d="M44.5124 126.416C44.0715 125.287 42.9983 124.65 42.1101 124.997C41.7961 125.121 41.5488 125.347 41.3789 125.648C41.4692 125.016 41.8112 124.493 42.3467 124.285C43.2306 123.938 44.3081 124.575 44.7511 125.704C45.035 126.435 44.9834 127.19 44.6737 127.726C44.736 127.313 44.6887 126.857 44.5124 126.416Z" fill="white" fill-opacity="0.6"/>
<path d="M43.4499 128.823C42.5467 128.823 41.6305 128.143 41.2133 127.081C40.6993 125.771 41.1509 124.366 42.2198 123.947C43.2886 123.53 44.5704 124.261 45.0822 125.571C45.3253 126.192 45.364 126.853 45.1876 127.431C45.0027 128.044 44.607 128.496 44.0758 128.704C43.8714 128.784 43.6628 128.823 43.4499 128.823ZM42.8606 124.541C42.7316 124.541 42.6047 124.564 42.48 124.612C41.7832 124.887 41.5122 125.874 41.8778 126.82C42.2477 127.764 43.1166 128.311 43.8155 128.04C44.1381 127.911 44.3854 127.627 44.5037 127.227C44.6328 126.801 44.6027 126.302 44.4177 125.833C44.1145 125.048 43.4671 124.541 42.8606 124.541Z" fill="#371A45"/>
<path d="M48.3035 131.332C48.0605 131.332 47.8325 131.186 47.7465 130.943L46.3034 127.038C46.1507 126.629 46.2174 126.179 46.4733 125.833L47.4992 124.433C47.5185 124.403 47.5228 124.366 47.5142 124.336L45.4862 119.179C45.3679 118.874 45.5141 118.527 45.8238 118.409C46.1271 118.291 46.4733 118.437 46.5938 118.747L48.6197 123.906C48.7831 124.319 48.725 124.779 48.4584 125.134L47.4325 126.534C47.4153 126.562 47.4089 126.597 47.4196 126.629L48.8627 130.534C48.9767 130.844 48.8197 131.186 48.5121 131.3C48.4412 131.324 48.368 131.332 48.3035 131.332Z" fill="#371A45"/>
<path d="M26.0145 128.87C26.0145 128.87 25.2167 129.999 25.535 131.343C25.9049 132.894 26.9888 133.279 26.9888 133.279C26.9888 133.279 31.5911 134.388 37.6322 131.281C37.6322 131.281 38.8366 128.272 36.3397 127.403C36.344 127.403 29.819 130.156 26.0145 128.87Z" fill="white"/>
<path d="M25.5347 131.343C25.9003 132.894 26.9885 133.279 26.9885 133.279C26.9885 133.279 31.5909 134.388 37.632 131.281C37.632 131.281 38.0255 130.289 37.8922 129.283C37.8728 129.339 37.8642 129.369 37.8642 129.369C33.4468 131.642 29.7994 131.659 28.1563 131.504C27.0165 131.395 26.053 130.588 25.7734 129.476C25.767 129.463 25.7627 129.448 25.7627 129.429C25.7584 129.405 25.7476 129.377 25.7476 129.354C25.5583 129.81 25.3454 130.541 25.5347 131.343Z" fill="#371A45" fill-opacity="0.349"/>
<path d="M29.1731 134.21C27.758 134.21 26.902 134.01 26.8225 133.991L26.7493 133.967C26.2031 133.771 25.188 133.042 24.8267 131.509C24.4374 129.861 25.3772 128.5 25.4159 128.442L25.7299 127.992L26.2461 128.167C29.743 129.349 35.9927 126.747 36.0594 126.719L36.3196 126.61L36.5863 126.7C37.4207 126.99 38.038 127.532 38.3713 128.257C39.0273 129.691 38.395 131.356 38.3197 131.541L38.2186 131.797L37.9778 131.922C34.3195 133.81 31.1818 134.21 29.1731 134.21ZM27.216 132.575C27.7193 132.676 31.799 133.365 37.0379 130.758C37.1691 130.294 37.3068 129.472 37.0315 128.87C36.8938 128.575 36.6702 128.352 36.3433 128.197C35.0744 128.694 29.9839 130.56 26.3902 129.739C26.2461 130.094 26.1192 130.616 26.2525 131.175C26.4848 132.158 27.0633 132.504 27.216 132.575Z" fill="#371A45"/>
<path d="M47.6713 146.748C46.1272 146.748 44.3981 146.354 42.6324 145.21C42.413 145.068 42.3464 144.774 42.4904 144.554C42.6324 144.337 42.927 144.27 43.1442 144.412C48.2649 147.72 52.9812 144.086 53.0285 144.047C53.2328 143.886 53.5318 143.92 53.6931 144.129C53.8544 144.337 53.8221 144.632 53.6113 144.793C53.5791 144.821 51.0801 146.748 47.6713 146.748Z" fill="#371A45"/>
<path d="M35.3097 146.63C33.6365 146.63 31.7891 146.23 29.9718 145.053C29.7525 144.911 29.6858 144.617 29.8277 144.397C29.9718 144.18 30.2665 144.113 30.4837 144.255C35.628 147.582 41.0562 144.062 41.1121 144.023C41.3314 143.877 41.6261 143.937 41.7723 144.157C41.9207 144.374 41.8583 144.668 41.639 144.817C41.596 144.84 38.8432 146.63 35.3097 146.63Z" fill="#371A45"/>
<path d="M24.9334 133.578C24.8796 133.578 24.828 133.569 24.7764 133.55C24.7227 133.53 19.5762 131.741 17.2965 133.479C17.0879 133.636 16.7868 133.597 16.632 133.388C16.475 133.18 16.5116 132.881 16.7223 132.724C19.4085 130.672 24.8667 132.571 25.099 132.653C25.3463 132.737 25.4732 133.012 25.3893 133.259C25.3119 133.459 25.127 133.578 24.9334 133.578Z" fill="#371A45"/>
<path d="M53.4175 101.798C46.6451 101.798 45.486 95.5394 45.4773 95.4728C45.4343 95.2169 45.6042 94.9695 45.8666 94.9222C46.1268 94.8749 46.3699 95.0491 46.4172 95.3072C46.4602 95.548 47.5183 101.116 53.8928 100.836C53.9014 100.836 53.9057 100.836 53.9164 100.836C54.168 100.836 54.3766 101.034 54.3917 101.29C54.4003 101.553 54.2003 101.774 53.9401 101.785C53.7551 101.793 53.5831 101.798 53.4175 101.798Z" fill="#371A45"/>
<path d="M18.1123 120.323C19.5274 120.882 21.0221 121.237 22.562 121.371C23.3835 121.437 24.2523 121.472 25.1642 121.448C25.4911 121.437 25.8245 121.422 26.1621 121.399C29.0633 121.196 32.3344 120.411 35.7453 118.575C40.5799 115.966 43.4918 112.424 45.2425 109.245C44.7113 108.671 44.193 108.136 43.7521 107.665L43.1499 108.177L42.1649 108.404L25.8524 112.202L25.7105 114.114L25.6481 114.973L25.5105 116.816L25.1836 114.508C25.1061 114.508 20.0586 114.532 18.1123 120.323Z" fill="#371A45" fill-opacity="0.349"/>
<path d="M46.6111 92.8576C46.9401 96.6879 46.3122 100.613 44.6562 104.267C44.3185 105.011 43.9379 105.742 43.5163 106.46C43.312 106.811 43.0927 107.157 42.8647 107.499C42.1765 108.534 41.4216 109.497 40.6044 110.385C39.9011 111.149 39.1506 111.856 38.3677 112.51C37.4215 113.297 36.4193 113.996 35.3762 114.613C34.9956 114.835 34.6063 115.05 34.217 115.248C27.0554 118.923 18.1691 118.727 10.9795 113.962C0.387677 106.949 -2.50276 92.6813 4.51043 82.098C5.86317 80.0614 7.4826 78.3065 9.29772 76.8548C9.50633 76.6827 9.7257 76.5171 9.94291 76.3558C10.5279 75.9193 11.1301 75.5149 11.743 75.1407C13.1689 74.2762 14.6829 73.5751 16.2421 73.0439C17.8035 72.5127 19.4186 72.1471 21.0509 71.9557C21.5692 71.8954 22.0918 71.8524 22.6187 71.8288C23.408 71.7901 24.1951 71.7944 24.9844 71.8417C28.9265 72.061 32.8621 73.2955 36.3913 75.6354C42.4905 79.6743 46.0326 86.1089 46.6111 92.8576Z" fill="white"/>
<path d="M23.6962 117.854C19.2336 117.854 14.784 116.564 10.9408 114.02C0.336064 106.996 -2.57589 92.6576 4.45451 82.0615C5.7879 80.0528 7.40302 78.2828 9.25471 76.801C9.45472 76.6397 9.67194 76.4698 9.90635 76.3042C10.4892 75.872 11.0978 75.459 11.715 75.0848C13.1301 74.2246 14.6506 73.517 16.227 72.9815C17.7884 72.4503 19.4143 72.0847 21.0509 71.8955C21.58 71.8331 22.1069 71.7901 22.623 71.7664C23.4273 71.7277 24.2295 71.7342 24.9995 71.7815C29.0684 72.003 33.0256 73.3192 36.4386 75.5816C42.3464 79.4936 46.0799 85.7864 46.6885 92.8533C47.024 96.7675 46.3466 100.727 44.7272 104.295C44.3852 105.05 44.0002 105.789 43.5809 106.497C43.3916 106.819 43.183 107.161 42.9314 107.542C42.2518 108.566 41.4883 109.54 40.6668 110.433C39.9764 111.181 39.2215 111.897 38.4237 112.562C37.4946 113.336 36.4816 114.048 35.4235 114.669C35.0429 114.893 34.6536 115.106 34.2601 115.31C30.9309 117.013 27.3071 117.854 23.6962 117.854ZM23.7026 71.8804C23.3456 71.8804 22.9843 71.889 22.623 71.9041C22.1112 71.9277 21.5843 71.9707 21.0617 72.0331C19.4315 72.2223 17.8185 72.5837 16.2658 73.1149C14.698 73.6461 13.1882 74.3536 11.7817 75.2031C11.1688 75.573 10.5666 75.9816 9.98593 76.4118C9.75796 76.5795 9.54075 76.7494 9.34074 76.9107C7.49765 78.3817 5.89328 80.1431 4.5685 82.141C-2.41889 92.677 0.473704 106.925 11.0161 113.906C17.9217 118.48 26.8038 118.975 34.1826 115.188C34.5719 114.988 34.9612 114.775 35.3375 114.551C36.3913 113.929 37.3935 113.226 38.3204 112.454C39.114 111.794 39.8624 111.082 40.5463 110.336C41.3679 109.45 42.1249 108.482 42.8023 107.46C43.0497 107.082 43.2647 106.744 43.4497 106.422C43.8626 105.718 44.2476 104.983 44.5895 104.234C46.1982 100.688 46.8735 96.7545 46.5401 92.8619C45.938 85.838 42.2281 79.5839 36.3591 75.6956C32.9632 73.4461 29.0297 72.1406 24.9887 71.9191C24.5672 71.8955 24.1392 71.8804 23.7026 71.8804Z" fill="#371A45"/>
<path d="M10.9788 113.962C18.1683 118.728 27.0547 118.923 34.2163 115.248C34.6056 115.05 34.9948 114.835 35.3755 114.613C36.4186 113.996 37.4208 113.299 38.367 112.51C39.1499 111.861 39.9004 111.153 40.6037 110.385C41.4209 109.497 42.1758 108.538 42.864 107.499C43.0877 107.153 43.3049 106.807 43.5156 106.46C43.9372 105.742 44.3178 105.007 44.6555 104.267C46.3114 100.613 46.9394 96.6879 46.6104 92.8576C46.4297 90.7543 45.9652 88.6811 45.2189 86.7025C45.4469 90.3607 44.806 94.0964 43.2253 97.5804C42.8876 98.3245 42.507 99.0557 42.0855 99.7719C41.8812 100.125 41.6618 100.464 41.4338 100.811C40.7456 101.847 39.9908 102.811 39.1735 103.697C38.4703 104.46 37.7218 105.168 36.9369 105.819C35.9927 106.602 34.9862 107.303 33.9453 107.921C33.5647 108.144 33.1754 108.357 32.7862 108.557C25.6246 112.23 16.7382 112.037 9.54863 107.271C5.35491 104.495 2.36769 100.578 0.724609 96.204C1.15689 103.157 4.72908 109.824 10.9788 113.962Z" fill="#371A45" fill-opacity="0.349"/>
<path d="M23.6965 118.323C19.1437 118.323 14.6037 117.009 10.6853 114.413C-0.134552 107.247 -3.10672 92.621 4.06562 81.8098C5.42697 79.7581 7.0765 77.9559 8.96475 76.4419C9.16906 76.2741 9.39272 76.1042 9.63144 75.9279C10.225 75.487 10.8422 75.0698 11.4724 74.6891C12.9176 73.8117 14.4704 73.0912 16.079 72.5449C17.6705 71.9987 19.3286 71.6288 21.004 71.4352C21.5416 71.3728 22.0771 71.3298 22.6105 71.3062C23.432 71.2675 24.2428 71.2739 25.0321 71.3212C29.1828 71.5492 33.2195 72.8912 36.7057 75.1988C42.7317 79.1882 46.5405 85.61 47.1577 92.8189C47.4997 96.8148 46.8072 100.854 45.1533 104.495C44.8028 105.262 44.4135 106.017 43.9856 106.74C43.7963 107.067 43.5769 107.413 43.3253 107.802C42.6328 108.852 41.8543 109.843 41.0134 110.755C40.3101 111.523 39.5402 112.254 38.723 112.927C37.7745 113.721 36.7444 114.441 35.6605 115.078C35.2712 115.306 34.8776 115.523 34.4733 115.727C31.0732 117.465 27.3784 118.323 23.6965 118.323ZM23.703 72.3492C23.3567 72.3492 22.9997 72.36 22.647 72.375C22.1438 72.3987 21.6319 72.4396 21.1179 72.4976C19.5222 72.6826 17.9415 73.0374 16.421 73.5557C14.8833 74.0783 13.4058 74.7665 12.0294 75.601C11.4315 75.9666 10.8379 76.3645 10.2723 76.7881C10.0487 76.9537 9.83575 77.115 9.64435 77.272C7.83997 78.7151 6.26356 80.4377 4.96673 82.397C-1.87656 92.7157 0.957967 106.678 11.2831 113.517C18.0511 118.001 26.7461 118.48 33.9787 114.77C34.3593 114.575 34.7443 114.362 35.1099 114.149C36.1401 113.54 37.1229 112.852 38.0305 112.097C38.809 111.452 39.5402 110.755 40.2155 110.024C41.0177 109.151 41.764 108.207 42.4242 107.204C42.6651 106.835 42.8737 106.501 43.0543 106.189C43.4587 105.501 43.835 104.779 44.1705 104.043C45.7469 100.57 46.4072 96.7158 46.0803 92.9049C45.491 86.0229 41.8543 79.8958 36.1014 76.0849C32.7786 73.8826 28.9269 72.6009 24.9654 72.3836C24.5482 72.36 24.1288 72.3492 23.703 72.3492Z" fill="#371A45"/>
<path d="M23.6966 118.48C19.1158 118.48 14.5457 117.158 10.5993 114.542C-0.289312 107.327 -3.28298 92.606 3.93667 81.7195C5.30877 79.6549 6.9669 77.8376 8.87021 76.3171C9.07452 76.1515 9.30248 75.9752 9.5412 75.801C10.1348 75.3601 10.7606 74.9364 11.3929 74.5515C12.851 73.6697 14.4081 72.9428 16.0275 72.3922C17.6276 71.8481 19.3007 71.4675 20.9804 71.2782C21.5223 71.2159 22.0643 71.1685 22.5955 71.1449C23.4213 71.1062 24.2429 71.1126 25.0365 71.1599C29.2173 71.3922 33.2777 72.7385 36.7853 75.0655C42.8501 79.0807 46.689 85.5498 47.3105 92.806C47.6568 96.8298 46.96 100.892 45.2911 104.557C44.9405 105.329 44.547 106.088 44.119 106.815C43.9233 107.142 43.7061 107.495 43.4544 107.884C42.7555 108.936 41.9727 109.938 41.1232 110.854C40.4156 111.628 39.6414 112.364 38.8198 113.041C37.8607 113.839 36.8241 114.566 35.7358 115.207C35.3466 115.435 34.9444 115.656 34.5444 115.861C31.1249 117.611 27.4022 118.48 23.6966 118.48ZM23.7031 72.5062C23.3568 72.5062 23.0041 72.517 22.6536 72.5299C22.1546 72.5535 21.6406 72.5966 21.1331 72.6546C19.5459 72.8396 17.976 73.1901 16.4641 73.7084C14.9393 74.2246 13.4725 74.9085 12.1004 75.7386C11.5026 76.0999 10.9176 76.4978 10.352 76.915C10.1283 77.0828 9.91971 77.2376 9.73046 77.3946C7.93468 78.8291 6.37333 80.541 5.0808 82.483C-1.71518 92.7286 1.10214 106.592 11.3542 113.383C18.0749 117.835 26.7097 118.315 33.8949 114.626C34.2734 114.433 34.6541 114.224 35.0197 114.011C36.0412 113.407 37.0198 112.723 37.9209 111.975C38.6908 111.334 39.422 110.641 40.0866 109.914C40.8844 109.045 41.6264 108.106 42.2802 107.114C42.5232 106.749 42.7275 106.417 42.9082 106.108C43.3125 105.424 43.6824 104.708 44.0136 103.976C45.5814 100.527 46.2373 96.7008 45.9148 92.9135C45.3298 86.081 41.7167 79.9969 36.0068 76.2139C32.7078 74.0246 28.8796 72.7535 24.9461 72.5363C24.544 72.517 24.1246 72.5062 23.7031 72.5062Z" fill="#371A45"/>
<path d="M46.3554 98.7417C40.2713 114.005 21.2662 118.467 11.5217 105.43C4.89133 96.5588 8.46782 83.2228 17.4058 77.4097C23.9072 73.1751 32.1075 71.8847 41.4412 80.1754C41.4412 80.1754 45.0027 84.4852 45.7812 88.4015C46.5554 92.3221 46.6501 96.2599 46.6501 96.2599L46.3554 98.7417Z" fill="#371A45"/>
<path d="M11.5251 105.43C21.2653 118.472 40.2704 114.005 46.3545 98.7417L46.4126 98.2385C35.4788 108.596 18.2544 109.297 8.15723 96.2943C8.40455 99.531 9.47771 102.69 11.5251 105.43Z" fill="#220F2D"/>
<path d="M26.2704 116.104C25.3499 116.104 24.4294 116.046 23.5219 115.923C17.7754 115.168 12.7881 112.164 9.10406 107.232C5.71252 102.697 4.43935 96.8814 5.50821 90.864C6.676 84.3153 10.5471 78.3344 15.8656 74.8741C18.8528 72.9299 21.8917 71.7148 24.8983 71.2546L24.9606 71.2438L25.023 71.2503C29.1866 71.4761 33.2341 72.8245 36.7289 75.1407C42.77 79.1409 46.5938 85.582 47.211 92.8103C47.553 96.8148 46.8583 100.864 45.2023 104.518C44.8496 105.293 44.4561 106.047 44.0324 106.768C43.8431 107.095 43.6238 107.447 43.3678 107.83C42.671 108.88 41.8904 109.876 41.0452 110.792L40.9742 110.858C36.6622 114.256 31.4297 116.104 26.2704 116.104ZM25.0165 72.4503C22.2014 72.8912 19.3432 74.0439 16.5216 75.8806C11.4719 79.1646 7.79647 84.8465 6.69105 91.0769C5.67811 96.7674 6.87601 102.249 10.0632 106.516C13.5472 111.181 18.255 114.02 23.6724 114.732C29.3479 115.476 35.3654 113.729 40.1914 109.938C40.9785 109.08 41.7097 108.144 42.3613 107.166C42.6044 106.796 42.8087 106.465 42.9936 106.155C43.3958 105.467 43.7722 104.751 44.1034 104.015C45.6755 100.55 46.3357 96.7115 46.0088 92.9049C45.4195 86.0423 41.7957 79.9302 36.06 76.1322C32.7631 73.9536 28.95 72.6783 25.0165 72.4503Z" fill="#371A45"/>
<path d="M12.8095 104.219C13.102 104.673 13.3601 105.142 13.5837 105.628C13.8074 106.114 13.9902 106.609 14.1343 107.11C14.2784 107.609 14.3816 108.108 14.4418 108.602C14.502 109.097 14.5192 109.581 14.4913 110.052C14.4655 110.523 14.3967 110.972 14.2848 111.402C14.173 111.83 14.0224 112.23 13.8289 112.6C13.6353 112.97 13.4074 113.304 13.1407 113.6C12.874 113.897 12.5751 114.153 12.246 114.366C11.9148 114.579 11.56 114.745 11.1793 114.865C10.7987 114.985 10.4008 115.056 9.98357 115.08C9.56635 115.102 9.14052 115.076 8.70179 115C8.26522 114.925 7.82649 114.803 7.38776 114.633C6.94688 114.463 6.51246 114.248 6.08663 113.99C5.65866 113.732 5.24789 113.433 4.85002 113.095C4.45431 112.757 4.0801 112.387 3.72955 111.983C3.37684 111.581 3.05425 111.151 2.76176 110.699C2.46928 110.245 2.2112 109.774 1.98754 109.288C1.76602 108.802 1.58107 108.31 1.43698 107.809C1.29288 107.308 1.19181 106.811 1.13159 106.314C1.07137 105.819 1.05417 105.336 1.07997 104.865C1.10578 104.394 1.1746 103.944 1.28643 103.516C1.39827 103.086 1.55096 102.688 1.74237 102.318C1.93592 101.946 2.16604 101.613 2.43272 101.316C2.69724 101.019 2.99618 100.765 3.32738 100.553C3.65642 100.34 4.01128 100.172 4.39194 100.051C4.7726 99.9332 5.17262 99.86 5.58769 99.8385C6.00491 99.8149 6.43288 99.8407 6.86946 99.916C7.30604 99.9912 7.74477 100.114 8.18564 100.284C8.62437 100.454 9.0588 100.669 9.48677 100.927C9.9126 101.187 10.3234 101.486 10.7212 101.821C11.1169 102.159 11.4912 102.531 11.8439 102.933C12.1944 103.338 12.517 103.766 12.8095 104.219Z" fill="white"/>
<path d="M9.71074 115.77C6.86546 115.77 3.71264 113.783 1.8459 110.531C0.430785 108.069 0.00281005 105.359 0.673806 103.103C1.13404 101.557 2.06526 100.385 3.37499 99.7117C6.63749 98.0406 11.2785 100.129 13.7109 104.372C15.126 106.835 15.5518 109.544 14.883 111.798C14.4228 113.347 13.4872 114.519 12.1797 115.192C11.4162 115.585 10.5753 115.77 9.71074 115.77ZM3.0481 109.843C5.11915 113.454 8.93221 115.302 11.5495 113.962C12.513 113.469 13.2055 112.585 13.5582 111.409C14.1088 109.544 13.7195 107.177 12.5087 105.069C10.4377 101.458 6.62459 99.6106 4.00728 100.948C3.0438 101.443 2.34914 102.325 1.99859 103.503C1.44803 105.364 1.83729 107.736 3.0481 109.843Z" fill="#371A45"/>
<path d="M10.4529 106.228C10.6981 106.581 10.9153 106.946 11.1024 107.327C11.2916 107.708 11.4486 108.097 11.5755 108.491C11.7003 108.886 11.7906 109.28 11.8487 109.673C11.9067 110.069 11.9282 110.454 11.9153 110.833C11.9024 111.209 11.8551 111.572 11.7734 111.919C11.6917 112.267 11.5755 112.592 11.425 112.895C11.2766 113.198 11.0981 113.474 10.8873 113.721C10.6766 113.968 10.4421 114.183 10.1776 114.366C9.91524 114.549 9.63136 114.695 9.32597 114.805C9.02058 114.917 8.70014 114.988 8.36249 115.022C8.02699 115.056 7.68074 115.05 7.32804 115.007C6.97318 114.964 6.61618 114.882 6.25703 114.762C5.89787 114.641 5.54517 114.486 5.19462 114.295C4.84621 114.104 4.50857 113.88 4.18167 113.626C3.85478 113.37 3.54509 113.089 3.25475 112.779C2.96227 112.469 2.69559 112.138 2.45042 111.787C2.20525 111.435 1.98803 111.069 1.80093 110.688C1.61167 110.308 1.45468 109.919 1.32994 109.525C1.20305 109.129 1.11273 108.736 1.05466 108.342C0.996593 107.946 0.975087 107.561 0.98799 107.183C1.00089 106.807 1.04821 106.443 1.12993 106.097C1.21165 105.748 1.32779 105.424 1.47833 105.121C1.62673 104.817 1.80523 104.542 2.01599 104.295C2.22675 104.047 2.46332 103.832 2.7257 103.649C2.98807 103.467 3.27196 103.32 3.57734 103.211C3.88273 103.099 4.20318 103.028 4.54083 102.994C4.87632 102.959 5.22257 102.966 5.57528 103.009C5.93013 103.052 6.28713 103.133 6.64629 103.254C7.00544 103.374 7.35815 103.529 7.7087 103.72C8.0571 103.912 8.39475 104.136 8.72164 104.389C9.04854 104.645 9.35823 104.927 9.64856 105.237C9.94105 105.546 10.2077 105.878 10.4529 106.228Z" fill="white"/>
<path d="M7.90636 115.117C6.49124 115.117 4.98581 114.48 3.69328 113.312C1.04801 110.925 0.127539 107.058 1.63728 104.684C2.26526 103.701 3.20939 103.099 4.37718 102.942C5.96434 102.729 7.7214 103.37 9.20318 104.708C11.8485 107.095 12.7689 110.964 11.2592 113.336C10.6334 114.319 9.68708 114.921 8.51929 115.078C8.31498 115.102 8.11067 115.117 7.90636 115.117ZM4.98581 103.043C4.7858 103.043 4.58579 103.056 4.39223 103.08C3.26746 103.232 2.35559 103.811 1.75556 104.755C0.284535 107.071 1.1921 110.858 3.78791 113.198C5.23743 114.504 6.95148 115.136 8.49563 114.925C9.62041 114.775 10.5323 114.196 11.1301 113.25C12.6033 110.936 11.6958 107.149 9.0978 104.809C7.83539 103.669 6.36866 103.043 4.98581 103.043Z" fill="#371A45"/>
<path d="M11.8135 109.116C11.478 107.925 10.8177 106.824 9.96177 105.923C10.4994 108.699 8.92732 110.858 6.2713 110.839C4.55725 110.83 2.78083 109.914 1.4668 108.514C1.49906 108.691 1.54207 108.871 1.59368 109.05C2.44963 112.078 5.43255 114.551 8.25202 114.57C11.0736 114.59 12.6651 112.144 11.8135 109.116Z" fill="#371A45" fill-opacity="0.349"/>
<path d="M8.14371 115.624C5.89846 115.624 3.36717 113.953 1.77571 111.205C0.579958 109.136 0.184242 106.83 0.721899 105.03C1.06385 103.886 1.75205 103.024 2.71553 102.54C5.26617 101.258 8.86202 103.013 10.903 106.536C12.1009 108.604 12.4944 110.91 11.9589 112.71C11.617 113.854 10.9266 114.717 9.96314 115.2C9.39753 115.486 8.78675 115.624 8.14371 115.624ZM4.53496 103.323C4.07903 103.323 3.64675 103.417 3.25749 103.611C2.59725 103.944 2.12196 104.551 1.87679 105.372C1.43376 106.858 1.78646 108.813 2.82091 110.602C4.5113 113.525 7.47487 115.11 9.42764 114.129C10.0879 113.796 10.561 113.19 10.8083 112.368C11.2557 110.882 10.8987 108.927 9.86421 107.138C8.50932 104.802 6.34579 103.323 4.53496 103.323Z" fill="#371A45"/>
<path d="M15.1859 84.5755C15.1859 84.5755 23.782 79.7302 31.4188 81.5238C31.4296 81.5238 31.4339 81.5281 31.4425 81.5281C33.049 81.9088 34.5243 82.7152 35.7179 83.8551C37.2986 85.3584 38.1632 86.6315 38.8858 87.7735C41.0751 91.2618 41.4494 93.3092 41.4494 93.3092C42.2752 90.2188 42.0816 87.4273 40.2859 84.5046C40.1095 84.2142 39.916 83.926 39.7073 83.6357C39.6579 83.569 39.6106 83.5024 39.559 83.4379C39.559 83.4379 39.559 83.4314 39.5547 83.4314C39.088 82.8722 38.4535 82.1561 37.6643 81.4098C35.2943 79.1603 31.5758 76.6225 27.1929 77.1107C19.0011 78.0226 14.6697 84.3949 15.1859 84.5755Z" fill="white" fill-opacity="0.498"/>
<path d="M17.105 96.1008C17.1738 96.3244 17.2232 96.5545 17.2533 96.7847C17.2835 97.0169 17.2942 97.2492 17.2856 97.4793C17.2749 97.7094 17.2447 97.9353 17.1953 98.1546C17.148 98.3761 17.0791 98.5847 16.991 98.7869C16.9049 98.9869 16.7996 99.1762 16.677 99.3504C16.5565 99.5246 16.4189 99.6816 16.2684 99.8235C16.1157 99.9633 15.9522 100.086 15.778 100.187C15.6017 100.29 15.4167 100.37 15.2253 100.43C15.0318 100.488 14.8339 100.527 14.6317 100.54C14.4296 100.555 14.2253 100.546 14.021 100.516C13.8166 100.484 13.6145 100.43 13.4145 100.355C13.2166 100.279 13.0252 100.183 12.8381 100.067C12.6532 99.9504 12.479 99.8149 12.3134 99.6601C12.1499 99.5074 11.9972 99.3375 11.8596 99.1525C11.7219 98.9676 11.5994 98.7697 11.494 98.5611C11.3886 98.3525 11.3004 98.1353 11.2316 97.9116C11.1628 97.6858 11.1133 97.4578 11.0811 97.2255C11.0509 96.9933 11.0402 96.761 11.0509 96.5309C11.0595 96.3008 11.0897 96.075 11.1391 95.8556C11.1886 95.6362 11.2574 95.4255 11.3434 95.2255C11.4316 95.0233 11.537 94.8362 11.6574 94.662C11.78 94.4878 11.9155 94.3286 12.0682 94.1889C12.2187 94.0469 12.3822 93.9265 12.5585 93.8233C12.7349 93.7222 12.9177 93.6404 13.1112 93.5824C13.3026 93.5222 13.5005 93.4856 13.7048 93.4705C13.907 93.4555 14.1091 93.4641 14.3156 93.4964C14.5199 93.5265 14.7221 93.5802 14.9199 93.6555C15.1199 93.7308 15.3113 93.8276 15.4963 93.9437C15.6812 94.062 15.8576 94.1975 16.021 94.3502C16.1866 94.505 16.3372 94.6749 16.477 94.8599C16.6146 95.0448 16.735 95.2405 16.8404 95.4491C16.948 95.6577 17.034 95.8749 17.105 96.1008Z" fill="white"/>
<path d="M17.322 102.942C17.365 103.135 17.3736 103.327 17.35 103.516C17.3263 103.708 17.2704 103.884 17.1844 104.045C17.0962 104.206 16.9865 104.34 16.8489 104.445C16.7134 104.553 16.565 104.624 16.3994 104.66C16.2359 104.695 16.0703 104.693 15.9026 104.654C15.7348 104.613 15.5778 104.538 15.4316 104.426C15.2854 104.316 15.1628 104.179 15.0595 104.015C14.9585 103.852 14.8875 103.675 14.8445 103.484C14.8036 103.29 14.795 103.099 14.8187 102.91C14.8423 102.718 14.8982 102.542 14.9843 102.381C15.0703 102.219 15.1821 102.086 15.3176 101.981C15.4531 101.873 15.6037 101.802 15.7693 101.766C15.9327 101.731 16.0983 101.733 16.266 101.772C16.4338 101.813 16.5908 101.888 16.737 102C16.8833 102.11 17.0059 102.247 17.1069 102.411C17.2102 102.574 17.2811 102.75 17.322 102.942Z" fill="white"/>
<path d="M83.8167 34.2595C83.7027 35.5069 83.5135 36.7456 83.2425 37.965C82.8704 39.6791 82.35 41.3587 81.694 42.9824C78.8401 50.0257 73.3819 56.0238 65.9084 59.3982C58.4178 62.7833 50.282 62.9144 43.0967 60.3853C41.5203 59.8304 39.9869 59.1465 38.518 58.3444C37.3653 57.7142 36.2534 57.011 35.1846 56.2324C42.7075 54.3442 51.3981 51.2925 60.3985 47.2256C69.3989 43.1631 77.4293 38.6532 83.8167 34.2595Z" fill="#FFB200"/>
<path d="M60.4028 47.2299C69.3989 43.1631 77.4336 38.6532 83.821 34.2595C83.707 35.5069 83.5178 36.7456 83.2468 37.965C78.3304 41.5351 70.4764 45.9395 61.3297 50.073C52.5681 54.0302 44.4043 56.9357 38.518 58.3444C37.3653 57.7142 36.2534 57.011 35.1846 56.2324C42.7118 54.3442 51.4046 51.2968 60.4028 47.2299Z" fill="#D66B09"/>
<path d="M82.5714 22.4224C77.5863 26.4527 67.7321 32.096 55.9574 37.4209C44.1892 42.7394 33.4382 46.4084 27.1154 47.4858C26.4551 46.4127 25.8615 45.2836 25.3303 44.1072C25.3067 44.0513 25.283 43.9975 25.2551 43.9416C25.0228 43.4233 24.8077 42.9007 24.6077 42.3759C24.1389 41.1458 23.7539 39.9027 23.4507 38.6489C23.4356 38.5973 23.427 38.55 23.412 38.4984C22.9711 36.6381 22.713 34.7627 22.6291 32.8981C22.4614 29.3475 22.9281 25.8269 23.9539 22.4805C24.7174 19.9922 25.797 17.605 27.1691 15.3791C30.266 10.3531 34.8426 6.168 40.632 3.55284C41.2063 3.29261 41.7869 3.05389 42.3654 2.83238C50.1636 -0.13979 58.5123 0.283885 65.6804 3.45391C65.7277 3.47326 65.7707 3.49047 65.818 3.51628C68.9278 4.90558 71.8097 6.81749 74.3324 9.19178C75.5625 10.3531 76.711 11.6263 77.7476 13.007C77.8615 13.1532 77.9712 13.3059 78.0852 13.4586C78.1734 13.5812 78.2637 13.7102 78.354 13.8328C79.096 14.8866 79.7756 15.9964 80.3885 17.1599C80.6165 17.5921 80.8337 18.033 81.0423 18.4782C81.1004 18.6029 81.1563 18.7255 81.2144 18.8502C81.7456 20.0266 82.2015 21.2224 82.5714 22.4224Z" fill="#FFB200"/>
<path d="M81.0421 18.4846C81.1002 18.6072 81.1561 18.7255 81.2142 18.8502C81.7454 20.0266 82.197 21.2181 82.5712 22.4224C77.5861 26.4527 67.7319 32.1003 55.9572 37.4209C44.189 42.7394 33.438 46.4084 27.1152 47.4858C26.4614 46.4127 25.8614 45.2836 25.3259 44.1072C25.3022 44.0513 25.2785 43.9975 25.2549 43.9416C31.253 43.2814 42.1889 39.7307 54.1916 34.3068C66.6674 28.6743 76.8635 22.5515 81.0421 18.4846Z" fill="#D66B09"/>
<path d="M23.0425 33.7003C22.8855 33.7003 22.7328 33.6939 22.5908 33.6896L22.6725 32.1132C26.8835 32.3325 37.8646 28.8528 49.3704 23.6526C63.1 17.4437 71.9864 11.4693 73.6639 8.77456L75.0016 9.609C72.866 13.0393 62.5925 19.4051 50.0178 25.0849C38.5055 30.2916 27.8061 33.7003 23.0425 33.7003Z" fill="#D66B09"/>
<path d="M24.0731 23.2633L23.8408 21.702C28.5614 20.9987 36.7381 18.1943 45.1772 14.3834C54.0206 10.3875 61.6768 5.97445 65.1587 2.86465L66.2125 4.04104C62.6166 7.24978 54.8098 11.7639 45.8288 15.8222C37.2672 19.6933 28.9271 22.5407 24.0731 23.2633Z" fill="#D66B09"/>
<path d="M23.4594 39.2855C23.4401 39.2855 23.4272 39.2855 23.4121 39.2855L23.4207 37.7048C23.4358 37.7048 23.4508 37.7048 23.4702 37.7048C28.322 37.7048 39.6257 34.0702 51.6369 28.6399C64.274 22.9257 74.8938 16.491 77.4531 12.9876L78.7305 13.9189C75.9799 17.6782 65.3558 24.1752 52.2864 30.0787C40.0859 35.5929 28.522 39.2855 23.4594 39.2855Z" fill="#D66B09"/>
<path d="M43.1314 60.7853L43.1013 60.3896L42.9551 60.0197L43.0131 59.9961L43.0734 59.9918C47.2348 59.6928 55.1599 57.1357 63.2634 53.471C71.4079 49.7892 78.3695 45.66 81.4233 42.6921L81.9739 43.2577C78.8576 46.2815 71.81 50.4709 63.5903 54.1872C55.2782 57.9465 47.4434 60.4713 43.1314 60.7853Z" fill="#D66B09"/>
<path d="M53.2893 62.9445C46.717 62.9445 40.1813 60.8993 34.6972 56.9077L33.2627 55.8625L34.981 55.4303C42.7233 53.4861 51.3946 50.387 60.0531 46.475C68.7093 42.5609 76.7656 38.1027 83.3422 33.5756L84.8046 32.5691L84.6433 34.3348C83.6089 45.6062 76.5613 55.4969 66.2512 60.1573C62.1177 62.0284 57.696 62.9445 53.2893 62.9445ZM37.1661 56.5787C45.6331 61.9897 56.354 62.8112 65.5673 58.6433C74.7848 54.4775 81.2475 45.8965 82.7723 35.9671C76.4129 40.1909 68.8384 44.3309 60.7456 47.9848C52.6484 51.643 44.5427 54.6001 37.1661 56.5787Z" fill="#371A45"/>
<path d="M82.9951 14.8522C83.0231 14.9146 83.0467 14.9813 83.0618 15.0522L82.9951 14.8522Z" fill="#D66B09"/>
<path d="M98.8556 15.6415C100.709 19.732 94.6059 26.8312 83.8162 34.2595C77.4289 38.6532 69.3984 43.1674 60.3981 47.2299C51.3977 51.2968 42.707 54.3442 35.1841 56.2389C22.4804 59.4326 13.1144 59.3229 11.2627 55.2324C9.58305 51.5161 14.4585 45.3223 23.4438 38.6532C23.7492 39.9027 24.1342 41.1501 24.603 42.3803C22.1191 44.4104 20.8953 46.0191 21.3212 46.9589C21.7534 47.9181 23.8439 48.0515 27.115 47.4901C33.4378 46.4084 44.1888 42.7394 55.957 37.4252C67.7252 32.1046 77.5794 26.4613 82.571 22.4267C85.1496 20.3406 86.4271 18.6889 85.997 17.7298C85.5733 16.7899 83.5539 16.6416 80.3881 17.1685C79.7752 16.0071 79.0956 14.8952 78.3536 13.8414C89.3003 11.493 97.1759 11.9252 98.8556 15.6415Z" fill="#FFCC4D"/>
<path d="M22.771 50.7612C20.4096 50.7612 18.6095 50.273 18.0224 48.9633C17.1708 47.088 19.1085 44.2685 23.7689 40.5716L24.5044 41.5006C18.659 46.1331 18.8913 48.0084 19.0999 48.473C19.8311 50.0881 25.5582 50.2064 36.7049 46.8363C42.8363 44.9804 49.77 42.3329 56.7552 39.1758C63.7426 36.0208 70.3106 32.5648 75.7517 29.1904C85.6446 23.0504 89.3393 18.6739 88.6081 17.0609C88.3995 16.5942 87.1414 15.1813 79.8035 16.5104L79.5948 15.3426C85.4446 14.2845 88.8447 14.6974 89.692 16.5706C91.3394 20.2116 82.0595 26.6699 76.3797 30.1969C70.8934 33.5992 64.2781 37.0789 57.2455 40.2576C50.2108 43.4384 43.2299 46.1051 37.0468 47.9762C32.9478 49.2085 26.9733 50.7612 22.771 50.7612Z" fill="#FFEC90"/>
<path d="M21.0576 54.8947C17.7241 54.8947 14.9928 54.2152 14.1003 52.2516C12.4465 48.602 18.236 43.1867 23.3846 39.2855L24.1007 40.2296C17.5091 45.2277 14.1756 49.5375 15.1821 51.7634C15.78 53.0818 18.0231 53.7743 21.5135 53.7184C25.1373 53.656 30.0472 52.8022 35.7184 51.2451C42.7037 49.3268 50.5578 46.432 58.4333 42.8727C66.3068 39.3135 73.6727 35.3326 79.7224 31.354C84.6344 28.128 88.5228 25.0096 90.9594 22.3278C93.3058 19.7514 94.2692 17.605 93.6714 16.2867C92.6649 14.0608 87.2216 13.7188 79.1159 15.3662L78.8772 14.2027C85.2087 12.9167 93.1015 12.1489 94.7488 15.7985C96.9855 20.7385 85.4366 29.0141 80.3697 32.3411C74.2663 36.3477 66.8488 40.363 58.9172 43.9459C50.9857 47.5289 43.0693 50.4473 36.026 52.3785C32.5075 53.3527 26.0965 54.8947 21.0576 54.8947Z" fill="#FFEC90"/>
<path d="M20.2062 59.3078C15.006 59.3078 11.636 58.0562 10.509 55.5679C8.04442 50.129 17.2491 42.2125 22.9569 37.9801L23.9634 37.2295L24.258 38.4511C24.5569 39.6748 24.9333 40.8942 25.3828 42.0706L25.5978 42.6319L25.1312 43.0104C21.8643 45.6836 22.0773 46.5998 22.0773 46.6084C22.0837 46.617 22.6472 47.402 26.9742 46.6643C33.4197 45.5632 44.3943 41.7286 55.612 36.6617C66.8297 31.5927 76.9591 25.8871 82.0453 21.7773C85.4562 19.0201 85.2412 18.076 85.2369 18.0653C85.2326 18.0567 84.6863 17.2932 80.5205 17.9814L79.927 18.0803L79.6474 17.5491C79.0581 16.4329 78.3936 15.3426 77.6667 14.3124L76.9462 13.2866L78.1699 13.0264C85.1186 11.5403 97.1427 9.86063 99.6031 15.2996C101.599 19.7084 96.0137 26.8656 84.2777 34.9434C77.6194 39.5221 69.4792 44.0362 60.7326 47.9891C51.9839 51.9419 43.2158 55.0754 35.381 57.0454C29.3636 58.5594 24.2343 59.3078 20.2062 59.3078ZM22.9612 40.0597C14.8447 46.2664 10.6703 51.9011 12.0252 54.8861C13.6059 58.3831 22.4063 58.5917 34.9875 55.4303C42.7276 53.4861 51.3989 50.387 60.0573 46.4751C68.7158 42.5609 76.7699 38.1027 83.3465 33.5756C94.0329 26.2247 99.6848 19.4804 98.1019 15.9878C96.7492 13.0027 89.7639 12.4134 79.7377 14.4028C80.127 15.0049 80.4969 15.6265 80.8453 16.2587C84.297 15.7555 86.1831 16.1147 86.7574 17.3878C87.3746 18.7492 86.2111 20.5578 83.0948 23.0741C77.828 27.3302 67.8125 32.9777 56.3002 38.1801C44.7879 43.3803 33.9315 47.1675 27.2538 48.3074C23.3074 48.9805 21.1804 48.6579 20.5632 47.3009C19.989 46.0299 20.9632 44.3782 23.6214 42.1179C23.3848 41.4361 23.1612 40.7522 22.9612 40.0597Z" fill="#371A45"/>
<path d="M82.5722 22.4224C81.9937 22.8934 81.3485 23.3816 80.6409 23.8935C80.3549 23.087 80.0323 22.2848 79.671 21.4934C79.6151 21.3686 79.557 21.246 79.5011 21.1278C79.2903 20.6804 79.0731 20.2396 78.8451 19.8073C78.2322 18.6459 77.5483 17.5341 76.8128 16.4803C76.7225 16.3534 76.6322 16.2286 76.5418 16.106C75.4149 14.5533 74.1568 13.1253 72.789 11.8392C70.234 9.43265 67.3049 7.49709 64.1413 6.10133C56.4378 2.69904 47.3729 2.46247 39.0887 6.20241C33.5615 8.69714 29.1356 12.6328 26.0537 17.3599C29.1119 11.4607 34.1035 6.50995 40.6371 3.55714C48.9149 -0.182801 57.9819 0.0516175 65.6855 3.45821C68.8469 4.85397 71.7825 6.78523 74.3331 9.19608C75.7009 10.4822 76.959 11.9059 78.086 13.4629C78.1806 13.5855 78.2645 13.7145 78.3548 13.8414C79.0968 14.8952 79.7764 16.0071 80.3893 17.1685C80.6173 17.6007 80.8345 18.0416 81.0431 18.4889C81.1012 18.6115 81.1571 18.7298 81.2151 18.8588C81.7463 20.0266 82.2023 21.2224 82.5722 22.4224Z" fill="white" fill-opacity="0.4078"/>
<path d="M26.7027 48.3977L26.408 47.9181C25.7306 46.8127 25.1134 45.6449 24.5714 44.4492C24.3047 43.8599 24.0574 43.262 23.8294 42.6684C23.3563 41.4254 22.9563 40.1393 22.6423 38.8446C19.0959 24.1838 26.5177 9.01973 40.2903 2.79796C54.063 -3.4281 70.3583 1.01509 79.0339 13.3575C79.7995 14.4458 80.5028 15.5985 81.1243 16.7749C81.4189 17.3362 81.7028 17.919 81.9738 18.5083C82.5157 19.704 82.9846 20.9385 83.3695 22.1773L83.5373 22.7128L83.0986 23.0676C77.8317 27.3259 67.8162 32.9734 56.3039 38.1758C44.7938 43.376 33.9374 47.1632 27.2597 48.3031L26.7027 48.3977ZM53.2608 1.66028C49.1251 1.66028 44.94 2.51838 40.9785 4.3077C27.9328 10.2069 20.9003 24.5645 24.2574 38.4511C24.5564 39.6748 24.9327 40.8942 25.3822 42.0706C25.5973 42.6362 25.8338 43.2061 26.0854 43.761C26.5177 44.7201 27.0081 45.66 27.535 46.5611C34.0449 45.3417 44.7163 41.5824 55.6157 36.6553C66.5151 31.7303 76.3886 26.2054 81.6039 22.1235C81.2748 21.1321 80.892 20.1449 80.4533 19.1857C80.2017 18.6309 79.9328 18.076 79.6511 17.5448C79.0618 16.4243 78.3973 15.3383 77.6704 14.3017C71.954 6.1723 62.7343 1.66028 53.2608 1.66028Z" fill="#371A45"/>
<path d="M59.849 47.4772C51.0486 51.4215 42.5579 54.3829 35.1899 56.2325C22.4861 59.4261 13.1223 59.3186 11.2684 55.226C9.58881 51.5118 14.4664 45.318 23.4517 38.6489C23.755 39.9027 24.14 41.1458 24.6088 42.376C22.127 44.4062 20.9011 46.0148 21.3291 46.9546C21.7614 47.9138 23.8496 48.0472 27.1229 47.4859C31.3166 46.7697 37.4609 44.9137 44.5558 42.1889C44.3859 43.1158 44.4612 43.9545 44.7989 44.7008C46.1796 47.7654 51.7841 48.5977 59.849 47.4772Z" fill="#371A45" fill-opacity="0.2471"/>
<path d="M28.5889 13.2866C28.7029 13.1296 28.8211 12.9747 28.9459 12.8177C28.8211 12.9747 28.7029 13.1296 28.5889 13.2866Z" fill="#293856" fill-opacity="0.298"/>
<path d="M29.3594 12.2865C29.6304 11.9489 29.9099 11.6155 30.1938 11.2887C29.9099 11.6112 29.6304 11.9446 29.3594 12.2865Z" fill="#293856" fill-opacity="0.298"/>
<path d="M31.9997 9.39609C31.6986 9.68427 31.4062 9.97891 31.1201 10.2778C31.4062 9.97461 31.6986 9.67997 31.9997 9.39609Z" fill="#293856" fill-opacity="0.298"/>
<path d="M32.4795 8.94446C32.8021 8.64552 33.129 8.35519 33.4666 8.0713C33.129 8.35519 32.8021 8.64552 32.4795 8.94446Z" fill="#293856" fill-opacity="0.298"/>
<path d="M83.8167 34.2595C83.7027 35.5069 83.5135 36.7456 83.2425 37.965C82.8704 39.6791 82.35 41.3587 81.694 42.9824C78.8401 50.0257 73.3819 56.0238 65.9084 59.3982C58.4178 62.7833 50.282 62.9144 43.0967 60.3853C41.5203 59.8304 39.9869 59.1465 38.518 58.3444C37.3653 57.7142 36.2534 57.011 35.1846 56.2324C42.7075 54.3442 51.3981 51.2925 60.3985 47.2256C69.3989 43.1631 77.4293 38.6532 83.8167 34.2595Z" fill="#371A45" fill-opacity="0.2471"/>
<path d="M82.5722 22.4224C77.5806 26.4527 67.7329 32.096 55.9582 37.4145C44.19 42.7351 33.4433 46.4041 27.1162 47.4858C26.4559 46.4127 25.8624 45.2836 25.3312 44.1072C25.3075 44.0513 25.2838 43.9975 25.2559 43.9416C25.0236 43.4233 24.8043 42.8964 24.6042 42.376C24.1354 41.1458 23.7504 39.9027 23.4451 38.6489C23.4322 38.5973 23.4214 38.55 23.4085 38.4984C22.9655 36.6381 22.7095 34.7627 22.6235 32.8981C22.4579 29.3475 22.9246 25.8269 23.9505 22.4848C24.7139 19.9987 25.7914 17.605 27.1656 15.3856C28.8689 12.6134 31.0303 10.0972 33.5896 7.96163C32.8497 8.89715 32.1658 9.86924 31.5443 10.88C30.1765 13.1016 29.0926 15.4931 28.3291 17.9814C27.3033 21.3213 26.8366 24.8441 27.0022 28.3926C27.0882 30.2593 27.3506 32.1325 27.7872 33.9928C27.7958 34.0466 27.8108 34.0939 27.8237 34.1455C27.8302 34.1692 27.8388 34.1971 27.8431 34.2315C29.198 39.4662 34.6928 42.4706 39.8586 40.8619C45.6675 39.0532 52.7904 36.3241 60.3326 32.9154C69.0814 28.9625 76.7698 24.829 82.1873 21.3127C82.3357 21.6826 82.4583 22.0525 82.5722 22.4224Z" fill="#371A45" fill-opacity="0.2471"/>
</svg>
