<svg width="114" height="181" viewBox="0 0 114 181" fill="none" xmlns="http://www.w3.org/2000/svg">
<path d="M53.3725 180.875C52.8152 180.888 52.2553 180.875 51.698 180.828C49.3178 180.628 47.1016 179.906 45.2709 178.745C44.1355 178.005 43.2553 177.245 42.5678 176.414C41.7944 175.505 41.1537 174.518 40.6876 173.5C39.7657 171.495 39.435 169.125 39.7345 166.815C39.6876 166.854 39.6485 166.893 39.6042 166.932C36.0704 170.112 31.724 171.922 27.3673 172.021C27.1589 172.026 26.9454 172.026 26.7292 172.021C24.1746 171.995 21.698 171.281 19.5704 169.964C18.448 169.273 17.4558 168.43 16.6199 167.443C15.6876 166.333 15.0001 165.055 14.6433 163.737C14.2917 162.458 14.2006 161.089 14.3699 159.661C14.5001 158.526 14.81 157.344 15.323 156.052C15.724 155.034 16.2501 154.013 16.9194 152.93C17.3022 152.32 17.672 151.781 18.0522 151.268C17.7735 149.977 17.547 148.872 17.3647 147.846C17.3464 147.755 17.3334 147.672 17.3204 147.581C17.0417 145.997 16.8412 144.602 16.7162 143.305C16.5626 142.148 16.4897 141 16.4194 139.888C16.3933 139.461 16.3673 139.039 16.336 138.609C16.31 138.052 16.297 137.534 16.2891 137.013C16.2839 136.747 16.2839 136.482 16.2761 136.216C16.2579 135.503 16.2449 134.643 16.2761 133.781C16.3282 130.263 16.6589 126.622 17.2501 122.927C15.4662 123.883 13.6693 124.505 11.9324 124.779C11.3933 124.862 10.849 124.914 10.323 124.922C7.72143 124.979 5.48445 124.156 3.85685 122.544C1.66414 120.378 0.505287 117.477 0.492266 114.164C0.471433 107.844 4.5782 100.273 12.6902 91.6797L12.7553 91.6146C13.3777 90.961 14.0131 90.2969 14.6824 89.6302C20.4141 83.8854 26.5678 79.3985 33.0027 76.2839C32.0678 75.3281 31.1667 74.3229 30.31 73.2787C27.9688 70.4089 25.9845 67.2422 24.4141 63.8594L24.3777 63.8021L24.3048 63.6198C23.7084 62.3203 23.1511 60.9063 22.6589 59.4584L22.6381 59.4141C22.5938 59.2969 22.5548 59.1797 22.5287 59.0625C21.8542 57.0183 21.3282 54.9401 20.9662 52.8776C20.4532 49.9688 20.2266 47.0078 20.2839 44.0755C20.1277 40.9714 20.6667 37.2969 21.8855 33.1641C23.6954 26.6198 26.9324 20.6797 31.4897 15.5339C36.7371 9.61461 43.461 5.19273 50.9402 2.75263C52.3464 2.28648 53.8308 1.88283 55.3569 1.5521C56.336 1.33856 57.3412 1.15627 58.3516 1.00783C60.1563 0.739605 61.9897 0.591168 63.8126 0.546897C65.1694 0.513043 66.5418 0.546896 67.8855 0.643251C71.0886 0.864605 74.2735 1.42971 77.3412 2.33075C78.6694 2.72138 80.0131 3.18752 81.3152 3.70575C81.8022 3.89585 82.3022 4.1094 82.7944 4.33075C86.9636 6.16669 90.8569 8.66669 94.3386 11.7552C104.3 20.6042 109.714 33.2735 109.268 46.625C109.656 47.099 110.013 47.6068 110.339 48.1328C111.388 49.8516 112.102 51.8255 112.451 53.9922C113.443 57.0052 113.464 60.5938 112.511 64.1198C110.758 70.5781 106.279 75.4193 101.297 76.25C99.7735 76.9063 98.2371 77.2578 96.711 77.2891C96.3621 77.2969 96.0053 77.2839 95.6225 77.25C93.3256 79.4584 90.81 81.4037 88.1121 83.0677C89.7084 84.086 91.1355 85.2552 92.3803 86.5469C92.9897 87.1823 93.4819 87.9479 93.8386 88.8177C95.5912 93.0964 101.005 108.766 97.172 130.807C96.4141 135.169 93.9949 138.961 90.3569 141.479C87.7162 143.31 84.6433 144.31 81.4714 144.38C80.3308 144.406 79.1772 144.31 78.0418 144.096C77.4194 143.979 76.7891 143.836 76.1277 143.675C75.9845 143.771 75.8438 143.854 75.7006 143.94C75.2397 144.24 74.7735 144.44 74.3647 144.615L74.0912 144.732C73.8855 144.81 73.6694 144.875 73.4558 144.932L72.7683 145.128L72.0756 145.232C71.8751 145.258 71.672 145.289 71.4714 145.31L71.3933 145.315L70.9194 145.323L73.8464 152.578C74.0131 152.995 74.2214 153.508 74.3699 154.078C74.5261 154.656 74.6355 155.3 74.6746 155.948C74.7136 156.596 74.6954 157.247 74.6043 157.883C74.5652 158.161 74.5209 158.396 74.4688 158.622L74.3048 159.401C74.1772 160.109 73.9871 160.831 73.8074 161.518C73.7475 161.745 73.6121 162.263 73.6121 162.263C72.3464 166.56 70.6016 170.06 68.2813 172.948C65.5183 176.435 62.0105 178.906 58.1459 180.081C56.6069 180.568 55.0001 180.841 53.3725 180.875Z" fill="white"/>
<path d="M94.4036 130.32C94.0469 132.385 93.237 134.26 92.0938 135.865C89.1302 140.031 83.9245 142.349 78.5599 141.331C75.9844 140.844 73.1198 139.974 69.9922 138.534L71.8229 81.0469C71.8229 81.0469 83.3776 81.1901 90.3568 88.487C90.7448 88.888 91.0313 89.3698 91.2396 89.8828C91.388 90.2448 91.5755 90.7318 91.7969 91.3307C91.8021 91.3359 91.8021 91.3359 91.8021 91.3359C93.7292 96.6458 97.776 110.945 94.4036 130.32Z" fill="white"/>
<path d="M92.0938 135.865C89.1302 140.031 83.9245 142.349 78.5599 141.331C75.9844 140.844 73.1198 139.974 69.9922 138.534L71.8229 81.0469C71.8229 81.0469 83.3776 81.1901 90.3568 88.487C90.7448 88.888 91.0313 89.3698 91.2396 89.8828C91.388 90.2448 91.5755 90.7318 91.7969 91.3307C91.6667 91.2057 89.125 88.9219 79.3438 89.888C79.3438 89.888 90.4531 106.07 84.1693 129.451C82.9375 134.034 87.625 138 91.9063 135.956C91.9714 135.924 92.0365 135.891 92.0938 135.865Z" fill="#2B1E59" fill-opacity="0.349"/>
<path d="M70.9195 91.7057C70.9195 91.7057 70.9325 91.7005 70.9664 91.6797C70.9976 91.6614 71.0445 91.6406 71.1018 91.6093C71.219 91.5494 71.3804 91.4661 71.594 91.3619C71.8101 91.2578 72.0679 91.1406 72.3596 91.0104C72.6591 90.8828 72.995 90.7448 73.3648 90.6015C73.7346 90.4531 74.1435 90.3177 74.5705 90.1666C75.0054 90.026 75.4612 89.8828 75.9403 89.7448C76.4195 89.6093 76.9195 89.4869 77.4247 89.3698C77.9377 89.2578 78.456 89.1562 78.982 89.0781L79.3778 89.0182C79.508 89 79.6435 88.9869 79.7737 88.9661C79.9039 88.9531 80.0315 88.9349 80.1695 88.9218C80.2971 88.9088 80.4273 88.8958 80.5575 88.8828C81.0757 88.8359 81.5888 88.8047 82.0888 88.7994C82.5862 88.7916 83.0679 88.7994 83.5211 88.8359C83.581 88.8437 83.6304 88.8437 83.6903 88.8489C83.7476 88.8567 83.7997 88.8619 83.8596 88.8698C83.969 88.8828 84.0784 88.888 84.1825 88.901C84.3961 88.9218 84.6044 88.9531 84.7997 88.9869C85.1955 89.039 85.5523 89.1224 85.8622 89.1875C86.0185 89.2213 86.1669 89.2656 86.2971 89.3047C86.4325 89.3437 86.5575 89.3698 86.6669 89.4088C87.107 89.5573 87.3544 89.6484 87.3544 89.6484C87.4846 89.6927 87.5497 89.8359 87.5028 89.9661C87.4638 90.0703 87.3596 90.1354 87.258 90.1276H87.245C87.245 90.1276 86.9846 90.1145 86.5497 90.0781C86.3284 90.0651 86.0627 90.0573 85.758 90.039C85.4534 90.039 85.1096 90.026 84.7346 90.039C84.6435 90.039 84.5471 90.0442 84.4481 90.0442C84.3518 90.0442 84.2528 90.0573 84.1513 90.0573C84.0523 90.0651 83.9481 90.0651 83.8466 90.0703C83.7945 90.0703 83.7424 90.0781 83.6903 90.0781C83.6382 90.0833 83.5862 90.0833 83.5341 90.0911C83.4299 90.0963 83.3205 90.1093 83.2112 90.1145C83.0992 90.1224 82.9898 90.1276 82.8804 90.1406C82.7685 90.1536 82.6513 90.1666 82.5419 90.1797C82.4247 90.1927 82.3153 90.2057 82.1981 90.2187C81.7372 90.2838 81.2632 90.3489 80.7841 90.4401C80.6669 90.4661 80.5445 90.4869 80.4221 90.513C80.2971 90.539 80.1825 90.5625 80.0575 90.5885C79.9351 90.6145 79.8179 90.6406 79.6955 90.6744L79.331 90.7656C78.8518 90.8828 78.3726 91.0182 77.9039 91.1614C77.4377 91.3099 76.9846 91.4531 76.5445 91.6145C76.4325 91.6536 76.3231 91.6927 76.219 91.7317C76.1148 91.7708 76.0054 91.8099 75.9013 91.8541C75.6929 91.9323 75.4872 92.0182 75.2919 92.0963C74.8961 92.2578 74.5263 92.414 74.1903 92.5625C73.8518 92.7135 73.5419 92.8619 73.2685 92.9922C72.995 93.1224 72.7632 93.2369 72.5731 93.3359C72.3856 93.4323 72.2372 93.5104 72.1409 93.5625C72.0497 93.6145 71.9976 93.6406 71.9976 93.6406L71.9846 93.6458C71.4534 93.9453 70.7789 93.75 70.4794 93.2187C70.1825 92.6875 70.3752 92.0104 70.9065 91.7135C70.9065 91.7135 70.9143 91.7135 70.9195 91.7057Z" fill="#2B1E59"/>
<path d="M81.089 142.674C80.175 142.674 79.2609 142.589 78.352 142.414C75.4484 141.862 72.477 140.888 69.5343 139.531C69.1307 139.344 68.8781 138.935 68.8911 138.495L70.7192 81.0078C70.7401 80.4062 71.2375 79.9323 71.8364 79.9375C71.9588 79.9375 74.8963 79.9844 78.7427 80.9557C81.0057 81.5286 83.1125 82.2995 85.0135 83.2552C87.4067 84.4609 89.4744 85.9609 91.1541 87.7135C91.6151 88.1953 91.9901 88.7864 92.2635 89.4609C92.9823 91.2187 94.7739 96.0677 95.8755 103.195C97.2375 112.029 97.1151 121.221 95.4927 130.51C94.8963 133.93 93.1073 137.039 90.4406 139.266C87.8156 141.461 84.4875 142.674 81.089 142.674ZM71.1281 137.818C73.6906 138.948 76.2583 139.76 78.7687 140.24C79.5343 140.383 80.3182 140.461 81.089 140.461C87.1333 140.461 92.2765 136.117 93.313 130.128C96.9718 109.115 91.8677 94.3229 90.2218 90.2916C90.0526 89.875 89.826 89.5182 89.5604 89.2396C86.1489 85.6771 81.5369 83.9427 78.2609 83.112C75.9979 82.5416 74.0474 82.3073 72.8989 82.2109L71.1281 137.818Z" fill="#2B1E59"/>
<path d="M46.5237 74.8802L38.6175 88.401L26.193 109.674C20.719 120.151 10.1279 124.81 5.8232 120.552C4.70602 119.448 3.86487 118.008 3.49508 116.211C2.44299 111.081 5.2581 103.047 16.6591 91.6224C32.2164 76.0234 46.5237 74.8802 46.5237 74.8802Z" fill="white"/>
<path d="M38.625 88.401L26.1979 109.674C20.724 120.151 10.1354 124.81 5.82813 120.552C4.71354 119.448 3.86979 118.008 3.5 116.211C8.77865 120.974 13.0078 118.099 15.5703 114.977C17.0234 113.211 18.0781 111.159 18.7734 108.979C23.5391 94.0182 37.7604 82.9427 37.7604 82.9427C37.7604 82.9427 38.1172 85.2031 38.625 88.401Z" fill="#2B1E59" fill-opacity="0.349"/>
<path d="M13.216 100.729C12.9634 101.104 12.6952 101.474 12.4296 101.846L11.6405 102.935L10.8619 104.013C10.6015 104.37 10.3541 104.734 10.1093 105.091C9.86187 105.453 9.64312 105.826 9.42177 106.195C9.20823 106.57 9.01291 106.948 8.83843 107.323C8.79156 107.422 8.7525 107.513 8.71343 107.609L8.65093 107.753L8.59885 107.896C8.565 107.992 8.52072 108.083 8.48687 108.18L8.39052 108.466C8.27333 108.849 8.18218 109.232 8.13791 109.609C8.12489 109.797 8.09885 109.979 8.10406 110.161V110.31C8.10406 110.375 8.09885 110.232 8.10406 110.245V110.263L8.11187 110.31L8.11708 110.393L8.12489 110.44V110.458C8.12489 110.466 8.12489 110.471 8.12489 110.471C8.1301 110.471 8.1301 110.471 8.13791 110.479C8.13791 110.479 8.14312 110.479 8.14312 110.484L8.15093 110.497C8.15614 110.518 8.16916 110.536 8.17697 110.557C8.19 110.576 8.20302 110.596 8.20822 110.615C8.21604 110.633 8.23427 110.646 8.24729 110.667C8.2551 110.672 8.26031 110.685 8.26812 110.693C8.27333 110.698 8.28635 110.706 8.29416 110.719C8.29937 110.724 8.30718 110.732 8.31239 110.745L8.32541 110.758C8.33062 110.763 8.33062 110.763 8.33843 110.771C8.35666 110.784 8.36968 110.797 8.39052 110.815C8.40875 110.828 8.42958 110.841 8.44781 110.854C8.45562 110.862 8.46864 110.867 8.48166 110.875C8.49468 110.88 8.49989 110.88 8.51291 110.888C8.59104 110.927 8.67437 110.958 8.76031 110.958C8.84364 110.966 8.92177 110.953 8.99989 110.932C9.01812 110.927 9.03895 110.914 9.05718 110.906L9.0702 110.901H9.07802C9.09625 110.893 9.05197 110.914 9.05718 110.906L9.07802 110.901L9.15614 110.867L9.31239 110.797C9.33583 110.784 9.35666 110.776 9.37489 110.763L9.43479 110.732L9.55198 110.672C9.59104 110.654 9.63531 110.628 9.67437 110.602L9.79677 110.531L9.92177 110.453C10.2395 110.25 10.5364 110.018 10.802 109.763C11.0754 109.51 11.302 109.227 11.5103 108.914C11.6145 108.766 11.703 108.596 11.7942 108.44C11.841 108.357 11.8723 108.271 11.9192 108.188C11.9374 108.141 11.9582 108.102 11.9765 108.057L12.0285 107.927C12.177 107.583 12.2681 107.206 12.3645 106.831L12.4244 106.591C12.5337 106.148 12.9556 105.875 13.3905 105.927C13.3957 105.935 13.4348 105.935 13.4686 105.935H13.565C13.6301 105.935 13.6952 105.935 13.7655 105.935C13.9035 105.935 14.039 105.927 14.1744 105.914C14.3124 105.909 14.4478 105.896 14.591 105.875L14.7968 105.849L15.0051 105.818L15.2056 105.786L15.4061 105.747C15.5442 105.714 15.6796 105.688 15.8098 105.648C15.8749 105.63 15.94 105.609 16.0103 105.591C16.0754 105.57 16.1405 105.552 16.2056 105.526C16.2707 105.505 16.3358 105.479 16.3983 105.461L16.5884 105.391C16.7108 105.339 16.841 105.286 16.9582 105.221C17.0806 105.161 17.1978 105.096 17.315 105.026L17.4817 104.917C17.5416 104.878 17.5936 104.839 17.6457 104.8L17.7291 104.74L17.8072 104.675C17.8593 104.63 17.9114 104.591 17.9634 104.544L18.1119 104.409C18.1561 104.365 18.203 104.313 18.2473 104.26C18.2942 104.214 18.3384 104.156 18.3775 104.104L18.4426 104.026C18.4608 104 18.4869 103.974 18.4999 103.943L18.6171 103.773C18.6561 103.714 18.69 103.656 18.7212 103.599L18.7733 103.508C18.7864 103.474 18.8046 103.443 18.8176 103.417L18.9087 103.227L18.9218 103.195C19.0077 103.013 19.2212 102.935 19.4009 103.021C19.5572 103.091 19.6353 103.266 19.5962 103.43L19.539 103.669C19.5259 103.708 19.5181 103.753 19.5051 103.792L19.466 103.909C19.44 103.987 19.414 104.073 19.3879 104.148L19.2916 104.383C19.2785 104.422 19.2603 104.461 19.2395 104.5L19.1822 104.617C19.1431 104.695 19.1041 104.773 19.0572 104.844C19.0129 104.917 18.9739 104.992 18.9218 105.065L18.7733 105.273C18.7265 105.344 18.6692 105.409 18.6171 105.474L18.5337 105.57L18.4478 105.669C18.3905 105.734 18.3332 105.8 18.2733 105.857L18.091 106.039C17.9634 106.148 17.8384 106.266 17.703 106.37C17.5676 106.479 17.4296 106.57 17.289 106.669L17.0728 106.805C17.0025 106.849 16.9322 106.888 16.8541 106.935C16.7811 106.979 16.703 107.018 16.6327 107.057C16.5624 107.096 16.4843 107.135 16.4061 107.175C16.2577 107.253 16.1015 107.323 15.953 107.388L15.7186 107.487L15.4843 107.578L15.2525 107.661L15.0129 107.745C14.8489 107.797 14.6926 107.849 14.5311 107.896C14.3697 107.94 14.2082 107.979 14.039 108.018C13.9556 108.036 13.8697 108.057 13.7863 108.07L13.6561 108.096C13.6119 108.102 13.5728 108.109 13.5077 108.122L14.539 107.219L14.4608 107.602L14.4218 107.792C14.4087 107.857 14.3879 107.914 14.3697 107.979L14.2603 108.357C14.2212 108.479 14.1692 108.602 14.1223 108.727L14.052 108.914C14.0259 108.971 13.9999 109.036 13.9686 109.096C13.9087 109.219 13.8567 109.336 13.7994 109.458L13.6041 109.81L13.552 109.901L13.4999 109.984L13.3905 110.154C13.091 110.602 12.7473 111.023 12.3593 111.388C11.9712 111.758 11.5416 112.076 11.0936 112.349C11.0364 112.38 10.9843 112.419 10.927 112.451L10.7499 112.55C10.6926 112.581 10.6353 112.615 10.5754 112.641L10.3879 112.732L10.2968 112.776C10.2655 112.789 10.2317 112.81 10.2056 112.815L10.0494 112.88L9.97385 112.911L9.95302 112.919C9.96083 112.919 9.90875 112.938 9.92698 112.932H9.92177L9.90093 112.938L9.83583 112.964C9.7525 112.997 9.66135 113.023 9.5702 113.05C9.20822 113.141 8.83062 113.167 8.46083 113.115C8.36968 113.102 8.28114 113.081 8.19 113.063C8.09885 113.042 8.01291 113.01 7.92437 112.984C7.83322 112.958 7.7551 112.919 7.66916 112.88L7.54677 112.823C7.5077 112.802 7.46864 112.776 7.42958 112.758L7.315 112.685C7.27593 112.659 7.23687 112.641 7.20302 112.607C7.1327 112.555 7.05979 112.497 6.98947 112.445C6.92437 112.388 6.85927 112.323 6.79416 112.258C6.78114 112.245 6.76291 112.224 6.74989 112.211L6.70302 112.159L6.61968 112.055C6.59364 112.023 6.56239 111.984 6.53635 111.945L6.45822 111.828C6.41135 111.75 6.35406 111.672 6.32281 111.589C6.28375 111.505 6.24468 111.419 6.20562 111.336C6.17177 111.25 6.14572 111.159 6.11447 111.076L6.09364 111.01L6.07541 110.932C6.06239 110.88 6.05458 110.823 6.04156 110.771C6.03635 110.719 6.02333 110.659 6.01552 110.609C6.01552 110.596 6.01552 110.589 6.01552 110.583V110.518L6.01031 110.432V110.367C6.01031 110.38 6.0025 110.232 6.01031 110.297V110.276L6.02333 110.07C6.02854 109.797 6.0676 109.531 6.10666 109.266C6.19781 108.74 6.34625 108.253 6.52333 107.779C6.69781 107.305 6.91135 106.862 7.14572 106.427C7.3775 106 7.6327 105.591 7.89052 105.188C8.15614 104.792 8.43479 104.409 8.72645 104.039C8.86968 103.852 9.01812 103.669 9.17437 103.495L9.40093 103.227L9.64312 102.969C9.96083 102.625 10.2916 102.294 10.6353 101.982C10.9791 101.669 11.3358 101.372 11.7108 101.091C11.802 101.021 11.8983 100.956 11.9973 100.885C12.0936 100.82 12.1848 100.747 12.289 100.682C12.4817 100.555 12.6822 100.43 12.8905 100.313C13.0155 100.242 13.1692 100.286 13.2421 100.417C13.2811 100.547 13.2733 100.651 13.216 100.729Z" fill="#2B1E59"/>
<path d="M30.1227 95.7318C29.805 95.7318 29.4925 95.5937 29.2738 95.3359C25.3493 90.6146 19.8701 89.3307 19.8102 89.3229C19.2139 89.1875 18.8441 88.5963 18.9743 88C19.1097 87.4036 19.6957 87.026 20.292 87.1614C20.5446 87.2213 26.5498 88.6041 30.9665 93.9193C31.3545 94.388 31.2894 95.0885 30.8233 95.4765C30.6227 95.6458 30.3701 95.7318 30.1227 95.7318Z" fill="#2B1E59"/>
<path d="M10.0498 123.227C8.02641 123.227 6.30245 122.57 5.05766 121.339C3.19568 119.495 2.20349 117.016 2.19829 114.164C2.19047 111.198 3.22172 107.836 5.2712 104.174C7.56027 100.094 11.128 95.6015 15.8884 90.8359C19.4874 87.2265 23.3259 84.0859 27.2946 81.5026C30.4795 79.4323 33.7478 77.7057 37.0238 76.3802C42.6384 74.1093 46.2972 73.7968 46.4457 73.7838C46.8545 73.7526 47.2504 73.9531 47.4691 74.2968C47.6905 74.6484 47.6983 75.0885 47.49 75.4453L27.1722 110.211C25.1618 114.062 22.378 117.352 19.1436 119.742C16.0759 121.982 12.8519 123.227 10.0498 123.227ZM44.3832 76.3672C42.8259 76.7057 40.5316 77.3359 37.7426 78.4713C32.8259 80.4765 25.3181 84.513 17.4509 92.3932C6.6462 103.221 4.3962 110.206 4.40922 114.151C4.41443 116.43 5.15402 118.32 6.61495 119.76C7.45089 120.591 8.61235 121.008 10.0577 121.013C12.3519 121.013 15.1879 119.896 17.8337 117.956C20.8103 115.763 23.3728 112.724 25.2269 109.161C25.2321 109.148 25.2452 109.128 25.253 109.115L44.3832 76.3672Z" fill="#2B1E59"/>
<path d="M71.3753 153.982C71.8544 155.169 72.0029 156.487 71.7633 157.76C67.8857 179.018 50.5576 181.698 44.5836 174.461C42.62 172.073 42.1904 169.464 42.5419 167.016C43.2607 161.823 47.4195 157.37 47.4195 157.37L39.2997 133.677L43.1825 154.357C41.9456 165.951 28.4091 172.891 20.4716 167.185C17.9299 165.354 17.081 163.133 17.107 160.958C17.1513 156.357 21.1018 151.969 21.1018 151.969C18.1253 139.76 18.7997 128.237 21.081 118.247C22.7607 110.893 25.3049 104.365 27.8909 98.9948C32.6383 89.1562 37.5341 83.2214 37.5341 83.2214L43.4742 76.4141L70.5706 82.4818L72.0758 93.7969C72.5992 102 71.581 108.919 70.0263 114.464C69.9273 114.802 69.831 115.138 69.7268 115.469C69.2138 117.177 68.6513 118.742 68.068 120.169C65.2451 127.102 62.0159 130.711 62.0159 130.711L71.3753 153.982Z" fill="white"/>
<path d="M71.3753 153.982L62.0107 130.711C62.0107 130.711 65.232 127.096 68.0549 120.169H68.0601C68.2164 119.794 68.3648 119.409 68.5159 119.013C68.5289 118.982 68.5393 118.943 68.5523 118.911C68.7294 118.443 68.9039 117.964 69.0732 117.477C69.1122 117.359 69.1565 117.242 69.1956 117.12C69.3779 116.581 69.5523 116.034 69.7268 115.469C69.831 115.146 69.9221 114.807 70.0263 114.464C69.8049 114.503 69.5914 114.529 69.37 114.563C64.3388 101.859 60.2789 91.7787 60.2789 91.7787C60.2789 91.7787 59.3831 105.792 57.6331 114.385C55.3622 113.932 54.0992 113.38 54.0393 113.354C53.969 113.32 53.8961 113.302 53.818 113.276L54.5185 110.445C55.0836 108.175 53.9299 105.862 51.8987 104.896C51.607 104.76 51.3023 104.648 50.9794 104.57L29.1174 99.1511C28.7086 99.0547 28.2945 99.0079 27.8857 99.0079C25.7372 99.0417 23.7867 100.516 23.2424 102.703L20.9456 111.914L20.344 114.333C20.0002 115.729 20.2971 117.138 21.0627 118.247C21.7112 119.195 22.6904 119.917 23.8831 120.216L45.7529 125.628C48.3388 126.271 50.9846 124.675 51.6279 122.083L52.495 118.56C52.943 118.729 53.5862 118.948 54.4039 119.177C55.0966 119.372 55.4534 120.151 55.1226 120.792C53.1383 124.648 50.7711 131.763 59.0862 133.625C59.0862 133.625 58.982 140.148 63.1383 143.18L66.0237 150.672C67.8466 155.396 67.3466 160.719 64.6226 164.99C61.6669 169.625 56.8987 174.318 50.0654 173.156C44.9091 172.279 42.982 169.742 42.5341 167.008C42.1851 169.456 42.6122 172.065 44.5784 174.453C50.5575 181.693 67.8857 179.01 71.7581 157.753C71.9976 156.487 71.8492 155.175 71.3753 153.982Z" fill="#2B1E59" fill-opacity="0.349"/>
<path d="M43.1689 154.365C41.9319 165.958 28.398 172.896 20.4579 167.19C17.9163 165.359 17.0673 163.141 17.0934 160.966C24.6298 167.846 31.0803 164.698 35.148 160.88C38.2027 158.018 39.4866 153.734 38.7027 149.62L36.6585 138.87C36.4137 137.56 35.5361 136.461 34.3303 135.885C28.9423 133.289 28.1637 129.99 28.1116 128.497C28.0986 128.211 28.4553 128.07 28.6428 128.284C33.0335 133.224 39.2782 133.69 39.2782 133.69L43.1689 154.365Z" fill="#2B1E59" fill-opacity="0.349"/>
<path d="M22.1462 151.659C22.1462 151.659 22.1462 151.664 22.1514 151.682V151.69C22.1514 151.69 22.1514 151.695 22.1514 151.703C22.1592 151.716 22.1592 151.729 22.1644 151.747C22.1853 151.82 22.2243 151.93 22.2816 152.073C22.3415 152.216 22.417 152.391 22.529 152.586C22.555 152.638 22.5863 152.682 22.6123 152.734C22.6462 152.786 22.6722 152.839 22.7087 152.891C22.7425 152.943 22.7816 153 22.8129 153.052C22.8519 153.104 22.891 153.164 22.9379 153.216C22.9769 153.273 23.0212 153.326 23.0655 153.385C23.1123 153.443 23.1566 153.5 23.2087 153.552C23.2608 153.612 23.3129 153.669 23.3649 153.729C23.4222 153.781 23.4743 153.839 23.5342 153.896C23.766 154.117 24.0264 154.344 24.3259 154.539C24.3649 154.565 24.3962 154.591 24.4353 154.617C24.4743 154.643 24.5134 154.664 24.5524 154.69C24.6306 154.734 24.7087 154.779 24.792 154.831C24.8754 154.878 24.9613 154.917 25.0446 154.961C25.0889 154.982 25.128 155.008 25.1748 155.026L25.305 155.086C25.3936 155.125 25.4847 155.164 25.5707 155.201C25.6618 155.234 25.7582 155.266 25.8493 155.299C26.0368 155.37 26.2321 155.417 26.4248 155.474C26.5238 155.508 26.6201 155.521 26.7243 155.547C26.8207 155.565 26.9248 155.591 27.0238 155.609C27.2243 155.643 27.4248 155.669 27.6254 155.701C27.8259 155.721 28.0342 155.74 28.2347 155.753C28.4353 155.766 28.6384 155.766 28.8389 155.779C28.891 155.779 28.9353 155.786 28.9873 155.786C29.0394 155.786 29.0837 155.786 29.1358 155.786C29.2347 155.786 29.3311 155.786 29.4274 155.779C29.5264 155.779 29.6228 155.779 29.7139 155.773C29.8103 155.766 29.9014 155.76 29.9925 155.753C30.1748 155.74 30.3571 155.734 30.5316 155.721C30.7061 155.701 30.8754 155.688 31.0316 155.669C31.3545 155.643 31.6462 155.591 31.9118 155.56C32.042 155.539 32.1644 155.526 32.2816 155.508C32.3988 155.487 32.503 155.469 32.5941 155.456C32.7816 155.422 32.93 155.396 33.0342 155.383C33.1384 155.365 33.1905 155.357 33.1905 155.357H33.1957C33.2686 155.344 33.3337 155.391 33.3389 155.461C33.3467 155.521 33.3207 155.573 33.2686 155.599C33.2686 155.599 33.2165 155.617 33.1175 155.661C33.0212 155.708 32.8858 155.766 32.7035 155.844C32.6123 155.883 32.516 155.922 32.4066 155.969C32.2946 156.013 32.1774 156.052 32.0498 156.104C31.9196 156.148 31.7816 156.201 31.641 156.247C31.4978 156.299 31.3415 156.344 31.18 156.396C31.0186 156.443 30.8493 156.492 30.6748 156.544C30.4978 156.591 30.3103 156.635 30.1228 156.674C30.0264 156.695 29.9274 156.721 29.8311 156.74C29.7347 156.76 29.6306 156.779 29.5316 156.792C29.4274 156.813 29.3259 156.826 29.2217 156.844C29.1696 156.852 29.1175 156.865 29.0655 156.87C29.0134 156.878 28.9613 156.883 28.904 156.891C28.6905 156.914 28.4691 156.94 28.2478 156.961C28.029 156.974 27.7998 156.987 27.5681 156.992C27.3415 156.987 27.1071 156.992 26.8675 156.979C26.7504 156.974 26.6332 156.961 26.516 156.953C26.3988 156.94 26.2764 156.94 26.1592 156.922C25.9274 156.891 25.6879 156.857 25.4535 156.805C25.3363 156.779 25.2191 156.753 25.1019 156.727C24.9873 156.695 24.8701 156.661 24.753 156.63C24.6957 156.609 24.6358 156.596 24.5785 156.578C24.5186 156.557 24.4665 156.539 24.4092 156.518C24.2998 156.482 24.1826 156.435 24.0707 156.396C23.9613 156.352 23.8519 156.299 23.7478 156.253C23.6957 156.227 23.6384 156.201 23.5863 156.182C23.5342 156.156 23.4821 156.13 23.43 156.096C23.016 155.891 22.6332 155.63 22.2894 155.365C22.2035 155.292 22.1201 155.227 22.0368 155.164C21.9587 155.091 21.8806 155.021 21.8024 154.956C21.7243 154.891 21.654 154.813 21.5889 154.74C21.516 154.669 21.4457 154.604 21.3858 154.526C21.3233 154.456 21.2634 154.383 21.1983 154.313C21.141 154.242 21.0889 154.169 21.0316 154.104C20.9717 154.039 20.9274 153.969 20.8754 153.896C20.8285 153.833 20.7764 153.768 20.7373 153.695C20.5629 153.435 20.4274 153.195 20.3233 152.995C20.2191 152.794 20.1488 152.617 20.0967 152.495C20.0837 152.464 20.0707 152.438 20.0629 152.411C20.0576 152.398 20.0498 152.385 20.0498 152.372C20.0446 152.359 20.0446 152.346 20.0368 152.333C20.0264 152.299 20.0186 152.281 20.0186 152.281C19.8233 151.703 20.141 151.073 20.7191 150.878C21.2972 150.685 21.9248 151.003 22.1201 151.581C22.1332 151.599 22.1384 151.633 22.1462 151.659Z" fill="#2B1E59"/>
<path d="M48.391 156.857L48.404 156.878C48.4119 156.891 48.4249 156.909 48.4431 156.94C48.4874 157.013 48.5603 157.122 48.6645 157.26C48.7686 157.401 48.904 157.57 49.0785 157.76C49.2478 157.948 49.4613 158.148 49.7009 158.357C49.9405 158.565 50.2191 158.779 50.5316 158.987C50.6879 159.083 50.8494 159.193 51.0238 159.284C51.1098 159.331 51.1931 159.388 51.2843 159.435C51.3754 159.479 51.4665 159.526 51.5551 159.576C51.6462 159.628 51.7452 159.667 51.8415 159.714C51.9379 159.758 52.029 159.805 52.1332 159.844C52.3337 159.922 52.5343 160.005 52.7426 160.076C52.8468 160.115 52.9509 160.148 53.0551 160.188C53.1645 160.219 53.2686 160.253 53.378 160.284C53.5915 160.357 53.8129 160.401 54.0343 160.458C54.0915 160.471 54.1436 160.484 54.2009 160.497L54.3702 160.531C54.4822 160.55 54.5968 160.576 54.7087 160.596C54.8181 160.622 54.9353 160.635 55.0447 160.654C55.154 160.675 55.2712 160.688 55.3832 160.706C55.4926 160.727 55.6098 160.732 55.7191 160.745C55.8285 160.758 55.9457 160.771 56.0577 160.784C56.115 160.792 56.1671 160.797 56.2244 160.805C56.2843 160.81 56.3363 160.81 56.3936 160.818C56.503 160.823 56.615 160.831 56.7244 160.836C56.8337 160.844 56.9457 160.854 57.0499 160.854C57.1593 160.854 57.2634 160.862 57.3676 160.862C57.5811 160.867 57.7895 160.88 57.99 160.875C58.1905 160.875 58.391 160.875 58.5785 160.875C58.7738 160.875 58.9561 160.862 59.1384 160.862C59.4952 160.854 59.8259 160.844 60.1176 160.831C60.266 160.823 60.4014 160.818 60.5238 160.818C60.654 160.81 60.7712 160.797 60.8754 160.792C61.0889 160.779 61.2504 160.771 61.3676 160.766C61.4848 160.758 61.5421 160.758 61.5421 160.758H61.5551C61.7113 160.753 61.8415 160.875 61.8468 161.031C61.8546 161.154 61.7764 161.266 61.6593 161.302C61.6593 161.302 61.602 161.323 61.4926 161.362C61.3806 161.401 61.2191 161.458 61.0186 161.523C60.9145 161.557 60.7973 161.596 60.6749 161.635C60.5499 161.675 60.4145 161.714 60.266 161.75C60.1176 161.789 59.9613 161.836 59.7999 161.875C59.7139 161.901 59.6306 161.914 59.5447 161.932C59.4561 161.953 59.3702 161.971 59.279 161.992C59.0994 162.031 58.904 162.07 58.7035 162.109C58.5004 162.141 58.2947 162.172 58.0811 162.206C57.865 162.245 57.6462 162.258 57.4197 162.284C57.1905 162.302 56.9587 162.328 56.7244 162.336C56.6072 162.341 56.4848 162.341 56.3676 162.349C56.3103 162.349 56.2452 162.354 56.1853 162.354C56.128 162.354 56.0629 162.354 56.0056 162.354C55.8806 162.354 55.7582 162.354 55.6358 162.354C55.5108 162.354 55.3832 162.354 55.2582 162.349C55.1358 162.341 55.0056 162.336 54.8754 162.328C54.7478 162.323 54.6228 162.315 54.4926 162.302C54.365 162.289 54.24 162.276 54.1124 162.263L53.9171 162.245C53.852 162.237 53.7869 162.224 53.7218 162.211C53.4691 162.172 53.2087 162.135 52.9561 162.076C52.8259 162.05 52.7035 162.023 52.5733 161.997C52.4509 161.966 52.3207 161.932 52.1983 161.901C51.9457 161.841 51.7061 161.758 51.4587 161.68C51.3363 161.641 51.2191 161.596 51.102 161.55C50.9848 161.505 50.8624 161.466 50.753 161.414C50.2921 161.227 49.8572 161.005 49.4561 160.771C49.0603 160.531 48.6905 160.292 48.365 160.031C48.0473 159.771 47.7634 159.526 47.5212 159.279C47.2895 159.031 47.0889 158.81 46.9379 158.609C46.7816 158.409 46.6723 158.24 46.5941 158.117C46.5551 158.052 46.529 158.005 46.4978 157.953C46.477 157.914 46.4639 157.896 46.4639 157.896C46.1801 157.357 46.3884 156.688 46.9249 156.404C47.4327 156.109 48.0994 156.318 48.391 156.857Z" fill="#2B1E59"/>
<path d="M30.4789 144.797C28.9867 144.797 27.6195 144.719 26.4502 144.622C22.4893 144.271 19.8617 143.536 19.7523 143.51C19.1612 143.349 18.8252 142.732 18.9867 142.148C19.1482 141.557 19.7653 141.219 20.3487 141.383C20.4008 141.396 22.9502 142.096 26.6976 142.427C30.1482 142.727 35.3617 142.766 40.5883 141.232C41.1716 141.057 41.7888 141.396 41.9633 141.987C42.1377 142.57 41.8018 143.188 41.2107 143.362C37.4242 144.458 33.656 144.797 30.4789 144.797Z" fill="#2B1E59"/>
<path d="M49.4689 147.776C46.5756 147.776 44.6173 147.438 44.5053 147.419C43.9037 147.315 43.5001 146.737 43.6043 146.141C43.7084 145.536 44.2787 145.133 44.8829 145.237C44.9142 145.245 48.086 145.784 52.2293 145.453C55.9923 145.154 61.3621 144.044 65.5756 140.5C66.0444 140.104 66.7449 140.169 67.1329 140.635C67.5287 141.104 67.4636 141.805 66.9975 142.193C64.922 143.94 62.4454 145.297 59.6225 146.237C57.3933 146.977 54.9402 147.458 52.3412 147.667C51.3152 147.745 50.3491 147.776 49.4689 147.776Z" fill="#2B1E59"/>
<path d="M39.162 134.781C39.162 134.781 39.1099 134.773 39.0083 134.76C38.9093 134.747 38.7661 134.729 38.5916 134.695C38.4172 134.664 38.2036 134.625 37.964 134.573C37.7245 134.521 37.451 134.464 37.1515 134.385C36.8599 134.307 36.5422 134.221 36.2114 134.125C35.8807 134.029 35.5317 133.911 35.175 133.781C34.8182 133.651 34.4536 133.516 34.0838 133.352C33.7166 133.198 33.3521 133.021 32.9901 132.841C32.8078 132.742 32.6255 132.651 32.451 132.547C32.3599 132.495 32.2765 132.445 32.1854 132.398C32.0942 132.346 32.0109 132.294 31.925 132.242C31.7557 132.133 31.5812 132.036 31.4198 131.919C31.3364 131.859 31.2583 131.807 31.1802 131.75C31.1021 131.698 31.0239 131.633 30.9458 131.581C30.8677 131.523 30.7896 131.464 30.7192 131.411C30.6411 131.354 30.5708 131.294 30.4979 131.237C30.4276 131.177 30.3573 131.12 30.2843 131.063C30.2192 131.003 30.1489 130.938 30.0838 130.88C30.0187 130.82 29.9536 130.763 29.8885 130.706C29.8234 130.646 29.7661 130.581 29.7088 130.523C29.5916 130.398 29.4745 130.289 29.3781 130.172C29.2739 130.055 29.175 129.945 29.0838 129.836C29.0005 129.724 28.9172 129.615 28.839 129.516C28.7609 129.419 28.7036 129.315 28.6385 129.224C28.5786 129.133 28.5213 129.049 28.4745 128.977C28.3859 128.823 28.3208 128.698 28.2739 128.615C28.2297 128.531 28.2036 128.484 28.2036 128.484C28.0916 128.284 28.1698 128.023 28.3729 127.914C28.5396 127.823 28.7401 127.854 28.8703 127.984L28.8963 128.01C28.8963 128.01 28.9302 128.044 28.9875 128.107C29.0526 128.167 29.1359 128.263 29.2479 128.375C29.3052 128.427 29.3703 128.492 29.4406 128.555C29.5135 128.62 29.5838 128.698 29.6698 128.763C29.7531 128.836 29.8442 128.914 29.9354 128.997C30.0317 129.076 30.1359 129.154 30.2401 129.237C30.3442 129.323 30.4588 129.406 30.5838 129.49C30.6411 129.536 30.701 129.576 30.7635 129.62C30.8286 129.659 30.8937 129.706 30.9588 129.75C31.0239 129.797 31.089 129.836 31.1541 129.88C31.2245 129.919 31.2896 129.964 31.3625 130.003C31.4328 130.049 31.5031 130.089 31.576 130.133C31.6463 130.172 31.7245 130.219 31.7948 130.258C31.8729 130.294 31.9458 130.341 32.0239 130.38C32.0995 130.419 32.1776 130.458 32.2557 130.497C32.412 130.581 32.5734 130.654 32.7375 130.737C32.813 130.776 32.8989 130.815 32.9823 130.846C33.0682 130.885 33.1515 130.919 33.2297 130.958C33.3989 131.029 33.5656 131.102 33.7349 131.164C34.0786 131.294 34.4224 131.424 34.7661 131.536C34.8495 131.563 34.9354 131.594 35.0265 131.62C35.1099 131.646 35.1932 131.672 35.2843 131.698C35.4536 131.75 35.6229 131.794 35.7896 131.846C35.9588 131.893 36.1203 131.938 36.2843 131.977C36.4458 132.016 36.6021 132.055 36.7583 132.094C37.063 132.172 37.3599 132.229 37.6333 132.281C37.9041 132.333 38.1515 132.385 38.3729 132.419C38.5916 132.458 38.787 132.482 38.9432 132.508C39.0995 132.534 39.2218 132.547 39.3 132.56C39.3781 132.568 39.4172 132.573 39.4172 132.573H39.4406C40.0448 132.646 40.4797 133.198 40.4093 133.799C40.3364 134.404 39.7843 134.839 39.1828 134.768C39.175 134.781 39.162 134.781 39.162 134.781Z" fill="#2B1E59"/>
<path d="M37.8202 83.4687C37.3931 84.0781 36.9713 84.7083 36.5546 85.3385C36.1405 85.9687 35.7395 86.612 35.3437 87.2526C34.5442 88.539 33.7786 89.8359 33.0416 91.1536C32.302 92.4661 31.5884 93.7969 30.8931 95.1406C30.2056 96.4844 29.5442 97.8333 28.9088 99.1979C28.5911 99.8776 28.2812 100.568 27.9765 101.255C27.8202 101.599 27.6718 101.943 27.5207 102.286L27.302 102.805L27.0858 103.326C26.5025 104.714 25.9582 106.117 25.4452 107.526C24.9348 108.94 24.453 110.362 24.0077 111.797L23.8384 112.336C23.7786 112.516 23.7265 112.693 23.677 112.872L23.3593 113.951C23.1562 114.672 22.9556 115.398 22.7733 116.125C22.4036 117.581 22.0598 119.039 21.7681 120.513C21.4765 121.987 21.2108 123.461 21.0051 124.948C20.789 126.432 20.6145 127.919 20.4921 129.414C20.4192 130.159 20.3801 130.906 20.3306 131.651L20.2785 132.776C20.2707 132.964 20.2577 133.151 20.2525 133.333L20.2395 133.891C20.1926 135.391 20.2187 136.883 20.2785 138.383L20.3358 139.505L20.3489 139.786L20.3697 140.065L20.4062 140.622L20.4452 141.182L20.466 141.461L20.4921 141.74L20.6015 142.857L20.6275 143.135L20.6614 143.414L20.7317 143.971L20.802 144.531L20.8358 144.81L20.8749 145.089C20.9843 145.828 21.0884 146.568 21.2239 147.31C21.4713 148.789 21.7942 150.25 22.1327 151.703C22.2161 152.068 22.1119 152.43 21.8931 152.69L21.8801 152.703L21.7759 152.82L21.6666 152.951C21.5937 153.039 21.5155 153.13 21.4452 153.221C21.2968 153.411 21.1535 153.599 21.0181 153.794C20.7369 154.177 20.4713 154.573 20.2187 154.982C19.7187 155.786 19.2786 156.63 18.9296 157.492C18.7525 157.922 18.6041 158.362 18.4869 158.797C18.3645 159.24 18.2812 159.68 18.2213 160.122C18.1119 161.005 18.1562 161.875 18.3827 162.685C18.6119 163.497 19.0207 164.25 19.578 164.911C20.1353 165.576 20.828 166.151 21.6145 166.638L21.7499 166.724L21.8983 166.807C21.9973 166.859 22.0937 166.924 22.1978 166.971C22.2942 167.021 22.3983 167.073 22.4947 167.125L22.7994 167.268C23.2161 167.451 23.6379 167.599 24.078 167.724C24.9478 167.969 25.8619 168.094 26.7759 168.112C27.2369 168.125 27.6978 168.099 28.1562 168.06C28.6171 168.016 29.078 167.951 29.5312 167.859C29.9869 167.768 30.44 167.651 30.8879 167.516C31.3358 167.38 31.7759 167.216 32.2108 167.042C33.078 166.685 33.9166 166.25 34.7134 165.742C34.914 165.62 35.1093 165.484 35.3046 165.354C35.4973 165.219 35.6874 165.081 35.8749 164.937C36.0624 164.797 36.2447 164.646 36.4322 164.497C36.6145 164.341 36.7942 164.193 36.9634 164.029C37.1379 163.875 37.3072 163.706 37.4765 163.542C37.6457 163.375 37.8072 163.211 37.9687 163.036C38.1301 162.867 38.2864 162.685 38.4426 162.51C38.5911 162.328 38.7473 162.148 38.8905 161.966C38.9608 161.875 39.0338 161.784 39.1041 161.687C39.1744 161.589 39.2473 161.497 39.3124 161.401C39.4478 161.206 39.5832 161.018 39.7082 160.818C39.8358 160.622 39.953 160.422 40.078 160.219C40.1926 160.01 40.3098 159.81 40.414 159.602C40.5233 159.396 40.6223 159.18 40.7265 158.974C40.8228 158.758 40.9192 158.544 41.0051 158.331C41.0963 158.117 41.1718 157.896 41.2577 157.674C41.2968 157.565 41.3358 157.453 41.3671 157.344L41.427 157.174L41.4765 157.005C41.6197 156.557 41.7239 156.104 41.8202 155.643C41.9192 155.182 41.9843 154.721 42.0364 154.255L42.0494 154.578L38.164 133.898C38.0546 133.294 38.4478 132.716 39.0468 132.607C39.5911 132.503 40.1223 132.82 40.2968 133.333L48.4244 157.026C48.5598 157.422 48.4634 157.836 48.203 158.122L48.19 158.143L48.0937 158.247L47.9895 158.362L47.7812 158.609C47.6457 158.771 47.5077 158.94 47.3723 159.117C47.1067 159.461 46.8463 159.81 46.6015 160.167C46.1093 160.88 45.6535 161.622 45.2447 162.38C44.4426 163.901 43.8306 165.516 43.5989 167.151C43.4817 167.969 43.4608 168.786 43.5598 169.581C43.6562 170.378 43.8775 171.143 44.2004 171.87C44.3697 172.234 44.565 172.586 44.7786 172.922C44.8358 173.008 44.8879 173.091 44.9478 173.174L45.1223 173.422C45.1796 173.508 45.2447 173.583 45.3098 173.661L45.3879 173.76L45.4973 173.891L45.6093 174.018C45.6275 174.039 45.6483 174.065 45.6614 174.083L45.7056 174.135L45.9009 174.339C46.0442 174.474 46.1848 174.617 46.3411 174.74C46.4192 174.805 46.4895 174.87 46.5754 174.927C46.6536 174.987 46.7317 175.052 46.815 175.109L47.0624 175.284C47.1457 175.344 47.2291 175.396 47.315 175.448C48.6822 176.31 50.3046 176.805 51.9582 176.935L52.2681 176.961L52.5806 176.974L52.7369 176.979H52.8905C52.9947 176.979 53.0989 176.979 53.203 176.979C53.4114 176.966 53.6171 176.966 53.8306 176.948C53.9348 176.94 54.039 176.935 54.1431 176.922L54.4556 176.888C54.5572 176.875 54.6614 176.862 54.7655 176.849L55.078 176.805L55.3879 176.745L55.5442 176.719L55.7004 176.687L56.0103 176.615C56.1145 176.589 56.2108 176.565 56.315 176.539C56.5233 176.487 56.7239 176.422 56.9244 176.362C57.7369 176.117 58.5207 175.792 59.2786 175.409C59.4739 175.318 59.6562 175.208 59.8437 175.109C60.0312 175.005 60.2134 174.896 60.3957 174.792C60.5754 174.674 60.7577 174.565 60.9322 174.448L61.1978 174.266C61.289 174.208 61.3749 174.148 61.4582 174.083C62.8463 173.086 64.0858 171.87 65.1614 170.521C65.7004 169.846 66.2004 169.133 66.6588 168.398C67.1197 167.659 67.5416 166.898 67.9166 166.107C68.2994 165.32 68.6431 164.516 68.9556 163.693C69.2603 162.867 69.5338 162.031 69.7786 161.187C70.0181 160.336 70.2317 159.479 70.414 158.617C70.4608 158.401 70.4999 158.182 70.5442 157.966L70.6093 157.643L70.6223 157.578L70.6353 157.492L70.6483 157.409C70.6536 157.383 70.6614 157.352 70.6614 157.331L70.6744 157.201C70.6796 157.161 70.6796 157.109 70.6874 157.065C70.7004 156.966 70.7004 156.878 70.7056 156.779C70.7134 156.591 70.7134 156.396 70.7004 156.208C70.6744 155.826 70.6145 155.448 70.5129 155.078C70.4661 154.891 70.4009 154.708 70.3358 154.534L70.2838 154.396L70.2187 154.242L70.0911 153.922L69.0728 151.391L60.9791 131.128C60.8228 130.737 60.9009 130.307 61.1536 130.01L61.1796 129.977L61.2577 129.88L61.3489 129.771C61.4062 129.698 61.4661 129.62 61.5233 129.549C61.6405 129.401 61.7577 129.245 61.8723 129.089C62.1067 128.776 62.3332 128.453 62.5546 128.128C63.0025 127.479 63.4244 126.81 63.8332 126.135L64.1379 125.622L64.4296 125.102C64.5259 124.927 64.6223 124.758 64.7213 124.583L65.0051 124.057C65.1041 123.883 65.1874 123.708 65.2838 123.531L65.5572 123L66.0832 121.93L66.5806 120.844L67.0546 119.747C67.2108 119.378 67.3541 119.008 67.5025 118.638L67.6119 118.359L67.7161 118.078L68.0286 117.242C68.0598 117.151 68.0989 117.055 68.1327 116.964L68.3254 116.398L68.5207 115.833C68.5858 115.646 68.6431 115.451 68.703 115.263L68.8827 114.69L68.9739 114.406L69.0207 114.263L69.0598 114.12L69.3827 112.964C69.4426 112.771 69.4869 112.576 69.539 112.385L69.6874 111.802L69.8384 111.219C69.8827 111.023 69.927 110.828 69.9661 110.635L70.2265 109.458L70.453 108.279C70.4921 108.083 70.5312 107.883 70.5624 107.687L70.6614 107.091L70.7577 106.492C70.7916 106.292 70.8306 106.096 70.8567 105.896L71.0181 104.701C71.0442 104.5 71.0754 104.305 71.1015 104.104L71.1666 103.508L71.302 102.307C71.3411 101.904 71.3749 101.5 71.4062 101.104C71.4843 100.299 71.5233 99.4948 71.5754 98.6901C71.5884 98.4896 71.6015 98.289 71.6145 98.0859L71.6327 97.4844L71.6796 96.2682C71.7056 95.4583 71.7056 94.6458 71.7369 93.8359V93.8229C71.7447 93.6458 71.8931 93.5104 72.0676 93.5104C72.2239 93.5182 72.3541 93.6328 72.3723 93.789C72.4244 94.1979 72.4765 94.6015 72.5233 95.0104L72.5937 95.6198C72.6119 95.8203 72.6379 96.0286 72.6509 96.237L72.7369 97.4635L72.7759 98.0807C72.789 98.289 72.789 98.4896 72.7942 98.6979L72.828 99.9297L72.8332 100.242C72.8332 100.346 72.8332 100.451 72.8332 100.555L72.828 101.169C72.8202 101.578 72.8202 101.995 72.8072 102.409L72.7499 103.643L72.7161 104.26C72.703 104.469 72.6848 104.669 72.664 104.878L72.5546 106.109C72.5103 106.518 72.4582 106.927 72.4062 107.344L72.328 107.961C72.302 108.167 72.2681 108.37 72.2369 108.576L72.0494 109.802C71.9765 110.214 71.8983 110.615 71.8228 111.023C71.7838 111.224 71.7447 111.432 71.7056 111.633L71.5754 112.245L71.44 112.854C71.3931 113.055 71.3489 113.258 71.2968 113.458L70.9921 114.664L70.953 114.815L70.914 114.964L70.8306 115.263L70.6614 115.859C70.6015 116.06 70.5494 116.263 70.4869 116.456L70.2968 117.055L70.1093 117.651C70.052 117.852 69.9739 118.047 69.9088 118.242L69.7082 118.833L69.6041 119.125L69.4947 119.417C69.3437 119.807 69.203 120.195 69.052 120.586L68.578 121.74L68.0728 122.883C67.8983 123.26 67.7239 123.635 67.5416 124.013L67.2629 124.57C67.1666 124.758 67.0806 124.948 66.9765 125.128C66.7838 125.497 66.5884 125.87 66.3801 126.232L66.0754 126.779L65.7577 127.315L65.5963 127.589L65.427 127.854C65.3176 128.031 65.2056 128.211 65.0911 128.388L64.7473 128.914C64.6301 129.089 64.5077 129.258 64.3905 129.432C64.1509 129.776 63.9036 130.12 63.6431 130.458C63.5155 130.628 63.3853 130.794 63.2473 130.964C63.1822 131.049 63.1119 131.133 63.0416 131.216L62.9296 131.346L62.815 131.484L63.0155 130.333L71.1666 150.594L72.1848 153.125L72.315 153.443L72.3801 153.599L72.4504 153.781C72.5416 154.026 72.6249 154.281 72.69 154.534C72.828 155.039 72.9114 155.565 72.9504 156.091C72.9687 156.357 72.9687 156.617 72.9634 156.883C72.9556 157.013 72.9504 157.148 72.9374 157.279C72.9296 157.344 72.9244 157.409 72.9166 157.479L72.8905 157.695C72.8853 157.734 72.8853 157.76 72.8801 157.786L72.8541 157.953L72.8411 158.018L72.8332 158.065L72.7681 158.409C72.7239 158.635 72.6848 158.87 72.6327 159.096C72.4374 160.01 72.2161 160.919 71.9582 161.823C71.6978 162.724 71.4062 163.62 71.0754 164.497C70.7395 165.38 70.3697 166.242 69.953 167.099C69.5442 167.951 69.0858 168.781 68.578 169.594C68.0728 170.398 67.5286 171.182 66.9322 171.93C65.7395 173.422 64.3567 174.779 62.7942 175.909C62.6978 175.979 62.5989 176.052 62.4973 176.117L62.1978 176.318C61.9973 176.453 61.789 176.578 61.5884 176.706C61.3801 176.831 61.1744 176.953 60.9582 177.07C60.7447 177.187 60.5364 177.305 60.3176 177.409C59.4556 177.844 58.552 178.219 57.6197 178.505C57.3853 178.576 57.1536 178.648 56.9192 178.706C56.802 178.74 56.6848 178.771 56.5624 178.797L56.2056 178.875L56.0233 178.914L55.8411 178.945L55.4791 179.01L55.1171 179.062C54.9921 179.083 54.8749 179.102 54.7525 179.109L54.3905 179.148C54.2655 179.161 54.1431 179.167 54.0207 179.174C53.7733 179.193 53.5259 179.201 53.2864 179.206C53.164 179.206 53.0416 179.206 52.9166 179.206H52.7369L52.5546 179.201L52.1848 179.187L51.815 179.161C51.7577 179.154 51.6926 179.154 51.6327 179.148L51.453 179.128C51.328 179.115 51.2056 179.102 51.0832 179.083C50.8358 179.044 50.5884 179.01 50.3489 178.958C50.1041 178.914 49.8619 178.854 49.6223 178.797C49.4999 178.766 49.3827 178.732 49.2603 178.701L49.078 178.648L48.9036 178.589C48.4296 178.44 47.9634 178.258 47.5025 178.049C47.0416 177.844 46.6015 177.602 46.1718 177.331C46.0702 177.258 45.9582 177.193 45.8541 177.122L45.5442 176.901C45.44 176.823 45.3437 176.745 45.2395 176.667C45.1353 176.591 45.039 176.505 44.9478 176.427C44.7525 176.266 44.5702 176.091 44.3827 175.909L44.1041 175.617L44.0338 175.544C44.0129 175.518 43.9947 175.5 43.9739 175.479L43.8645 175.349L43.7551 175.221L43.7421 175.208C43.703 175.161 43.7213 175.182 43.7082 175.169L43.677 175.13L43.6171 175.057C43.539 174.961 43.4608 174.862 43.3853 174.76L43.164 174.453C43.0937 174.352 43.0207 174.247 42.9504 174.135C42.677 173.708 42.4244 173.266 42.2108 172.799C41.789 171.87 41.5103 170.872 41.3801 169.859C41.2577 168.846 41.2838 167.833 41.427 166.846C41.5676 165.859 41.815 164.906 42.1379 163.99C42.4634 163.076 42.8593 162.193 43.3124 161.349C43.7603 160.505 44.2603 159.693 44.8046 158.909C45.078 158.518 45.3567 158.135 45.6483 157.76C45.7968 157.57 45.9452 157.383 46.0963 157.201C46.1718 157.109 46.2499 157.018 46.328 156.922L46.453 156.786L46.5155 156.714L46.5884 156.635L46.3489 157.753L38.2213 134.06L40.3567 133.495L44.2395 154.177V154.19C44.2603 154.294 44.2603 154.404 44.2525 154.5C44.1874 155.034 44.1171 155.565 44.0077 156.096C43.8957 156.622 43.7681 157.148 43.6119 157.661L43.552 157.857L43.4869 158.044C43.4426 158.174 43.4036 158.297 43.3593 158.427C43.2681 158.682 43.1692 158.935 43.0676 159.18C42.9687 159.435 42.8515 159.674 42.7421 159.922C42.6249 160.161 42.5077 160.409 42.3853 160.641C42.2629 160.88 42.1249 161.115 41.9973 161.349C41.8593 161.576 41.7239 161.81 41.5754 162.031C41.4322 162.258 41.2759 162.479 41.1275 162.698C41.0494 162.81 40.9713 162.914 40.8879 163.023C40.8098 163.133 40.7265 163.237 40.6405 163.341C40.4791 163.555 40.3046 163.758 40.1353 163.964C39.9608 164.167 39.7838 164.367 39.6041 164.562C39.4218 164.758 39.2343 164.945 39.0468 165.141C38.8515 165.32 38.664 165.51 38.4608 165.69C38.2681 165.872 38.0598 166.042 37.8593 166.216C37.6509 166.385 37.4426 166.555 37.2291 166.716C37.0233 166.88 36.802 167.034 36.5806 167.19C36.3619 167.341 36.1405 167.49 35.914 167.633C35.0129 168.203 34.0598 168.703 33.0676 169.112C32.5676 169.312 32.0676 169.495 31.5494 169.656C31.0364 169.812 30.5103 169.951 29.9791 170.052C29.4478 170.164 28.9166 170.242 28.3723 170.294C27.8332 170.346 27.289 170.372 26.7369 170.359C25.6483 170.333 24.5442 170.19 23.4817 169.885C22.9504 169.734 22.4244 169.547 21.9192 169.326L21.5416 169.151C21.4192 169.094 21.2968 169.029 21.1718 168.964C21.0494 168.904 20.927 168.826 20.8098 168.76L20.6275 168.659L20.44 168.542C19.5181 167.964 18.6379 167.25 17.8983 166.372C17.1588 165.497 16.5754 164.445 16.2629 163.315C16.1067 162.75 16.0155 162.172 15.9791 161.596C15.94 161.018 15.9713 160.445 16.0364 159.888C16.1015 159.331 16.2187 158.784 16.3593 158.253C16.5025 157.721 16.6796 157.201 16.8853 156.701C17.289 155.695 17.7864 154.747 18.3463 153.846C18.6249 153.398 18.9218 152.956 19.2343 152.529C19.3879 152.312 19.552 152.099 19.7134 151.891C19.7968 151.786 19.8827 151.685 19.966 151.581L20.1614 151.346L20.2395 151.26L19.9869 152.268C19.6353 150.763 19.2916 149.255 19.039 147.732C18.8957 146.971 18.7864 146.206 18.6692 145.44L18.6249 145.154L18.5858 144.867L18.5129 144.289L18.4426 143.714L18.4036 143.427L18.3697 143.141L18.2551 141.987L18.2213 141.701L18.1952 141.409L18.1509 140.831L18.1041 140.253L18.0858 139.961L18.0728 139.669L18.0077 138.513C17.9426 136.969 17.9036 135.424 17.9426 133.878L17.9504 133.302C17.9556 133.107 17.9634 132.919 17.9687 132.724L18.0155 131.568C18.0598 130.794 18.0989 130.023 18.164 129.258L18.2082 128.68L18.2343 128.393L18.2603 128.109L18.3775 126.953C18.4166 126.57 18.4687 126.187 18.5129 125.805L18.5858 125.227L18.6692 124.654C18.8775 123.122 19.1431 121.604 19.4478 120.091C19.7447 118.578 20.1015 117.073 20.4921 115.586C20.6874 114.841 20.9009 114.102 21.1067 113.359L21.4374 112.25C21.4895 112.068 21.5494 111.88 21.6145 111.698L21.789 111.146C22.2629 109.68 22.7681 108.227 23.3202 106.784C23.8697 105.344 24.453 103.922 25.0754 102.513L25.3098 101.987L25.5494 101.464C25.7134 101.112 25.8671 100.76 26.0364 100.417C26.3619 99.7239 26.7056 99.0338 27.0494 98.3463C28.4348 95.6015 29.9739 92.9401 31.6457 90.362C32.4895 89.0781 33.3593 87.8177 34.2786 86.5859C34.7395 85.9687 35.2056 85.3646 35.6874 84.7682C35.927 84.4687 36.1718 84.1693 36.4192 83.8776C36.6718 83.5859 36.9192 83.2943 37.1848 83.0078C37.3332 82.8463 37.5806 82.8385 37.7421 82.9896C37.9166 83.0859 37.9374 83.3073 37.8202 83.4687Z" fill="#2B1E59"/>
<path d="M23.8173 117.208L45.6871 122.63C48.273 123.273 50.9189 121.675 51.5621 119.086L54.4423 107.44C55.0048 105.169 53.8512 102.857 51.8147 101.891C51.5282 101.755 51.2183 101.643 50.9006 101.56L29.0387 96.1407C26.4449 95.4974 23.8043 97.0938 23.1637 99.6849L20.8798 108.906L20.2782 111.328C19.635 113.925 21.2314 116.568 23.8173 117.208Z" fill="white"/>
<path d="M23.8172 117.208L45.687 122.63C48.273 123.273 50.9188 121.674 51.562 119.086L54.4422 107.44C55.0047 105.169 53.8511 102.857 51.8146 101.891C50.3693 102.409 49.4474 102.742 49.4474 102.742C46.0698 111.828 44.7652 118.859 30.5099 114.302C25.5959 112.732 22.6115 110.432 20.8745 108.906L20.2704 111.328C19.6349 113.924 21.2313 116.568 23.8172 117.208Z" fill="#2B1E59" fill-opacity="0.349"/>
<path d="M46.8464 123.862C46.3672 123.862 45.8932 123.805 45.4271 123.688L23.5651 118.268C22.0287 117.885 20.7318 116.93 19.9141 115.568C19.0912 114.203 18.8516 112.607 19.2344 111.076L22.112 99.4245C22.4297 98.1328 23.1901 96.9714 24.2526 96.1536C25.2917 95.349 26.5807 94.9062 27.8854 94.9062C28.3646 94.9062 28.8386 94.9635 29.3047 95.0807L51.1667 100.503C52.7031 100.885 54 101.839 54.8177 103.203C55.6406 104.565 55.8802 106.161 55.4974 107.693L52.6198 119.346C52.3021 120.638 51.5417 121.799 50.4792 122.617C49.4349 123.422 48.1432 123.862 46.8464 123.862ZM27.8776 97.0807C26.1406 97.0807 24.6354 98.2552 24.2214 99.9427L21.3412 111.594C21.1016 112.568 21.2578 113.581 21.7761 114.445C22.2943 115.307 23.1172 115.917 24.0912 116.159L45.9531 121.578C46.2448 121.648 46.5495 121.688 46.8542 121.688C48.5912 121.688 50.0964 120.513 50.5104 118.826L53.3906 107.174C53.6302 106.201 53.4766 105.188 52.9557 104.326C52.4375 103.461 51.6146 102.852 50.6406 102.612L28.7787 97.1901C28.4818 97.1198 28.1771 97.0807 27.8776 97.0807Z" fill="#2B1E59"/>
<path d="M22.9639 116.904C23.2295 117.034 23.5133 117.133 23.818 117.208L45.6878 122.63C47.5811 123.096 49.5055 122.37 50.654 120.922C51.0706 120.396 51.3883 119.773 51.555 119.086L52.8389 113.911L53.2607 112.206L54.443 107.44C55.0837 104.844 53.4873 102.203 50.9014 101.56L46.1722 100.391C48.2477 101.339 49.4352 103.674 48.8649 105.966L47.3076 112.258L45.9795 117.62C45.3363 120.208 42.6904 121.805 40.1045 121.161L22.9639 116.904Z" fill="white"/>
<path d="M22.9639 116.904C23.2295 117.034 23.5133 117.133 23.818 117.208L45.6878 122.63C48.2738 123.273 50.9196 121.675 51.555 119.086L53.2607 112.206C52.4118 113.281 51.0576 114.536 49.4352 114.294C48.5472 114.164 47.8467 113.333 47.3154 112.258L45.9847 117.62C45.3441 120.208 42.6982 121.805 40.1097 121.161L22.9639 116.904Z" fill="#371A45" fill-opacity="0.349"/>
<path d="M46.8465 123.862C46.3674 123.862 45.8934 123.805 45.4273 123.688L23.5601 118.268C23.1955 118.182 22.8387 118.055 22.5028 117.891C21.9976 117.651 21.7554 117.068 21.9455 116.542C22.133 116.016 22.6903 115.716 23.2293 115.854L40.3752 120.104C40.6668 120.177 40.9715 120.216 41.271 120.216C43.008 120.216 44.5132 119.039 44.9273 117.352L47.8075 105.701C48.2424 103.948 47.3595 102.125 45.7189 101.372C45.2059 101.138 44.9611 100.555 45.1486 100.021C45.3361 99.4896 45.8882 99.1901 46.4325 99.3255L51.1538 100.495C52.6903 100.878 53.9872 101.839 54.8049 103.203C55.6278 104.565 55.8674 106.161 55.4872 107.693L52.6069 119.339C52.2892 120.63 51.5288 121.792 50.4741 122.609C49.4351 123.422 48.1434 123.862 46.8465 123.862ZM44.7345 121.273L45.9533 121.57C46.245 121.643 46.5497 121.682 46.8465 121.682C48.5601 121.682 50.0965 120.482 50.5054 118.82L53.3856 107.167C53.6252 106.195 53.4689 105.188 52.9507 104.318C52.4325 103.456 51.6069 102.844 50.6356 102.604L49.5575 102.339C50.0965 103.521 50.245 104.883 49.9142 106.221L47.0366 117.865C46.7189 119.156 45.9585 120.318 44.9012 121.135C44.8439 121.188 44.7918 121.234 44.7345 121.273Z" fill="#2B1E59"/>
<path d="M36.6071 109.419C36.5107 109.836 36.3232 113.294 36.3232 113.294C36.3232 113.294 37.3805 113.542 38.6696 113.841C40.2842 114.216 41.9847 112.841 42.4639 110.776C42.943 108.706 42.016 106.727 40.4014 106.357C39.3128 106.104 38.055 105.812 38.055 105.812C38.055 105.812 36.7633 108.745 36.6071 109.419Z" fill="#22A7F0"/>
<path d="M39.208 114.068C39.0127 114.068 38.8174 114.05 38.6299 114.003L36.1455 113.425L36.1533 113.289C36.1585 113.146 36.3486 109.802 36.445 109.38C36.6012 108.701 37.846 105.862 37.8981 105.747L37.9502 105.622L40.4268 106.201C42.1247 106.596 43.1064 108.667 42.6117 110.815C42.1846 112.698 40.7523 114.068 39.208 114.068ZM36.4893 113.172L38.708 113.685C38.8695 113.724 39.0465 113.742 39.2132 113.742C40.609 113.742 41.9059 112.484 42.3148 110.745C42.7757 108.766 41.8981 106.87 40.3747 106.518L38.1559 106.005C37.9111 106.57 36.9059 108.888 36.7757 109.466C36.6924 109.771 36.5492 112.12 36.4893 113.172Z" fill="#2B1E59"/>
<path d="M36.6071 109.419C36.5107 109.836 36.3232 113.294 36.3232 113.294C36.3232 113.294 37.3805 113.542 38.6696 113.841C40.2842 114.216 41.9847 112.841 42.4639 110.776C42.943 108.706 42.016 106.727 40.4014 106.357C39.3128 106.104 38.055 105.812 38.055 105.812C38.055 105.812 36.7633 108.745 36.6071 109.419Z" fill="#2B1E59" fill-opacity="0.349"/>
<path d="M39.2084 114.625C38.974 114.625 38.7344 114.599 38.5078 114.549L36.1589 114.003C35.8151 113.924 35.5834 113.615 35.6016 113.263C35.6615 112.206 35.8099 109.687 35.9063 109.266C36.0703 108.562 37.1771 106.026 37.3985 105.526C37.5417 105.208 37.8854 105.031 38.2214 105.109L40.5703 105.656C42.5729 106.122 43.7422 108.492 43.1693 110.945C42.6719 113.076 41.0052 114.625 39.2084 114.625ZM37.0755 112.732L38.8308 113.141C38.9558 113.167 39.086 113.185 39.2084 113.185C40.3229 113.185 41.4193 112.081 41.763 110.615C42.1511 108.94 41.4714 107.344 40.2396 107.057L38.474 106.648C37.9948 107.758 37.3985 109.206 37.3073 109.583C37.263 109.81 37.1589 111.271 37.0755 112.732Z" fill="#2B1E59"/>
<path d="M34.2503 108.878C34.3076 108.63 34.3832 108.393 34.4743 108.159C34.568 107.927 34.6774 107.706 34.805 107.497C34.93 107.286 35.0707 107.091 35.2243 106.911C35.3805 106.732 35.5446 106.57 35.7217 106.43C35.8988 106.286 36.0811 106.167 36.2738 106.068C36.4639 105.966 36.6618 105.891 36.8597 105.839C37.0602 105.786 37.2608 105.758 37.4587 105.753C37.6592 105.747 37.8545 105.768 38.0472 105.813C38.2399 105.857 38.4248 105.927 38.6045 106.018C38.7816 106.109 38.9483 106.224 39.1045 106.359C39.2608 106.495 39.4014 106.648 39.5316 106.823C39.6592 106.995 39.7712 107.185 39.8675 107.391C39.9639 107.596 40.042 107.813 40.0993 108.042C40.1592 108.271 40.2009 108.508 40.2217 108.753C40.2425 108.997 40.2451 109.242 40.2269 109.492C40.2087 109.742 40.1696 109.99 40.1123 110.237C40.055 110.482 39.9821 110.721 39.8884 110.953C39.7946 111.185 39.6852 111.406 39.5576 111.617C39.4326 111.828 39.292 112.023 39.1384 112.201C38.9821 112.38 38.818 112.542 38.641 112.685C38.4665 112.826 38.2816 112.948 38.0889 113.047C37.8988 113.146 37.7035 113.224 37.5029 113.276C37.3024 113.328 37.1045 113.357 36.904 113.362C36.7035 113.365 36.5082 113.344 36.3154 113.299C36.1227 113.255 35.9378 113.188 35.7608 113.096C35.5811 113.005 35.4144 112.891 35.2582 112.755C35.1019 112.62 34.9613 112.466 34.8337 112.292C34.7035 112.117 34.5915 111.93 34.4951 111.724C34.4014 111.518 34.3233 111.299 34.2634 111.07C34.2035 110.841 34.1618 110.607 34.141 110.362C34.1201 110.117 34.1201 109.87 34.1384 109.62C34.1566 109.37 34.193 109.122 34.2503 108.878Z" fill="#22A7F0"/>
<path d="M36.859 113.523C36.6663 113.523 36.471 113.503 36.2835 113.458C34.583 113.063 33.6038 110.992 34.096 108.844C34.5309 106.961 35.971 105.591 37.5074 105.591C37.7028 105.591 37.8981 105.609 38.0856 105.656C38.9163 105.849 39.6038 106.44 40.0127 107.323C40.4137 108.193 40.5048 109.24 40.2653 110.276C39.8356 112.154 38.3981 113.523 36.859 113.523ZM37.5074 105.909C36.1142 105.909 34.8173 107.167 34.4085 108.906C33.9475 110.888 34.8225 112.784 36.3486 113.133C36.51 113.172 36.6845 113.193 36.8538 113.193C38.247 113.193 39.5439 111.932 39.9528 110.193C40.1741 109.227 40.096 108.253 39.721 107.453C39.3512 106.661 38.747 106.135 38.0153 105.966C37.8512 105.927 37.6845 105.909 37.5074 105.909Z" fill="#2B1E59"/>
<path d="M40.1148 110.232C39.6356 112.297 37.9377 113.672 36.3231 113.294C34.7007 112.919 33.7789 110.94 34.2606 108.87C34.3257 108.589 34.4091 108.323 34.5184 108.07C34.6044 109.589 35.4455 110.849 36.6981 111.133C38.094 111.458 39.5523 110.479 40.232 108.87C40.258 109.318 40.219 109.771 40.1148 110.232Z" fill="#2B1E59" fill-opacity="0.349"/>
<path d="M40.1149 110.232C40.0837 110.375 40.0446 110.51 40.0003 110.641C40.0524 108.945 39.1826 107.479 37.8128 107.167C36.3102 106.818 34.7269 107.987 34.1357 109.823C34.1436 109.51 34.1878 109.193 34.2607 108.87C34.7399 106.805 36.4378 105.427 38.055 105.805C39.6696 106.188 40.5889 108.161 40.1149 110.232Z" fill="white"/>
<path d="M36.8592 114.081C36.6275 114.081 36.3879 114.055 36.1587 114.003C34.1561 113.536 32.9894 111.167 33.5597 108.714C34.0519 106.578 35.7186 105.026 37.5155 105.026C37.7498 105.026 37.9894 105.052 38.216 105.104C39.2212 105.339 40.0389 106.039 40.5233 107.078C40.979 108.057 41.0884 109.232 40.815 110.393C40.3228 112.529 38.6561 114.081 36.8592 114.081ZM37.5077 106.466C36.3931 106.466 35.2967 107.57 34.953 109.036C34.565 110.711 35.2446 112.31 36.4764 112.594C36.6014 112.62 36.7316 112.641 36.854 112.641C37.9686 112.641 39.065 111.536 39.4087 110.07C39.604 109.227 39.5311 108.383 39.2134 107.693C38.9217 107.065 38.4478 106.643 37.8853 106.513C37.7681 106.479 37.6379 106.466 37.5077 106.466Z" fill="#2B1E59"/>
<path d="M28.9167 118.865C28.8646 118.865 28.8177 118.859 28.7656 118.852C28.3776 118.768 28.1302 118.385 28.2083 117.995L29.7839 110.602L27.0104 107.771C26.8333 107.596 26.763 107.344 26.8203 107.104L29.1823 97.0026C29.2734 96.6146 29.6615 96.3724 30.0521 96.4635C30.4401 96.5547 30.6797 96.9453 30.5885 97.3333L28.3203 107.044L31.0885 109.867C31.2578 110.044 31.3281 110.289 31.276 110.523L29.6224 118.294C29.5443 118.63 29.2474 118.865 28.9167 118.865Z" fill="#2B1E59"/>
<path d="M64.6748 117.372C56.693 117.555 51.9248 115.367 51.68 115.25C50.331 114.612 49.7477 113.003 50.3831 111.654C51.0107 110.302 52.6123 109.727 53.9612 110.349C54.0784 110.401 60.2659 113.115 70.2659 111.406C71.7373 111.154 73.1331 112.146 73.3779 113.615C73.6305 115.086 72.6383 116.482 71.1748 116.729C68.8258 117.138 66.6539 117.326 64.6748 117.372Z" fill="white"/>
<path d="M73.3203 113.393C72.9245 113.867 72.3724 114.211 71.7187 114.32C69.3698 114.724 67.1979 114.911 65.2265 114.958C57.2422 115.138 52.4765 112.951 52.2291 112.833C51.4713 112.477 50.9713 111.815 50.7786 111.062C50.6276 111.237 50.4922 111.432 50.388 111.654C49.7526 113.003 50.3359 114.612 51.6849 115.25C51.9323 115.367 56.7057 117.547 64.6823 117.372C66.6536 117.326 68.8255 117.138 71.1745 116.737C72.6458 116.482 73.6302 115.086 73.3776 113.62C73.3646 113.542 73.3385 113.471 73.3203 113.393Z" fill="#371A45" fill-opacity="0.349"/>
<path d="M63.7549 118.49C56.1976 118.49 51.6976 116.482 51.2107 116.255C49.3122 115.367 48.4867 113.089 49.3825 111.193C50.0049 109.862 51.3617 108.997 52.833 108.997C53.3851 108.997 53.9164 109.115 54.4216 109.349C54.5258 109.393 57.9893 110.875 63.794 110.875C65.8435 110.875 67.9633 110.693 70.0909 110.328C70.3044 110.289 70.5179 110.276 70.7315 110.276C72.5857 110.276 74.1638 111.607 74.4815 113.445C74.8304 115.516 73.4372 117.49 71.3669 117.839C69.1299 118.221 66.8851 118.443 64.7133 118.49C64.3903 118.482 64.0648 118.49 63.7549 118.49ZM52.8252 111.206C52.2107 111.206 51.6403 111.568 51.3799 112.128C51.0049 112.925 51.3539 113.872 52.1455 114.25C52.32 114.333 56.5492 116.276 63.7471 116.276C64.0466 116.276 64.3513 116.268 64.6482 116.263C66.7185 116.216 68.8513 116.008 70.9789 115.646C71.8487 115.495 72.432 114.672 72.281 113.802C72.1534 113.029 71.4919 112.471 70.7133 112.471C70.6221 112.471 70.531 112.477 70.4398 112.497C68.1898 112.88 65.945 113.076 63.7732 113.076C57.3929 113.076 53.656 111.427 53.4945 111.354C53.4867 111.354 53.4867 111.349 53.4815 111.349C53.281 111.258 53.0596 111.206 52.8252 111.206Z" fill="#2B1E59"/>
<path d="M72.6975 84.2865C72.6975 84.2865 80.635 94.7448 82.359 108.122C84.0855 121.5 80.648 143.135 70.2912 142.513C59.9345 141.888 62.01 130.919 62.01 130.919C62.01 130.919 58.0022 132.01 56.6402 128.471C55.2782 124.935 60.8798 118.63 60.8798 118.63C62.4631 103.286 60.2834 91.8438 60.2834 91.8438C60.2834 91.8438 59.3772 87.0261 59.3043 86.4427C59.2392 85.8568 58.8642 81.1589 58.8642 81.1589L72.6975 84.2865Z" fill="white"/>
<path d="M38.0029 77.0886C38.0029 77.0886 50.0576 89.1485 73.8076 85.974C73.8076 85.974 81.9639 96.9115 82.6722 113.198C83.3779 129.484 77.6331 147.12 66.2894 141.349C66.2894 141.349 62.3936 139.839 61.8545 135.138C61.8545 135.138 67.2295 141.63 73.1201 138.883C78.5472 136.352 83.0732 111.401 76.7191 96.5104C74.9535 92.3802 70.7529 89.862 66.2712 90.0912C57.917 90.5052 42.8857 89.4271 38.0029 77.0886Z" fill="#2B1E59" fill-opacity="0.349"/>
<path d="M61.9766 105.813L60.875 103.891C60.9661 103.839 63.1771 102.578 66.7891 101.565C70.1094 100.63 75.3099 99.7422 81.2057 100.781L80.8229 102.961C75.362 101.995 70.5391 102.818 67.4583 103.674C64.0859 104.609 61.9974 105.799 61.9766 105.813Z" fill="#2B1E59"/>
<path d="M60.5443 91.7969C60.6927 92.3411 60.8229 92.8932 60.9401 93.4453L61.0234 93.862L61.1094 94.276C61.1615 94.5547 61.2187 94.8281 61.263 95.1067C61.362 95.6666 61.4661 96.2187 61.5417 96.776L61.6667 97.612C61.7057 97.8932 61.737 98.1719 61.776 98.4505L61.8802 99.2864C61.9115 99.5677 61.9375 99.8463 61.9714 100.133C62.0234 100.69 62.0937 101.255 62.1276 101.82C62.1719 102.383 62.2161 102.943 62.25 103.508L62.3411 105.201L62.3594 105.622L62.3984 106.888C62.4115 107.453 62.4323 108.018 62.4323 108.583C62.4375 109.148 62.4375 109.714 62.4375 110.276V110.492L62.4323 110.706L62.4245 111.128L62.4062 111.977C62.3932 112.542 62.3802 113.107 62.3464 113.672C62.3203 114.237 62.2891 114.802 62.2552 115.367C62.2292 115.93 62.1719 116.495 62.1276 117.06C62.0755 117.625 62.0286 118.19 61.9714 118.747V118.755C61.9453 118.995 61.8464 119.203 61.6979 119.37L61.5365 119.56L61.3672 119.76C61.2578 119.896 61.1484 120.034 61.0365 120.169C60.8177 120.448 60.6016 120.727 60.3958 121.013C59.9792 121.583 59.5781 122.161 59.2135 122.76C58.8516 123.357 58.513 123.961 58.2344 124.578C58.0938 124.883 57.9687 125.193 57.8646 125.497C57.763 125.805 57.6719 126.115 57.612 126.414C57.5807 126.562 57.5599 126.714 57.5469 126.854C57.5339 126.997 57.5286 127.141 57.5286 127.276C57.5339 127.549 57.5729 127.797 57.6458 128.01L57.6589 128.049L57.6641 128.07C57.6719 128.076 57.638 128.005 57.651 128.036V128.044L57.6589 128.049L57.6641 128.062L57.7161 128.185L57.7682 128.315L57.7812 128.349C57.7891 128.354 57.7891 128.362 57.7943 128.367L57.8151 128.406L57.8516 128.484C57.8646 128.51 57.8776 128.536 57.8984 128.568L58.0026 128.745C58.151 128.966 58.3203 129.159 58.513 129.323C58.7083 129.484 58.9297 129.615 59.1745 129.719C59.4219 129.823 59.6875 129.893 59.974 129.932C60.2578 129.971 60.5573 129.984 60.8542 129.971C61.0052 129.964 61.1615 129.951 61.3099 129.932C61.3802 129.919 61.4583 129.911 61.5286 129.898L61.6328 129.88L61.6797 129.867L61.6979 129.859C61.7057 129.859 61.7109 129.854 61.7057 129.859L63.0807 131.133L63.0599 131.25L63.0417 131.393C63.0286 131.49 63.0156 131.589 63.0078 131.685C62.9896 131.88 62.9687 132.073 62.9557 132.276C62.9297 132.672 62.9245 133.068 62.9375 133.464C62.9557 134.255 63.0469 135.042 63.2161 135.794C63.3906 136.547 63.6432 137.268 64 137.917C64.3568 138.565 64.8047 139.143 65.349 139.622C66.4323 140.583 67.8854 141.13 69.4297 141.331C69.526 141.344 69.6224 141.357 69.7214 141.362C69.8177 141.375 69.9141 141.388 70.013 141.388L70.3047 141.414H70.3437C70.2786 141.414 70.3359 141.414 70.3229 141.414H70.4219L70.5833 141.422L70.7448 141.427H70.8177L70.875 141.422C70.9583 141.414 71.0365 141.414 71.1224 141.409C71.2057 141.401 71.2969 141.388 71.388 141.383L71.5234 141.37C71.5677 141.362 71.6146 141.357 71.6536 141.344L71.9193 141.297L72.1797 141.232C72.263 141.214 72.3464 141.182 72.4375 141.156L72.5677 141.117C72.612 141.104 72.651 141.091 72.6979 141.07L72.9505 140.974C73.0339 140.94 73.112 140.896 73.1979 140.857C73.3646 140.784 73.5208 140.687 73.6771 140.604C74.3047 140.221 74.8906 139.74 75.4141 139.174C75.9401 138.609 76.4193 137.982 76.849 137.305C77.7031 135.951 78.3906 134.451 78.9479 132.893C79.513 131.333 79.9531 129.724 80.3229 128.089C80.6875 126.453 80.9661 124.792 81.1745 123.122C81.3802 121.456 81.5234 119.773 81.6016 118.086C81.6797 116.404 81.6927 114.716 81.6276 113.036C81.5937 112.193 81.5495 111.354 81.4844 110.518C81.4661 110.31 81.4531 110.102 81.4323 109.888C81.4141 109.68 81.3932 109.471 81.3672 109.266C81.349 109.057 81.3229 108.849 81.2969 108.641L81.2578 108.331L81.25 108.292V108.271C81.2578 108.297 81.25 108.266 81.25 108.266L81.2396 108.187L81.2135 108.026L81.1224 107.388L81.0755 107.07C81.0625 106.966 81.0443 106.87 81.0234 106.766L80.9193 106.156L80.8698 105.849L80.8047 105.544C80.7187 105.135 80.6406 104.727 80.5443 104.318C80.4479 103.909 80.362 103.5 80.2526 103.099C79.8385 101.477 79.3437 99.8724 78.7682 98.2942C78.1979 96.7161 77.5417 95.1666 76.8359 93.6406L76.7057 93.3541L76.5677 93.0703L76.2969 92.5052C76.1094 92.1276 75.9193 91.7526 75.7266 91.3828C75.3359 90.6354 74.9349 89.8958 74.513 89.1692C74.0911 88.4401 73.6562 87.7213 73.2109 87.013C72.9818 86.6562 72.7552 86.3125 72.5234 85.9609C72.4062 85.7916 72.2891 85.6172 72.1667 85.4479L71.9844 85.1953L71.8099 84.9557L71.7969 84.9349C71.4323 84.4427 71.5443 83.7474 72.0365 83.3906C72.5234 83.0338 73.2109 83.138 73.5729 83.6172C73.651 83.7213 73.7083 83.8073 73.7812 83.8984L73.974 84.1692C74.1042 84.3515 74.2266 84.5338 74.3516 84.7161C74.5964 85.0781 74.8385 85.4427 75.0703 85.8125C75.5443 86.5521 75.9922 87.2995 76.4271 88.0521C76.862 88.8125 77.2812 89.5703 77.6849 90.3489C77.8932 90.7317 78.0807 91.1276 78.2812 91.5182L78.5677 92.1094L78.7083 92.401L78.8464 92.7005C79.5833 94.2838 80.2578 95.8932 80.8568 97.5364C81.4531 99.1771 81.9714 100.852 82.4062 102.552C82.5234 102.974 82.612 103.404 82.7109 103.831C82.8151 104.26 82.8932 104.687 82.9818 105.117L83.0469 105.44L83.1068 105.773L83.224 106.427C83.2422 106.539 83.2604 106.648 83.2812 106.753L83.3255 107.07L83.4167 107.706L83.4427 107.87L83.4557 107.948L83.4635 108.005L83.4687 108.044L83.5078 108.37C83.5339 108.589 83.5599 108.805 83.5807 109.023C83.6042 109.245 83.625 109.458 83.6432 109.68C83.6641 109.901 83.6823 110.115 83.7031 110.336C83.7734 111.206 83.8203 112.081 83.8516 112.951C83.9167 114.698 83.9036 116.437 83.8203 118.182C83.7422 119.922 83.599 121.661 83.3776 123.396C83.1641 125.128 82.8724 126.849 82.4896 128.562C82.1068 130.276 81.6406 131.971 81.0365 133.638C80.4349 135.307 79.6953 136.943 78.7161 138.487C78.2292 139.26 77.6641 140 77.0234 140.687C76.388 141.375 75.6354 142 74.7995 142.505C74.5833 142.622 74.3698 142.753 74.151 142.849C74.0391 142.901 73.9297 142.958 73.8125 143.005L73.4687 143.141C73.4115 143.167 73.3516 143.187 73.2943 143.206L73.1198 143.266C73.0026 143.305 72.8854 143.344 72.763 143.37L72.3984 143.458C72.276 143.484 72.1536 143.505 72.0286 143.523C71.9714 143.536 71.9062 143.544 71.849 143.557L71.6589 143.576C71.5365 143.589 71.4141 143.602 71.2839 143.615L70.888 143.628H70.7005L70.5391 143.622L70.375 143.615H70.2187L70.1745 143.609L69.8307 143.583C69.7135 143.576 69.5964 143.562 69.487 143.549C69.3698 143.536 69.2526 143.523 69.1432 143.51C68.6823 143.445 68.2214 143.362 67.763 143.245C67.3021 143.128 66.849 142.979 66.401 142.797C65.5052 142.435 64.6432 141.927 63.9036 141.266C63.1589 140.609 62.5417 139.818 62.0807 138.961C61.8464 138.534 61.6536 138.091 61.4844 137.643C61.3229 137.195 61.1849 136.734 61.0833 136.281C60.8672 135.359 60.7708 134.437 60.7448 133.516C60.7318 133.055 60.7396 132.594 60.7708 132.133C60.7839 131.906 60.8047 131.672 60.8307 131.445C60.8411 131.328 60.8542 131.211 60.8672 131.094L60.8932 130.919L60.9062 130.828L60.9271 130.724L62.3021 131.997L62.2422 132.01L62.1979 132.023L62.1146 132.042C62.0547 132.055 62.0026 132.06 61.9453 132.073C61.8359 132.094 61.7318 132.112 61.6198 132.125C61.4062 132.151 61.1927 132.177 60.9792 132.185C60.5495 132.203 60.1094 132.185 59.6693 132.125C59.2266 132.06 58.7812 131.945 58.3464 131.768C57.9115 131.594 57.4974 131.346 57.1276 131.042C56.7578 130.737 56.4323 130.372 56.1719 129.984C56.1094 129.885 56.0495 129.789 55.9922 129.685C55.9583 129.641 55.9323 129.581 55.9062 129.523L55.8229 129.354L55.7839 129.271L55.7656 129.232L55.7526 129.198L55.7005 129.068L55.6484 128.94L55.6224 128.875L55.6094 128.828L55.5755 128.737C55.4089 128.258 55.3438 127.771 55.3359 127.31C55.3359 127.076 55.3437 126.849 55.3698 126.635C55.388 126.414 55.4271 126.201 55.4661 125.992C55.5495 125.57 55.6615 125.174 55.7969 124.784C55.9271 124.401 56.0833 124.026 56.2448 123.669C56.4062 123.305 56.5807 122.953 56.7708 122.617C56.9583 122.273 57.1458 121.943 57.3542 121.609C57.7552 120.956 58.1823 120.326 58.638 119.708C58.8646 119.404 59.0911 119.099 59.3307 118.799C59.4479 118.651 59.5703 118.5 59.6953 118.352L59.8828 118.13L59.9792 118.021L60.0833 117.904L59.8125 118.526C59.8568 117.977 59.901 117.424 59.9531 116.872L60.0312 116.047C60.0651 115.776 60.0781 115.495 60.0964 115.216C60.1354 114.664 60.1745 114.115 60.2187 113.562C60.2708 113.01 60.2839 112.458 60.3229 111.901L60.3698 111.07L60.4089 110.445L60.4141 110.237C60.4349 109.687 60.4531 109.128 60.4792 108.576C60.5052 108.023 60.5104 107.466 60.5234 106.914L60.5365 106.083L60.5443 105.669V105.253L60.5495 103.586L60.5312 101.917C60.5312 101.359 60.5052 100.807 60.4922 100.247C60.487 99.9687 60.4792 99.6901 60.474 99.4114L60.4401 98.5807L60.4089 97.7422L60.3698 96.9062C60.349 96.3463 60.3099 95.7942 60.2839 95.237C60.2708 94.9583 60.2448 94.6797 60.2318 94.401L60.2057 93.9844L60.1745 93.5703C60.1562 93.289 60.1354 93.0104 60.1094 92.7317C60.0911 92.4531 60.0651 92.1797 60.0391 91.901C60.026 91.7526 60.1354 91.6224 60.2786 91.6094C60.388 91.5885 60.5052 91.6745 60.5443 91.7969Z" fill="#2B1E59"/>
<path d="M23.7262 52.3828C24.9397 59.2578 27.872 65.8594 32.4814 71.4922C33.4215 72.6432 34.4267 73.7526 35.5048 74.8099C36.0231 75.3281 36.5673 75.8359 37.1246 76.3359C38.8121 77.8359 40.5882 79.1667 42.4319 80.3411C44.0205 81.3542 45.6611 82.25 47.3408 83.0286C49.3642 83.9687 51.4528 84.7292 53.5647 85.3177C54.3382 85.5339 55.1168 85.7292 55.8929 85.8958C70.1611 89 85.6403 84.513 96.0179 72.7969C111.304 55.5443 109.721 29.151 92.4892 13.8516C89.1689 10.9062 85.5048 8.58073 81.6533 6.88021C81.2054 6.67968 80.7444 6.48437 80.2913 6.30989C79.0647 5.8177 77.82 5.38802 76.5673 5.01823C73.6637 4.16666 70.6923 3.64323 67.7028 3.4401C64.721 3.23177 61.7184 3.34896 58.7679 3.78385C57.8278 3.92187 56.8929 4.09114 55.958 4.29166C54.5647 4.59635 53.1819 4.96614 51.8147 5.41406C45.0127 7.63281 38.6897 11.638 33.5986 17.3906C24.7965 27.3151 21.5882 40.2578 23.7262 52.3828Z" fill="white"/>
<path d="M64.7916 86.9609C64.7916 86.9609 64.7864 86.9609 64.7916 86.9609C61.789 86.9609 58.7942 86.6354 55.8671 86C55.0911 85.8307 54.3046 85.638 53.5338 85.4219C51.388 84.8203 49.2864 84.0469 47.289 83.125C45.5833 82.3333 43.9296 81.4297 42.3671 80.4323C40.5051 79.2422 38.7161 77.8932 37.0494 76.4141C36.4374 75.862 35.9062 75.362 35.4192 74.8802C34.3645 73.8359 33.3463 72.7188 32.3932 71.5573C27.8906 66.0547 24.8567 59.4271 23.6171 52.3958C22.5468 46.3151 22.8333 39.9661 24.4531 34.026C25.2838 30.9896 26.4583 28.0495 27.9426 25.2839C29.4739 22.4349 31.3489 19.7526 33.5077 17.3125C38.4348 11.75 44.7525 7.59375 51.776 5.30469C53.1067 4.86979 54.4999 4.48698 55.927 4.17448C56.8411 3.97396 57.789 3.80469 58.7421 3.66667C60.7447 3.375 62.789 3.22656 64.8124 3.22656C65.7708 3.22656 66.7447 3.25781 67.7031 3.32292C70.7187 3.53125 73.7083 4.0651 76.5885 4.90885C77.8411 5.27865 79.0989 5.71354 80.3228 6.20052C80.8176 6.39323 81.263 6.58333 81.6926 6.77604C85.6275 8.51042 89.2786 10.8594 92.5546 13.7604C96.776 17.513 100.143 21.9792 102.555 27.0365C104.883 31.9245 106.232 37.1484 106.557 42.5755C106.88 48.0026 106.167 53.3568 104.443 58.4844C102.651 63.7943 99.8437 68.6302 96.0963 72.862C92.0546 77.4271 87.2057 80.9688 81.6718 83.4115C76.3359 85.7734 70.6536 86.9609 64.7916 86.9609ZM64.8124 3.45313C62.7942 3.45313 60.7656 3.60417 58.7734 3.89583C57.8281 4.03125 56.8853 4.20573 55.9791 4.40104C54.5572 4.71354 53.1692 5.08854 51.8463 5.52344C44.8619 7.80208 38.5781 11.9375 33.677 17.4688C25.2005 27.0365 21.6145 39.7578 23.8307 52.3698C25.0624 59.362 28.0859 65.9557 32.5598 71.4271C33.5077 72.5911 34.526 73.7005 35.5755 74.7396C36.0572 75.2188 36.5885 75.7109 37.1978 76.2578C38.8567 77.7318 40.6353 79.0755 42.4895 80.25C44.039 81.2422 45.6874 82.1458 47.3853 82.9297C49.3697 83.8516 51.4583 84.6172 53.5911 85.2161C54.3567 85.4297 55.1432 85.6172 55.914 85.7917C58.8202 86.4219 61.802 86.7474 64.7864 86.7474C76.6926 86.7474 88.0416 81.638 95.9348 72.7318C111.154 55.5521 109.578 29.1849 92.4114 13.9427C89.1562 11.0547 85.5182 8.71875 81.6015 6.99219C81.1744 6.79687 80.7265 6.60937 80.2395 6.41927C79.0208 5.93229 77.776 5.4974 76.5234 5.13542C73.6562 4.29167 70.6796 3.76563 67.6848 3.55729C66.7369 3.48698 65.7708 3.45313 64.8124 3.45313Z" fill="#371A45"/>
<path d="M23.7266 52.3828C24.9401 59.2578 27.8724 65.8594 32.4818 71.4922C33.4219 72.6433 34.4271 73.7526 35.5053 74.8099C36.0235 75.3281 36.5678 75.836 37.125 76.336C38.8125 77.836 40.5886 79.1667 42.4323 80.3412C44.0209 81.3542 45.6615 82.25 47.3412 83.0287C49.3646 83.9688 51.4532 84.7292 53.5651 85.3177C54.3386 85.5339 55.1172 85.7292 55.8933 85.8959C70.1615 89 85.6407 84.513 96.0183 72.7969C101.557 66.5469 104.883 59.0886 106.05 51.3959C104.513 54.3125 102.607 57.0964 100.323 59.6797C96.4323 64.0729 91.8933 64.8203 86.9011 67.1563C78.5782 71.0573 69.1172 74.7188 60.2006 72.7787C59.4219 72.6094 58.6433 72.4141 57.8724 72.2005C55.7579 71.6094 53.6693 70.8438 51.6459 69.9089C49.9662 69.1302 48.3256 68.2422 46.737 67.2214C44.8881 66.0469 43.1172 64.7162 41.4323 63.2162C40.875 62.7162 40.3308 62.211 39.8099 61.6927C38.7344 60.6328 37.7292 59.5235 36.7891 58.375C32.1771 52.7396 29.2474 46.138 28.0339 39.2656C27.2422 34.7787 27.1849 30.1849 27.8724 25.6667C23.4948 33.9818 22.1459 43.4063 23.7266 52.3828Z" fill="#2B1E59" fill-opacity="0.349"/>
<path d="M64.7918 87.6042C61.7449 87.6042 58.7033 87.2787 55.7319 86.6302C54.9402 86.4558 54.1434 86.2604 53.3647 86.0469C51.185 85.4349 49.0522 84.6511 47.0236 83.7084C45.2918 82.9115 43.6121 81.9896 42.0236 80.9766C40.1355 79.7761 38.3126 78.3985 36.6199 76.9011C35.9975 76.3412 35.4585 75.836 34.9663 75.349C33.896 74.2917 32.8595 73.1537 31.8934 71.974C27.3204 66.3854 24.2397 59.6537 22.9819 52.5209C21.8934 46.3464 22.1902 39.9011 23.8309 33.8698C24.6746 30.7865 25.8673 27.8021 27.3725 24.9922C28.9298 22.1016 30.8283 19.3776 33.0288 16.8959C38.0288 11.25 44.448 7.03127 51.5757 4.70575C52.9246 4.26565 54.3439 3.87502 55.7918 3.56512C56.7189 3.362 57.6772 3.18752 58.6434 3.04429C60.6746 2.74742 62.7501 2.59637 64.8048 2.59637C65.7788 2.59637 66.771 2.63023 67.7423 2.70054C70.8048 2.90887 73.8387 3.45315 76.7632 4.30992C78.034 4.68752 79.3126 5.12762 80.5574 5.62242C81.0496 5.81773 81.5106 6.01044 81.9507 6.20575C85.9454 7.96617 89.6564 10.3542 92.9819 13.2995C97.271 17.112 100.688 21.6406 103.133 26.7761C105.5 31.7344 106.862 37.0443 107.193 42.5547C107.524 48.0677 106.802 53.5 105.044 58.7058C103.229 64.099 100.375 69.0078 96.5757 73.3047C92.4715 77.9375 87.5496 81.5417 81.9324 84.0078C76.5105 86.3906 70.7397 87.6042 64.7918 87.6042ZM64.8126 4.09117C62.8283 4.09117 60.8309 4.23179 58.8647 4.52606C57.9298 4.66148 57.0027 4.83075 56.1095 5.02346C54.7137 5.33075 53.3465 5.70054 52.0418 6.12762C45.1616 8.37502 38.9741 12.4375 34.1486 17.8906C25.8022 27.3073 22.2684 39.836 24.4611 52.2526C25.6746 59.1406 28.6434 65.625 33.0548 71.0183C33.9871 72.1615 34.9871 73.2578 36.0236 74.2787C36.4975 74.7526 37.0236 75.2396 37.6199 75.7761C39.2475 77.224 41.0053 78.5495 42.8257 79.711C44.3569 80.6901 45.9793 81.5729 47.646 82.3464C49.6043 83.2552 51.659 84.0078 53.7605 84.599C54.5132 84.8073 55.284 84.9948 56.0496 85.1641C58.909 85.7865 61.8491 86.1042 64.7866 86.1042C76.5053 86.1042 87.685 81.0729 95.4533 72.3047C110.44 55.388 108.886 29.4245 91.9845 14.4167C88.7736 11.5729 85.1954 9.27085 81.3413 7.57554H81.3361C80.9194 7.38804 80.4793 7.20575 80.0053 7.01825C78.7996 6.53648 77.5731 6.1094 76.3413 5.75262C73.521 4.9219 70.5887 4.40106 67.6382 4.20054C66.7111 4.12242 65.7579 4.09117 64.8126 4.09117Z" fill="#371A45"/>
<path d="M64.7913 87.9609C64.7913 87.9609 64.7861 87.9609 64.7913 87.9609C61.7236 87.9609 58.6507 87.6302 55.6611 86.9818C54.8616 86.8047 54.0595 86.6042 53.2731 86.3906C51.0752 85.7734 48.9215 84.9818 46.8798 84.0339C45.135 83.2292 43.4371 82.2995 41.8408 81.276C39.9345 80.0625 38.1038 78.6797 36.3929 77.1667C35.7627 76.6016 35.2184 76.0885 34.7262 75.6016C33.6507 74.5365 32.6064 73.3958 31.6272 72.2005C27.0153 66.5599 23.9085 59.776 22.6377 52.5781C21.5413 46.3542 21.8408 39.849 23.4944 33.7734C24.3434 30.6641 25.5439 27.6536 27.0673 24.8151C28.6377 21.901 30.5491 19.1563 32.7679 16.6563C37.8121 10.9583 44.2783 6.70573 51.471 4.36198C52.833 3.91406 54.26 3.52604 55.7184 3.20833C56.6585 3.00521 57.6246 2.83073 58.5986 2.6875C60.6481 2.38802 62.7366 2.23438 64.8121 2.23438C65.7965 2.23438 66.7887 2.26563 67.7679 2.33854C70.8486 2.54427 73.9163 3.09115 76.8668 3.96094C78.1507 4.33594 79.4345 4.78385 80.6871 5.28385C81.1923 5.47917 81.6533 5.67448 82.0934 5.875C86.122 7.64583 89.8642 10.0547 93.2158 13.0286C97.5413 16.8698 100.984 21.4401 103.455 26.6198C105.843 31.625 107.218 36.974 107.549 42.5286C107.88 48.0859 107.153 53.5651 105.382 58.8151C103.547 64.2552 100.674 69.2083 96.8408 73.5313C92.7028 78.1979 87.7366 81.8333 82.0752 84.3255C76.6064 86.7396 70.7913 87.9609 64.7913 87.9609ZM64.8121 4.44792C62.846 4.44792 60.8616 4.58854 58.9163 4.875C57.9892 5.01042 57.0752 5.17448 56.1845 5.36979C54.8043 5.66667 53.4423 6.03646 52.1585 6.46615C45.3356 8.69271 39.208 12.724 34.4215 18.1224C26.1455 27.4635 22.6455 39.875 24.8173 52.1875C26.0179 59.0104 28.9684 65.4427 33.3382 70.7917C34.2653 71.9219 35.2522 73.013 36.2835 74.0234C36.7574 74.4922 37.2757 74.9792 37.8642 75.5104C39.4788 76.9453 41.2184 78.2578 43.0283 79.4063C44.5439 80.3724 46.1455 81.2552 47.8069 82.0208C49.747 82.9167 51.7835 83.6693 53.8642 84.2552C54.609 84.4609 55.3746 84.651 56.135 84.8203C58.9684 85.4349 61.8798 85.7474 64.7913 85.7474C76.4137 85.7474 87.4892 80.763 95.1949 72.0651C110.052 55.2969 108.507 29.5547 91.7574 14.6823C88.5804 11.8672 85.0257 9.58073 81.2054 7.90104C81.2054 7.90104 81.2002 7.90104 81.2002 7.89323C80.7835 7.70573 80.3564 7.52344 79.8824 7.34115H79.8772C78.6897 6.86719 77.471 6.44531 76.2496 6.08854C73.4502 5.27083 70.5491 4.7526 67.6246 4.54948C66.6923 4.47917 65.7444 4.44792 64.8121 4.44792Z" fill="#2B1E59"/>
<path d="M26.9196 62.5937C44.7009 86.5469 80.0967 85.5078 91.0837 58.0755C98.5603 39.4088 86.0707 17.6745 67.6983 11.6328C54.3259 7.23698 39.3519 8.80208 26.8676 27.7109C26.8676 27.7109 22.6332 36.9349 23.0993 44.1719C23.5655 51.4089 25.2452 58.375 25.2452 58.375L26.9196 62.5937Z" fill="#2B1E59"/>
<path d="M23.0731 42.375C23.0471 42.9844 23.0601 43.5885 23.0992 44.1719C23.5653 51.4089 25.245 58.375 25.245 58.375L26.9195 62.6016C44.7007 86.5521 80.0914 85.513 91.0835 58.0833C91.7893 56.3099 92.3205 54.513 92.6851 52.7005C74.9143 72.026 42.0288 69.112 24.0966 44.9635L23.0731 42.375Z" fill="#18113A"/>
<path d="M59.6822 85.0781C53.6509 85.0781 47.703 83.8255 41.9895 81.3542C41.9374 81.3281 41.8853 81.3021 41.8332 81.2682C39.927 80.0547 38.0936 78.6719 36.3879 77.1589C35.7577 76.5938 35.2134 76.0833 34.7212 75.5964C33.6431 74.5313 32.5988 73.388 31.6197 72.1953C27.0103 66.5521 23.9035 59.7708 22.6327 52.5703C21.5363 46.3464 21.8332 39.8438 23.4869 33.7682C24.3384 30.6589 25.5363 27.6458 27.0598 24.8099C28.6301 21.8958 30.5441 19.1484 32.7603 16.651C37.8072 10.9505 44.2733 6.70052 51.466 4.35677C51.5363 4.33073 51.6145 4.31771 51.6848 4.3099C52.9374 4.17448 54.2134 4.10938 55.4973 4.10938C59.8488 4.10938 64.4608 4.90104 69.2082 6.45833C74.6822 8.25781 79.9348 11.3724 84.3957 15.4688C88.7473 19.4609 92.3593 24.3802 94.8384 29.7031C99.5259 39.7708 99.9999 50.5781 96.1796 60.1276C94.552 64.1849 92.4113 67.8646 89.8046 71.0651C87.315 74.1224 84.3957 76.75 81.1405 78.8724C74.8957 82.9297 67.4712 85.0781 59.6822 85.0781ZM42.9504 79.3594C48.3514 81.6901 53.9816 82.8646 59.6822 82.8646C75.3358 82.8646 88.216 74.0573 94.1301 59.2969C97.7238 50.3203 97.2707 40.1406 92.841 30.6328C87.9895 20.2214 78.9035 11.9688 68.5285 8.55469C64.0077 7.07031 59.6301 6.3151 55.5103 6.3151C54.3436 6.3151 53.1822 6.375 52.0494 6.4974C45.2707 8.73177 39.1822 12.75 34.4218 18.1224C26.1457 27.4635 22.6457 39.875 24.8176 52.1875C26.0181 59.0104 28.9686 65.4427 33.3384 70.7917C34.2655 71.9219 35.2525 73.013 36.2837 74.0234C36.7577 74.4922 37.2759 74.9792 37.8645 75.5104C39.453 76.9271 41.1665 78.224 42.9504 79.3594Z" fill="#2B1E59"/>
<path d="M59.5263 80.7682C59.5263 80.7682 59.5185 80.7682 59.5263 80.7682C53.3727 80.7682 47.1149 79.2422 41.4326 76.362C38.5003 74.875 35.7269 73.0313 33.1826 70.8828C30.5446 68.6563 28.1383 66.0859 26.0315 63.25C25.9716 63.1719 25.9274 63.0859 25.8883 62.9974L24.2138 58.7708C24.1956 58.724 24.1826 58.6745 24.1696 58.6224C24.0966 58.3359 22.4638 51.4818 21.9977 44.2318C21.5159 36.7995 25.6878 27.6198 25.8623 27.237C25.8883 27.1849 25.9144 27.1328 25.9456 27.0885C30.2399 20.5911 35.0966 15.7292 40.3883 12.6458C45.1279 9.88021 50.318 8.47656 55.805 8.47656C59.6878 8.47656 63.8076 9.1849 68.042 10.5755C72.9248 12.1771 77.6123 14.9635 81.594 18.6172C85.4795 22.1797 88.6956 26.5677 90.9091 31.3203C95.0914 40.3099 95.5185 49.9557 92.1019 58.4844C90.6487 62.1068 88.7347 65.3906 86.4144 68.2474C84.1904 70.9792 81.5888 73.3229 78.6774 75.2188C73.1071 78.8464 66.4795 80.7682 59.5263 80.7682ZM27.8909 62.0495C35.6227 72.3828 47.4326 78.5547 59.5185 78.5547C59.5185 78.5547 59.5185 78.5547 59.5263 78.5547C73.4039 78.5547 84.818 70.7474 90.0576 57.6615C93.2425 49.7083 92.8336 40.6875 88.9118 32.2552C84.6097 23.0234 76.5498 15.7031 67.3545 12.6849C63.3388 11.3672 59.456 10.6979 55.805 10.6979C44.9612 10.6979 35.5498 16.6042 27.8388 28.2422C27.4508 29.1198 23.7789 37.5573 24.2008 44.1016C24.6357 50.7682 26.1201 57.2786 26.3024 58.0365L27.8909 62.0495Z" fill="#2B1E59"/>
<path d="M87.9765 57.5703C87.9634 57.6276 87.9426 57.6875 87.9322 57.7448C85.9009 65.638 88.9374 73.026 94.7525 74.2917C100.617 75.5703 107.088 70.1484 109.208 62.1901C110.844 56.0521 109.409 50.1901 105.974 47.25C104.961 46.3802 103.768 45.763 102.432 45.4713C96.5702 44.1927 90.0963 49.612 87.9765 57.5703Z" fill="white"/>
<path d="M87.9322 57.7448C85.9009 65.638 88.9374 73.026 94.7525 74.2916C100.617 75.5703 107.088 70.1484 109.208 62.1901C109.565 60.862 109.773 59.5364 109.851 58.2578C110.174 52.8125 103.417 50.0208 99.7213 54.0312L95.7447 58.3489C95.7447 58.3489 93.3515 61.3151 90.0572 60.401C88.9478 60.0807 88.2994 59.0182 87.9322 57.7448Z" fill="#2B1E59" fill-opacity="0.349"/>
<path d="M96.4974 75.5833C95.8307 75.5833 95.1692 75.5104 94.5208 75.3672C91.9505 74.8099 89.7995 73.2135 88.2942 70.7474C87.237 69.0078 86.5442 66.8776 86.2969 64.5859C86.0442 62.2161 86.2448 59.7578 86.9062 57.2839C87.8802 53.6432 89.7864 50.3255 92.276 47.9375C94.8047 45.5156 97.7942 44.1797 100.687 44.1797C101.354 44.1797 102.016 44.25 102.664 44.3932C105.234 44.9505 107.385 46.5469 108.891 49.0156C109.948 50.7552 110.643 52.8828 110.888 55.1745C111.141 57.5443 110.94 60.0026 110.279 62.4766C109.307 66.1172 107.398 69.4349 104.909 71.8229C102.38 74.2448 99.3906 75.5833 96.4974 75.5833ZM100.693 46.3854C98.3724 46.3854 95.9271 47.5026 93.8125 49.5339C91.6094 51.6432 89.9166 54.6042 89.0469 57.8542C87.8984 62.1589 88.3255 66.5469 90.1875 69.5964C91.3672 71.5313 93.0286 72.7839 94.9922 73.2135C95.487 73.3177 95.9922 73.375 96.4974 73.375C98.8203 73.375 101.266 72.2578 103.378 70.2266C105.583 68.1172 107.276 65.1589 108.146 61.9063C109.294 57.6016 108.865 53.2135 107.005 50.1641C105.823 48.2292 104.164 46.9766 102.198 46.5469C101.711 46.4453 101.2 46.3854 100.693 46.3854Z" fill="#2B1E59"/>
<path d="M108.451 67.9688C104.987 73.2578 99.1644 74.7969 95.4404 71.4011C91.7191 68.0078 91.5055 60.9636 94.9665 55.6667C98.43 50.3776 104.256 48.8386 107.977 52.2344C111.698 55.6276 111.914 62.6771 108.451 67.9688Z" fill="white"/>
<path d="M100.065 73.3229C98.3075 73.3229 96.6799 72.6875 95.3622 71.4922C91.6096 68.0651 91.3804 60.9453 94.87 55.6172C97.0367 52.3047 100.209 50.3255 103.352 50.3255C105.11 50.3255 106.737 50.9609 108.055 52.1614C111.81 55.5911 112.037 62.7109 108.547 68.039C106.38 71.3437 103.211 73.3229 100.065 73.3229ZM103.352 50.5469C100.287 50.5469 97.1851 52.487 95.0575 55.7318C91.633 60.9713 91.8362 67.9609 95.5132 71.3177C96.7841 72.4791 98.3596 73.0885 100.058 73.0885C103.125 73.0885 106.227 71.1484 108.352 67.9036C111.776 62.664 111.576 55.6745 107.899 52.3177C106.628 51.164 105.058 50.5469 103.352 50.5469Z" fill="#2B1E59"/>
<path d="M92.2628 64.1901C92.2941 61.9453 92.9451 59.6979 94.0128 57.7188C94.3696 62.8464 98.1248 65.8984 102.768 64.6328C105.771 63.8151 108.45 61.3802 110.109 58.3099C110.135 58.6354 110.143 58.9661 110.135 59.3099C110.052 65.0286 106.14 71.4349 101.206 72.7786C96.2784 74.1224 92.1847 69.9036 92.2628 64.1901Z" fill="#2B1E59" fill-opacity="0.349"/>
<path d="M99.779 74.6615C99.3076 74.6615 98.8337 74.6146 98.3727 74.5182C96.4587 74.1146 94.8441 72.9271 93.7087 71.0703C91.9274 68.1641 91.5446 63.9245 92.6774 59.7318C93.4951 56.7057 95.0446 53.9401 97.029 51.9349C99.0784 49.8724 101.472 48.7344 103.769 48.7344C104.243 48.7344 104.714 48.7813 105.175 48.8776C107.089 49.2813 108.703 50.4688 109.839 52.3255C111.623 55.2318 112.006 59.4714 110.87 63.6641C110.052 66.6901 108.503 69.4557 106.519 71.4609C104.469 73.5234 102.076 74.6615 99.779 74.6615ZM103.769 50.9427C102.063 50.9427 100.227 51.8437 98.5941 53.487C96.8675 55.2188 95.5264 57.6406 94.805 60.3021C93.8258 63.9167 94.1175 67.5078 95.5915 69.9089C96.4014 71.2344 97.5159 72.0781 98.8206 72.349C99.1305 72.4141 99.4482 72.4479 99.7738 72.4479C101.479 72.4479 103.315 71.5443 104.948 69.9036C106.672 68.1693 108.016 65.7474 108.735 63.0859C109.714 59.4714 109.422 55.8828 107.951 53.4792C107.141 52.1563 106.024 51.3125 104.722 51.0391C104.417 50.974 104.091 50.9427 103.769 50.9427Z" fill="#2B1E59"/>
<path d="M82.5107 47.4297C82.3649 47.8307 82.1878 48.2161 81.9769 48.5859C81.7686 48.9557 81.5316 49.3021 81.266 49.625C80.9977 49.9479 80.7087 50.2422 80.3988 50.5078C80.0863 50.7708 79.7555 51.0026 79.4092 51.1979C79.0654 51.3932 78.7087 51.5521 78.3415 51.6693C77.9743 51.789 77.6045 51.8698 77.2295 51.9062C76.8571 51.9453 76.4873 51.9427 76.1201 51.8984C75.7529 51.8541 75.3988 51.7708 75.055 51.6458C74.7113 51.5208 74.3831 51.3594 74.0732 51.1562C73.7633 50.9557 73.4795 50.7213 73.2165 50.4531C72.9535 50.1849 72.7191 49.8854 72.5133 49.5599C72.3076 49.2318 72.1357 48.8828 71.9951 48.5104C71.8519 48.138 71.7477 47.75 71.6774 47.3489C71.6071 46.9453 71.5732 46.5338 71.5732 46.1146C71.5758 45.6953 71.6149 45.2786 71.6904 44.8594C71.766 44.4401 71.8753 44.0312 72.0212 43.6302C72.167 43.2291 72.3441 42.8437 72.555 42.4739C72.7633 42.1041 73.0003 41.7578 73.266 41.4349C73.5342 41.112 73.8232 40.8177 74.1331 40.5521C74.4456 40.289 74.7764 40.0573 75.1227 39.862C75.4665 39.6666 75.8232 39.5078 76.1904 39.388C76.5576 39.2708 76.9274 39.1901 77.3024 39.1536C77.6748 39.1146 78.0472 39.1172 78.4118 39.1614C78.779 39.2057 79.1331 39.289 79.4769 39.414C79.8232 39.539 80.1488 39.7005 80.4587 39.901C80.7686 40.1041 81.0524 40.3385 81.3154 40.6068C81.5785 40.875 81.8128 41.1745 82.0186 41.5C82.2243 41.8281 82.3962 42.1771 82.5394 42.5495C82.68 42.9219 82.7842 43.3099 82.8545 43.7109C82.9248 44.1146 82.9587 44.526 82.9587 44.9453C82.9561 45.3646 82.917 45.7812 82.8415 46.2005C82.766 46.6172 82.6566 47.0286 82.5107 47.4297Z" fill="white"/>
<path d="M75.9009 59.7656C75.7524 60.0911 75.5545 60.3776 75.3123 60.6276C75.0675 60.8776 74.7941 61.0729 74.4946 61.2109C74.1925 61.3489 73.8852 61.4219 73.5727 61.4271C73.2576 61.4323 72.9634 61.3698 72.6873 61.2422C72.4087 61.1146 72.1717 60.9297 71.9712 60.6875C71.7732 60.4453 71.6274 60.1666 71.5363 59.8463C71.4451 59.526 71.4165 59.1927 71.4477 58.8463C71.479 58.4974 71.5701 58.1614 71.7186 57.8385C71.867 57.5156 72.0649 57.2265 72.3071 56.9765C72.5519 56.7265 72.8253 56.5338 73.1248 56.3958C73.4269 56.2552 73.7342 56.1849 74.0467 56.1797C74.3618 56.1719 74.6561 56.2344 74.9347 56.362C75.2108 56.4896 75.4503 56.6745 75.6483 56.9166C75.8462 57.1588 75.992 57.4401 76.0831 57.7578C76.1743 58.0781 76.2029 58.4114 76.1717 58.7604C76.1404 59.1068 76.0493 59.4427 75.9009 59.7656Z" fill="white"/>
<path d="M28.0547 39.1276C28.0547 39.1276 35.5703 6.66144 68.3594 15.7083C68.3594 15.7083 42.9818 16.2995 28.0547 39.1276Z" fill="white" fill-opacity="0.698"/>
</svg>
