<svg width="125" height="154" viewBox="0 0 125 154" fill="none" xmlns="http://www.w3.org/2000/svg">
<path d="M59.3126 147.56C40.2116 158.183 16.1195 151.297 5.50719 132.175C3.66363 128.861 2.35562 125.394 1.5358 121.88C1.18356 120.347 0.917844 118.809 0.748935 117.266C-0.870108 102.484 5.96654 87.4906 19.2608 79.2677C19.7881 78.9381 20.3216 78.627 20.8716 78.3201C27.6135 74.5733 34.9672 73.0037 42.1375 73.3847C49.9464 73.7967 57.5349 76.5239 63.8443 81.2534C68.1576 84.4935 71.8797 88.675 74.6729 93.701C76.8378 97.5942 78.2735 101.695 79.0274 105.85C81.9854 122.092 74.5246 139.104 59.3126 147.56Z" fill="#FFA726"/>
<path d="M8.00395 134.008C6.16245 130.696 4.85238 127.229 4.03462 123.713C3.68032 122.181 3.41666 120.644 3.24776 119.099C1.62665 104.317 8.4633 89.3238 21.7576 81.1009C22.287 80.7734 22.8205 80.4603 23.3684 80.1554C30.1103 76.4065 37.466 74.8369 44.6364 75.218C51.8005 75.599 58.769 77.9184 64.7467 81.9557C64.4501 81.7189 64.1493 81.4861 63.8486 81.2595C57.5351 76.5239 49.9528 73.8029 42.1439 73.3888C34.9736 73.0098 27.6137 74.5794 20.876 78.3263C20.3322 78.6332 19.7945 78.9442 19.2672 79.2718C5.97088 87.4947 -0.865768 102.488 0.755336 117.272C0.924244 118.815 1.18378 120.353 1.5422 121.886C2.35584 125.404 3.67003 128.867 5.51153 132.181C8.64251 137.825 12.9517 142.402 17.9572 145.778C14.0125 142.639 10.6014 138.692 8.00395 134.008Z" fill="white" fill-opacity="0.4"/>
<path d="M62.9776 80.6148C62.7881 84.9755 60.8353 89.0334 57.3336 89.4722C51.6319 90.1911 50.7503 84.51 50.3548 85.8633C49.3517 89.2827 45.9776 92.2839 41.8806 91.3322C35.6866 89.8944 35.8761 84.0815 29.9314 84.2072C23.6282 84.3452 19.9802 82.1 18.5898 79.6941C19.1192 79.3665 20.3325 78.6209 20.8825 78.3201C27.6244 74.5733 34.9801 73.0037 42.1484 73.3847C49.9531 73.7967 56.6641 75.8792 62.9776 80.6148Z" fill="#371A45" fill-opacity="0.349"/>
<path d="M59.3129 147.56C40.2119 158.183 16.1199 151.297 5.5075 132.175C3.66394 128.861 2.35593 125.394 1.53611 121.88C1.32601 120.982 1.15092 120.078 1.00879 119.173C8.49017 128.418 19.255 133.998 30.6295 135.152L30.4482 134.96C30.1433 133.728 30.1742 132.435 30.6068 131.186C31.8695 127.561 34.811 125.062 40.5167 127.048C43.7754 128.185 45.9074 130.997 46.066 133.957C49.5574 133.042 52.983 131.683 56.2828 129.845C56.4579 129.749 56.6268 129.65 56.7999 129.553C56.2252 127.26 56.8534 124.506 58.6908 122.302C61.3089 119.169 65.4533 118.244 68.2794 120.047C73.0253 114.497 76.2613 107.891 77.7939 100.882C78.315 102.521 78.727 104.176 79.0277 105.84C81.9857 122.086 74.5249 139.098 59.3129 147.56Z" fill="#371A45" fill-opacity="0.349"/>
<path d="M40.3605 153.251C36.6424 153.251 32.9038 152.734 29.229 151.682C18.8762 148.722 10.2969 141.906 5.06904 132.486C-5.7287 113.043 1.29333 88.4299 20.7239 77.6239C40.1545 66.8159 64.7368 73.8441 75.5325 93.2932C86.3302 112.736 79.3082 137.349 59.8796 148.157C53.8072 151.533 47.123 153.251 40.3605 153.251ZM40.239 74.0295C33.8596 74.0295 27.402 75.6032 21.4428 78.9175C2.72493 89.33 -4.03756 113.039 6.36263 131.767C11.399 140.843 19.6672 147.412 29.641 150.26C39.6148 153.113 50.1015 151.904 59.1669 146.862C77.8827 136.451 84.6473 112.742 74.245 94.0121C67.155 81.2431 53.8855 74.0295 40.239 74.0295Z" fill="#371A45"/>
<path d="M60.9129 70.3877C59.9201 69.2774 58.1569 68.2042 55.4008 68.1733C55.8498 64.031 56.2659 59.4787 56.2412 57.6557C56.2082 55.2045 55.374 51.9108 54.8261 49.9993C54.5501 49.0517 54.3564 48.4441 54.3564 48.4441C53.617 49.1692 47.8761 48.8416 47.8761 48.8416C38.9282 48.6398 31.7104 42.0647 29.7247 40.0729L29.529 38.8308C29.1706 39.1686 28.806 39.5229 28.4538 39.8875C28.4373 39.9039 28.4208 39.9204 28.4105 39.9348C27.0222 41.352 25.6812 42.9484 24.4762 44.8497C22.3649 48.1743 20.27 52.8419 19.5985 54.9182C19.5882 54.9553 19.5717 54.9985 19.5614 55.0356C19.5614 55.0397 19.5614 55.0397 19.5573 55.0459C19.4461 55.394 19.3451 55.738 19.2442 56.082C19.2298 56.1438 19.2071 56.2036 19.1927 56.2653C18.6798 58.0574 18.2843 59.8062 18.0145 61.483C18.0042 61.5303 17.998 61.5839 17.9939 61.6313C17.8456 62.5603 17.7405 63.4645 17.6664 64.3461C17.6664 64.3791 17.6602 64.4059 17.6602 64.4368C17.6458 64.6695 17.6293 64.8961 17.6128 65.1289C17.6128 65.1763 17.6087 65.2195 17.6087 65.2669C17.5984 65.4894 17.586 65.7098 17.5819 65.9281C17.5819 65.9652 17.5757 66.0064 17.5757 66.0435C17.5716 66.303 17.5654 66.5564 17.5654 66.8056C17.5654 66.958 17.5654 67.1105 17.5716 67.2588C17.5716 67.3165 17.5757 67.3762 17.5757 67.4277C17.5757 67.4812 17.5757 67.5286 17.5819 67.5822C17.5819 67.6666 17.586 67.7449 17.5922 67.8252C17.5922 67.8561 17.5922 67.887 17.5984 67.9138C17.5984 67.9303 17.5984 67.9468 17.5984 67.9571C17.6087 68.1898 17.6231 68.4164 17.6396 68.6492C17.6396 68.6863 17.6458 68.7172 17.6458 68.7542C17.6458 68.7645 17.6458 68.7707 17.6458 68.781C17.6561 68.919 17.6664 69.0508 17.6767 69.1889C17.6973 69.3578 17.7137 69.5308 17.7343 69.7018C17.7714 70.0066 17.8147 70.3094 17.862 70.604C17.8723 70.6514 17.8765 70.6987 17.8888 70.7523C17.9094 70.8841 17.9362 71.0159 17.9568 71.1498C18.0042 71.3805 18.0516 71.6092 18.1051 71.8358C18.1257 71.9202 18.1422 72.0047 18.1628 72.0891C18.1834 72.1633 18.1999 72.2374 18.2205 72.3116C18.2678 72.4805 18.3152 72.6494 18.3626 72.808C18.3688 72.8183 18.3688 72.8348 18.3729 72.8451C18.3853 72.8884 18.3997 72.9295 18.41 72.9728C18.4264 73.0202 18.4367 73.0676 18.4532 73.1088C18.48 73.1994 18.5109 73.2838 18.5377 73.3683C18.5645 73.4425 18.5892 73.5228 18.616 73.5949C18.7231 73.8915 18.8384 74.1778 18.9599 74.458C19.0176 74.5898 19.0753 74.7278 19.1392 74.8596C19.1762 74.9379 19.2133 75.0121 19.2545 75.0924C19.3287 75.251 19.4131 75.3972 19.4976 75.5517C19.582 75.7 19.6665 75.8463 19.7509 75.9905V75.9946C20.0887 76.5446 20.4636 77.0472 20.8756 77.5127C20.9086 77.5498 20.9395 77.5807 20.9704 77.6178C20.9765 77.6239 20.9827 77.6342 20.993 77.6384C21.0136 77.661 21.0301 77.6816 21.0507 77.696C21.0775 77.7228 21.1043 77.7496 21.129 77.7764C21.1763 77.8299 21.2299 77.8814 21.2835 77.935C21.5842 78.2316 21.8952 78.5056 22.2331 78.7651C22.2866 78.8063 22.3443 78.8496 22.3978 78.8908C22.5976 79.0391 22.8036 79.1709 23.0137 79.3027C23.1208 79.3666 23.2259 79.4366 23.3371 79.4943C23.4113 79.5355 23.4896 79.5787 23.5699 79.6199C23.6544 79.6632 23.7429 79.7106 23.8336 79.758C23.9221 79.8012 24.0128 79.8424 24.1075 79.8857C24.1858 79.9227 24.2661 79.9536 24.3506 79.9907C24.398 80.0072 24.4392 80.0278 24.4886 80.0443C24.5236 80.0587 24.5566 80.0711 24.5936 80.0855C24.6142 80.0958 24.6348 80.102 24.6575 80.1122C24.6946 80.1287 24.7358 80.1431 24.7729 80.1596C24.847 80.1864 24.9253 80.2132 24.9994 80.24C25.0839 80.2709 25.1683 80.2976 25.2528 80.3244C25.2796 80.3347 25.3105 80.3388 25.3372 80.3491C25.3908 80.3656 25.4382 80.3821 25.4917 80.3986C25.6483 80.4459 25.8131 80.4871 25.9758 80.5304C26.0603 80.551 26.1447 80.5716 26.2353 80.5943C26.2765 80.6046 26.326 80.6087 26.3672 80.619C26.3981 80.6252 26.4352 80.6355 26.4681 80.6416C26.5258 80.6519 26.5835 80.6622 26.6411 80.6725C26.6576 80.6787 26.6741 80.6787 26.6885 80.6828C26.705 80.689 26.7215 80.689 26.7421 80.6931C26.7997 80.7034 26.8574 80.7158 26.9172 80.7261C27.0428 80.7467 27.1746 80.7632 27.3023 80.7776C27.3868 80.7879 27.4713 80.8044 27.5598 80.8147C27.6505 80.825 27.7452 80.8373 27.8358 80.8414C27.9512 80.8517 28.0666 80.862 28.184 80.8682C28.2107 80.8682 28.2313 80.8723 28.2581 80.8723C28.3199 80.8785 28.3838 80.8847 28.4476 80.8847C28.4888 80.8888 28.5383 80.8888 28.5795 80.8888C28.6001 80.8888 28.6227 80.895 28.6433 80.895C28.7072 80.895 28.769 80.8991 28.8328 80.8991C28.8534 80.8991 28.8761 80.8991 28.8967 80.8991C29.0182 80.8991 29.1397 80.9053 29.2613 80.9053C29.8792 80.9053 30.5281 80.8682 31.1975 80.7941C31.8526 80.7261 32.5385 80.6149 33.2409 80.4707C33.3048 80.4604 33.3686 80.4459 33.4366 80.4356C33.5416 80.413 33.6488 80.3924 33.7476 80.3759C36.9898 79.8424 37.1587 82.2689 39.0023 86.2321C39.6038 87.5277 40.8397 88.3352 42.2486 88.6318C44.0325 89.0129 46.1026 88.5782 47.5507 87.2847C48.4158 86.5122 49.0606 85.4349 49.2871 84.0383C49.3881 83.4101 49.4499 82.7962 49.4725 82.1948C49.4828 81.9929 49.4828 81.7931 49.4828 81.5974C49.4828 81.5706 49.4828 81.55 49.4828 81.5232C49.4828 81.4223 49.4828 81.3276 49.4766 81.2266C49.4766 81.1648 49.4725 81.101 49.4725 81.0309V81.0103C49.4664 80.8888 49.4602 80.7632 49.4499 80.6416C49.4458 80.5881 49.4396 80.5407 49.4355 80.4871C49.419 80.2873 49.4025 80.0855 49.3819 79.8857C49.3716 79.8053 49.3613 79.7312 49.351 79.6529C49.3448 79.6158 49.3386 79.5787 49.3345 79.5417C49.3242 79.4675 49.3139 79.3934 49.3036 79.3192C49.2974 79.278 49.2871 79.2348 49.281 79.1936C49.2768 79.1606 49.2707 79.1297 49.2665 79.1029C49.2604 79.072 49.2542 79.0391 49.2501 79.002C49.2398 78.9505 49.2336 78.8969 49.2233 78.8434C49.2192 78.8166 49.213 78.7857 49.2068 78.7589C49.2068 78.7548 49.2068 78.7486 49.2027 78.7424C49.1862 78.6642 49.1697 78.59 49.1553 78.5159C49.145 78.4644 49.1347 78.4149 49.1224 78.3676C49.1079 78.2934 49.0915 78.2151 49.0709 78.141C49.0709 78.1348 49.0709 78.1348 49.0709 78.1307C49.0338 77.9721 48.9905 77.8135 48.9493 77.661C48.939 77.6116 48.9225 77.5642 48.9061 77.5168C48.902 77.4901 48.8917 77.4592 48.8855 77.4324C48.8216 77.2223 48.7598 77.0101 48.6898 76.8082C48.6754 76.7568 48.6527 76.7094 48.6383 76.6558C48.6156 76.592 48.595 76.5281 48.5744 76.4704C48.5538 76.4066 48.5271 76.3448 48.5003 76.2809C48.5003 76.2747 48.4941 76.2706 48.4941 76.2706C48.4632 76.1862 48.4323 76.112 48.3993 76.0317C48.3787 75.9843 48.3623 75.9431 48.3417 75.8957C48.3252 75.8628 48.3149 75.8319 48.3005 75.7948C48.2943 75.7783 48.284 75.7618 48.2778 75.7474C48.2737 75.7309 48.2634 75.7103 48.2572 75.7C48.2304 75.6403 48.2098 75.5888 48.1831 75.5353C48.1666 75.5044 48.1522 75.4673 48.1357 75.4343C48.1789 75.4405 48.2263 75.4446 48.2675 75.457C49.2542 75.6032 50.1729 75.7412 50.9762 75.8525L51.0339 76.2603C51.0339 76.2603 51.003 76.6723 50.9391 82.3204C50.8876 86.9716 57.8293 89.0705 60.6658 83.5852C63.6155 77.9144 62.4434 72.1056 60.9129 70.3877Z" fill="white"/>
<path d="M43.5316 88.8851C43.0928 88.8851 42.6541 88.8439 42.2277 88.7471C40.6705 88.4155 39.4922 87.5421 38.9072 86.2856C38.5468 85.5131 38.246 84.7901 37.9824 84.1495C36.8948 81.5191 36.2933 80.071 33.7638 80.4871C33.6628 80.5036 33.564 80.5242 33.4569 80.5448L33.2632 80.5818C32.5546 80.726 31.8625 80.8311 31.2075 80.9052C30.4 80.9897 29.6132 81.0206 28.8902 81.0103L28.4308 80.9959C28.3731 80.9959 28.3155 80.9897 28.2578 80.9835L28.1672 80.9794C28.0827 80.9732 28.0044 80.9691 27.92 80.9588L27.8129 80.9464C27.7511 80.9423 27.6872 80.9361 27.6234 80.9258L27.5348 80.9155C27.4812 80.9094 27.4277 80.8991 27.3762 80.8949L27.1743 80.8682C27.0754 80.8517 26.9745 80.8414 26.8798 80.8249C26.82 80.8146 26.7623 80.8043 26.7047 80.794L26.6511 80.7837L26.6264 80.6725L26.6099 80.7775C26.5522 80.7672 26.4884 80.7569 26.4307 80.7466L26.1918 80.6993C26.1197 80.6828 26.0496 80.6622 25.9755 80.6457L25.9343 80.6354C25.7695 80.5942 25.6068 80.5509 25.442 80.5036C25.4008 80.4933 25.3575 80.4768 25.3225 80.4665L25.2051 80.4294C25.1206 80.4026 25.0362 80.3759 24.9517 80.345L24.8982 80.3244C24.8405 80.3017 24.7828 80.2811 24.7251 80.2605C24.6943 80.2502 24.6613 80.2337 24.6242 80.2234L24.2967 80.0916C24.2081 80.0545 24.1278 80.0174 24.0495 79.9804C23.9548 79.9371 23.86 79.8959 23.7756 79.8485C23.6849 79.8012 23.5902 79.7579 23.5057 79.7105C23.4254 79.6693 23.3471 79.6261 23.2668 79.5828C23.1782 79.5313 23.0876 79.4778 22.999 79.4242L22.9454 79.3933C22.6983 79.2409 22.4964 79.109 22.3234 78.9752C22.2636 78.934 22.2121 78.8907 22.1545 78.8495C21.8208 78.5961 21.4994 78.316 21.1925 78.0132C21.1389 77.9617 21.0875 77.9082 21.0339 77.8546L20.7805 77.5868C20.3644 77.1151 19.9792 76.6022 19.6414 76.0543C19.5508 75.906 19.4663 75.7577 19.3819 75.6094C19.2974 75.4569 19.2171 75.3024 19.1388 75.1438C19.1018 75.0697 19.0606 74.9914 19.0235 74.9111C18.9699 74.806 18.9225 74.6948 18.8793 74.5897L18.8484 74.5094C18.7104 74.1922 18.595 73.912 18.5003 73.6443C18.4735 73.5639 18.4467 73.4898 18.4199 73.4156C18.389 73.3312 18.3623 73.2426 18.3355 73.152L18.251 72.8883L18.3417 72.8183L18.2407 72.8512C18.1934 72.6864 18.146 72.5175 18.0986 72.3486C18.0883 72.3012 18.078 72.2539 18.0615 72.2106L17.9833 71.8728C17.9297 71.6462 17.8761 71.4176 17.8349 71.1869C17.8143 71.0653 17.7917 70.9417 17.7711 70.8161L17.7402 70.6369C17.6928 70.367 17.6557 70.0807 17.6125 69.7264L17.5445 69.0446C17.5383 68.9663 17.528 68.8819 17.5239 68.8016L17.5136 68.6759C17.4971 68.4473 17.4807 68.2166 17.4704 67.9838C17.4704 67.9776 17.4704 67.9508 17.4704 67.9364L17.4662 67.852C17.4601 67.751 17.4601 67.6769 17.4539 67.6027L17.4436 67.2752C17.4436 67.1207 17.4395 66.9683 17.4395 66.82C17.4395 66.5666 17.4436 66.3133 17.4498 66.0537L17.4539 65.9384C17.4601 65.7159 17.4704 65.4934 17.4807 65.271L17.4868 65.135C17.4971 64.9064 17.5136 64.6757 17.5342 64.4429L17.5383 64.3523C17.6125 63.4707 17.7237 62.5499 17.8658 61.625L17.8885 61.4767C18.1625 59.7918 18.558 58.0368 19.0709 56.2509L19.1224 56.0655C19.2233 55.7215 19.3242 55.3734 19.4354 55.0253L19.4766 54.8976C20.1358 52.8583 22.2018 48.2113 24.3667 44.8022C25.4585 43.0864 26.7479 41.4673 28.3155 39.873L28.3628 39.8236C28.6945 39.4857 29.0488 39.1376 29.4443 38.7669L29.5926 38.6309L29.815 40.0357C31.8419 42.0647 39.0123 48.5511 47.8717 48.7448C49.4598 48.8354 53.6949 48.9405 54.2717 48.3761L54.3911 48.2587L54.4447 48.4173C54.4447 48.4234 54.6507 49.0373 54.9205 49.9766C55.4375 51.7748 56.3027 55.1612 56.3397 57.6619C56.3624 59.2109 56.0555 63.0937 55.5117 68.0724C58.585 68.1424 60.2576 69.506 60.9868 70.3197C62.5028 72.0211 63.7264 77.9246 60.7705 83.6366C59.1659 86.7387 56.3768 87.2846 54.4756 86.8088C52.2798 86.2588 50.8235 84.4564 50.8441 82.3224C50.9079 76.7299 50.9388 76.2706 50.9388 76.2541L50.8914 75.9534C50.1211 75.8421 49.2497 75.7144 48.3146 75.5723L48.4526 75.8833C48.4691 75.9204 48.4835 75.9575 48.5 76.0007C48.5309 76.079 48.5638 76.1593 48.5947 76.2438C48.6215 76.3179 48.6483 76.3818 48.675 76.4436C48.6895 76.4807 48.6998 76.5239 48.7162 76.5651L48.7595 76.6867C48.7698 76.7196 48.7842 76.7567 48.7945 76.7876C48.8645 76.9895 48.9284 77.1996 48.9902 77.4179L49.0541 77.6445C49.0973 77.7969 49.1385 77.9555 49.1756 78.1141C49.1962 78.1986 49.2127 78.2727 49.2291 78.3531C49.2394 78.4005 49.2497 78.452 49.26 78.5055C49.2765 78.5797 49.2909 78.6538 49.3074 78.7321C49.3136 78.7754 49.3177 78.8021 49.3239 78.8289C49.3342 78.8763 49.3383 78.9175 49.3507 78.9607L49.3713 79.0926C49.3754 79.1132 49.3754 79.1338 49.3816 79.1564L49.4825 79.8856C49.5031 80.0854 49.5196 80.2873 49.534 80.4933L49.5402 80.5612C49.5443 80.588 49.5443 80.6189 49.5443 80.6457L49.567 81.1112C49.567 81.1524 49.5711 81.2019 49.5711 81.2431C49.5773 81.3378 49.5773 81.4387 49.5773 81.5397V81.6138C49.5773 81.8136 49.5711 82.0155 49.567 82.2153C49.5402 82.8333 49.4763 83.4636 49.3816 84.0753C49.1653 85.3978 48.5535 86.5451 47.608 87.3835C46.5307 88.3516 45.0415 88.8851 43.5316 88.8851ZM34.5671 80.2069C36.5837 80.2069 37.212 81.7292 38.1822 84.0753C38.4479 84.7098 38.7424 85.4287 39.1009 86.2011C39.657 87.3958 40.7858 88.2239 42.2751 88.5411C44.1331 88.9387 46.1291 88.4299 47.4865 87.2207C48.3887 86.4112 48.9799 85.3133 49.1921 84.0383C49.2909 83.4368 49.3507 82.8188 49.3754 82.205C49.3816 82.0052 49.3878 81.8095 49.3878 81.6138V81.5438C49.3878 81.4449 49.3878 81.3481 49.3816 81.2534C49.3816 81.2122 49.3816 81.1689 49.3754 81.1277L49.3383 80.52C49.3239 80.3182 49.3074 80.1184 49.2868 79.9227L49.1859 79.1976C49.1818 79.177 49.1818 79.1605 49.1756 79.1399L49.155 79.0081C49.1488 78.9649 49.1385 78.9278 49.1344 78.8866C49.1282 78.8536 49.122 78.8227 49.1179 78.796C49.1014 78.7074 49.085 78.6332 49.0705 78.5591C49.0602 78.5055 49.0499 78.4581 49.0376 78.4108C49.0232 78.3304 49.0005 78.2563 48.9861 78.1842C48.949 78.0132 48.9057 77.8608 48.8645 77.7083L48.8007 77.4797C48.7368 77.2696 48.675 77.0636 48.605 76.8617C48.5947 76.8309 48.5844 76.7979 48.5741 76.767L48.5309 76.6455C48.5164 76.6022 48.5061 76.5651 48.4897 76.5239C48.4691 76.4601 48.4423 76.3962 48.4155 76.3385C48.3784 76.2438 48.3475 76.1635 48.3146 76.0914C48.3001 76.0543 48.2837 76.0172 48.2672 75.9801L48.0406 75.4508V75.323L48.1621 75.3457C48.2033 75.3498 48.2466 75.356 48.294 75.3601C49.2806 75.5084 50.1993 75.6464 51.0068 75.7577L51.0871 75.768L51.1551 76.2479C51.1551 76.2912 51.1242 76.7876 51.0603 82.3265C51.0398 84.3617 52.4343 86.0796 54.5291 86.6028C56.3562 87.056 59.0382 86.5286 60.5851 83.5377C63.4936 77.9082 62.3113 72.1159 60.8282 70.4556C60.1155 69.6584 58.4635 68.3154 55.3943 68.2783H55.2789L55.2892 68.163C55.8392 63.137 56.1502 59.2109 56.1296 57.6619C56.0967 55.1818 55.2315 51.816 54.7186 50.0301C54.525 49.3524 54.3664 48.8457 54.2923 48.6191C53.2047 49.2309 48.432 48.9837 47.8655 48.9508C38.8949 48.751 31.6524 42.1656 29.6461 40.1573L29.6194 40.1305L29.4504 39.0532C29.1168 39.3704 28.8119 39.6711 28.5215 39.9677L28.4782 40.0151C26.9271 41.6012 25.6438 43.2017 24.5562 44.9093C22.4016 48.3019 20.3418 52.9263 19.6888 54.9552L19.6517 55.0665C19.5405 55.4269 19.4354 55.7689 19.3386 56.1129L19.2871 56.2983C18.7804 58.0738 18.3849 59.8288 18.1089 61.5035L18.0883 61.6518C17.94 62.5705 17.8349 63.4851 17.7608 64.3626L17.7546 64.4532C17.7402 64.686 17.7237 64.9126 17.7072 65.1391L17.7031 65.2771C17.6928 65.4996 17.6825 65.7221 17.6763 65.9384L17.6702 66.0537C17.666 66.3071 17.6599 66.5604 17.6599 66.8159C17.6599 66.9683 17.6599 67.1166 17.666 67.269L17.6763 67.5924C17.6763 67.6666 17.6825 67.7407 17.6825 67.8087L17.6866 67.9241C17.6866 67.9405 17.6866 67.9508 17.6866 67.9611C17.6969 68.2042 17.7134 68.4328 17.7299 68.6594L17.734 68.7645C17.7402 68.8716 17.7505 68.9499 17.7546 69.0302L17.8246 69.7058C17.8658 70.0498 17.9091 70.3341 17.9503 70.6039L17.9833 70.779C18.0039 70.9005 18.0245 71.0221 18.045 71.1436C18.0883 71.3764 18.1419 71.5988 18.1934 71.8254L18.2737 72.1591C18.284 72.2065 18.2984 72.2539 18.3108 72.3012C18.3581 72.464 18.4055 72.6288 18.4529 72.7915L18.5477 73.0943C18.5744 73.1787 18.6012 73.2673 18.6321 73.3518C18.6589 73.4259 18.6857 73.5001 18.7104 73.5804C18.8072 73.8441 18.9164 74.1242 19.0544 74.4352L19.0853 74.5156C19.1327 74.6206 19.1821 74.7319 19.2295 74.8328C19.2665 74.9111 19.3036 74.9852 19.3386 75.0594C19.419 75.218 19.4931 75.3663 19.5776 75.5146C19.662 75.6629 19.7465 75.805 19.8309 75.9472C20.1626 76.493 20.5375 76.9936 20.9494 77.4529L21.0442 77.56L20.9865 77.6486L21.0772 77.5868L21.1987 77.7125C21.2502 77.766 21.2976 77.8196 21.3511 77.867C21.6477 78.1615 21.9629 78.4375 22.2904 78.6847C22.344 78.728 22.4016 78.7692 22.4552 78.8062C22.6282 78.934 22.8239 79.0658 23.067 79.2141L23.1205 79.245C23.205 79.2986 23.2936 79.3521 23.3842 79.4036C23.4583 79.4469 23.5366 79.4881 23.6108 79.5313C23.6952 79.5725 23.7859 79.6199 23.8744 79.6693C23.9589 79.7105 24.0536 79.7538 24.1443 79.795C24.2225 79.8321 24.3029 79.863 24.3873 79.9L24.6943 80.0216C24.7457 80.0442 24.7787 80.0545 24.8034 80.0648C24.8632 80.0854 24.9208 80.106 24.9723 80.1287L25.0259 80.1493C25.1103 80.1802 25.1886 80.2069 25.2731 80.2337L25.3905 80.2708C25.4276 80.2811 25.4688 80.2976 25.5058 80.3079C25.6644 80.3553 25.8292 80.3985 25.9878 80.4397L26.029 80.45C26.097 80.4665 26.167 80.4871 26.2412 80.5036L26.4719 80.5509C26.5316 80.5612 26.5893 80.5715 26.647 80.5818L26.7479 80.5983C26.8056 80.6086 26.8571 80.6189 26.9168 80.6292C27.0116 80.6457 27.1105 80.6622 27.2073 80.6725L27.4071 80.6993C27.4545 80.7034 27.508 80.7157 27.5554 80.7199L27.644 80.7302C27.7078 80.7363 27.7655 80.7466 27.8293 80.7466L27.9344 80.7569C28.0147 80.7631 28.093 80.7734 28.1775 80.7775L28.2516 80.7837C28.3196 80.7878 28.3793 80.794 28.437 80.794L28.8902 80.8105C29.5988 80.8208 30.3794 80.794 31.1828 80.7034C31.8316 80.6354 32.5176 80.5303 33.22 80.3862L33.4157 80.3491C33.5269 80.3285 33.6319 80.3079 33.7329 80.2914C34.0336 80.2337 34.3076 80.2069 34.5671 80.2069Z" fill="#371A45"/>
<path d="M45.9513 131.429C46.3468 132.212 46.6063 133.083 46.6702 133.984C46.7052 134.433 46.6908 134.886 46.6331 135.341C46.5734 135.784 46.4951 136.212 46.3797 136.647C46.147 137.508 45.7865 138.359 45.2592 139.131C44.7257 139.897 44.0088 140.567 43.1787 141.043C42.3507 141.518 41.432 141.799 40.5236 141.92C39.6111 142.052 38.7027 142.038 37.821 141.953C37.3761 141.9 36.9497 141.836 36.5048 141.747C36.0578 141.656 35.6129 141.535 35.1803 141.383C34.7477 141.228 34.3193 141.049 33.9135 140.833C33.5057 140.62 33.1102 140.377 32.7414 140.097C32.002 139.543 31.3366 138.882 30.7928 138.116C30.249 137.353 29.8268 136.503 29.5899 135.59C29.0873 133.771 29.3242 131.747 30.2593 130.13C31.1739 128.492 32.7085 127.308 34.3831 126.706C36.0681 126.103 37.8993 126.039 39.5575 126.498C39.7099 126.541 39.7944 126.7 39.7573 126.848C39.7202 126.986 39.5884 127.071 39.4524 127.054C37.8458 126.885 36.2308 127.128 34.8363 127.8C33.4439 128.455 32.2862 129.542 31.6435 130.865C31.005 132.181 30.8773 133.718 31.316 135.098C31.7383 136.478 32.657 137.714 33.8558 138.575C34.4573 138.997 35.1062 139.362 35.8086 139.611C36.1567 139.739 36.5151 139.844 36.8797 139.918C37.2505 139.996 37.646 140.056 38.027 140.107C38.7912 140.202 39.5616 140.239 40.297 140.155C41.0365 140.081 41.7368 139.881 42.3774 139.57C43.6484 138.935 44.5835 137.708 45.1006 136.249C45.2283 135.885 45.3498 135.51 45.4384 135.129C45.529 134.76 45.5805 134.385 45.597 134.004C45.6402 133.238 45.5331 132.455 45.3024 131.699V131.695C45.2427 131.51 45.3498 131.308 45.5331 131.256C45.6979 131.203 45.8709 131.281 45.9513 131.429Z" fill="#371A45"/>
<path d="M24.7809 107.774C25.1682 108.161 25.5122 108.581 25.817 109.037C26.1198 109.492 26.3773 109.972 26.5853 110.477C26.7954 110.983 26.952 111.502 27.0591 112.04C27.1662 112.576 27.2198 113.117 27.2198 113.665C27.2198 114.211 27.1662 114.753 27.0591 115.29C26.952 115.826 26.7954 116.347 26.5853 116.852C26.3773 117.356 26.1198 117.836 25.817 118.292C25.5142 118.747 25.1682 119.167 24.783 119.554C24.3957 119.942 23.9755 120.286 23.5203 120.59C23.0671 120.893 22.5872 121.151 22.0825 121.361C21.5778 121.569 21.0567 121.727 20.5211 121.835C19.9856 121.94 19.4438 121.993 18.898 121.993C18.3521 121.993 17.8104 121.94 17.2748 121.835C16.7392 121.727 16.2181 121.569 15.7134 121.361C15.2088 121.151 14.7288 120.893 14.2757 120.59C13.8204 120.286 13.4002 119.942 13.015 119.554C12.6278 119.167 12.2838 118.747 11.9789 118.292C11.6761 117.838 11.4187 117.358 11.2106 116.852C11.0005 116.347 10.844 115.826 10.7368 115.29C10.6297 114.753 10.5762 114.211 10.5762 113.665C10.5762 113.117 10.6297 112.576 10.7368 112.04C10.844 111.504 11.0005 110.983 11.2106 110.477C11.4187 109.972 11.6761 109.492 11.9789 109.037C12.2838 108.584 12.6278 108.161 13.015 107.776C13.4002 107.389 13.8204 107.043 14.2757 106.74C14.7288 106.435 15.2088 106.18 15.7134 105.97C16.2181 105.759 16.7392 105.603 17.2748 105.496C17.8104 105.389 18.3521 105.335 18.898 105.335C19.4438 105.335 19.9856 105.389 20.5211 105.496C21.0567 105.603 21.5778 105.759 22.0825 105.97C22.5872 106.18 23.0671 106.435 23.5203 106.74C23.9755 107.043 24.3957 107.389 24.7809 107.774Z" fill="#B97631"/>
<path d="M30.4605 110.359C32.2979 115.669 29.4821 121.472 24.1759 123.311C18.8656 125.151 13.0733 122.335 11.2359 117.023C11.1988 116.918 11.1679 116.81 11.1309 116.705C12.8776 120.596 17.3331 122.572 21.4363 121.151C25.7826 119.645 28.0793 114.903 26.5797 110.555C25.074 106.204 20.3384 103.906 15.9921 105.407C14.8098 105.819 13.7757 106.468 12.9312 107.288C14.0867 105.85 15.644 104.715 17.5185 104.064C22.8246 102.225 28.6169 105.043 30.4605 110.359Z" fill="white" fill-opacity="0.4"/>
<path d="M12.5667 107.187C13.8768 105.691 15.7616 104.678 17.7781 104.365C19.7989 104.033 21.9432 104.435 23.76 105.448C24.6684 105.961 25.4799 106.633 26.1782 107.42L26.4316 107.72C26.5202 107.821 26.6005 107.922 26.6746 108.034C26.8209 108.25 26.9795 108.462 27.1237 108.682L27.5089 109.37C27.6345 109.603 27.7293 109.846 27.8364 110.089C28.2216 111.068 28.4688 112.098 28.5265 113.154C28.58 114.207 28.4688 115.268 28.1783 116.283C27.8982 117.299 27.4286 118.259 26.8271 119.122C26.2256 119.983 25.4861 120.749 24.6416 121.367C23.7909 121.981 22.8351 122.44 21.8422 122.751C20.8514 123.075 19.7989 123.19 18.771 123.149C17.7349 123.105 16.7111 122.91 15.7554 122.531C14.8058 122.144 13.918 121.616 13.1476 120.955C11.5904 119.649 10.5604 117.789 10.1958 115.861C10.1649 115.706 10.27 115.558 10.4224 115.527C10.5645 115.501 10.6984 115.581 10.7458 115.713V115.717C11.3473 117.455 12.4184 119.004 13.8809 120.02C14.5998 120.533 15.3908 120.939 16.225 121.208C17.0593 121.468 17.9306 121.594 18.7916 121.579C19.2242 121.583 19.6526 121.521 20.079 121.462L20.7073 121.32C20.9194 121.278 21.1192 121.192 21.3252 121.13C22.1327 120.85 22.8989 120.448 23.5746 119.925C24.8991 118.868 25.9393 117.414 26.3677 115.764C26.584 114.946 26.6891 114.1 26.652 113.255C26.617 112.409 26.4151 111.568 26.1144 110.775C25.5335 109.175 24.3553 107.828 22.9195 106.892C22.1924 106.431 21.3829 106.103 20.5445 105.893C19.7041 105.681 18.8225 105.591 17.9512 105.675C16.1941 105.786 14.468 106.511 13.0734 107.683C12.9251 107.811 12.7047 107.79 12.577 107.642C12.4452 107.514 12.4493 107.319 12.5667 107.187Z" fill="#371A45"/>
<path d="M50.8753 102.806C50.8753 103.121 50.8444 103.434 50.7846 103.743C50.7228 104.052 50.6322 104.353 50.5107 104.645C50.3892 104.936 50.2429 105.214 50.0678 105.475C49.8927 105.737 49.6929 105.98 49.4705 106.202C49.248 106.427 49.0049 106.625 48.7433 106.8C48.4817 106.977 48.2036 107.123 47.9132 107.245C47.6228 107.366 47.322 107.457 47.0131 107.519C46.7041 107.58 46.391 107.611 46.0758 107.611C45.7607 107.611 45.4496 107.58 45.1406 107.519C44.8317 107.457 44.5309 107.366 44.2405 107.245C43.948 107.123 43.672 106.977 43.4104 106.8C43.1488 106.625 42.9057 106.427 42.6832 106.202C42.4608 105.98 42.261 105.737 42.0859 105.475C41.9108 105.214 41.7625 104.936 41.643 104.645C41.5215 104.353 41.4309 104.052 41.3691 103.743C41.3073 103.434 41.2764 103.121 41.2764 102.806C41.2764 102.491 41.3073 102.177 41.3691 101.868C41.4309 101.56 41.5215 101.259 41.643 100.968C41.7625 100.676 41.9108 100.4 42.0859 100.138C42.261 99.8745 42.4608 99.6315 42.6832 99.409C42.9057 99.1866 43.1488 98.9867 43.4104 98.8117C43.672 98.6366 43.948 98.4883 44.2405 98.3688C44.5309 98.2473 44.8317 98.1566 45.1406 98.0948C45.4496 98.033 45.7607 98.0021 46.0758 98.0021C46.391 98.0021 46.7041 98.033 47.0131 98.0948C47.322 98.1566 47.6228 98.2473 47.9132 98.3688C48.2036 98.4883 48.4817 98.6366 48.7433 98.8117C49.0049 98.9867 49.248 99.1866 49.4705 99.409C49.6929 99.6315 49.8927 99.8745 50.0678 100.138C50.2429 100.4 50.3892 100.676 50.5107 100.968C50.6322 101.259 50.7228 101.56 50.7846 101.868C50.8444 102.177 50.8753 102.491 50.8753 102.806Z" fill="#371A45" fill-opacity="0.349"/>
<path d="M52.7239 100.83C53.8177 103.885 52.2337 107.245 49.183 108.34C46.1303 109.434 42.7728 107.848 41.679 104.793C41.6584 104.73 41.6378 104.672 41.6172 104.614C42.6512 106.843 45.2322 107.959 47.5887 107.113C50.0852 106.221 51.3788 103.467 50.4869 100.966C49.595 98.4676 46.843 97.1719 44.3465 98.0659C43.6647 98.309 43.0735 98.6942 42.5936 99.17C43.2527 98.3358 44.1446 97.6684 45.2178 97.2832C48.2684 96.1832 51.6322 97.7755 52.7239 100.83Z" fill="white" fill-opacity="0.4"/>
<path d="M42.3068 99.0319C43.0422 98.1132 44.1442 97.4685 45.3492 97.246C46.5521 97.0133 47.856 97.2193 48.9642 97.8125C49.5204 98.1071 50.0209 98.5087 50.4494 98.9742C50.8758 99.4398 51.2362 99.9836 51.4793 100.571C51.7203 101.162 51.8851 101.786 51.9263 102.427C51.9634 103.065 51.9057 103.71 51.7327 104.328C51.5638 104.946 51.2877 105.533 50.9231 106.056C50.5647 106.579 50.1219 107.051 49.609 107.426C48.5749 108.165 47.3122 108.577 46.0619 108.513C45.4378 108.487 44.8198 108.371 44.2451 108.139C43.6745 107.906 43.1472 107.584 42.6879 107.187C41.763 106.4 41.1677 105.286 40.9823 104.142C40.9617 104.006 41.0565 103.875 41.1924 103.852C41.3098 103.831 41.4252 103.899 41.4684 104.006L41.4726 104.017C41.8701 104.989 42.5025 105.823 43.3367 106.357C43.7487 106.627 44.1916 106.839 44.6571 106.971C45.1205 107.092 45.5964 107.15 46.0722 107.129C46.5418 107.113 47.0074 107.014 47.4441 106.843C47.8828 106.68 48.2886 106.454 48.6491 106.163C49.3515 105.576 49.9056 104.783 50.1157 103.889C50.2269 103.446 50.2805 102.991 50.2537 102.536C50.2269 102.083 50.1219 101.627 49.9571 101.205C49.646 100.338 49.0075 99.619 48.2309 99.102C47.8354 98.8486 47.3967 98.6673 46.9373 98.5458C46.478 98.4243 45.998 98.3666 45.5119 98.4098C44.5356 98.451 43.5736 98.8362 42.762 99.4707H42.7558C42.6199 99.5778 42.4242 99.5551 42.313 99.4192C42.212 99.3079 42.2182 99.1432 42.3068 99.0319Z" fill="#371A45"/>
<path d="M66.3245 119.011C67.1588 119.089 67.993 119.338 68.749 119.767C69.5029 120.189 70.1641 120.796 70.6811 121.515C71.1878 122.238 71.5462 123.068 71.7378 123.932C71.9273 124.797 71.9479 125.691 71.8326 126.558C71.7213 127.429 71.4721 128.276 71.1198 129.073C70.7553 129.866 70.2794 130.605 69.7356 131.281C69.1712 131.938 68.5368 132.546 67.8344 133.059C67.1176 133.555 66.3472 133.977 65.5232 134.284C64.6931 134.579 63.8177 134.764 62.9299 134.801C62.0441 134.838 61.1296 134.744 60.2686 134.447C58.5383 133.887 57.0531 132.556 56.3507 130.896C55.638 129.238 55.6607 127.388 56.1612 125.769C56.4249 124.961 56.7895 124.199 57.2488 123.503C57.7246 122.815 58.2787 122.197 58.8967 121.664C59.012 121.563 59.1912 121.573 59.2984 121.69C59.3869 121.795 59.3869 121.948 59.3025 122.055L59.2984 122.065C58.8122 122.667 58.3838 123.297 58.0419 123.967C57.7143 124.648 57.461 125.347 57.3127 126.072C57.0057 127.51 57.1602 129.005 57.772 130.231C58.4003 131.456 59.5188 132.344 60.8082 132.729C62.1059 133.116 63.554 132.978 64.8682 132.503C67.4966 131.524 69.6574 129.089 70.1785 126.305C70.2053 126.129 70.2485 125.954 70.2629 125.781L70.3062 125.252L70.2959 124.729C70.2959 124.554 70.2527 124.385 70.2424 124.206C70.1476 123.513 69.9313 122.842 69.577 122.234C68.9014 120.998 67.6552 120.094 66.2092 119.696H66.203C66.0135 119.645 65.9022 119.453 65.9558 119.264C65.997 119.105 66.1556 118.994 66.3245 119.011Z" fill="#371A45"/>
<path d="M70.2526 101.866C69.509 102.764 68.4008 102.907 67.3235 102.394C67.8776 102.511 68.4153 102.427 68.8849 102.114C70.2012 101.232 70.4277 98.8631 69.3875 96.8176C68.3535 94.7722 66.446 93.8329 65.1257 94.7145C65.0474 94.7681 64.9794 94.8258 64.9053 94.8834C64.9629 94.7949 65.0268 94.7042 65.0948 94.626C66.273 93.2026 68.3782 93.6681 69.8036 95.6724C71.229 97.6684 71.4309 100.443 70.2526 101.866Z" fill="white"/>
<path d="M68.5426 102.795C68.1348 102.795 67.7084 102.694 67.2758 102.488L66.4787 102.109L67.3438 102.293C67.8876 102.41 68.4005 102.315 68.8269 102.029C70.0937 101.178 70.3059 98.8631 69.2924 96.8712C68.691 95.6827 67.7496 94.8196 66.7835 94.5662C66.1985 94.4138 65.6486 94.4983 65.1851 94.8052C65.1151 94.8526 65.0471 94.9061 64.9791 94.9679L64.4023 95.4808L64.8205 94.832C64.8843 94.7352 64.9461 94.6466 65.0162 94.5621C65.5064 93.9689 66.1512 93.6743 66.9009 93.7011C67.9659 93.7361 69.0535 94.4344 69.8939 95.6126C71.3399 97.6478 71.5356 100.486 70.3327 101.938C69.863 102.505 69.2348 102.795 68.5426 102.795ZM68.0565 102.532C68.8743 102.694 69.6344 102.441 70.1679 101.796C71.3131 100.412 71.1133 97.691 69.7188 95.7301C68.9217 94.6095 67.8938 93.9442 66.8906 93.9071C66.3345 93.8844 65.8339 94.0657 65.422 94.4303C65.8504 94.249 66.3304 94.2243 66.8309 94.3561C67.8567 94.626 68.8434 95.5241 69.4758 96.7662C70.5386 98.8528 70.2956 101.29 68.9381 102.198C68.6745 102.383 68.3737 102.495 68.0565 102.532Z" fill="#371A45"/>
<path d="M69.6492 97.4109C69.746 97.6684 69.8264 97.9279 69.8902 98.1916C69.952 98.4552 69.9953 98.7189 70.02 98.9805C70.0427 99.2421 70.0488 99.4975 70.0344 99.7488C70.0179 99.9981 69.985 100.237 69.9314 100.466C69.8779 100.692 69.8078 100.906 69.7172 101.102C69.6286 101.3 69.5215 101.479 69.4 101.638C69.2764 101.798 69.1405 101.934 68.9901 102.05C68.8397 102.165 68.677 102.256 68.504 102.322C68.3309 102.39 68.1497 102.429 67.9602 102.445C67.7706 102.46 67.5791 102.449 67.3813 102.412C67.1836 102.377 66.9858 102.315 66.786 102.227C66.5883 102.14 66.3926 102.029 66.201 101.895C66.0095 101.761 65.8241 101.607 65.6469 101.432C65.4698 101.255 65.3029 101.061 65.1464 100.851C64.9878 100.639 64.8457 100.414 64.7159 100.177C64.5861 99.9383 64.4708 99.6911 64.374 99.4357C64.2751 99.1803 64.1947 98.9187 64.133 98.655C64.0712 98.3914 64.0279 98.1277 64.0032 97.8661C63.9785 97.6045 63.9743 97.3491 63.9888 97.0999C64.0032 96.8486 64.0382 96.6096 64.0897 96.383C64.1433 96.1544 64.2153 95.9422 64.3039 95.7445C64.3946 95.5467 64.4996 95.3675 64.6232 95.2089C64.7447 95.0503 64.8827 94.9123 65.0331 94.7969C65.1835 94.6816 65.3462 94.591 65.5192 94.525C65.6923 94.4591 65.8735 94.4179 66.061 94.4035C66.2505 94.387 66.4441 94.3973 66.6419 94.4344C66.8396 94.4715 67.0373 94.5333 67.2351 94.6198C67.4328 94.7063 67.6285 94.8175 67.8201 94.9514C68.0117 95.0853 68.197 95.2398 68.3742 95.417C68.5534 95.592 68.7202 95.7857 68.8768 95.9978C69.0333 96.2079 69.1775 96.4325 69.3073 96.6714C69.4371 96.9083 69.5504 97.1555 69.6492 97.4109Z" fill="#B97631"/>
<path d="M67.7914 102.548C67.5896 102.548 67.3836 102.521 67.1735 102.464C66.1497 102.194 65.161 101.294 64.5286 100.054C63.4678 97.965 63.7088 95.5282 65.0663 94.6198C65.5792 94.2758 66.1909 94.1872 66.8357 94.3561C67.8594 94.626 68.8461 95.5241 69.4805 96.7662C70.5413 98.8528 70.2983 101.29 68.9429 102.198C68.5989 102.431 68.2075 102.548 67.7914 102.548ZM66.2239 94.488C65.849 94.488 65.4947 94.593 65.1878 94.799C63.9148 95.6497 63.7088 97.965 64.7243 99.9569C65.3258 101.147 66.2651 102.008 67.2312 102.262C67.8182 102.414 68.3661 102.33 68.8317 102.025C70.1047 101.172 70.3086 98.859 69.2951 96.865C68.6937 95.6765 67.7544 94.8155 66.7883 94.5621C66.5926 94.5147 66.4031 94.488 66.2239 94.488Z" fill="#371A45"/>
<path d="M70.4319 101.918C69.8572 102.305 69.1753 102.377 68.4956 102.184C68.5327 102.161 68.5697 102.14 68.6068 102.113C69.921 101.232 70.1414 98.863 69.1074 96.8176C68.236 95.1059 66.7571 94.1645 65.5273 94.424C65.7169 94.1171 65.9599 93.8576 66.2462 93.6681C67.7128 92.6896 69.8366 93.7361 70.9921 96.0142C72.1477 98.2924 71.8943 100.935 70.4319 101.918Z" fill="white" fill-opacity="0.4"/>
<path d="M65.2902 101.469C64.6661 100.935 64.1965 100.227 63.8813 99.4562C63.5682 98.6776 63.389 97.8228 63.4693 96.9247C63.5064 96.4798 63.6053 96.0204 63.8072 95.5755C64.007 95.1367 64.318 94.7042 64.7506 94.3766C65.1852 94.0533 65.7331 93.8637 66.2728 93.8473C66.8104 93.8328 67.3233 93.9647 67.7559 94.1748C68.6272 94.5991 69.2719 95.2706 69.7354 95.9998C70.2112 96.7331 70.5017 97.5529 70.6335 98.3975C70.7653 99.2441 70.718 100.126 70.411 100.952C70.2524 101.357 70.0258 101.755 69.7045 102.072C69.3873 102.389 68.9691 102.62 68.5366 102.69C68.4006 102.711 68.2688 102.616 68.2461 102.478C68.2317 102.367 68.2832 102.262 68.378 102.214L68.3883 102.208C68.9856 101.891 69.2967 101.294 69.4038 100.655C69.5191 100.01 69.445 99.3285 69.2761 98.6838C69.0866 98.0391 68.7961 97.4252 68.415 96.8979C68.036 96.3747 67.5499 95.936 67.0473 95.7032C66.5365 95.4704 66.0771 95.4807 65.7166 95.7238C65.3479 95.9627 65.0575 96.4962 64.9463 97.1142C64.8948 97.4211 64.8577 97.7486 64.8721 98.0823C64.8845 98.414 64.9154 98.758 64.9998 99.0916C65.1316 99.7735 65.4015 100.433 65.7661 101.057L65.7702 101.067C65.8608 101.222 65.8073 101.411 65.659 101.502C65.5333 101.57 65.3912 101.553 65.2902 101.469Z" fill="#371A45"/>
<path d="M15.2893 93.0606C15.0154 91.973 16.2678 89.9749 18.3791 88.98C20.4863 87.9872 22.4494 88.4424 22.9293 89.462L15.2893 93.0606Z" fill="#FFA726"/>
<path d="M15.0223 93.1284C14.9111 92.8751 14.8843 92.6011 14.8946 92.3477C14.9049 92.0882 14.9646 91.839 15.0326 91.6021C15.1851 91.1324 15.4116 90.6978 15.6918 90.3064C16.2521 89.5196 17.0018 88.8851 17.8567 88.4423C18.7074 87.9973 19.6776 87.7337 20.6766 87.7913C21.173 87.8181 21.6736 87.9294 22.1453 88.1621C22.376 88.2837 22.5985 88.4361 22.788 88.6256C22.9775 88.8213 23.1361 89.0602 23.2102 89.3301C23.2576 89.4928 23.1587 89.6679 22.9939 89.7152C22.8786 89.7461 22.7571 89.7091 22.6767 89.6246L22.652 89.5937C22.4295 89.3445 22.1185 89.2023 21.7704 89.1241C21.4264 89.0437 21.0515 89.0334 20.6807 89.0602C19.9371 89.1282 19.1976 89.361 18.5117 89.7091C17.8196 90.0592 17.1872 90.5248 16.6372 91.0789C16.3674 91.359 16.1202 91.6597 15.9245 91.9831C15.7247 92.3045 15.5805 92.6547 15.5661 92.9863V93.0234C15.5599 93.182 15.4281 93.3035 15.2695 93.2932C15.1542 93.2994 15.0635 93.2252 15.0223 93.1284Z" fill="#371A45"/>
<path d="M23.1107 89.1118C23.1827 89.2415 23.2281 89.3816 23.2466 89.5361C23.2651 89.6926 23.2569 89.8574 23.2219 90.0304C23.1869 90.2055 23.1251 90.3868 23.0386 90.5763C22.952 90.7638 22.8408 90.9553 22.7049 91.1489C22.5689 91.3426 22.4124 91.5362 22.2332 91.7298C22.0539 91.9235 21.8562 92.1109 21.6399 92.2963C21.4236 92.4796 21.1929 92.6568 20.9499 92.8236C20.7047 92.9925 20.4514 93.1491 20.1877 93.2953C19.9261 93.4416 19.6583 93.5734 19.3864 93.6929C19.1145 93.8103 18.8426 93.9112 18.5728 93.9977C18.3009 94.0842 18.0372 94.1522 17.7777 94.2016C17.5202 94.2511 17.273 94.282 17.0362 94.2943C16.7993 94.3067 16.5789 94.3005 16.3729 94.2737C16.1669 94.249 15.9815 94.2037 15.8147 94.1399C15.6478 94.0781 15.5057 93.9977 15.3842 93.8989C15.2626 93.802 15.1658 93.6887 15.0958 93.561C15.0237 93.4313 14.9784 93.2891 14.9598 93.1346C14.9413 92.9802 14.9495 92.8154 14.9845 92.6403C15.0196 92.4652 15.0814 92.2839 15.1679 92.0965C15.2544 91.909 15.3656 91.7175 15.5016 91.5238C15.6375 91.3282 15.7941 91.1345 15.9733 90.943C16.1525 90.7493 16.3502 90.5598 16.5665 90.3765C16.7828 90.1932 17.0114 90.016 17.2566 89.8471C17.5017 89.6803 17.755 89.5217 18.0166 89.3754C18.2803 89.2292 18.5481 89.0973 18.82 88.9799C19.0919 88.8625 19.3638 88.7595 19.6336 88.6751C19.9055 88.5886 20.1692 88.5206 20.4267 88.4711C20.6862 88.4217 20.9334 88.3887 21.1703 88.3784C21.4072 88.3661 21.6276 88.3723 21.8335 88.397C22.0375 88.4238 22.2249 88.4691 22.3918 88.5309C22.5566 88.5947 22.7007 88.6751 22.8223 88.7719C22.9438 88.8708 23.0406 88.984 23.1107 89.1118Z" fill="#B97631"/>
<path d="M29.1813 38.355C29.1813 38.355 20.5175 36.3899 17.7614 37.8112C13.273 40.1306 7.73615 55.6908 8.02659 62.5871C8.16254 65.8376 17.5925 68.2744 17.5925 68.2744L29.1813 38.355Z" fill="white"/>
<path d="M17.5726 68.3752C17.1812 68.2742 8.06227 65.8807 7.92632 62.587C7.6297 55.5691 13.2428 40.0316 17.7209 37.7163C20.477 36.2889 28.8544 38.1695 29.2149 38.2498L29.1675 38.4558C29.0831 38.4352 20.5079 36.5155 17.8198 37.9058C13.3911 40.1943 7.84598 55.6103 8.1426 62.5829C8.27443 65.7159 17.5396 68.1465 17.6365 68.1733L17.5726 68.3752Z" fill="#371A45"/>
<path d="M20.4014 61.0277L17.5918 68.2742C17.5918 68.2742 8.16178 65.8374 8.02583 62.587C7.77659 56.7308 11.7356 44.623 15.6864 39.6876C13.3897 45.1462 10.7819 51.2351 11.8736 55.637C12.4916 58.1418 17.9461 60.282 20.4014 61.0277Z" fill="#371A45" fill-opacity="0.349"/>
<path d="M17.5986 68.9931C17.5388 68.9931 17.477 68.987 17.4173 68.9705C15.755 68.5441 7.46614 66.2185 7.31372 62.6179C7.0274 55.9172 12.3912 39.7886 17.4338 37.1767C20.3382 35.675 28.4272 37.4506 29.3397 37.6587C29.7249 37.7472 29.968 38.1283 29.8794 38.5135C29.7888 38.8987 29.4077 39.1418 29.0225 39.0532C26.6846 38.5238 20.1589 37.3785 18.0888 38.4497C13.9073 40.6125 8.45899 55.8966 8.73913 62.5561C8.81741 64.4326 14.0659 66.6202 17.7716 67.576C18.1568 67.6769 18.3854 68.0683 18.2886 68.4473C18.2042 68.7768 17.9137 68.9931 17.5986 68.9931Z" fill="#371A45"/>
<path d="M25.9657 43.3604C25.8235 43.3604 25.6814 43.313 25.564 43.2182C20.0003 38.6412 16.7643 39.2798 16.7314 39.286C16.3935 39.3601 16.0516 39.1418 15.9774 38.7999C15.9033 38.4559 16.1196 38.118 16.4636 38.0439C16.616 38.0109 20.3382 37.2673 26.3735 42.2336C26.6413 42.4561 26.6846 42.8578 26.458 43.1276C26.3303 43.28 26.1511 43.3604 25.9657 43.3604Z" fill="#371A45"/>
<path d="M36.2609 67.7408H47.8764L46.1296 60.3192L34.3926 57.9833L36.2609 67.7408Z" fill="#371A45" fill-opacity="0.349"/>
<path d="M54.3517 74.0563C54.2734 72.6927 52.9263 71.086 50.5863 71.535L44.0771 70.4886L48.2792 75.457C49.268 75.6032 50.1805 75.7413 50.988 75.8525L51.0518 76.2603C51.0518 76.2603 51.0209 76.6723 50.9571 82.3225C50.9035 86.9716 57.8473 89.0706 60.6816 83.5852C60.7558 83.4369 60.8299 83.2885 60.9041 83.1402L61.5529 81.6819C54.5783 84.4627 54.6421 78.9134 54.3517 74.0563Z" fill="#371A45" fill-opacity="0.349"/>
<path d="M49.2883 84.0506C48.3696 89.6246 40.8243 90.154 39.0034 86.2382C37.1022 82.1473 36.9806 79.6941 33.4336 80.4397C24.1828 82.3842 19.0723 78.0874 17.8467 70.6101C18.7489 72.5011 20.7511 75.3766 24.6895 75.9534C30.6548 76.8247 38.6326 73.8709 39.7202 77.5127C40.8078 81.1483 41.8707 83.6531 44.3302 83.7849C46.802 83.9167 48.7754 82.7117 49.383 79.8321C49.4201 80.8002 49.4613 83.0145 49.2883 84.0506Z" fill="#371A45" fill-opacity="0.349"/>
<path d="M36.8011 82.1102C36.7744 82.1102 36.7435 82.1102 36.7167 82.1041C36.3686 82.0567 36.1255 81.7395 36.1729 81.3914C36.1832 81.3007 36.4839 79.1811 38.0268 77.216C39.4522 75.3931 42.233 73.3682 47.397 74.0706C47.7451 74.118 47.9882 74.4352 47.9408 74.7854C47.8934 75.1335 47.5762 75.3766 47.2281 75.3292C43.5636 74.8266 40.8034 75.7247 39.0237 77.9988C37.6931 79.694 37.4335 81.5397 37.4294 81.5603C37.3861 81.8837 37.1122 82.1102 36.8011 82.1102Z" fill="#371A45"/>
<path d="M48.3895 71.1972C44.9949 70.8202 44.2245 69.2259 44.6262 67.8025C44.8899 66.8632 45.6767 66.0022 46.548 65.615L50.1219 57.6825L53.3167 50.5842L54.5403 47.8632C54.5403 47.8632 55.1912 48.2648 56.0501 49.2103C57.3231 50.611 59.0555 53.1961 59.832 57.4229C61.2101 64.9661 53.807 71.7986 48.3895 71.1972Z" fill="white"/>
<path d="M56.0564 49.2165C55.1954 48.2711 54.5466 47.8694 54.5466 47.8694L54.2499 48.5182C53.2056 49.1424 47.8726 48.8416 47.8726 48.8416C38.9226 48.6398 31.7049 42.0647 29.7212 40.0729L29.5255 38.8308C29.1671 39.1686 28.8025 39.5229 28.4482 39.8875C28.8128 41.1872 29.4349 42.4561 30.2795 43.6446C32.6565 46.9795 36.7803 49.7336 41.8332 50.9448C46.6058 52.0921 51.2611 51.6369 54.8205 49.9869C54.8164 49.9622 55.6918 49.4328 56.0564 49.2165Z" fill="#371A45" fill-opacity="0.349"/>
<path d="M52.3924 67.0631C48.1676 69.3578 45.5084 68.2311 44.6309 67.8026C44.8945 66.8633 45.6814 66.0023 46.5527 65.6151L50.1265 57.6826C51.4572 57.3489 52.7611 57.1656 53.6654 57.3757C56.3205 57.9895 58.3907 63.8086 52.3924 67.0631Z" fill="#371A45" fill-opacity="0.349"/>
<path d="M49.0651 71.9532C48.8117 71.9532 48.5584 71.9367 48.305 71.9099C44.7579 71.5144 43.9855 69.8603 43.8392 68.9087C43.5797 67.2114 44.8671 65.5676 46.2575 64.96C46.62 64.8013 47.0423 64.9661 47.2009 65.3307C47.3595 65.6953 47.1968 66.1176 46.8322 66.2762C45.9712 66.6573 45.1102 67.7408 45.2543 68.6965C45.3965 69.6379 46.5356 70.2764 48.4574 70.4886C50.8283 70.7523 53.8069 69.368 56.0397 66.9683C58.5857 64.2308 59.7104 60.8052 59.113 57.561C57.8977 50.9179 54.1859 48.5017 54.1508 48.477C53.8172 48.2649 53.7162 47.8199 53.9222 47.4883C54.1344 47.1546 54.5731 47.0495 54.9048 47.2597C55.0798 47.3668 59.181 49.9931 60.5178 57.3014C61.1935 60.9968 59.9411 64.8755 57.08 67.9467C54.7523 70.468 51.7429 71.9532 49.0651 71.9532Z" fill="#371A45"/>
<path d="M69.82 35.9717C67.9352 39.4961 65.1627 42.5633 61.6465 44.8023C60.9297 45.2575 60.184 45.6798 59.4075 46.0671C59.0346 46.2566 58.6474 46.4317 58.2519 46.6047C57.0695 47.1176 55.8666 47.5254 54.6513 47.8365C53.6069 48.1063 52.5543 48.2958 51.5038 48.4174C50.237 48.5657 48.9661 48.6089 47.7075 48.5492C47.2482 48.5286 46.795 48.4915 46.3418 48.4503C38.0262 47.5893 30.4068 42.3779 26.8474 34.1488C21.6112 22.0307 27.1811 7.95157 39.2868 2.70719C41.6206 1.69786 44.0286 1.09021 46.4263 0.853323C46.7044 0.820365 46.9907 0.799767 47.2708 0.783288C48.0247 0.735911 48.7807 0.725613 49.5243 0.746211C51.2566 0.805947 52.9663 1.04901 54.6307 1.47128C56.2888 1.89355 57.9038 2.49091 59.4301 3.25305C59.9162 3.49611 60.3962 3.75359 60.8658 4.02961C61.5682 4.44158 62.2542 4.89063 62.9195 5.38294C66.2256 7.80738 68.9487 11.1155 70.6913 15.1549C73.7111 22.146 73.1467 29.7613 69.82 35.9717Z" fill="white"/>
<path d="M48.7705 48.6871C48.4162 48.6871 48.0578 48.6768 47.7035 48.6604C47.2442 48.6398 46.7787 48.6027 46.3296 48.5615C37.6926 47.6675 30.1948 42.1615 26.7528 34.1961C21.5002 22.0409 27.1071 7.87737 39.2499 2.61857C41.5528 1.62366 43.9649 0.995403 46.4202 0.75852C46.6839 0.731742 46.9743 0.704964 47.271 0.688485C48.0249 0.641109 48.7849 0.630809 49.5347 0.651408C51.2568 0.711144 52.9829 0.954207 54.6617 1.3806C56.3261 1.80493 57.9451 2.4064 59.4818 3.17267C59.9782 3.42191 60.4602 3.67939 60.9237 3.95541C61.6467 4.37768 62.3388 4.83703 62.9835 5.31285C66.3987 7.81763 69.1033 11.2164 70.7924 15.1322C73.7174 21.9029 73.394 29.5182 69.9108 36.0294C67.9786 39.6403 65.1381 42.7053 61.7002 44.9032C60.971 45.3687 60.2171 45.7972 59.457 46.1721C59.1069 46.3472 58.7278 46.5264 58.2953 46.7117C57.1232 47.2185 55.9038 47.6366 54.6782 47.9477C53.6483 48.2113 52.5874 48.407 51.5163 48.5347C50.612 48.6357 49.6933 48.6871 48.7705 48.6871ZM48.7808 0.853274C48.2782 0.853274 47.7777 0.867692 47.2813 0.90065C46.9846 0.917129 46.7045 0.937728 46.4408 0.968625C44.0081 1.20757 41.6167 1.82552 39.3343 2.81425C27.3028 8.02362 21.7432 22.0677 26.9485 34.1116C30.3596 42.007 37.7936 47.4615 46.3523 48.3493C46.8013 48.3967 47.2607 48.4276 47.7138 48.4503C48.9806 48.5079 50.2474 48.4606 51.4937 48.3184C52.5545 48.1969 53.6112 48.0012 54.6308 47.7355C55.8441 47.4245 57.0532 47.0125 58.2149 46.5099C58.6434 46.3204 59.0183 46.1453 59.3664 45.9702C60.1224 45.5953 60.8701 45.173 61.5952 44.7137C65.0001 42.5364 67.8139 39.4961 69.7316 35.9181L69.8263 35.9655L69.7316 35.9181C73.1839 29.4667 73.5052 21.9194 70.6008 15.2063C68.9282 11.3276 66.2504 7.96182 62.862 5.47764C62.2234 5.00593 61.5313 4.55277 60.8186 4.1305C60.3593 3.86066 59.8793 3.60112 59.387 3.35805C57.8668 2.59591 56.256 2.00061 54.6102 1.58246C52.9458 1.16019 51.2362 0.917129 49.5306 0.857393C49.2814 0.857393 49.0342 0.853274 48.7808 0.853274Z" fill="#371A45"/>
<path d="M69.8201 35.9718C67.9353 39.4962 65.1627 42.5633 61.6466 44.8024C60.9298 45.2576 60.1841 45.6798 59.4075 46.0671C59.0347 46.2566 58.6474 46.4317 58.2519 46.6047C57.0696 47.1176 55.8666 47.5255 54.6513 47.8365C53.607 48.1064 52.5544 48.2959 51.5039 48.4174C50.2371 48.5657 48.9661 48.609 47.7076 48.5492C47.2482 48.5286 46.7951 48.4915 46.3419 48.4504C38.0263 47.5893 30.4069 42.3779 26.8474 34.1488C24.9524 29.7572 24.4724 25.1061 25.2119 20.7083C25.5291 22.5683 26.0668 24.4242 26.8474 26.2369C28.1781 29.3226 30.5181 30.5379 32.8148 32.7048C36.6482 36.3158 41.1408 39.9988 46.3357 40.5385C46.7889 40.5858 47.2482 40.6167 47.7034 40.6394C48.96 40.6971 50.2329 40.6538 51.4998 40.5055C52.5503 40.384 53.607 40.1903 54.6451 39.9246C55.8605 39.6177 57.0634 39.2057 58.2478 38.6928C58.6371 38.5198 59.0285 38.3447 59.4034 38.1552C60.18 37.768 60.9236 37.3457 61.6425 36.8905C65.1586 34.6514 67.9291 31.5802 69.816 28.0599C71.0457 25.7611 71.8943 23.2728 72.329 20.6938C73.2312 26.0041 72.2816 31.3742 69.8201 35.9718Z" fill="#2A1A3B"/>
<path d="M48.7748 48.6872C48.4205 48.6872 48.0621 48.6831 47.7078 48.6605C47.2546 48.6399 46.7891 48.6028 46.3359 48.5616C37.699 47.6676 30.2011 42.1616 26.7591 34.1962C24.9155 29.9302 24.3449 25.2647 25.1112 20.698L25.2163 20.08L25.3234 20.698C25.6385 22.5848 26.1885 24.4345 26.9548 26.206C27.9208 28.4451 29.4513 29.7098 31.0662 31.0508C31.6636 31.5493 32.2815 32.0601 32.8995 32.6369C36.8647 36.3796 41.2419 39.9102 46.3627 40.4437C46.8117 40.4911 47.2711 40.522 47.7243 40.5426C48.9911 40.6023 50.2579 40.5549 51.5041 40.4108C52.567 40.2892 53.6216 40.0935 54.6412 39.8299C55.8545 39.5188 57.0636 39.1069 58.2254 38.6043C58.6538 38.4127 59.0287 38.2397 59.3768 38.0646C60.1328 37.6897 60.8826 37.2674 61.6056 36.806C65.0105 34.6287 67.8243 31.5905 69.742 28.0125C70.9717 25.7075 71.8163 23.2398 72.2447 20.6774L72.3498 20.0594L72.4548 20.6774C73.3364 25.8888 72.4384 31.3371 69.9315 36.0191C67.9994 39.6301 65.1588 42.6951 61.7209 44.893C60.9918 45.3585 60.2379 45.787 59.4778 46.1619C59.1297 46.3349 58.7486 46.5162 58.316 46.6995C57.144 47.2083 55.9245 47.6244 54.6989 47.9374C53.669 48.2011 52.6082 48.3968 51.537 48.5245C50.6122 48.6357 49.6935 48.6872 48.7748 48.6872ZM25.2224 21.353C24.6107 25.6766 25.206 30.0785 26.9486 34.1117C30.3597 42.0071 37.7937 47.4616 46.3524 48.3494C46.8056 48.3968 47.2649 48.4277 47.714 48.4504C48.9808 48.508 50.2476 48.4607 51.4938 48.3185C52.5546 48.197 53.6113 48.0013 54.6309 47.7356C55.8442 47.4245 57.0533 47.0126 58.2151 46.51C58.6435 46.3205 59.0184 46.1454 59.3665 45.9703C60.1225 45.5954 60.8702 45.1731 61.5953 44.7138C65.0002 42.5365 67.814 39.4962 69.7317 35.9182C72.117 31.4586 73.0316 26.3049 72.3292 21.3262C71.8698 23.6951 71.0562 25.9733 69.915 28.1073C67.9829 31.7182 65.1424 34.7832 61.7045 36.9811C60.9773 37.4466 60.2214 37.8751 59.4613 38.25C59.1132 38.4251 58.7321 38.5981 58.2995 38.7896C57.1275 39.2964 55.908 39.7145 54.6824 40.0256C53.6546 40.2892 52.5917 40.4849 51.5206 40.6126C50.2702 40.7609 48.9869 40.8021 47.7078 40.7486C47.2484 40.728 46.7891 40.6909 46.3359 40.6497C41.1574 40.11 36.7473 36.5526 32.7512 32.7893C32.1394 32.2146 31.5256 31.7079 30.9303 31.2094C29.2927 29.852 27.7458 28.5728 26.7591 26.2843C26.067 24.6982 25.55 23.04 25.2224 21.353Z" fill="#371A45"/>
<path d="M48.7707 49.301C48.4061 49.301 48.0415 49.2907 47.6769 49.2742C47.2072 49.2536 46.7314 49.2165 46.2679 49.1691C37.4126 48.2484 29.7211 42.6044 26.1926 34.4391C20.8082 21.977 26.5572 7.44889 39.007 2.05826C41.3737 1.03863 43.8435 0.3939 46.3627 0.150837C46.6325 0.124059 46.9271 0.097281 47.2381 0.0808022C48.0106 0.0334255 48.7912 0.016947 49.5575 0.0437249C51.3249 0.101401 53.0943 0.350642 54.8163 0.789391C56.5198 1.22196 58.1842 1.84197 59.7579 2.62884C60.2646 2.8822 60.761 3.15204 61.2348 3.43218C61.9743 3.86475 62.687 4.33646 63.3482 4.8267C66.8541 7.39533 69.6205 10.8785 71.3569 14.8953C74.3561 21.8349 74.0286 29.6459 70.4547 36.3198C68.4731 40.0193 65.5605 43.1708 62.032 45.4223C61.2884 45.896 60.5118 46.3348 59.7311 46.722C59.3768 46.9012 58.9855 47.0804 58.5426 47.2761C57.3335 47.7993 56.0872 48.2278 54.8307 48.545C53.7802 48.8148 52.6885 49.0146 51.5885 49.1465C50.6595 49.2433 49.7141 49.301 48.7707 49.301ZM48.7809 1.46502C48.2948 1.46502 47.8046 1.4815 47.3185 1.5124C47.028 1.52888 46.7582 1.54948 46.5048 1.57625C44.1298 1.80902 41.8001 2.41255 39.5734 3.3745C27.8467 8.45204 22.4334 22.1295 27.5027 33.8685C30.8232 41.5642 38.0677 46.8744 46.4101 47.7416C46.8488 47.7828 47.2979 47.8199 47.7407 47.8426C48.9705 47.8941 50.2064 47.8529 51.4196 47.7107C52.4557 47.5892 53.4857 47.3977 54.4723 47.1443C55.6609 46.8436 56.8329 46.4419 57.9679 45.9496C58.384 45.7642 58.7486 45.5953 59.0864 45.4264C59.8259 45.0618 60.5551 44.6436 61.2575 44.2008C64.578 42.0812 67.3176 39.1212 69.1817 35.6338C72.5455 29.3451 72.8565 21.9935 70.0324 15.4555C68.401 11.6757 65.7912 8.39436 62.4913 5.97404C61.8692 5.51469 61.1977 5.06976 60.5015 4.66397C60.0586 4.39825 59.589 4.14489 59.107 3.90801C57.6239 3.16852 56.0563 2.58558 54.4517 2.17979C52.8306 1.76782 51.1621 1.52888 49.4978 1.47738C49.2671 1.46502 49.024 1.46502 48.7809 1.46502Z" fill="#371A45"/>
<path d="M48.7705 49.3216C48.4059 49.3216 48.0413 49.3113 47.6726 49.2948C47.1968 49.2742 46.7271 49.2371 46.2616 49.1897C37.398 48.271 29.6983 42.6209 26.1677 34.4453C20.7771 21.9708 26.5323 7.43241 38.9924 2.03148C41.3571 1.01185 43.833 0.36712 46.3522 0.117878C46.62 0.0869804 46.9228 0.0643223 47.2277 0.0499032C47.998 0.00252646 48.7808 -0.0139521 49.5512 0.0128259C51.3206 0.0705017 53.0879 0.319744 54.8161 0.762612C56.5196 1.19724 58.1881 1.8152 59.7618 2.60206C60.2686 2.85542 60.765 3.12526 61.2408 3.4054C61.9803 3.83797 62.693 4.30968 63.3583 4.79992C66.8642 7.37474 69.6347 10.8579 71.3732 14.8788C74.3765 21.8246 74.0449 29.6397 70.469 36.3259C68.4853 40.0316 65.5706 43.1811 62.0442 45.4326C61.2985 45.9084 60.5219 46.3471 59.7351 46.7364C59.3828 46.9177 58.9915 47.0969 58.5486 47.2926C57.3395 47.8158 56.0933 48.2442 54.8306 48.5615C53.7759 48.8292 52.6821 49.0373 51.5842 49.1629C50.6594 49.268 49.7139 49.3216 48.7705 49.3216ZM48.7808 1.48768C48.2947 1.48768 47.8044 1.5021 47.3183 1.53506C47.0278 1.54948 46.758 1.57213 46.5046 1.59891C44.1296 1.82961 41.8061 2.43315 39.5774 3.3951C27.8609 8.46852 22.4559 22.1356 27.5231 33.8582C30.8456 41.5415 38.0778 46.8538 46.4099 47.7149C46.8486 47.7581 47.2977 47.7952 47.7406 47.8158C48.9703 47.8694 50.2062 47.8261 51.4153 47.684C52.4494 47.5624 53.4731 47.3709 54.466 47.1175C55.6545 46.8168 56.8266 46.4151 57.9574 45.9228C58.3735 45.7395 58.7381 45.5685 59.0759 45.3996C59.8154 45.035 60.5446 44.623 61.2449 44.174C64.5613 42.0606 67.3009 39.1006 69.1651 35.6174C72.5288 29.3328 72.8398 21.9873 70.0158 15.4597C68.3844 11.6819 65.7807 8.41084 62.4809 5.99051C61.8588 5.52911 61.1873 5.08624 60.491 4.67839C60.0482 4.41473 59.5785 4.16137 59.1027 3.92242C57.6196 3.18294 56.0562 2.60206 54.4515 2.19421C52.8304 1.78224 51.1661 1.54536 49.5038 1.4918C49.2669 1.4918 49.0238 1.48768 48.7808 1.48768Z" fill="#371A45"/>
<path d="M66.2634 40.9607C52.3141 50.8129 33.242 43.9207 32.1646 27.0299C31.4313 15.54 42.1014 5.94319 53.1731 5.94319C61.2312 5.94319 69.0978 9.47172 72.5192 21.9874C72.5192 21.9874 73.1784 27.7632 71.6314 31.6172C70.0845 35.4691 67.9299 38.9585 67.9299 38.9585L66.2634 40.9607Z" fill="#371A45"/>
<path d="M52.2915 45.6056C49.0658 45.6056 45.8875 44.9196 42.9686 43.5231C36.5048 40.4333 32.5293 34.4185 32.0597 27.0339C31.7322 21.9296 33.6334 16.8974 37.4194 12.8663C41.5432 8.46233 47.4344 5.83601 53.1793 5.83601C63.1573 5.83601 69.7055 11.2637 72.6243 21.9605C72.6346 22.0347 73.2691 27.8229 71.7324 31.6583C70.2019 35.4793 68.0412 38.9852 68.0206 39.0161L66.3253 41.0451C62.0593 44.0586 57.1281 45.6056 52.2915 45.6056ZM53.1732 6.04818C47.488 6.04818 41.6524 8.64771 37.5677 13.0084C33.8291 16.9983 31.9443 21.977 32.2657 27.0195C32.7353 34.3238 36.6634 40.2685 43.0572 43.3294C50.2811 46.79 59.1447 45.8486 66.1894 40.8823L67.8414 38.8946C67.8517 38.874 70.0001 35.3805 71.5264 31.58C73.0466 27.7961 72.4142 22.0553 72.408 22.0038C69.5201 11.4182 63.0481 6.04818 53.1732 6.04818Z" fill="#371A45"/>
<path d="M71.9645 30.645C71.8697 30.9766 71.7585 31.3062 71.6308 31.6172C70.0838 35.4692 67.9251 38.9585 67.9251 38.9585L66.2628 40.9566C52.3135 50.8068 33.2475 43.9145 32.164 27.0238C32.0961 25.9362 32.127 24.8568 32.2547 23.8104C38.4692 37.5043 56.8843 41.795 70.951 31.8644L71.9645 30.645Z" fill="#111A28" fill-opacity="0.349"/>
<path d="M52.3382 48.582C46.4779 48.582 40.8607 46.6005 36.6421 42.9895C32.0651 39.0696 29.4306 33.6193 29.0227 27.2296C28.6478 21.3529 30.8354 15.5564 35.1796 10.9156C39.9111 5.86896 46.6736 2.85127 53.2672 2.85127C56.9687 2.85127 60.3057 3.51043 63.1833 4.81637L63.241 4.84315L63.2946 4.88023C66.7901 7.44268 69.5462 10.9094 71.2785 14.9158C74.2653 21.8349 73.9378 29.6129 70.3804 36.2682C68.405 39.9574 65.5007 43.0905 61.9907 45.3378C61.245 45.8115 60.4746 46.2462 59.6939 46.6375C59.3396 46.8167 58.9483 46.9959 58.5116 47.1875C57.3066 47.7045 56.0665 48.133 54.81 48.4502L54.7091 48.4646C53.9181 48.545 53.1251 48.582 52.3382 48.582ZM53.2672 4.12426C47.0176 4.12426 40.6012 6.98951 36.1045 11.7869C31.9951 16.1682 29.9311 21.6227 30.2854 27.1513C30.6706 33.1908 33.1569 38.3343 37.4661 42.0276C41.9792 45.896 48.2041 47.7828 54.5464 47.2184C55.7184 46.9177 56.8802 46.5201 58.0049 46.034C58.4209 45.8486 58.7917 45.6797 59.1295 45.5108C59.867 45.1421 60.6023 44.7281 61.3089 44.279C64.6417 42.1553 67.3916 39.1788 69.2661 35.6812C72.6442 29.3698 72.9573 21.9873 70.1209 15.4287C68.4895 11.6551 65.892 8.37785 62.6086 5.95341C59.904 4.7381 56.7628 4.12426 53.2672 4.12426Z" fill="#371A45"/>
<path d="M52.2902 46.2132C48.9759 46.2132 45.7069 45.5067 42.7037 44.0689C36.0339 40.8761 31.9327 34.676 31.4466 27.0669C31.1088 21.7916 33.0677 16.5967 36.969 12.4378C41.2082 7.91441 47.2642 5.21806 53.1718 5.21806C63.4629 5.21806 70.2048 10.7941 73.2101 21.7916L73.2307 21.8987C73.2575 22.1418 73.8898 27.9011 72.2955 31.8767C70.7444 35.7451 68.6269 39.185 68.5363 39.3271L68.4786 39.4075L66.7524 41.4797L66.6721 41.5312C62.3011 44.6333 57.2483 46.2132 52.2902 46.2132ZM53.1718 6.66202C47.6494 6.66202 41.9848 9.19358 38.0134 13.4307C34.3922 17.2991 32.5651 22.1088 32.8761 26.9866C33.3314 34.0642 37.138 39.8236 43.3196 42.7836C50.321 46.1349 58.9168 45.2369 65.7699 40.4333L67.3374 38.5465C67.5867 38.1448 69.5456 34.884 70.9607 31.3576C72.3491 27.9011 71.8691 22.7062 71.8094 22.1294C68.9915 11.8611 62.7193 6.66202 53.1718 6.66202Z" fill="#371A45"/>
<path d="M27.7897 18.1129C28.1976 18.1149 28.5992 18.1726 28.9988 18.2838C29.3985 18.3951 29.7857 18.5578 30.1627 18.7741C30.5376 18.9924 30.8939 19.2561 31.2317 19.5692C31.5695 19.8823 31.8826 20.2386 32.169 20.6362C32.4553 21.0358 32.7107 21.4684 32.9352 21.9359C33.1597 22.4035 33.3492 22.8979 33.5037 23.417C33.6562 23.9361 33.7715 24.4716 33.8498 25.0237C33.926 25.5736 33.9631 26.1298 33.961 26.6921C33.959 27.2524 33.9178 27.8086 33.8354 28.3586C33.753 28.9106 33.6335 29.4441 33.4749 29.9611C33.3163 30.4802 33.1227 30.9725 32.894 31.438C32.6674 31.9036 32.4079 32.3341 32.1175 32.7296C31.827 33.1271 31.5119 33.4793 31.172 33.7904C30.8321 34.0994 30.4716 34.363 30.0947 34.5752C29.7177 34.7894 29.3284 34.9501 28.9288 35.0572C28.5271 35.1643 28.1234 35.2179 27.7156 35.2158C27.3077 35.2137 26.904 35.1581 26.5064 35.0469C26.1068 34.9357 25.7196 34.7709 25.3426 34.5546C24.9677 34.3383 24.6114 34.0746 24.2735 33.7595C23.9357 33.4464 23.6226 33.0921 23.3363 32.6925C23.05 32.2949 22.7946 31.8624 22.57 31.3948C22.3455 30.9251 22.156 30.4328 22.0015 29.9137C21.8491 29.3926 21.7337 28.8591 21.6555 28.3071C21.5793 27.7571 21.5401 27.2009 21.5442 26.6386C21.5463 26.0762 21.5875 25.5221 21.6699 24.9701C21.7523 24.4201 21.8718 23.8866 22.0304 23.3675C22.189 22.8505 22.3826 22.3582 22.6092 21.8927C22.8378 21.4272 23.0974 20.9946 23.3878 20.5991C23.6782 20.2036 23.9934 19.8514 24.3333 19.5403C24.6732 19.2293 25.0316 18.9677 25.4106 18.7555C25.7875 18.5413 26.1768 18.3806 26.5765 18.2735C26.9781 18.1643 27.3819 18.1129 27.7897 18.1129Z" fill="white"/>
<path d="M27.7519 35.9346C27.5665 35.9346 27.3811 35.9243 27.1958 35.9078C23.4118 35.5165 20.561 31.061 20.8514 25.9835C21.0203 23.0338 22.18 20.4342 24.0401 18.8481C25.3172 17.7605 26.7962 17.2682 28.3101 17.4268C32.0961 17.8182 34.947 22.2737 34.6565 27.3512C34.4876 30.3009 33.3259 32.9004 31.4679 34.4865C30.3494 35.4382 29.0702 35.9346 27.7519 35.9346ZM27.7663 18.8317C26.7859 18.8317 25.8239 19.2127 24.9691 19.9419C23.4324 21.252 22.4231 23.5405 22.281 26.0679C22.0379 30.3915 24.3078 34.1693 27.3441 34.4824C28.4646 34.5978 29.5728 34.2229 30.5389 33.3927C32.0755 32.0827 33.0828 29.7942 33.227 27.2667C33.4701 22.9452 31.1981 19.1654 28.1639 18.8543C28.03 18.8378 27.8982 18.8317 27.7663 18.8317Z" fill="#371A45"/>
<path d="M30.7757 27.0154C30.788 27.4542 30.7695 27.8909 30.718 28.3234C30.6665 28.756 30.582 29.1762 30.4667 29.5861C30.3534 29.994 30.2092 30.3833 30.0341 30.7541C29.8611 31.1248 29.6613 31.4688 29.4368 31.7861C29.2102 32.1033 28.965 32.3875 28.6952 32.6409C28.4274 32.8922 28.1411 33.1064 27.8404 33.2836C27.5376 33.4607 27.2265 33.5967 26.9031 33.6935C26.5797 33.7882 26.2522 33.8418 25.9206 33.85C25.589 33.8603 25.2573 33.8274 24.9298 33.7512C24.6023 33.677 24.2809 33.5596 23.9699 33.401C23.6589 33.2424 23.3602 33.0446 23.078 32.8098C22.7937 32.5729 22.5301 32.3051 22.287 32.0003C22.0419 31.6975 21.8235 31.3658 21.6279 31.0074C21.4322 30.647 21.2653 30.2679 21.1253 29.8663C20.9852 29.4646 20.8781 29.0485 20.7998 28.6201C20.7215 28.1916 20.6762 27.759 20.6638 27.3203C20.6515 26.8815 20.67 26.4449 20.7215 26.0123C20.773 25.5818 20.8575 25.1595 20.9728 24.7517C21.0861 24.3418 21.2303 23.9524 21.4054 23.5817C21.5784 23.2109 21.7782 22.8669 22.0028 22.5497C22.2293 22.2325 22.4745 21.9482 22.7443 21.6948C23.0121 21.4435 23.2984 21.2293 23.5991 21.0522C23.9019 20.875 24.213 20.7391 24.5364 20.6423C24.8598 20.5475 25.1873 20.496 25.5189 20.4857C25.8506 20.4754 26.1822 20.5084 26.5097 20.5846C26.8372 20.6608 27.1586 20.7761 27.4696 20.9348C27.7806 21.0954 28.0793 21.2911 28.3615 21.528C28.6458 21.7628 28.9094 22.0327 29.1525 22.3355C29.3976 22.6383 29.616 22.9699 29.8116 23.3283C30.0073 23.6888 30.1742 24.0678 30.3143 24.4695C30.4543 24.8711 30.5614 25.2872 30.6397 25.7157C30.718 26.1441 30.7633 26.5767 30.7757 27.0154Z" fill="white"/>
<path d="M25.7968 33.9593C25.2015 33.9593 24.598 33.8212 24.0295 33.5514C22.534 32.8387 21.3723 31.3 20.8449 29.3287C19.8954 25.7878 21.2981 21.9297 23.9697 20.7247C25.0738 20.2283 26.2933 20.2427 27.3973 20.7721C28.8907 21.4848 30.0525 23.0235 30.5798 24.9948C31.5315 28.5357 30.1266 32.3938 27.455 33.5988C26.9215 33.8377 26.3571 33.9593 25.7968 33.9593ZM25.6279 20.5826C25.1006 20.5826 24.5733 20.6979 24.0542 20.9245C21.4732 22.0822 20.1261 25.829 21.0509 29.271C21.5638 31.1785 22.6823 32.6677 24.118 33.3495C25.1789 33.8583 26.3036 33.8727 27.3644 33.399C29.9474 32.2413 31.2946 28.4945 30.3697 25.0525C29.8568 23.145 28.7383 21.6537 27.3026 20.974C26.7526 20.7144 26.1923 20.5826 25.6279 20.5826Z" fill="#371A45"/>
<path d="M30.4281 30.1424C30.8133 28.9168 30.8607 27.5799 30.63 26.3049C29.5197 29.0321 26.9325 30.0208 24.6317 28.4986C23.1424 27.5161 22.1228 25.7137 21.7644 23.7486C21.6964 23.9175 21.6263 24.1008 21.5687 24.2862C20.5923 27.411 21.579 31.5966 24.024 33.2136C26.4732 34.8306 29.4517 33.2651 30.4281 30.1424Z" fill="#371A45" fill-opacity="0.349"/>
<path d="M25.6922 34.6925C25.55 34.6925 25.4079 34.6822 25.2637 34.6657C22.314 34.3382 20.1738 30.7603 20.4025 26.5273C20.5343 24.0431 21.5004 21.802 22.9896 20.5393C23.9392 19.7318 25.033 19.3713 26.1412 19.499C29.093 19.8266 31.2311 23.4045 31.0045 27.6375C30.8706 30.1217 29.9046 32.3628 28.4174 33.6255C27.5872 34.3279 26.6521 34.6925 25.6922 34.6925ZM25.7128 20.7453C25.0474 20.7453 24.3924 21.0048 23.8012 21.5115C22.5777 22.5538 21.7743 24.455 21.6631 26.5952C21.4839 30.0414 23.1956 33.16 25.4017 33.4092C26.1618 33.4937 26.9178 33.2341 27.5934 32.6574C28.817 31.6171 29.6203 29.7138 29.7315 27.5737C29.9107 24.1275 28.199 21.0089 25.9929 20.7617C25.9023 20.7514 25.8075 20.7453 25.7128 20.7453Z" fill="#371A45"/>
<path d="M53.0671 57.25C52.9559 57.25 52.8405 57.2232 52.7354 57.1696C52.3853 56.9843 52.2493 56.5517 52.4285 56.2036C52.5665 55.944 55.8438 49.7398 63.9328 42.419C71.373 35.6813 84.451 26.7333 104.514 22.3582C104.899 22.2737 105.284 22.5168 105.369 22.9081C105.453 23.2933 105.21 23.6785 104.819 23.763C85.0998 28.066 72.2546 36.8389 64.9524 43.4387C57.0323 50.5946 53.7386 56.8112 53.7015 56.8751C53.5738 57.112 53.3266 57.25 53.0671 57.25Z" fill="#371A45"/>
<path d="M54.9424 61.8104C54.9424 61.8104 57.4863 63.5324 57.8736 65.8374L54.9424 61.8104Z" fill="white"/>
<path d="M57.8731 66.4719C57.5662 66.4719 57.3025 66.2495 57.2489 65.9426C56.9173 63.9404 54.6144 62.3543 54.5876 62.3378C54.2972 62.1442 54.223 61.7466 54.4187 61.4562C54.6144 61.1658 55.0099 61.0916 55.2962 61.2873C55.4074 61.3615 58.0729 63.1906 58.4952 65.7366C58.5528 66.0806 58.3201 66.4081 57.9719 66.4658C57.9411 66.4658 57.904 66.4719 57.8731 66.4719Z" fill="#371A45"/>
<path d="M114.324 113.836C114.225 113.836 114.118 113.805 114.029 113.746C105.528 107.927 105.633 101.405 107.217 96.9619C107.407 96.4264 107.64 95.8661 107.883 95.2708C110.01 90.1171 113.222 82.337 99.4289 67.7244C87.3541 54.9286 95.4905 35.7555 100.08 27.3039C97.9356 29.1022 94.5409 30.5606 89.1503 29.0177C88.8495 28.9333 88.5385 29.0651 88.4211 29.3391C85.1789 36.8122 79.4937 35.9079 77.2011 35.1685C77.0116 35.1046 76.7685 35.1417 76.6161 35.2591C76.4884 35.3477 76.4884 35.4424 76.4884 35.4692C76.4472 40.11 74.6263 42.345 73.104 43.3976C70.591 45.1423 67.355 44.9095 65.1592 44.1062C65.0377 44.0629 64.9203 44.1165 64.8482 44.17C64.6834 44.2854 64.5824 44.4913 64.5886 44.6767C64.7513 49.1466 63.6967 52.3394 61.4412 54.1726C58.4111 56.6424 54.3924 55.6846 54.2234 55.6434C53.9392 55.5733 53.7703 55.2891 53.8383 55.0028C53.9083 54.7185 54.1925 54.5496 54.4768 54.6176C54.5139 54.6279 58.1681 55.4889 60.782 53.3487C62.7615 51.7317 63.6864 48.8294 63.5319 44.7138C63.5113 44.1741 63.775 43.6344 64.224 43.3131C64.6154 43.0268 65.0892 42.9526 65.5176 43.1112C67.46 43.8198 70.3171 44.0423 72.4984 42.5262C74.4141 41.1997 75.3967 38.8206 75.4276 35.4548C75.4337 35.0304 75.6335 34.6556 75.992 34.3919C76.4266 34.0809 77.0116 33.9902 77.5245 34.1529C80.0313 34.9625 84.6578 35.3477 87.455 28.9065C87.7887 28.1402 88.623 27.753 89.4448 27.9919C97.1281 30.196 100.269 25.8929 101.775 23.8269L101.921 23.6271C102.127 23.347 102.508 23.2831 102.799 23.4829C103.104 23.6951 103.194 24.0968 102.999 24.4037C100.121 28.958 86.4581 52.4197 100.206 66.989C106.467 73.6279 109.899 79.5047 110.686 84.953C111.362 89.6145 109.98 92.9699 108.865 95.6663C108.628 96.2472 108.4 96.7972 108.216 97.3101C106.093 103.265 108.247 108.499 114.624 112.864C114.868 113.027 114.925 113.354 114.762 113.597C114.657 113.756 114.493 113.836 114.324 113.836Z" fill="#371A45"/>
<path d="M33.0318 68.9602C24.6585 69.0302 19.789 65.2298 17.7354 63.1164C17.8672 61.8743 18.069 60.5848 18.343 59.2583C20.3864 61.7898 24.9798 65.4563 32.0863 66.6675L32.039 64.9331C32.4139 64.9558 32.5354 64.8755 32.9103 64.8652L33.0318 68.9602Z" fill="#371A45" fill-opacity="0.349"/>
<path d="M32.5392 62.1317L32.6937 69.5472C32.704 69.9324 32.9512 70.262 33.2519 70.2723L35.9359 70.3608C36.1625 70.367 36.3355 70.1384 36.3314 69.8479L36.1934 63.8496C36.1934 63.8496 34.0285 62.7723 32.5083 60.9535C32.3765 60.7949 32.5351 61.8948 32.5392 62.1317Z" fill="white"/>
<path d="M35.9464 70.468C35.9402 70.468 35.9361 70.468 35.9299 70.468L33.248 70.3773C32.8937 70.367 32.593 69.9921 32.5868 69.5472L32.4344 62.1317C32.4344 62.07 32.4179 61.9361 32.4035 61.7795C32.3231 61.0112 32.3293 60.8897 32.4447 60.8423C32.4673 60.832 32.5353 60.8114 32.5992 60.8897C34.0864 62.6714 36.2266 63.7508 36.2472 63.7611L36.3048 63.7858L36.4428 69.848C36.447 70.0436 36.379 70.2249 36.2616 70.3403C36.173 70.4247 36.0618 70.468 35.9464 70.468ZM32.5662 61.1822C32.5724 61.3552 32.5992 61.6044 32.6136 61.763C32.6301 61.9216 32.6465 62.0638 32.6465 62.1317L32.799 69.5472C32.8051 69.8747 33.0152 70.161 33.2583 70.1713L35.9402 70.262C36.0206 70.262 36.0782 70.2249 36.1091 70.1919C36.1895 70.1178 36.2307 69.9921 36.2266 69.8603L36.0927 63.9238C35.7507 63.7384 33.9339 62.7394 32.5662 61.1822Z" fill="#371A45"/>
<path d="M36.1989 67.7407C36.1989 67.7407 33.8754 67.063 32.3594 65.2936L32.5386 62.7085C32.5345 62.4716 32.3759 61.3717 32.5139 61.5344C34.034 63.3532 36.1989 64.4326 36.1989 64.4326V67.7407Z" fill="#371A45" fill-opacity="0.349"/>
<path d="M52.3919 51.6678C52.3919 51.6678 52.0603 54.8668 52.0273 55.9708L52.3919 51.6678Z" fill="white"/>
<path d="M52.6456 51.6946L52.6662 53.8616L52.693 54.9389C52.7033 55.2932 52.7198 55.6578 52.7466 55.9915C52.7775 56.387 52.4829 56.7371 52.0854 56.768C51.6899 56.801 51.3418 56.5044 51.3109 56.1068C51.3047 56.0553 51.3047 56.008 51.315 55.9606V55.9544C51.3685 55.5692 51.4324 55.2149 51.5004 54.8503L51.7063 53.7771L52.1451 51.6472C52.1698 51.5092 52.3078 51.4207 52.4458 51.4474C52.5612 51.4619 52.6456 51.569 52.6456 51.6946Z" fill="#371A45"/>
<path d="M117.217 108.948L118.538 111.224C118.832 111.737 119.429 112.003 120.004 111.881L122.581 111.331C123.881 111.055 124.773 112.6 123.885 113.587L122.128 115.548C121.73 115.993 121.662 116.637 121.959 117.15L123.277 119.429C123.943 120.574 122.75 121.907 121.541 121.367L119.133 120.3C118.589 120.057 117.957 120.195 117.559 120.638L115.802 122.599C114.914 123.587 113.283 122.862 113.421 121.542L113.695 118.92C113.759 118.329 113.431 117.768 112.887 117.525L110.479 116.458C109.27 115.919 109.45 114.143 110.749 113.867L113.326 113.319C113.907 113.198 114.34 112.709 114.403 112.118L114.677 109.496C114.809 108.169 116.556 107.801 117.217 108.948Z" fill="#FFDA00"/>
<path d="M114.8 123.794C114.51 123.794 114.213 123.73 113.929 123.608C113.078 123.233 112.592 122.387 112.689 121.462L112.963 118.842C112.99 118.572 112.842 118.312 112.592 118.201L110.186 117.134C109.336 116.759 108.85 115.913 108.944 114.988C109.039 114.063 109.69 113.34 110.603 113.144L113.179 112.594C113.449 112.536 113.645 112.314 113.676 112.044L113.95 109.424C114.045 108.499 114.695 107.774 115.608 107.578C116.516 107.383 117.408 107.78 117.874 108.584L119.192 110.86C119.33 111.099 119.6 111.22 119.87 111.163L122.445 110.613C123.353 110.417 124.245 110.812 124.71 111.616C125.176 112.419 125.075 113.391 124.451 114.085L122.694 116.044C122.508 116.25 122.482 116.547 122.62 116.78L123.94 119.058C124.404 119.861 124.305 120.834 123.681 121.526C123.058 122.218 122.107 122.424 121.258 122.045L118.85 120.976C118.601 120.864 118.31 120.928 118.127 121.13L116.368 123.091C115.942 123.544 115.381 123.794 114.8 123.794ZM116.047 109C115.983 109 115.935 109.01 115.905 109.016C115.797 109.037 115.456 109.144 115.408 109.566L115.132 112.186C115.037 113.101 114.372 113.842 113.476 114.032L110.899 114.582C110.481 114.67 110.413 115.025 110.403 115.132C110.392 115.237 110.386 115.601 110.771 115.77L113.179 116.837C114.014 117.208 114.516 118.075 114.419 118.984L114.145 121.606C114.104 122.028 114.419 122.203 114.516 122.245C114.615 122.288 114.953 122.403 115.239 122.092L116.996 120.131C117.61 119.449 118.58 119.243 119.421 119.612L121.829 120.681C122.214 120.854 122.478 120.607 122.552 120.527C122.626 120.448 122.842 120.158 122.63 119.793L121.31 117.515C120.85 116.722 120.957 115.727 121.569 115.047L123.326 113.086C123.613 112.769 123.46 112.442 123.407 112.351C123.353 112.256 123.143 111.96 122.731 112.05L120.154 112.6C119.256 112.79 118.348 112.388 117.888 111.595L116.57 109.317C116.432 109.053 116.205 109 116.047 109Z" fill="#371A45"/>
<path d="M39.3516 70.3877L45.3169 70.1179L39.3516 70.3877Z" fill="white"/>
<path d="M39.3502 71.1066C38.9692 71.1066 38.654 70.8059 38.6314 70.4186C38.6169 70.0232 38.9218 69.6895 39.3132 69.6689L45.2785 69.399C45.676 69.3846 46.0077 69.6895 46.0283 70.0808C46.0448 70.4784 45.7378 70.81 45.3485 70.8327L39.3811 71.1005C39.3708 71.1066 39.3605 71.1066 39.3502 71.1066Z" fill="#371A45"/>
<path d="M60.0116 11.1958C59.8839 11.0002 60.7016 11.2535 60.7016 11.2535L61.2887 11.3215C61.2887 11.3215 62.3289 11.4925 62.8356 11.614C63.3485 11.7355 63.8553 11.8818 64.3517 12.0527C64.947 12.2587 65.4764 12.6171 65.8657 13.1136C67.5136 15.2167 68.7124 17.7235 69.2974 20.5187C70.4695 26.1215 69.145 30.2948 65.9934 34.227C65.9934 34.227 66.6855 31.3309 65.8286 25.4809C65.3445 22.214 64.5144 18.2344 60.0116 11.1958Z" fill="white" fill-opacity="0.698"/>
<path d="M45.1215 22.5847C45.1297 22.8298 45.1173 23.0729 45.0823 23.3139C45.0494 23.5549 44.9958 23.7897 44.9216 24.0183C44.8475 24.2449 44.7569 24.4633 44.6456 24.6713C44.5365 24.8773 44.4087 25.0689 44.2666 25.246C44.1224 25.4232 43.9659 25.5838 43.797 25.7239C43.626 25.866 43.4447 25.9855 43.2552 26.0844C43.0637 26.1853 42.8659 26.2615 42.662 26.3151C42.4581 26.3686 42.25 26.3995 42.042 26.4057C41.8319 26.4119 41.6238 26.3933 41.4158 26.3522C41.2098 26.311 41.0079 26.2471 40.8102 26.1585C40.6145 26.07 40.427 25.9608 40.2478 25.831C40.0707 25.7012 39.9038 25.5509 39.7514 25.382C39.5969 25.2131 39.4589 25.0297 39.3374 24.8299C39.2138 24.6301 39.1087 24.4179 39.0222 24.1955C38.9357 23.971 38.8677 23.7403 38.8204 23.5013C38.7709 23.2624 38.7441 23.0214 38.7359 22.7762C38.7297 22.5332 38.7421 22.2901 38.775 22.0491C38.8101 21.8081 38.8636 21.5733 38.9357 21.3447C39.0099 21.116 39.1026 20.8977 39.2117 20.6917C39.323 20.4836 39.4486 20.2921 39.5928 20.1149C39.7349 19.9378 39.8915 19.7792 40.0625 19.637C40.2334 19.497 40.4126 19.3754 40.6042 19.2766C40.7958 19.1777 40.9935 19.1015 41.1974 19.0459C41.4014 18.9923 41.6073 18.9635 41.8174 18.9573C42.0276 18.9511 42.2356 18.9676 42.4436 19.0088C42.6496 19.05 42.8515 19.1159 43.0472 19.2024C43.2449 19.291 43.4324 19.4002 43.6095 19.5299C43.7887 19.6618 43.9556 19.8101 44.108 19.979C44.2625 20.1479 44.4005 20.3312 44.522 20.531C44.6456 20.7308 44.7486 20.943 44.8372 21.1675C44.9237 21.39 44.9917 21.6207 45.0391 21.8596C45.0864 22.0986 45.1153 22.3396 45.1215 22.5847Z" fill="white"/>
<path d="M42.7412 30.3607C42.7659 30.5646 42.7536 30.7623 42.7103 30.958C42.665 31.1516 42.5888 31.3288 42.4817 31.4853C42.3766 31.6439 42.2468 31.7696 42.0944 31.8664C41.9441 31.9632 41.7813 32.0209 41.6062 32.0394C41.4332 32.06 41.2602 32.0415 41.0913 31.9818C40.9224 31.922 40.7679 31.8293 40.6278 31.6996C40.4877 31.5698 40.3744 31.4153 40.2859 31.2361C40.1994 31.0569 40.1437 30.8653 40.119 30.6635C40.0964 30.4616 40.1067 30.2618 40.152 30.0682C40.1973 29.8725 40.2735 29.6953 40.3786 29.5388C40.4857 29.3822 40.6154 29.2545 40.7658 29.1577C40.9182 29.0629 41.081 29.0053 41.2561 28.9847C41.4291 28.9641 41.6001 28.9847 41.771 29.0423C41.9399 29.1021 42.0944 29.1968 42.2345 29.3245C42.3725 29.4543 42.4879 29.6088 42.5744 29.788C42.6629 29.9672 42.7186 30.1588 42.7412 30.3607Z" fill="white"/>
<path d="M44.5888 66.546C37.1486 66.546 31.0515 62.3975 30.0421 57.767C29.9577 57.3818 30.2007 56.9966 30.5921 56.9101C30.9773 56.8256 31.3625 57.0687 31.4469 57.46C32.3595 61.658 39.1384 66.4719 48.105 64.7746C52.5439 63.9342 55.0899 61.4664 54.9849 59.5631C54.8839 57.8473 52.6449 56.6567 48.9866 56.393C42.945 55.9502 39.3073 53.9192 37.2063 49.8077C37.0271 49.4534 37.1651 49.0208 37.5194 48.8416C37.8716 48.6604 38.3042 48.7984 38.4855 49.1527C40.3373 52.7677 43.6104 54.5598 49.0978 54.9614C55.5019 55.4311 56.3567 58.2799 56.4247 59.4849C56.5895 62.4078 53.1351 65.2875 48.3851 66.1856C47.0792 66.4286 45.8124 66.546 44.5888 66.546Z" fill="#371A45"/>
<path d="M55.6982 59.7486C55.6446 62.0536 52.7773 64.6222 48.2374 65.4833C39.3677 67.1579 31.9378 62.5459 30.776 57.7506C30.7657 57.7032 30.7554 57.662 30.7451 57.6146L37.8413 49.4741C39.757 53.2107 43.0671 55.2355 49.0387 55.6742C53.7537 56.0224 55.7497 57.7877 55.6982 59.7486Z" fill="white"/>
<path d="M55.6975 59.7487C55.6439 62.0536 52.7766 64.6223 48.2367 65.4833C42.1066 66.6409 36.4296 64.8221 33.1256 62.0063L32.4541 62.7993L30.7815 63.1412C30.7815 63.1412 27.9101 61.6417 27.7041 61.1123C26.6639 58.4489 28.1305 54.7968 30.1471 54.1623C31.8485 53.6288 36.8849 62.3708 45.3158 62.7354C52.3914 63.0465 54.7932 60.4531 55.6975 59.7487Z" fill="#371A45" fill-opacity="0.349"/>
<path d="M44.5888 66.546C37.1486 66.546 31.0515 62.3975 30.0421 57.767C29.9577 57.3818 30.2007 56.9966 30.5921 56.9101C30.9773 56.8256 31.3625 57.0687 31.4469 57.46C32.3595 61.658 39.1384 66.4719 48.105 64.7746C52.5439 63.9342 55.0899 61.4664 54.9849 59.5631C54.8839 57.8473 52.6449 56.6567 48.9866 56.393C42.945 55.9502 39.3073 53.9192 37.2063 49.8077C37.0271 49.4534 37.1651 49.0208 37.5194 48.8416C37.8716 48.6604 38.3042 48.7984 38.4855 49.1527C40.3373 52.7677 43.6104 54.5598 49.0978 54.9614C55.5019 55.4311 56.3567 58.2799 56.4247 59.4849C56.5895 62.4078 53.1351 65.2875 48.3851 66.1856C47.0792 66.4286 45.8124 66.546 44.5888 66.546Z" fill="#371A45"/>
<path d="M40.9138 66.1238C40.5966 66.1238 40.3226 65.8849 40.2856 65.5636C40.2485 65.2711 39.4719 58.3479 43.9068 54.3745C44.1663 54.1417 44.5659 54.1623 44.7987 54.4218C45.0315 54.6814 45.0109 55.083 44.7513 55.3158C40.8067 58.8567 41.5359 65.3411 41.5462 65.4091C41.5895 65.7593 41.3402 66.0744 40.9921 66.1115C40.9653 66.1238 40.9385 66.1238 40.9138 66.1238Z" fill="#371A45"/>
<path d="M35.6191 57.592L33.4583 55.4312C32.8733 54.8441 32.8733 53.8884 33.4583 53.3075L34.6571 52.1066C35.2442 51.5195 36.1999 51.5195 36.7808 52.1066L38.9395 54.2694C39.5266 54.8544 39.5266 55.8123 38.9395 56.3931L37.7407 57.592C37.1557 58.1749 36.1999 58.1749 35.6191 57.592Z" fill="#22A7F0"/>
<path d="M36.6785 58.665C36.1285 58.665 35.5847 58.459 35.1686 58.043L33.0099 55.8801C32.6082 55.4784 32.3857 54.9388 32.3857 54.3682C32.3857 53.7976 32.6082 53.26 33.0099 52.8583L34.2067 51.6574C35.0409 50.8232 36.3942 50.8232 37.2285 51.6574L39.3872 53.8203C40.2214 54.6545 40.2214 56.0078 39.3872 56.8421L38.1883 58.043C37.7723 58.4549 37.2223 58.665 36.6785 58.665ZM36.0667 57.1428C36.4045 57.4827 36.9524 57.4827 37.2964 57.1428L38.4953 55.944C38.8331 55.6062 38.8331 55.0562 38.4953 54.7184L36.3345 52.5555C35.9967 52.2177 35.4487 52.2177 35.1109 52.5555L33.9121 53.7564C33.7473 53.9191 33.6587 54.1354 33.6587 54.3682C33.6587 54.6009 33.7473 54.8172 33.9121 54.982L36.0667 57.1428Z" fill="#371A45"/>
<path d="M41.2052 70.2024C41.0095 70.2024 40.8447 70.0438 40.8447 69.844V65.8376C40.8447 65.6419 41.0033 65.4791 41.2052 65.4791C41.405 65.4791 41.5636 65.6357 41.5636 65.8376V69.844C41.5636 70.0438 41.3988 70.2024 41.2052 70.2024Z" fill="#371A45"/>
<path d="M30.0219 39.3602C28.4894 40.8289 27.0805 42.4088 25.8816 44.137C24.689 45.855 23.6755 47.7418 22.73 49.6492C22.2604 50.607 21.8175 51.5793 21.3994 52.5557C20.9833 53.5341 20.5857 54.5166 20.2912 55.4992C19.6732 57.5343 19.1933 59.6065 18.8555 61.689C18.5279 63.7757 18.3632 65.885 18.4579 67.9675C18.5588 70.0438 18.9234 72.1119 19.7103 73.9719C20.491 75.832 21.7434 77.4531 23.4119 78.4892C25.07 79.5418 27.0805 79.9805 29.1135 79.997C30.1332 80.0011 31.1569 79.9125 32.1806 79.7478C32.434 79.7045 32.6935 79.6633 32.9469 79.6097L33.3424 79.5356C33.4907 79.5109 33.639 79.4779 33.7956 79.4614C34.4032 79.3832 35.0953 79.3626 35.8142 79.5994C36.1665 79.721 36.5043 79.9125 36.7906 80.1432C37.0749 80.376 37.3076 80.6417 37.4971 80.9054C37.8823 81.4389 38.1316 81.9683 38.3684 82.4853C38.8237 83.5152 39.1986 84.504 39.6311 85.4721L39.7939 85.8305C39.8474 85.9417 39.8886 86.0221 39.9422 86.1168C40.0472 86.296 40.1688 86.4649 40.3109 86.6235C40.591 86.9408 40.9453 87.2003 41.3367 87.4001C42.1277 87.808 43.0793 87.9604 44.0083 87.8821C44.9373 87.8018 45.8457 87.4846 46.5893 86.9572C47.3329 86.434 47.8994 85.6884 48.2104 84.8273C48.3731 84.3927 48.4535 83.954 48.5214 83.4308C48.5853 82.924 48.6265 82.4173 48.6389 81.9085C48.6636 80.8889 48.575 79.8693 48.3855 78.8703C48.1939 77.8712 47.8891 76.8887 47.4771 75.9679C47.0651 75.0595 46.5358 74.1717 45.8931 73.5373C45.8127 73.459 45.7283 73.389 45.65 73.321L45.5285 73.2304L45.3761 73.1315C45.1701 72.9935 44.9579 72.8658 44.7354 72.7443C44.2988 72.5012 43.8435 72.2849 43.3739 72.0995C42.4346 71.7246 41.4479 71.4548 40.4448 71.2715C39.4416 71.0964 38.422 71.0222 37.4127 71.0902C36.4054 71.1705 35.4126 71.393 34.5042 71.8668L34.498 71.8729C34.3558 71.9471 34.1828 71.8935 34.1087 71.7514C34.0448 71.6361 34.0716 71.4919 34.1663 71.4074C35.0047 70.6103 36.1191 70.1241 37.2396 69.8852C38.3684 69.6421 39.5261 69.6215 40.6611 69.7431C41.796 69.8605 42.9104 70.1447 43.9754 70.5567C44.5089 70.7689 45.0321 71.0057 45.5388 71.2859C45.7921 71.4301 46.0393 71.5763 46.2886 71.7349L46.474 71.8565L46.6799 72.011C46.8056 72.116 46.9333 72.2211 47.0445 72.3323C47.9406 73.216 48.5214 74.2294 49.0076 75.2758C49.4834 76.3284 49.8253 77.4222 50.0416 78.5427C50.2641 79.6633 50.365 80.8045 50.3424 81.9456C50.3321 82.5162 50.2909 83.0888 50.2229 83.6532C50.1529 84.197 50.0416 84.8315 49.8315 85.4123C49.4195 86.5865 48.6224 87.6493 47.6028 88.3682C46.5852 89.0974 45.3864 89.5094 44.1669 89.6206C42.9454 89.7257 41.6848 89.5403 40.5436 88.9697C39.9792 88.6855 39.4457 88.2941 39.0029 87.808C38.7804 87.5649 38.5847 87.2951 38.4158 87.0087C38.3314 86.8728 38.2531 86.7142 38.1892 86.5762L38.0141 86.2013C37.5548 85.1961 37.1593 84.1661 36.737 83.2248C36.5269 82.7593 36.2983 82.3102 36.0511 81.9724C35.7977 81.6243 35.5444 81.4183 35.2333 81.3112C34.9202 81.2061 34.498 81.1958 34.0448 81.2638C33.9336 81.2803 33.8182 81.3009 33.7008 81.3235L33.3053 81.4018C33.0314 81.4595 32.7574 81.5069 32.4773 81.5501C31.3732 81.7355 30.2382 81.8303 29.1032 81.82C27.9621 81.8035 26.8106 81.6758 25.6818 81.3915C24.5571 81.1011 23.4531 80.652 22.4561 80.0176C21.4571 79.3893 20.5651 78.586 19.836 77.6652C19.1026 76.7507 18.5218 75.731 18.0789 74.6682C17.1911 72.5383 16.8162 70.2766 16.7112 68.0519C16.6164 65.817 16.8018 63.5965 17.1499 61.4192C17.5021 59.2419 18.0418 57.1017 18.6969 55.0089C19.0347 53.9255 19.4611 52.9058 19.8998 51.9068C20.3427 50.9016 20.8082 49.9129 21.2985 48.9365C22.2872 46.9858 23.3418 45.0619 24.6354 43.2492C25.929 41.4428 27.4389 39.8134 29.0497 38.3241C29.3401 38.0543 29.7953 38.0708 30.0631 38.3612C30.3165 38.6414 30.3021 39.0904 30.0219 39.3602Z" fill="#371A45"/>
<path d="M32.1328 62.9722L31.7888 65.2875L31.5313 67.0219C24.429 65.8107 20.3855 62.2328 18.3421 59.7012C17.7612 58.9782 17.3452 58.3438 17.0588 57.872C16.7581 57.3653 16.6736 56.7474 16.8364 56.1706C17.1062 55.2148 17.9137 54.6813 18.7376 54.6813C19.2773 54.6813 19.8252 54.9141 20.2331 55.4043C22.571 58.2737 26.9317 62.1545 32.1328 62.9722Z" fill="white"/>
<path d="M31.6167 67.1434L31.5117 67.1269C24.4999 65.9322 20.4338 62.4654 18.2586 59.7712C17.7683 59.1614 17.3337 58.5435 16.9712 57.9255C16.654 57.392 16.5695 56.7411 16.7322 56.1438C16.9959 55.2086 17.7992 54.5803 18.7344 54.5803C19.3462 54.5803 19.9065 54.8502 20.3081 55.3466C21.5523 56.875 26.0984 61.9216 32.144 62.8733L32.2491 62.8877L31.6167 67.1434ZM18.7385 54.7863C17.9002 54.7863 17.1772 55.3528 16.9382 56.1973C16.7858 56.7411 16.8641 57.3344 17.1504 57.8143C17.515 58.422 17.9414 59.0296 18.4213 59.6332C20.5656 62.2862 24.5617 65.6953 31.4416 66.8941L32.0122 63.0566C25.9398 62.0576 21.3999 57.0068 20.1434 55.4743C19.7849 55.0294 19.2823 54.7863 18.7385 54.7863Z" fill="#371A45"/>
<path d="M31.8259 65.028L31.7888 65.2875L32.0216 67.0219C24.9213 65.8107 20.3855 62.2327 18.3421 59.7012C17.7612 58.9782 17.3452 58.3437 17.0588 57.872C16.7581 57.3653 16.6736 56.7474 16.8364 56.1706C16.9703 55.7009 17.2339 55.3302 17.5656 55.0768C17.5985 55.3899 17.6974 55.6948 17.856 55.9708C18.1361 56.4404 18.5584 57.081 19.1393 57.7999C21.1353 60.2718 25.0325 63.7385 31.8259 65.028Z" fill="#371A45" fill-opacity="0.349"/>
<path d="M31.5314 67.7347C31.4881 67.7347 31.4511 67.7306 31.4099 67.7244C22.0478 66.1239 17.8251 60.5582 16.4471 58.2367C16.0454 57.5611 15.9342 56.7371 16.1505 55.975C16.4306 54.976 17.2175 54.2262 18.2042 54.0202C19.1764 53.8142 20.1487 54.1623 20.7913 54.9512C22.0066 56.4364 26.4147 61.345 32.2544 62.2596C32.6458 62.3234 32.9136 62.688 32.8518 63.0794C32.7879 63.4708 32.4233 63.7386 32.0319 63.6768C25.6979 62.6819 20.9829 57.4395 19.6831 55.8596C19.3824 55.4889 18.9498 55.3303 18.5008 55.4209C18.0353 55.5156 17.6707 55.8699 17.5347 56.3622C17.4297 56.7412 17.4812 57.1594 17.683 57.4972C18.9601 59.6498 22.8821 64.8076 31.657 66.3072C32.0484 66.3772 32.3121 66.7459 32.2441 67.1373C32.1761 67.4916 31.8733 67.7347 31.5314 67.7347Z" fill="#371A45"/>
<path d="M35.5849 71.0798C35.5746 71.0798 35.5643 71.0798 35.5478 71.0798L32.8659 70.9913C32.18 70.9686 31.632 70.3403 31.6156 69.5638L31.4631 62.1483C31.4631 62.0906 31.4466 61.9732 31.4363 61.8476C31.3519 61.0175 31.3045 60.5148 31.8483 60.2821C32.1491 60.1564 32.491 60.245 32.7032 60.5004C34.1018 62.1751 36.1349 63.205 36.1555 63.2112L36.5407 63.4069L36.689 69.8377C36.6952 70.2023 36.5633 70.5463 36.3244 70.7791C36.1246 70.9748 35.865 71.0798 35.5849 71.0798ZM33.0513 69.5638L35.2533 69.6379L35.1317 64.2885C34.6518 64.0145 33.7908 63.4852 32.9091 62.7292L33.0451 69.537C33.0513 69.5432 33.0513 69.5535 33.0513 69.5638Z" fill="#371A45"/>
<path d="M55.7282 87.569C55.2318 87.569 54.7621 87.5052 54.3296 87.4001C51.8536 86.7821 50.2099 84.7367 50.2367 82.3164C50.3005 76.798 50.3314 76.2481 50.3376 76.2069C50.3685 75.8114 50.7125 75.5189 51.108 75.5457C51.4993 75.5786 51.7939 75.9164 51.7692 76.3119C51.7692 76.349 51.7321 77.004 51.6724 82.3329C51.6518 84.3453 53.1678 85.6307 54.6818 86.0097C56.3729 86.434 58.6697 85.9314 60.0518 83.2577C62.8347 77.8774 61.7636 72.4167 60.3855 70.8698C59.8191 70.2354 58.5111 69.1354 56.1072 68.9232C55.7117 68.8862 55.4213 68.5442 55.4584 68.1467C55.4955 67.7512 55.8394 67.4607 56.2349 67.4978C58.3792 67.6811 60.2311 68.5442 61.4567 69.912C63.3002 71.978 64.3137 78.1514 61.329 83.9169C59.9097 86.64 57.6604 87.569 55.7282 87.569Z" fill="#371A45"/>
<path d="M51.0515 76.8989C50.8455 76.8989 50.6498 76.798 50.5242 76.6188C50.3285 76.3284 50.4026 75.937 50.6931 75.7372C50.9732 75.5456 57.6616 71.1128 62.8462 75.008C63.1263 75.2181 63.184 75.6157 62.9739 75.8958C62.7618 76.1759 62.3663 76.2336 62.0861 76.0214C57.6245 72.6701 51.4635 76.7465 51.3996 76.7877C51.2987 76.8619 51.173 76.8989 51.0515 76.8989Z" fill="#371A45"/>
<path d="M51.0921 76.9257C50.9294 76.9257 50.7666 76.868 50.6286 76.7568C50.3382 76.5075 49.0137 76.1635 47.9611 76.0008C47.5718 75.937 47.302 75.5724 47.3658 75.181C47.4297 74.7896 47.7922 74.5198 48.1836 74.5836C48.7912 74.6784 50.8181 75.0389 51.5576 75.6671C51.8583 75.9267 51.8954 76.3757 51.6421 76.6764C51.4999 76.8351 51.2981 76.9257 51.0921 76.9257Z" fill="#371A45"/>
</svg>
