<svg width="125" height="125" viewBox="0 0 125 125" fill="none" xmlns="http://www.w3.org/2000/svg">
<path d="M62.5 12.5C61.6823 12.5 60.8633 12.5195 60.0469 12.5599C59.2292 12.6003 58.4141 12.6602 57.599 12.7409C56.7852 12.8216 55.9727 12.9206 55.1641 13.0417C54.3542 13.1615 53.5482 13.3008 52.7461 13.4609C51.9427 13.6198 51.1445 13.7995 50.3516 13.9987C49.5573 14.1966 48.7682 14.4154 47.9857 14.6523C47.2031 14.8906 46.4258 15.1471 45.6549 15.4232C44.8854 15.6979 44.1224 15.9935 43.3659 16.306C42.6094 16.6198 41.862 16.9505 41.1224 17.3008C40.3828 17.651 39.6523 18.0182 38.9297 18.4036C38.2083 18.7891 37.4961 19.1927 36.7943 19.6133C36.0924 20.0339 35.4023 20.4714 34.7214 20.9271C34.0417 21.3815 33.3724 21.8516 32.7148 22.3398C32.0573 22.8268 31.4128 23.3307 30.7799 23.849C30.1484 24.3685 29.5286 24.9023 28.9219 25.4518C28.3151 26.0026 27.7227 26.5664 27.1445 27.1445C26.5664 27.7227 26.0026 28.3151 25.4518 28.9219C24.9023 29.5286 24.3685 30.1484 23.849 30.7799C23.3307 31.4128 22.8268 32.0573 22.3398 32.7148C21.8516 33.3724 21.3815 34.0417 20.9271 34.7214C20.4714 35.4023 20.0339 36.0924 19.6133 36.7943C19.1927 37.4961 18.7891 38.2083 18.4036 38.9297C18.0182 39.6523 17.651 40.3828 17.3008 41.1224C16.9505 41.862 16.6198 42.6094 16.306 43.3659C15.9935 44.1224 15.6979 44.8854 15.4232 45.6549C15.1471 46.4258 14.8906 47.2031 14.6523 47.9857C14.4154 48.7682 14.1966 49.5573 13.9987 50.3516C13.7995 51.1445 13.6198 51.9427 13.4609 52.7461C13.3008 53.5482 13.1615 54.3542 13.0417 55.1641C12.9206 55.9727 12.8216 56.7852 12.7409 57.599C12.6602 58.4141 12.6003 59.2292 12.5599 60.0469C12.5195 60.8633 12.5 61.6823 12.5 62.5C12.5 63.3177 12.5195 64.1367 12.5599 64.9531C12.6003 65.7708 12.6602 66.5859 12.7409 67.401C12.8216 68.2148 12.9206 69.0273 13.0417 69.8359C13.1615 70.6458 13.3008 71.4518 13.4609 72.2539C13.6198 73.0573 13.7995 73.8555 13.9987 74.6484C14.1966 75.4427 14.4154 76.2318 14.6523 77.0143C14.8906 77.7969 15.1471 78.5742 15.4232 79.3451C15.6979 80.1146 15.9935 80.8776 16.306 81.6341C16.6198 82.3906 16.9505 83.138 17.3008 83.8776C17.651 84.6172 18.0182 85.3477 18.4036 86.0703C18.7891 86.7917 19.1927 87.5039 19.6133 88.2057C20.0339 88.9076 20.4714 89.5977 20.9271 90.2786C21.3815 90.9583 21.8516 91.6276 22.3398 92.2852C22.8268 92.9427 23.3307 93.5872 23.849 94.2201C24.3685 94.8516 24.9023 95.4714 25.4518 96.0781C26.0026 96.6849 26.5664 97.2773 27.1445 97.8555C27.7227 98.4336 28.3151 98.9974 28.9219 99.5482C29.5286 100.098 30.1484 100.632 30.7799 101.151C31.4128 101.669 32.0573 102.173 32.7148 102.66C33.3724 103.148 34.0417 103.618 34.7214 104.073C35.4023 104.529 36.0924 104.966 36.7943 105.387C37.4961 105.807 38.2083 106.211 38.9297 106.596C39.6523 106.982 40.3828 107.349 41.1224 107.699C41.862 108.049 42.6094 108.38 43.3659 108.694C44.1224 109.007 44.8854 109.302 45.6549 109.577C46.4258 109.853 47.2031 110.109 47.9857 110.348C48.7682 110.585 49.5573 110.802 50.3516 111.001C51.1445 111.201 51.9427 111.38 52.7461 111.539C53.5482 111.699 54.3542 111.839 55.1641 111.958C55.9727 112.079 56.7852 112.178 57.599 112.259C58.4141 112.34 59.2292 112.4 60.0469 112.44C60.8633 112.48 61.6823 112.5 62.5 112.5C63.3177 112.5 64.1367 112.48 64.9531 112.44C65.7708 112.4 66.5859 112.34 67.401 112.259C68.2148 112.178 69.0273 112.079 69.8359 111.958C70.6458 111.839 71.4518 111.699 72.2539 111.539C73.0573 111.38 73.8555 111.201 74.6484 111.001C75.4427 110.802 76.2318 110.585 77.0143 110.346C77.7969 110.109 78.5742 109.853 79.3451 109.577C80.1146 109.302 80.8776 109.007 81.6341 108.694C82.3906 108.38 83.138 108.049 83.8776 107.699C84.6172 107.349 85.3477 106.982 86.0703 106.596C86.7917 106.211 87.5039 105.807 88.2057 105.387C88.9076 104.966 89.5977 104.529 90.2786 104.073C90.9583 103.618 91.6276 103.148 92.2852 102.66C92.9427 102.173 93.5872 101.669 94.2201 101.151C94.8516 100.632 95.4714 100.098 96.0781 99.5482C96.6849 98.9974 97.2773 98.4336 97.8555 97.8555C98.4336 97.2773 98.9974 96.6849 99.5482 96.0781C100.098 95.4714 100.632 94.8516 101.151 94.2201C101.669 93.5872 102.173 92.9427 102.66 92.2852C103.148 91.6276 103.618 90.9583 104.073 90.2786C104.529 89.5977 104.966 88.9076 105.387 88.2057C105.807 87.5039 106.211 86.7917 106.596 86.0703C106.982 85.3477 107.349 84.6172 107.699 83.8776C108.049 83.138 108.38 82.3906 108.694 81.6341C109.007 80.8776 109.302 80.1146 109.577 79.3451C109.853 78.5742 110.109 77.7969 110.348 77.0143C110.585 76.2318 110.802 75.4427 111.001 74.6484C111.201 73.8555 111.38 73.0573 111.539 72.2539C111.699 71.4518 111.839 70.6458 111.958 69.8359C112.079 69.0273 112.178 68.2148 112.259 67.401C112.34 66.5859 112.4 65.7708 112.44 64.9531C112.48 64.1367 112.5 63.3177 112.5 62.5C112.5 61.681 112.479 60.8633 112.439 60.0469C112.398 59.2292 112.339 58.4128 112.258 57.599C112.177 56.7839 112.077 55.9727 111.957 55.1628C111.837 54.3529 111.697 53.5469 111.538 52.7448C111.378 51.9427 111.198 51.1445 110.999 50.3503C110.799 49.556 110.582 48.7682 110.344 47.9844C110.107 47.2018 109.85 46.4245 109.574 45.6549C109.298 44.8841 109.004 44.1211 108.69 43.3646C108.378 42.6094 108.046 41.8607 107.695 41.1211C107.345 40.3815 106.978 39.651 106.592 38.9297C106.206 38.207 105.803 37.4961 105.383 36.7943C104.961 36.0924 104.523 35.401 104.069 34.7201C103.615 34.0404 103.143 33.3711 102.656 32.7135C102.168 32.0573 101.665 31.4115 101.146 30.7799C100.626 30.1471 100.092 29.5273 99.543 28.9219C98.9935 28.3151 98.4297 27.7227 97.8503 27.1445C97.2721 26.5651 96.6797 26.0013 96.0742 25.4518C95.4675 24.9023 94.8477 24.3685 94.2148 23.849C93.5833 23.3294 92.9375 22.8268 92.2812 22.3385C91.6237 21.8516 90.9544 21.3802 90.2747 20.9258C89.5938 20.4714 88.9036 20.0339 88.2018 19.6133C87.5 19.1927 86.7878 18.7891 86.0664 18.4036C85.3451 18.0182 84.6146 17.6497 83.875 17.3008C83.1354 16.9505 82.3867 16.6185 81.6315 16.306C80.875 15.9922 80.112 15.6979 79.3425 15.4232C78.5716 15.1471 77.7943 14.8906 77.0117 14.6523C76.2292 14.4154 75.4401 14.1966 74.6471 13.9987C73.8529 13.7995 73.056 13.6198 72.2526 13.4609C71.4505 13.3008 70.6445 13.1615 69.8359 13.0417C69.026 12.9206 68.2148 12.8203 67.3997 12.7409C66.5859 12.6602 65.7695 12.6003 64.9531 12.5599C64.1354 12.5195 63.3177 12.5 62.5 12.5ZM39.4688 37.8281H85.5312C86.0182 37.8281 86.5026 37.8711 86.9831 37.957C87.4622 38.043 87.931 38.1706 88.388 38.3398C88.8451 38.5091 89.2839 38.7174 89.7044 38.9648C90.125 39.2122 90.5195 39.4948 90.8893 39.8125C91.2591 40.1315 91.5977 40.4792 91.9062 40.8568C92.2135 41.2357 92.4857 41.638 92.7214 42.0651C92.957 42.4909 93.1536 42.9349 93.3112 43.3971C93.4688 43.8581 93.5833 44.3307 93.6562 44.8125C93 45.1719 67.6875 59.7656 66.0156 60.7188C65.4792 61.0221 64.9141 61.2526 64.3177 61.4089C63.7214 61.5664 63.1159 61.6445 62.5 61.6445C61.8841 61.6445 61.2786 61.5664 60.6823 61.4089C60.0859 61.2526 59.5208 61.0221 58.9844 60.7188C57.3438 59.7812 31.9688 45.3281 31.3438 44.9375C31.3763 44.694 31.4206 44.4518 31.474 44.2122C31.5286 43.9727 31.5938 43.737 31.6693 43.5026C31.7448 43.2695 31.8307 43.0391 31.9271 42.8125C32.0234 42.5872 32.1302 42.3659 32.2461 42.1497C32.362 41.9323 32.4883 41.7214 32.6237 41.5169C32.7578 41.3112 32.9023 41.1133 33.056 40.9206C33.2083 40.7279 33.3698 40.543 33.5391 40.3659C33.7096 40.1875 33.8867 40.0182 34.0716 39.8568C34.2565 39.694 34.4479 39.5417 34.6471 39.3971C34.8451 39.2526 35.0495 39.1172 35.2604 38.9909C35.4714 38.8646 35.6875 38.7487 35.9089 38.6419C36.1302 38.5352 36.3555 38.4388 36.5859 38.3516C36.8164 38.2656 37.0495 38.1901 37.2865 38.1237C37.5221 38.0586 37.7617 38.0039 38.0039 37.9596C38.2448 37.9167 38.4883 37.8828 38.7331 37.8607C38.9779 37.8385 39.2227 37.8281 39.4688 37.8281ZM93.75 78.9531C93.75 79.2227 93.7357 79.4909 93.7096 79.7578C93.6823 80.026 93.6432 80.2917 93.5898 80.556C93.5378 80.8203 93.4727 81.0807 93.3932 81.3372C93.3151 81.5951 93.2253 81.8477 93.1211 82.0964C93.0182 82.3451 92.9036 82.5885 92.776 82.8255C92.6497 83.0625 92.5117 83.293 92.362 83.5169C92.2122 83.7409 92.0521 83.9557 91.8815 84.1641C91.7109 84.3724 91.53 84.5716 91.3398 84.7617C91.1497 84.9518 90.9505 85.1328 90.7422 85.3034C90.5339 85.474 90.319 85.6341 90.0951 85.7839C89.8711 85.9336 89.6406 86.0716 89.4036 86.1979C89.1667 86.3255 88.9232 86.4401 88.6745 86.543C88.4258 86.6471 88.1732 86.737 87.9154 86.8151C87.6589 86.8945 87.3984 86.9596 87.1341 87.0117C86.8698 87.0651 86.6042 87.1042 86.3359 87.1315C86.069 87.1576 85.8008 87.1719 85.5312 87.1719H39.4688C39.1992 87.1719 38.931 87.1576 38.6641 87.1315C38.3958 87.1042 38.1302 87.0651 37.8659 87.0117C37.6016 86.9596 37.3411 86.8945 37.0846 86.8151C36.8268 86.737 36.5742 86.6471 36.3255 86.543C36.0768 86.4401 35.8333 86.3255 35.5964 86.1979C35.3594 86.0716 35.1289 85.9336 34.9049 85.7839C34.681 85.6341 34.4661 85.474 34.2578 85.3034C34.0495 85.1328 33.8503 84.9518 33.6602 84.7617C33.4701 84.5716 33.2891 84.3724 33.1185 84.1641C32.9479 83.9557 32.7878 83.7409 32.638 83.5169C32.4883 83.293 32.3503 83.0625 32.224 82.8255C32.0964 82.5885 31.9818 82.3451 31.8789 82.0964C31.7747 81.8477 31.6849 81.5951 31.6068 81.3372C31.5273 81.0807 31.4622 80.8203 31.4102 80.556C31.3568 80.2917 31.3177 80.026 31.2904 79.7578C31.2643 79.4909 31.25 79.2227 31.25 78.9531V48.6719L57.375 63.5781C57.7643 63.7995 58.1667 63.9961 58.5807 64.1654C58.9961 64.3346 59.4193 64.4766 59.8529 64.5924C60.2865 64.707 60.7253 64.793 61.1693 64.8503C61.6133 64.9089 62.0599 64.9375 62.5078 64.9375C62.9557 64.9375 63.4023 64.9089 63.8464 64.8503C64.2904 64.793 64.7292 64.707 65.1628 64.5924C65.5964 64.4766 66.0195 64.3346 66.4349 64.1654C66.849 63.9961 67.2513 63.7995 67.6406 63.5781L93.75 48.5469V78.9531Z" fill="white"/>
</svg>
