<svg width="125" height="125" viewBox="0 0 125 125" fill="none" xmlns="http://www.w3.org/2000/svg">
<path d="M62.5 12.5C34.8854 12.5 12.5 34.8854 12.5 62.5C12.5 83.6849 25.6797 101.775 44.2799 109.06C43.8451 105.105 43.4453 99.0352 44.4544 94.7201C45.3646 90.8203 50.3151 69.8646 50.3151 69.8646C50.3151 69.8646 48.8203 66.8698 48.8203 62.4453C48.8203 55.4896 52.8503 50.3047 57.8646 50.3047C62.1302 50.3047 64.1901 53.5104 64.1901 57.3451C64.1901 61.6354 61.4596 68.0495 60.0495 73.9896C58.8698 78.9701 62.5456 83.0247 67.4544 83.0247C76.3398 83.0247 83.1706 73.6549 83.1706 60.1302C83.1706 48.1602 74.5703 39.7904 62.2852 39.7904C48.0599 39.7904 39.7096 50.4596 39.7096 61.4896C39.7096 65.7852 41.3646 70.3945 43.4297 72.8997C43.8398 73.3945 43.8945 73.8294 43.7747 74.3346C43.3945 75.9154 42.5547 79.3099 42.3906 80.0052C42.1745 80.9206 41.6654 81.1146 40.7201 80.6706C34.4753 77.7604 30.5703 68.6302 30.5703 61.2995C30.5703 45.5299 42.0299 31.0404 63.6094 31.0404C80.9544 31.0404 94.4349 43.3997 94.4349 59.9206C94.4349 77.155 83.5703 91.0195 68.4896 91.0195C63.4245 91.0195 58.6602 88.3854 57.0299 85.28C57.0299 85.28 54.5195 94.8255 53.9154 97.1706C52.7852 101.51 49.7396 106.96 47.7005 110.28C52.375 111.715 57.3451 112.5 62.5 112.5C90.1094 112.5 112.5 90.1094 112.5 62.5C112.5 34.8906 90.1146 12.5 62.5 12.5Z" fill="white"/>
</svg>
